<?xml version="1.0" encoding="utf-8"?>
<!-- Generator: Adobe Illustrator 19.2.1, SVG Export Plug-In . SVG Version: 6.00 Build 0)  -->
<svg version="1.1" id="Warstwa_1" xmlns="http://www.w3.org/2000/svg" xmlns:xlink="http://www.w3.org/1999/xlink" x="0px" y="0px"
	 width="216.8px" height="216.8px" viewBox="0 0 216.8 216.8" style="enable-background:new 0 0 216.8 216.8;" xml:space="preserve"
	>
<style type="text/css">
	.st0{fill:#FFFFFF;}
	.st1{fill:#424243;}
	.st2{fill:#CA3427;}
	.st3{fill:#E54325;}
	.st4{fill:#B82825;}
	.st5{fill:#F0583E;}
	.st6{fill:#353535;}
	.st7{fill:#B02B27;}
	.st8{fill:#C53728;}
	.st9{fill:#565556;}
	.st10{opacity:0.2;fill:url(#SVGID_1_);}
	.st11{fill:none;stroke:#EDEDED;stroke-width:3;stroke-miterlimit:10;}
	.st12{fill:#FFAA22;}
	.st13{fill:#EDEDED;}
	.st14{opacity:0.4;fill:#FFFFFF;}
</style>
<g>
	<g>
		<path class="st0" d="M101.3,205c-0.3,0-0.6-0.1-0.9-0.3l-65.3-48.8c-0.7-0.5-0.8-1.4-0.3-2.1l18.8-25.5c-0.1-0.7-0.2-1.5-0.2-2.1
			c-1.2-18.9,10.2-36.1,27.7-42.3c-0.4-1.8-0.6-3.6-0.8-5.3c-0.1-0.3-0.1-0.6-0.1-1c-7.3-39.4-9.3-53.6-9.9-58.2c0-0.1,0-0.4,0-0.4
			c0,0-0.1,0-0.1,0c-2.1,0-4.1-1.2-4.9-3.1c-0.2-0.4-0.2-0.7,0-1.1c0.1-0.4,0.4-0.6,0.8-0.8l7.2-3.1c0.2-0.1,0.4-0.1,0.6-0.1
			c0.6,0,1.1,0.3,1.4,0.9c0.9,2,0.4,4.3-0.9,5.8l33.4,33.4c1.2,0.9,9.4,7.7,5.4,20.1c-0.3,0.8-0.5,1.5-0.8,2.1
			c-1,5.2-0.1,19.7,6.8,32.3c0.4,0.2,0.7,0.6,0.7,1.1c3.7,6.2,8.5,10.9,14.3,14.1c0.6,0.3,1.1,0.6,1.8,0.9l31.4-57.3
			c0.3-0.5,0.8-0.8,1.3-0.8c0,0,0,0,0.1,0c0.6,0,1.1,0.4,1.3,0.9l9.6,21.7c0,0.1,0.1,0.1,0.1,0.2L201,135c0.2,0.4,0.2,0.8,0,1.2
			c0,0,0,0,0,0.1c-0.1,0.3-0.3,0.5-0.6,0.6c-0.1,0.1-0.3,0.1-0.4,0.2c-0.5,0.2-1.1,0.4-1.7,0.7l-0.4,0.1c-0.6,0.2-1.3,0.4-1.9,0.6
			l-0.3,0.1c-0.6,0.1-1.2,0.3-1.8,0.4c-0.1,0-0.2,0.1-0.3,0.1c-0.8,0.1-1.4,0.2-1.9,0.3c-0.1,0-0.2,0-0.4,0.1l-0.5,0
			c-0.5,0-0.9,0.1-1.4,0.1c-0.2,0-0.3,0-0.4,0c-0.4,0-0.8,0-1.1-0.1c-0.2,0-0.4,0-0.6,0c-0.2,0-0.3,0-0.5-0.1
			c-0.6,0-1.3-0.1-1.9-0.2c-0.7-0.1-1.3-0.2-2-0.4l-0.2,0c-0.7-0.1-1.3-0.3-2-0.5c0,0-0.1,0-0.1,0c-1.3-0.4-2.6-0.9-3.8-1.5
			c-0.1,0-0.1,0-0.2-0.1c-2.6-1.3-5-2.9-7.1-4.8l-9.7,16c-0.1,0.1-0.1,0.2-0.2,0.3l-57.3,56.5C102.1,204.9,101.7,205,101.3,205z"/>
		<path class="st0" d="M73.8,12.2c0.8,1.9,0,4.1-1.8,5.1L106.6,52c0,0,9,6.2,5,18.5c-0.2,0.7-0.5,1.5-0.8,2.1
			c-1.2,5.7-0.1,21,7.2,34.1l0.1,0c3.5,6.1,8.5,11.5,15.2,15.2c1,0.5,2,1,3.1,1.5l32.1-58.6l9.6,21.9c0,0,0,0,0,0l14.2,32.4l0.1,0.3
			l7.1,16.2c0,0,0,0,0,0l0,0l0,0c-0.6,0.3-1.2,0.5-1.8,0.7c-0.1,0-0.3,0.1-0.4,0.1c-0.6,0.2-1.2,0.4-1.8,0.5c-0.1,0-0.2,0-0.3,0.1
			c-0.6,0.1-1.1,0.3-1.7,0.4c-0.1,0-0.2,0.1-0.3,0.1c-0.6,0.1-1.2,0.2-1.8,0.3c-0.1,0-0.2,0-0.3,0.1c-0.6,0.1-1.2,0.1-1.8,0.2
			c0,0,0,0,0,0c-0.1,0-0.2,0-0.3,0c-0.5,0-1.1-0.1-1.6-0.1c-0.1,0-0.2-0.1-0.3-0.1c-0.6,0-1.3-0.1-1.9-0.2c0,0,0,0,0,0
			c-0.6-0.1-1.3-0.2-1.9-0.3c-0.1,0-0.1,0-0.2,0c-0.6-0.1-1.3-0.3-1.9-0.5c0,0-0.1,0-0.1,0c-1.3-0.4-2.5-0.8-3.7-1.4
			c0,0-0.1,0-0.1,0c-3-1.4-5.8-3.4-8.1-5.9L158.7,147l-57.3,56.5L36,154.7l19-25.8l0.1,0c-0.1-1-0.2-1.9-0.3-2.8
			c-1.2-18.9,10.8-35.7,28-41.2c-0.5-2.2-0.8-4.4-1-6.5c-0.1-0.3-0.1-0.6-0.1-0.9l0,0C73,30.9,71.9,20,71.5,17.5
			c-0.5,0.2-0.9,0.2-1.4,0.2c-1.5,0-2.9-0.9-3.6-2.4L73.8,12.2 M118.1,106.6l0.2,0L118.1,106.6C118.1,106.6,118.1,106.6,118.1,106.6
			 M73.8,9.2c-0.4,0-0.8,0.1-1.2,0.2l-7.2,3.1c-0.7,0.3-1.3,0.9-1.6,1.7c-0.3,0.7-0.3,1.6,0,2.3c0.9,2.1,2.9,3.6,5.1,4.1
			c0.8,5.4,2.9,20.1,9.8,57.2c0,0.3,0.1,0.7,0.1,1c0.1,1.3,0.3,2.7,0.5,4.1c-17.5,6.8-28.7,24.3-27.5,43.4c0,0.5,0.1,1.1,0.1,1.6
			l-18.4,25c-1,1.3-0.7,3.2,0.6,4.2l65.3,48.8c0.5,0.4,1.2,0.6,1.8,0.6c0.8,0,1.5-0.3,2.1-0.9l57.3-56.5c0.2-0.2,0.3-0.4,0.5-0.6
			l8.8-14.5c1.9,1.5,3.9,2.9,6.2,3.9c0.1,0,0.1,0.1,0.2,0.1c1.3,0.6,2.6,1.1,4,1.5l0.1,0c0.7,0.2,1.4,0.4,2.1,0.5l0.1,0
			c0.8,0.2,1.4,0.3,2.1,0.4c0.6,0.1,1.2,0.1,1.9,0.2c0.2,0,0.4,0.1,0.6,0.1c0.2,0,0.3,0,0.5,0c0.4,0,0.8,0.1,1.3,0.1
			c0.2,0,0.3,0,0.5,0c0.5,0,1-0.1,1.4-0.1l0.5,0c0.2,0,0.3,0,0.5-0.1c0.7-0.1,1.4-0.2,1.9-0.3c0.1,0,0.3-0.1,0.4-0.1
			c0.6-0.1,1.2-0.2,1.8-0.4l0.1,0c0.1,0,0.2,0,0.2-0.1c0.6-0.2,1.3-0.4,2-0.6c0.1,0,0.2-0.1,0.4-0.1l0.1,0c0.6-0.2,1.2-0.4,1.7-0.7
			c0.2-0.1,0.4-0.2,0.6-0.3c1-0.6,1.5-1.6,1.5-2.7c0-0.4-0.1-0.8-0.3-1.1l-7.1-16.2l-0.1-0.3l-14.2-32.4c0-0.1-0.1-0.2-0.1-0.2
			l-9.5-21.7c-0.5-1-1.5-1.7-2.6-1.8c0,0-0.1,0-0.1,0c-1.1,0-2.1,0.6-2.6,1.6l-30.7,56.1c-0.2-0.1-0.3-0.2-0.5-0.2
			c-5.5-3-10.1-7.5-13.6-13.3c-0.1-0.6-0.5-1.2-1-1.6c-6.5-12.1-7.4-25.7-6.5-30.9c0.3-0.6,0.5-1.3,0.8-2.1
			c3.6-11.1-2.2-18.9-5.9-21.7L76.2,17.3c1.1-1.8,1.3-4.2,0.4-6.2C76,9.9,74.9,9.2,73.8,9.2L73.8,9.2z"/>
	</g>
	<g>
		<g>
			<path class="st1" d="M66.9,132.3l-3.7-24.4L92.4,91c13.3,10.7,11.6,16.8,44,32.4L122.7,152L66.9,132.3z"/>
			<g>
				<g>
					<g>
						<polygon class="st2" points="67.2,152.6 36,154.5 101.3,203.4 						"/>
						<polygon class="st2" points="128.1,148.8 101.3,203.4 158.6,146.9 158.6,146.9 158.6,146.9 						"/>
					</g>
					<polygon class="st3" points="136.4,123.4 55,128.4 36,154.5 67.2,152.6 128.1,148.8 158.6,146.9 					"/>
					<polygon class="st4" points="67.2,152.6 101.3,203.4 128.1,148.8 					"/>
					<polygon class="st5" points="96.1,125.9 55,128.4 67.2,152.6 96.1,125.9 128.1,148.8 136.4,123.4 					"/>
				</g>
			</g>
			<path class="st3" d="M106.6,52L71.4,16.7c0,0-0.2-0.7,10.4,60.7C82.8,50.7,106.6,52,106.6,52z"/>
			<polygon class="st6" points="199.7,135.7 168.5,64.8 136.4,123.4 158.6,146.9 176.8,106.5 			"/>
			<polygon class="st7" points="136.4,123.4 184.4,104.6 158.6,146.9 			"/>
			<path class="st8" d="M164.5,121.9c5.9,13.5,21.7,19.6,35.2,13.7l-21.5-48.9C164.7,92.7,158.5,108.4,164.5,121.9z"/>
			<polygon class="st9" points="96.1,125.9 71.4,109.3 118.2,106.4 			"/>
			<path class="st6" d="M78.2,142.2c-4.8-4.3-7.8-10.2-8.2-17.2c-0.9-14,9.8-26.1,23.8-27c0.1,0,0.1,0,0.2,0l-0.9-15
				c-0.1,0-0.2,0-0.3,0c-22.3,1.4-39.3,20.6-37.9,42.9c0.7,10.6,5.3,19.9,12.4,26.7L78.2,142.2z"/>
			<path class="st7" d="M199.7,135.6l-7.3-16.5l-23.1,10.2C176.8,137.4,188.9,140.3,199.7,135.6z"/>
			<path class="st6" d="M81.8,77.4c1.2,18.5,12.4,40,54.6,46c-26.6-11.3-28.1-49.5-24.8-53C102.4,81.4,92.9,82.2,81.8,77.4z"/>
			
				<ellipse transform="matrix(0.9981 -6.148419e-02 6.148419e-02 0.9981 -6.1126 11.2085)" class="st0" cx="179.1" cy="104.9" rx="2.3" ry="2.3"/>
			<path class="st6" d="M71.7,17.4c2-0.9,2.9-3.2,2-5.2l-7.2,3.2C67.4,17.4,69.7,18.3,71.7,17.4z"/>
			<path class="st6" d="M100.5,70.1c-2,0.9-2.9,3.2-2,5.2l7.2-3.2C104.8,70.1,102.5,69.2,100.5,70.1z"/>
		</g>
		<g>
			<g>
				<path class="st0" d="M85.8,105.3c-0.3,0-0.6,0-0.8,0.1c-0.3-0.4-0.7-0.6-1.2-0.7c-0.6,0-1.1,0.3-1.5,0.7
					c-0.2-0.1-0.5-0.1-0.7-0.1c-0.3,0-0.6,0-0.8,0c-0.3-0.2-0.6-0.4-1-0.4c-0.3,0-0.6,0.1-0.9,0.2c-0.6-0.4-1.2-0.7-1.9-0.7
					c-0.3,0-0.6,0-0.9,0.1c-0.3-0.4-0.8-0.6-1.3-0.7c-0.4,0-0.7,0.1-1.1,0.3c-0.4-0.2-0.8-0.3-1.2-0.3c-1.9-0.1-3.4,1.3-3.5,3
					s1.3,3.3,3.2,3.4c0.5,0,0.9,0,1.3-0.2c0.6,1.2,1.8,2.1,3.2,2.2c1.5,0.1,2.8-0.8,3.5-2c0.4,0.2,0.8,0.3,1.3,0.3
					c0.6,0,1.2-0.1,1.7-0.3c0.5,0.9,1.4,1.5,2.5,1.6c1.7,0.1,3.2-1.3,3.3-3.1C88.8,106.9,87.5,105.3,85.8,105.3z"/>
				
					<linearGradient id="SVGID_1_" gradientUnits="userSpaceOnUse" x1="363.9178" y1="612.3347" x2="363.9178" y2="606.0133" gradientTransform="matrix(0.9984 5.656292e-02 -5.656292e-02 0.9984 -250.0172 -521.6788)">
					<stop  offset="5.150320e-02" style="stop-color:#FFFFFF"/>
					<stop  offset="0.405" style="stop-color:#FDFDFD"/>
					<stop  offset="0.5323" style="stop-color:#F6F6F6"/>
					<stop  offset="0.623" style="stop-color:#EBEBEB"/>
					<stop  offset="0.6965" style="stop-color:#DADADA"/>
					<stop  offset="0.7593" style="stop-color:#C4C4C4"/>
					<stop  offset="0.815" style="stop-color:#A8A8A8"/>
					<stop  offset="0.8654" style="stop-color:#888888"/>
					<stop  offset="0.9117" style="stop-color:#626262"/>
					<stop  offset="0.9548" style="stop-color:#373737"/>
					<stop  offset="0.993" style="stop-color:#090909"/>
					<stop  offset="1" style="stop-color:#000000"/>
				</linearGradient>
				<path class="st10" d="M85.5,106c-0.3,0-0.5,0-0.8,0.1c-0.3-0.4-0.7-0.6-1.2-0.6c-0.6,0-1.1,0.2-1.4,0.7
					c-0.2-0.1-0.4-0.1-0.7-0.1c-0.3,0-0.5,0-0.8,0c-0.3-0.2-0.6-0.4-1-0.4c-0.3,0-0.6,0.1-0.9,0.2c-0.5-0.4-1.2-0.6-1.9-0.7
					c-0.3,0-0.6,0-0.9,0.1c-0.3-0.4-0.8-0.6-1.3-0.6c-0.4,0-0.7,0.1-1,0.2c-0.4-0.2-0.8-0.3-1.2-0.3c-1.8-0.1-3.3,1.2-3.4,2.8
					s1.3,3.1,3,3.2c0.4,0,0.8,0,1.2-0.2c0.5,1.2,1.7,2,3,2.1c1.4,0.1,2.7-0.7,3.3-1.9c0.4,0.2,0.8,0.3,1.2,0.3
					c0.6,0,1.1-0.1,1.6-0.3c0.5,0.8,1.4,1.4,2.4,1.5c1.7,0.1,3.1-1.2,3.2-2.9C88.4,107.5,87.1,106.1,85.5,106z"/>
				<path class="st0" d="M88.4,109.6c0,0-4.1,0.3-9.7,0c-5.5-0.3-9.6-1-9.6-1c-1.8,4.7-2.4,9.5-0.8,18.4c1.5,8.9,2.2,14.5,1.9,19.5
					c-0.3,5.1-1.5,4.8-1.9,10.9c0,0.7,3.4,1.5,7.6,1.7c4.2,0.2,7.7-0.1,7.8-0.8c0.3-6.1-0.9-6-0.7-11c0.3-5.1,1.6-10.5,4.1-19.2
					C89.7,119.3,89.7,114.5,88.4,109.6z"/>
				<path class="st11" d="M88.4,109.6c0,0-4.1,0.3-9.7,0c-5.5-0.3-9.6-1-9.6-1c-1.8,4.7-2.4,9.5-0.8,18.4c1.5,8.9,2.2,14.5,1.9,19.5
					c-0.3,5.1-1.5,4.8-1.9,10.9c0,0.7,3.4,1.5,7.6,1.7c4.2,0.2,7.7-0.1,7.8-0.8c0.3-6.1-0.9-6-0.7-11c0.3-5.1,1.6-10.5,4.1-19.2
					C89.7,119.3,89.7,114.5,88.4,109.6z"/>
				<path class="st12" d="M87.8,116c0,0-4.1,0.3-9.3,0c-5.2-0.3-9.3-1-9.3-1c-0.4,6.4,0.6,9.6,1.9,18.8c1.2,9.1,0.3,17.1,0.3,17.1
					c0,0.5,2.2,1.2,5,1.3c2.8,0.2,5.1-0.3,5.1-0.7c0,0,0-8,2.3-16.9C86,125.5,87.4,122.4,87.8,116z"/>
				<path class="st0" d="M71.5,114.5c0,0-1.5,6.6,1.3,17c0,0-1.1-11,0.7-16.9L71.5,114.5z"/>
				<g>
					<g>
						<path class="st13" d="M76.3,154.3c-3.5-0.2-5.7-1-5.7-1c-0.2,0.8-0.4,1.2-0.5,2.9c0,0.5,2.7,1.2,6,1.4
							c3.4,0.2,6.1-0.2,6.1-0.7c0.1-1.7,0-2.1-0.2-2.9C82,154,79.8,154.5,76.3,154.3z"/>
					</g>
				</g>
			</g>
			<g>
				
					<ellipse transform="matrix(0.2935 -0.956 0.956 0.2935 -57.5979 164.3347)" class="st14" cx="82.4" cy="121.1" rx="1.1" ry="1.1"/>
				
					<ellipse transform="matrix(0.2935 -0.956 0.956 0.2935 -61.17 162.6238)" class="st14" cx="79.4" cy="122.7" rx="0.7" ry="0.7"/>
				
					<ellipse transform="matrix(0.2935 -0.956 0.956 0.2935 -62.0448 165.6731)" class="st14" cx="81.1" cy="124.8" rx="0.6" ry="0.6"/>
			</g>
			<g>
				
					<ellipse transform="matrix(5.656292e-02 -0.9984 0.9984 5.656292e-02 -35.2296 183.4914)" class="st13" cx="79.5" cy="110.4" rx="1.8" ry="1.8"/>
				
					<ellipse transform="matrix(5.656292e-02 -0.9984 0.9984 5.656292e-02 -34.645 183.4867)" class="st0" cx="79.8" cy="110.1" rx="1.8" ry="1.8"/>
			</g>
			<g>
				
					<ellipse transform="matrix(5.656292e-02 -0.9984 0.9984 5.656292e-02 -32.7082 185.3574)" class="st13" cx="81.7" cy="110" rx="1.5" ry="1.7"/>
				
					<ellipse transform="matrix(5.656292e-02 -0.9984 0.9984 5.656292e-02 -32.6472 184.8414)" class="st0" cx="81.5" cy="109.7" rx="1.5" ry="1.7"/>
			</g>
			<g>
				
					<ellipse transform="matrix(5.656292e-02 -0.9984 0.9984 5.656292e-02 -29.5951 188.967)" class="st13" cx="85.2" cy="110.1" rx="1.7" ry="2.3"/>
				
					<ellipse transform="matrix(5.656292e-02 -0.9984 0.9984 5.656292e-02 -29.5797 188.3115)" class="st0" cx="84.9" cy="109.8" rx="1.7" ry="2.3"/>
			</g>
		</g>
	</g>
</g>
</svg>
