<svg id="Warstwa_1" xmlns="http://www.w3.org/2000/svg" width="216.8" height="216.8" viewBox="0 0 216.8 216.8"><style>.st0{fill:#FFFFFF;} .st1{fill:#424243;} .st2{fill:#CA3427;} .st3{fill:#E54325;} .st4{fill:#B82825;} .st5{fill:#F0583E;} .st6{fill:#353535;} .st7{fill:#B02B27;} .st8{fill:#C53728;} .st9{fill:#565556;} .st10{opacity:0.2;fill:url(#SVGID_1_);} .st11{fill:none;stroke:#EDEDED;stroke-width:3;stroke-miterlimit:10;} .st12{fill:#FFAA22;} .st13{fill:#EDEDED;} .st14{opacity:0.4;fill:#FFFFFF;}</style><path class="st0" d="M101.3 205c-.3 0-.6-.1-.9-.3l-65.3-48.8c-.7-.5-.8-1.4-.3-2.1l18.8-25.5c-.1-.7-.2-1.5-.2-2.1-1.2-18.9 10.2-36.1 27.7-42.3-.4-1.8-.6-3.6-.8-5.3-.1-.3-.1-.6-.1-1-7.3-39.4-9.3-53.6-9.9-58.2V19h-.1c-2.1 0-4.1-1.2-4.9-3.1-.2-.4-.2-.7 0-1.1.1-.4.4-.6.8-.8l7.2-3.1c.2-.1.4-.1.6-.1.6 0 1.1.3 1.4.9.9 2 .4 4.3-.9 5.8l33.4 33.4c1.2.9 9.4 7.7 5.4 20.1-.3.8-.5 1.5-.8 2.1-1 5.2-.1 19.7 6.8 32.3.4.2.7.6.7 1.1 3.7 6.2 8.5 10.9 14.3 14.1.6.3 1.1.6 1.8.9l31.4-57.3c.3-.5.8-.8 1.3-.8h.1c.6 0 1.1.4 1.3.9l9.6 21.7c0 .1.1.1.1.2L201 135c.2.4.2.8 0 1.2v.1c-.1.3-.3.5-.6.6-.1.1-.3.1-.4.2-.5.2-1.1.4-1.7.7l-.4.1c-.6.2-1.3.4-1.9.6l-.3.1c-.6.1-1.2.3-1.8.4-.1 0-.2.1-.3.1-.8.1-1.4.2-1.9.3-.1 0-.2 0-.4.1h-.5c-.5 0-.9.1-1.4.1h-.4c-.4 0-.8 0-1.1-.1h-.6c-.2 0-.3 0-.5-.1-.6 0-1.3-.1-1.9-.2-.7-.1-1.3-.2-2-.4h-.2c-.7-.1-1.3-.3-2-.5h-.1c-1.3-.4-2.6-.9-3.8-1.5-.1 0-.1 0-.2-.1-2.6-1.3-5-2.9-7.1-4.8l-9.7 16c-.1.1-.1.2-.2.3l-57.3 56.5c-.2.2-.6.3-1 .3z"/><path class="st0" d="M73.8 12.2c.8 1.9 0 4.1-1.8 5.1L106.6 52s9 6.2 5 18.5c-.2.7-.5 1.5-.8 2.1-1.2 5.7-.1 21 7.2 34.1h.1c3.5 6.1 8.5 11.5 15.2 15.2 1 .5 2 1 3.1 1.5l32.1-58.6 9.6 21.9 14.2 32.4.1.3 7.1 16.2c-.6.3-1.2.5-1.8.7-.1 0-.3.1-.4.1-.6.2-1.2.4-1.8.5-.1 0-.2 0-.3.1-.6.1-1.1.3-1.7.4-.1 0-.2.1-.3.1l-1.8.3c-.1 0-.2 0-.3.1-.6.1-1.2.1-1.8.2h-.3c-.5 0-1.1-.1-1.6-.1-.1 0-.2-.1-.3-.1-.6 0-1.3-.1-1.9-.2-.6-.1-1.3-.2-1.9-.3h-.2c-.6-.1-1.3-.3-1.9-.5h-.1c-1.3-.4-2.5-.8-3.7-1.4h-.1c-3-1.4-5.8-3.4-8.1-5.9L158.7 147l-57.3 56.5L36 154.7l19-25.8h.1c-.1-1-.2-1.9-.3-2.8-1.2-18.9 10.8-35.7 28-41.2-.5-2.2-.8-4.4-1-6.5-.1-.3-.1-.6-.1-.9-8.7-46.6-9.8-57.5-10.2-60-.5.2-.9.2-1.4.2-1.5 0-2.9-.9-3.6-2.4l7.3-3.1m44.3 94.4h.2-.2M73.8 9.2c-.4 0-.8.1-1.2.2l-7.2 3.1c-.7.3-1.3.9-1.6 1.7-.3.7-.3 1.6 0 2.3.9 2.1 2.9 3.6 5.1 4.1.8 5.4 2.9 20.1 9.8 57.2 0 .3.1.7.1 1 .1 1.3.3 2.7.5 4.1-17.5 6.8-28.7 24.3-27.5 43.4 0 .5.1 1.1.1 1.6l-18.4 25c-1 1.3-.7 3.2.6 4.2l65.3 48.8c.5.4 1.2.6 1.8.6.8 0 1.5-.3 2.1-.9l57.3-56.5c.2-.2.3-.4.5-.6l8.8-14.5c1.9 1.5 3.9 2.9 6.2 3.9.1 0 .1.1.2.1 1.3.6 2.6 1.1 4 1.5h.1c.7.2 1.4.4 2.1.5h.1c.8.2 1.4.3 2.1.4.6.1 1.2.1 1.9.2.2 0 .4.1.6.1h.5c.4 0 .8.1 1.3.1h.5c.5 0 1-.1 1.4-.1h.5c.2 0 .3 0 .5-.1.7-.1 1.4-.2 1.9-.3.1 0 .3-.1.4-.1.6-.1 1.2-.2 1.8-.4h.1c.1 0 .2 0 .2-.1.6-.2 1.3-.4 2-.6.1 0 .2-.1.4-.1h.1c.6-.2 1.2-.4 1.7-.7l.6-.3c1-.6 1.5-1.6 1.5-2.7 0-.4-.1-.8-.3-1.1l-7.1-16.2-.1-.3-14.2-32.4c0-.1-.1-.2-.1-.2l-9.5-21.7c-.5-1-1.5-1.7-2.6-1.8h-.1c-1.1 0-2.1.6-2.6 1.6l-30.7 56.1c-.2-.1-.3-.2-.5-.2-5.5-3-10.1-7.5-13.6-13.3-.1-.6-.5-1.2-1-1.6-6.5-12.1-7.4-25.7-6.5-30.9.3-.6.5-1.3.8-2.1 3.6-11.1-2.2-18.9-5.9-21.7L76.2 17.3c1.1-1.8 1.3-4.2.4-6.2-.6-1.2-1.7-1.9-2.8-1.9z"/><g><path class="st1" d="M66.9 132.3l-3.7-24.4L92.4 91c13.3 10.7 11.6 16.8 44 32.4L122.7 152l-55.8-19.7z"/><path class="st2" d="M67.2 152.6L36 154.5l65.3 48.9zM128.1 148.8l-26.8 54.6 57.3-56.5z"/><path class="st3" d="M136.4 123.4l-81.4 5-19 26.1 31.2-1.9 60.9-3.8 30.5-1.9z"/><path class="st4" d="M67.2 152.6l34.1 50.8 26.8-54.6z"/><path class="st5" d="M96.1 125.9L55 128.4l12.2 24.2 28.9-26.7 32 22.9 8.3-25.4z"/><path class="st3" d="M106.6 52L71.4 16.7s-.2-.7 10.4 60.7c1-26.7 24.8-25.4 24.8-25.4z"/><path class="st6" d="M199.7 135.7l-31.2-70.9-32.1 58.6 22.2 23.5 18.2-40.4z"/><path class="st7" d="M136.4 123.4l48-18.8-25.8 42.3z"/><path class="st8" d="M164.5 121.9c5.9 13.5 21.7 19.6 35.2 13.7l-21.5-48.9c-13.5 6-19.7 21.7-13.7 35.2z"/><path class="st9" d="M96.1 125.9l-24.7-16.6 46.8-2.9z"/><path class="st6" d="M78.2 142.2c-4.8-4.3-7.8-10.2-8.2-17.2-.9-14 9.8-26.1 23.8-27h.2l-.9-15h-.3c-22.3 1.4-39.3 20.6-37.9 42.9.7 10.6 5.3 19.9 12.4 26.7l10.9-10.4z"/><path class="st7" d="M199.7 135.6l-7.3-16.5-23.1 10.2c7.5 8.1 19.6 11 30.4 6.3z"/><path class="st6" d="M81.8 77.4c1.2 18.5 12.4 40 54.6 46-26.6-11.3-28.1-49.5-24.8-53-9.2 11-18.7 11.8-29.8 7z"/><ellipse transform="rotate(-3.523 179.072 104.92)" class="st0" cx="179.1" cy="104.9" rx="2.3" ry="2.3"/><path class="st6" d="M71.7 17.4c2-.9 2.9-3.2 2-5.2l-7.2 3.2c.9 2 3.2 2.9 5.2 2zM100.5 70.1c-2 .9-2.9 3.2-2 5.2l7.2-3.2c-.9-2-3.2-2.9-5.2-2z"/><g><path class="st0" d="M85.8 105.3c-.3 0-.6 0-.8.1-.3-.4-.7-.6-1.2-.7-.6 0-1.1.3-1.5.7-.2-.1-.5-.1-.7-.1h-.8c-.3-.2-.6-.4-1-.4-.3 0-.6.1-.9.2-.6-.4-1.2-.7-1.9-.7-.3 0-.6 0-.9.1-.3-.4-.8-.6-1.3-.7-.4 0-.7.1-1.1.3-.4-.2-.8-.3-1.2-.3-1.9-.1-3.4 1.3-3.5 3s1.3 3.3 3.2 3.4c.5 0 .9 0 1.3-.2.6 1.2 1.8 2.1 3.2 2.2 1.5.1 2.8-.8 3.5-2 .4.2.8.3 1.3.3.6 0 1.2-.1 1.7-.3.5.9 1.4 1.5 2.5 1.6 1.7.1 3.2-1.3 3.3-3.1-.2-1.8-1.5-3.4-3.2-3.4z"/><linearGradient id="SVGID_1_" gradientUnits="userSpaceOnUse" x1="363.918" y1="612.335" x2="363.918" y2="606.013" gradientTransform="rotate(3.242 9090.675 -4677.31)"><stop offset=".052" stop-color="#FFF"/><stop offset=".405" stop-color="#FDFDFD"/><stop offset=".532" stop-color="#F6F6F6"/><stop offset=".623" stop-color="#EBEBEB"/><stop offset=".697" stop-color="#DADADA"/><stop offset=".759" stop-color="#C4C4C4"/><stop offset=".815" stop-color="#A8A8A8"/><stop offset=".865" stop-color="#888"/><stop offset=".912" stop-color="#626262"/><stop offset=".955" stop-color="#373737"/><stop offset=".993" stop-color="#090909"/><stop offset="1"/></linearGradient><path class="st10" d="M85.5 106c-.3 0-.5 0-.8.1-.3-.4-.7-.6-1.2-.6-.6 0-1.1.2-1.4.7-.2-.1-.4-.1-.7-.1h-.8c-.3-.2-.6-.4-1-.4-.3 0-.6.1-.9.2-.5-.4-1.2-.6-1.9-.7-.3 0-.6 0-.9.1-.3-.4-.8-.6-1.3-.6-.4 0-.7.1-1 .2-.4-.2-.8-.3-1.2-.3-1.8-.1-3.3 1.2-3.4 2.8s1.3 3.1 3 3.2c.4 0 .8 0 1.2-.2.5 1.2 1.7 2 3 2.1 1.4.1 2.7-.7 3.3-1.9.4.2.8.3 1.2.3.6 0 1.1-.1 1.6-.3.5.8 1.4 1.4 2.4 1.5 1.7.1 3.1-1.2 3.2-2.9.5-1.7-.8-3.1-2.4-3.2z"/><path class="st0" d="M88.4 109.6s-4.1.3-9.7 0c-5.5-.3-9.6-1-9.6-1-1.8 4.7-2.4 9.5-.8 18.4 1.5 8.9 2.2 14.5 1.9 19.5-.3 5.1-1.5 4.8-1.9 10.9 0 .7 3.4 1.5 7.6 1.7 4.2.2 7.7-.1 7.8-.8.3-6.1-.9-6-.7-11 .3-5.1 1.6-10.5 4.1-19.2 2.6-8.8 2.6-13.6 1.3-18.5z"/><path class="st11" d="M88.4 109.6s-4.1.3-9.7 0c-5.5-.3-9.6-1-9.6-1-1.8 4.7-2.4 9.5-.8 18.4 1.5 8.9 2.2 14.5 1.9 19.5-.3 5.1-1.5 4.8-1.9 10.9 0 .7 3.4 1.5 7.6 1.7 4.2.2 7.7-.1 7.8-.8.3-6.1-.9-6-.7-11 .3-5.1 1.6-10.5 4.1-19.2 2.6-8.8 2.6-13.6 1.3-18.5z"/><path class="st12" d="M87.8 116s-4.1.3-9.3 0c-5.2-.3-9.3-1-9.3-1-.4 6.4.6 9.6 1.9 18.8 1.2 9.1.3 17.1.3 17.1 0 .5 2.2 1.2 5 1.3 2.8.2 5.1-.3 5.1-.7 0 0 0-8 2.3-16.9 2.2-9.1 3.6-12.2 4-18.6z"/><path class="st0" d="M71.5 114.5s-1.5 6.6 1.3 17c0 0-1.1-11 .7-16.9l-2-.1z"/><path class="st13" d="M76.3 154.3c-3.5-.2-5.7-1-5.7-1-.2.8-.4 1.2-.5 2.9 0 .5 2.7 1.2 6 1.4 3.4.2 6.1-.2 6.1-.7.1-1.7 0-2.1-.2-2.9 0 0-2.2.5-5.7.3z"/><g><ellipse transform="rotate(-72.933 82.376 121.13)" class="st14" cx="82.4" cy="121.1" rx="1.1" ry="1.1"/><ellipse transform="rotate(-72.933 79.433 122.69)" class="st14" cx="79.4" cy="122.7" rx=".7" ry=".7"/><ellipse transform="rotate(-72.933 81.058 124.807)" class="st14" cx="81.1" cy="124.8" rx=".6" ry=".6"/></g><g><ellipse transform="rotate(-86.757 79.476 110.387)" class="st13" cx="79.5" cy="110.4" rx="1.8" ry="1.8"/><ellipse transform="rotate(-86.757 79.766 110.075)" class="st0" cx="79.8" cy="110.1" rx="1.8" ry="1.8"/></g><g><ellipse transform="rotate(-86.757 81.724 109.985)" class="st13" cx="81.7" cy="110" rx="1.5" ry="1.7"/><ellipse transform="rotate(-86.757 81.48 109.695)" class="st0" cx="81.5" cy="109.7" rx="1.5" ry="1.7"/></g><g><ellipse transform="rotate(-86.757 85.19 110.143)" class="st13" cx="85.2" cy="110.1" rx="1.7" ry="2.3"/><ellipse transform="rotate(-86.757 84.85 109.807)" class="st0" cx="84.9" cy="109.8" rx="1.7" ry="2.3"/></g></g></g></svg>