<?xml version="1.0" encoding="utf-8"?>
<!-- Generator: Adobe Illustrator 19.2.1, SVG Export Plug-In . SVG Version: 6.00 Build 0)  -->
<svg version="1.1" id="Warstwa_1" xmlns="http://www.w3.org/2000/svg" xmlns:xlink="http://www.w3.org/1999/xlink" x="0px" y="0px"
	 width="226px" height="300px" viewBox="0 0 226 300" style="enable-background:new 0 0 226 300;" xml:space="preserve">
<style type="text/css">
	.st0{clip-path:url(#SVGID_2_);}
	.st1{fill:#9B1B1B;}
	.st2{fill:#B82825;}
	.st3{fill:#F96C5A;}
	.st4{fill:#D63C34;}
	.st5{fill:#CA3427;}
	.st6{fill:#353535;}
	.st7{fill:#FFFFFF;}
</style>
<g>
	<defs>
		<rect id="SVGID_1_" x="-4.3" y="0" width="251" height="300"/>
	</defs>
	<clipPath id="SVGID_2_">
		<use xlink:href="#SVGID_1_"  style="overflow:visible;"/>
	</clipPath>
	<g class="st0">
		<g>
			<g>
				<path class="st1" d="M113.1-28.2c-0.1-0.1-0.2-0.1-0.3-0.2c0-0.1,0-0.2,0-0.3c0.1-0.1,0.1-0.3,0-0.4c0,0,0-0.1,0-0.1
					c0.1-0.2,0.1-0.4,0-0.6c0-0.7,0-1.4,0-2.1c0.1-0.1,0.1-0.3,0.3-0.2C113.1-30.8,113.1-29.5,113.1-28.2z"/>
				<path class="st1" d="M89.3,186.7c0-4,0-8,0-11.9c0-1.2-0.1-2.3,0.2-3.5c0.4-1.8,1.1-3.5,2-5.2c0.6-1.1,1.2-2.1,2.1-2.9
					c0.2-0.2,0.4-0.4,0.6-0.6c0.6-0.4,0.9-0.4,1.4,0.1c0.9,0.9,1.6,2,2.2,3.1c1.2,2.1,2,4.4,2.5,6.8c0.1,0.5,0.1,1,0.1,1.5
					c0,4.2,0,8.4,0,12.7C96.7,186.7,93,186.7,89.3,186.7z"/>
				<path class="st1" d="M125.5,186.7c0-4.5-0.1-9,0-13.5c0.1-1.4,0.5-2.8,1.1-4.1c0.8-2.1,1.8-4.1,3.3-5.9c0,0,0.1-0.1,0.1-0.2
					c0.9-0.9,1.4-0.9,2.2,0c1.6,1.7,2.7,3.7,3.5,5.9c0.8,1.9,0.9,4,0.9,6c-0.1,3.9,0,7.9,0,11.8
					C132.9,186.7,129.2,186.7,125.5,186.7z"/>
				<path class="st1" d="M107.9,186.7c0-3.9,0-7.7,0-11.6c0-1.2-0.1-2.3,0.1-3.5c0.3-2,1.1-3.8,2-5.5c0.7-1.2,1.4-2.4,2.5-3.4
					c0.4-0.3,0.6-0.3,0.9,0c1.3,1.3,2.2,2.8,3,4.3c1.2,2.4,1.7,5,1.7,7.7c-0.1,4,0,7.9,0,11.9C114.6,186.7,111.3,186.7,107.9,186.7z
					"/>
				<path class="st1" d="M71.8,156.4c0,1.5,0,3,0,4.4c0,0.6-0.2,0.7-0.7,0.7c-0.6-0.1-1.5,0.3-1.9-0.2c-0.4-0.4-0.1-1.1-0.1-1.7
					c-0.1-1.4,0-2.8-0.1-4.2c-0.1-1.4,0-2.8,0.2-4.1c0.1-0.4,0.3-0.8,0.6-1c0.4-0.4,1.2-0.3,1.5,0.3c0.3,0.5,0.5,1,0.5,1.7
					c0,0.7,0,1.4,0,2.1C71.8,155.1,71.8,155.7,71.8,156.4z"/>
				<path class="st1" d="M154.1,156.4c0-1.5,0-2.9,0-4.4c0-0.6,0.3-1.1,0.7-1.6c0.5-0.5,1.1-0.4,1.5,0.1c0.4,0.6,0.5,1.2,0.5,1.9
					c0,2.8,0,5.7,0,8.5c0,0.4-0.1,0.6-0.6,0.6c-0.5,0-1,0-1.5,0c-0.5,0-0.6-0.1-0.6-0.6C154.1,159.4,154.1,157.9,154.1,156.4
					C154.1,156.4,154.1,156.4,154.1,156.4z"/>
				<path class="st1" d="M71.8,141.3c0,1.4,0,2.9,0,4.3c0,0.4-0.1,0.6-0.6,0.6c-0.6,0-1.2,0-1.8,0c-0.2,0-0.4,0-0.4-0.3
					c0.2-1.8,0-3.5,0.1-5.3c0-1.4-0.1-2.9,0.1-4.3c0.1-0.5,0.3-1,0.7-1.3c0.5-0.4,0.9-0.1,1.1,0.3c0.4,0.5,0.7,1.2,0.7,1.8
					C71.8,138.5,71.8,139.9,71.8,141.3z"/>
				<path class="st1" d="M154.1,141.3c0-1.3,0-2.6,0-3.8c0-0.7,0.2-1.3,0.4-1.9c0.2-0.4,0.4-0.7,0.9-0.8c0.5,0,0.7,0.4,0.9,0.7
					c0.4,0.6,0.4,1.2,0.4,1.9c0,2.8,0,5.5,0,8.3c0,0.4-0.1,0.6-0.6,0.6c-0.7-0.1-1.5,0.3-2-0.1c-0.4-0.4-0.1-1.2-0.1-1.8
					C154.1,143.3,154.1,142.3,154.1,141.3z"/>
				<path class="st1" d="M118.7,34.6c0-0.7,0-1.3,0-2c0-0.7,0.5-1.2,1.2-1.2c0.6,0,1.2,0.4,1.4,1c0.3,1.1,0.1,2.1,0.1,3.2
					c0,1.5,0,1.5-1.6,1.5c-1.2,0-1.2,0-1.2-1.1C118.7,35.5,118.7,35,118.7,34.6C118.7,34.6,118.7,34.6,118.7,34.6z"/>
				<path class="st1" d="M107.3,34.6c0,0.7,0,1.3,0,2c0,0.4-0.1,0.5-0.5,0.5c-0.6,0-1.1,0-1.7,0c-0.4,0-0.6-0.1-0.5-0.5
					c0-1.2,0-2.4,0-3.6c0-0.6,0.2-1.2,0.9-1.4c0.5-0.2,1-0.1,1.4,0.3c0.3,0.2,0.4,0.5,0.4,0.9C107.2,33.3,107.2,33.9,107.3,34.6
					C107.2,34.6,107.3,34.6,107.3,34.6z"/>
				<path class="st1" d="M78.4,55.7c0,0.3,0,0.6,0,0.9c0,0.9,0.1,0.8-0.9,0.8c-0.6,0-0.8-0.1-0.8-0.7c0-0.7,0-1.4,0-2
					c0-0.3,0-0.5,0.2-0.7c0.2-0.3,0.4-0.6,0.8-0.5c0.4,0.1,0.7,0.3,0.7,0.8C78.4,54.7,78.4,55.2,78.4,55.7
					C78.4,55.7,78.4,55.7,78.4,55.7z"/>
				<path class="st1" d="M147.5,55.6c0-0.5,0-0.9,0-1.4c0-0.4,0.3-0.8,0.7-0.8c0.4-0.1,0.7,0.2,0.8,0.6c0.3,1.1,0.1,2.1,0.1,3.2
					c0,0.2-0.2,0.3-0.4,0.3c-0.2,0-0.5,0-0.7,0c-0.4,0-0.5-0.1-0.5-0.5C147.5,56.5,147.5,56.1,147.5,55.6
					C147.5,55.6,147.5,55.6,147.5,55.6z"/>
			</g>
			<g>
				<path class="st2" d="M165.2,130.2c0.5,0,0.7-0.2,0.7-0.7c0-0.5,0-1.1,0-1.6c0-0.4-0.2-0.5-0.5-0.5c-0.5,0-1,0-1.5,0
					c-0.6,0.1-0.8-0.2-0.8-0.7c0-4.6,0-9.1,0-13.7c0-4.6,0-9.1,0-13.7c0-0.2,0-0.5-0.1-0.7c-0.2,1.3-0.3,2.7-0.5,4.2
					c-0.3-1.5-0.6-2.9-0.9-4.3c-0.2-0.9-0.4-1.9-0.6-2.8c-0.2-0.8-0.2-0.9,0.8-0.9c1.4,0,2.8,0,4.2,0c0.1,0,0.2,0,0.4,0
					c0.1,0,0.1,0,0.2,0c0.1,0,0.1,0,0.2-0.1c0.2,0,0.2-0.2,0.2-0.3c0.6-1.7,1.2-3.5,1.8-5.2c0,0,0.1,0,0.1,0
					c0.2,1.5,0.4,2.9,0.6,4.4c0.3,1.9,0.6,3.8,0.9,5.6c0.2,1.5,0.4,3.1,0.7,4.6c0.4,2.8,0.8,5.5,1.3,8.3c0.2,1.2,0.3,2.3,0.5,3.5
					c0.1,1,0.3,1.9,0.4,2.9c0.1,0.5,0,0.8-0.7,0.7c-0.6-0.1-0.8,0.1-0.8,0.7c0,1.9,0,3.8,0,5.6c0,0.6,0.2,0.7,0.7,0.7
					c0.6,0,1.1,0,1.7-0.1c0.6-0.2,1.2,0,1.8-0.1c0.6-0.1,1.3,0.3,1.6-0.7c0.3-0.9,1-1.7,1.5-2.6c0.1-0.3,0.2-0.3,0.4,0
					c0.5,0.7,0.9,1.4,1.4,2.1c0,0,0,0.1,0.1,0.1c0.3,1.1,0.5,1.2,1.7,1.2c0.2,0,0.6-0.1,0.7,0.3c0,2.8,0,5.5,0,8.3c0,1.3,0,2.7,0,4
					c-0.2,14.8-0.1,36.3-0.1,51c0,0.5-0.2,0.7-0.7,0.7c-5.4,0-11.6-0.3-17-0.3c-0.3,0,0.1-6.4-0.2-6.4c-0.1-0.8,0.1-1.6,0.1-2.4
					c0-9,0.1-18.1,0-27.1c-0.1-4.3-0.1-8.7-0.1-13c0-2.3,0.1-4.7,0.1-7c0-1.1,0-2.2,0-3.2C165.1,130.7,165.1,130.4,165.2,130.2z"/>
				<path class="st2" d="M60,94.8c1.5,0,2.9,0.1,4.4,0c0.6,0,0.7,0.2,0.6,0.7c-0.5,2.2-1,4.3-1.4,6.5c0,0.2-0.1,0.4-0.1,0.6
					c-0.2-1.3-0.4-2.7-0.4-4c-0.3,0.2-0.2,0.5-0.2,0.7c0,8.9,0,17.9,0,26.8c0,0.1,0,0.3,0,0.4c0.1,0.6-0.1,0.8-0.8,0.8
					c-0.6,0-1.5-0.3-1.9,0.1c-0.4,0.4-0.1,1.2-0.1,1.9c0,0.5,0.1,0.7,0.7,0.7c0.2,0.2,0.1,0.5,0.1,0.7c0,1.1,0,2.2,0,3.4
					c0,6.2,0.3,12.4,0.1,18.5c-0.2,9.5,0,19-0.1,28.4c0,0.8,0.2,8.4,0.1,9.2c-0.3,0-0.6-0.1-0.9-0.1c-5.4,0-10.8,0-16.2,0
					c-0.6,0-0.8-0.1-0.8-0.7c0-10.8,0.1-28.4,0-39.3c-0.1-7.7,0-15.5-0.1-23.2c0-0.3,0-0.5,0-0.8c0.3-0.5,0.7-0.2,1.1-0.3
					c0.3-0.1,0.6,0,0.9-0.4c0.4-0.5,0.3-1,0.7-1.5c0.3-0.3,0.8-0.6,0.8-1.3c0-0.1,0.3-0.4,0.5-0.4c0.3,0,0.1,0.3,0.2,0.5
					c0,0.1,0.1,0.1,0.2,0.2c0.7,0.6,0.9,1.5,1.4,2.2c0.2,0.4,0.3,0.5,0.7,0.5c0.9,0,1.7-0.1,2.6,0.1c0.6,0.2,1.2,0.1,1.8,0.1
					c0.4,0,0.6-0.1,0.6-0.6c0-1.9,0-3.9,0-5.8c0-0.5-0.2-0.7-0.7-0.6c-0.7,0.1-0.9-0.2-0.8-0.8c0.3-1.6,0.5-3.2,0.7-4.9
					c0.2-1.3,0.4-2.7,0.6-4c0.3-2.1,0.7-4.3,1-6.4c0.2-1.2,0.3-2.4,0.5-3.6c0.3-1.8,0.6-3.5,0.8-5.3c0.2-1.5,0.4-3.1,0.7-4.6
					c0-0.1,0.1-0.3,0.2-0.4c0.6,1.7,1.2,3.5,1.8,5.2c0,0.2,0,0.3,0.2,0.3c0.1,0,0.1,0,0.2,0.1c0.1,0,0.1,0,0.2,0
					C59.7,94.8,59.8,94.8,60,94.8z"/>
				<path class="st2" d="M111.9,41.9c0.7,0,1.3,0,2,0c-0.1,0.5,0,0.7,0.6,0.7c0.9,0,1.8,0,2.7,0c0.5,0,0.7-0.1,0.6-0.7
					c0.5,0,1.1,0,1.6,0c-0.1,0.5,0,0.7,0.6,0.7c0.7,0,1.3,0,2,0c0.3,0,0.5,0.1,0.5,0.4c0,0.4,0.1,0.9-0.1,1.3
					c-0.8,0.3-1.6,0.1-2.3,0.1c-0.5,0-0.7,0.1-0.7,0.6c0,11.8,0,23.6,0,35.4c-0.5,0.1-1.1,0-1.6,0c0-11.7,0-23.5,0-35.2
					c0-0.1,0-0.2,0-0.3c0-0.4-0.2-0.6-0.6-0.5c-0.8,0.2-1.6,0.1-2.4,0.1c-0.9,0-0.9,0-0.9,0.8c0,9.3,0,18.5,0,27.8
					c-0.5-0.4-0.5-1.1-0.8-1.6c-0.1-0.1,0-0.3-0.2-0.3c-0.2,0-0.2,0.2-0.2,0.3c-0.3,0.5-0.3,1.2-0.8,1.6c0-0.3,0-0.6,0-0.9
					c0-9,0-18,0-27c0-0.6-0.1-0.8-0.7-0.7c-0.8,0-1.6,0-2.4,0c-0.8-0.1-0.8-0.1-0.8,0.6c0,11.8,0,23.5,0,35.3c-0.5,0-1.1,0.2-1.6,0
					c0-11.8,0-23.6,0-35.4c0-0.5-0.2-0.6-0.7-0.6c-0.8,0-1.6,0.1-2.3-0.1c0,0,0-0.1,0-0.1c-0.1-1.6-0.1-1.6,1.6-1.6
					c0.3,0,0.6,0,0.9,0c0.6,0.1,0.7-0.2,0.6-0.7c0.5,0,1.1,0,1.6,0c-0.1,0.5,0.1,0.7,0.6,0.7c0.9,0,1.8,0,2.7,0
					C111.9,42.6,112,42.4,111.9,41.9z"/>
				<path class="st2" d="M157,95.7c0.3-0.2,0.5-0.5,0.5-0.9c0.1,0,0.1,0,0.2,0c0.1,0,0.1,0,0.2,0.1c1,0.1,1,0.1,0.9,1
					c-0.3,1.4-0.6,2.8-0.9,4.2c0,0.1-0.1,0.2-0.2,0.3c-0.3-0.1-0.3-0.3-0.3-0.6c0-0.6,0-1.2,0-1.8c0.6,0.1,0.8-0.1,0.7-0.7
					c0-0.1,0-0.2,0-0.3C158.2,95.8,158.2,95.8,157,95.7z"/>
				<path class="st2" d="M81.9,134.7c0.2,0.2,0.5,0.3,0.8,0.3c8,0,16,0,23.9,0c3.9,0,7.7-0.1,11.6,0c8.3,0.1,16.6,0,24.9,0.1
					c0.4,0,0.7,0,1-0.3c-0.1,3.2,0,6.4-0.1,9.7c0,0.2,0.1,0.4,0.2,0.7c0.1,0.2,0.2,0.5-0.2,0.6c-0.1-0.9-0.1-0.9-1-0.9
					c-5,0-10.1,0-15.1,0c-15,0-30.1,0-45.1,0c-0.3,0-0.6,0-0.8,0.3c0-2.7,0-5.4,0-8.1C81.9,136.2,81.9,135.5,81.9,134.7z"/>
				<path class="st2" d="M81.9,149.1c0.3,0.4,0.7,0.2,1,0.2c0.2,0,0.5,0,0.7,0c0,2.9,0,5.7,0,8.6c0,2,0,4.1,0,6.1
					c-0.2,1.1-0.3,2.2,0.2,3.2c0.1,0.2,0,0.4,0,0.6c0,6.2,0,12.3,0,18.5c0,0.2,0,0.5,0,0.7c-0.5,0-1,0-1.5,0c-0.4,0-0.5-0.1-0.5-0.5
					c0-1.1,0-2.2,0-3.3c0-4.3,0-8.6,0-13c0-1.5-0.2-3-0.1-4.5c0.3-5.2,0.1-10.4,0.1-15.6C81.9,149.8,81.8,149.4,81.9,149.1z"/>
				<path class="st2" d="M142.2,149.3c0.4,0,0.7,0,1.1,0c0.3,0,0.5,0,0.6-0.3c0.1,0.3,0,0.6,0,0.9c0,4.8,0,9.6,0,14.5
					c0,7.3,0,14.5,0,21.8c0,0.6-0.2,0.8-0.8,0.7c-0.4,0-0.9,0-1.3,0c0-4.5,0-8.9,0-13.4c0-1.6,0-3.2,0-4.7c0-0.9,0-1.7,0.3-2.5
					c0.3-0.7,0-1.5-0.1-2.3c0-0.3,0-0.5,0-0.8C142.2,158.6,142.2,154,142.2,149.3z"/>
				<path class="st2" d="M138.9,97.9c-0.3,8.2-0.1,16.4-0.1,24.6c0,0.5,0.3,1,0,1.4c-2.5,0-5,0-7.5,0c-0.4,0-0.5-0.1-0.5-0.5
					c0-0.5,0-1.1,0-1.6c1,0,2,0,3,0c0.6,0,0.9-0.2,0.8-0.8c0-8.7,0-17.5,0-26.2c1.4-0.2,2.8,0,4.2-0.1c0,0.2,0,0.5,0,0.7
					c0,0,0,0.1,0,0.1c-0.6-0.1-0.9,0.2-0.8,0.8c0,0.2,0,0.4,0,0.6C138,97.7,138.2,98,138.9,97.9z"/>
				<path class="st2" d="M87.2,124c-0.2-0.4,0-0.9,0-1.3c0-7.1,0-14.2,0-21.4c0-1.1,0.1-2.2-0.1-3.4c0.7,0.1,0.9-0.2,0.8-0.8
					c0-0.2,0-0.5,0-0.7c0.1-0.5-0.1-0.8-0.7-0.7c0-0.1-0.1-0.1-0.1-0.2c0-0.2,0-0.4,0-0.6c1.4,0.1,2.8-0.1,4.2,0.1
					c0,8.7,0,17.5,0,26.2c0,0.6,0.2,0.8,0.8,0.8c1,0,2,0,3,0c0.2,2.1,0.2,2.1-2,2.1C91.1,124,89.1,124,87.2,124z"/>
				<path class="st2" d="M68.5,97.9c0,0.6,0,1.2,0,1.8c0,0.2,0.1,0.5-0.3,0.6c-0.4-0.7-0.4-1.5-0.6-2.3c-0.2-0.9-0.5-1.7-0.6-2.6
					c0-0.4,0-0.5,0.5-0.5c0.3,0,0.6,0,0.9,0c-0.1,0.4,0.1,0.6,0.4,0.8c-1.1,0.1-1.1,0.1-1.1,1.2c0,0.1,0,0.2,0,0.3
					C67.6,97.8,67.9,98,68.5,97.9z"/>
				<path class="st2" d="M153.6,95.6c1-0.1,2-0.2,3,0.1C155.6,95.7,154.6,95.9,153.6,95.6z"/>
				<path class="st2" d="M153.4,92.8c0.2,0.2,0.2,0.5,0,0.7C153.3,93.3,153.3,93,153.4,92.8z"/>
				<path class="st2" d="M153.4,84.6c0.1,0.1,0.1,0.2,0,0.4C153.3,84.8,153.3,84.7,153.4,84.6C153.4,84.6,153.4,84.6,153.4,84.6z"/>
				<path class="st2" d="M153.4,92.1c0.1,0.1,0.1,0.1,0,0.2C153.3,92.3,153.3,92.2,153.4,92.1z"/>
				<path class="st2" d="M102.9,163.4c-0.1,0.5-0.6,0.9-0.5,1.5c-0.4-0.3-0.3-0.8-0.5-1.2c-0.7-2.2-2.2-4-3.8-5.7
					c-1.1-1.1-1.7-2.4-2.2-3.8c-0.5-1.3-0.9-2.7-1.3-4.1c-0.5,0.8-0.6,1.5-0.8,2.2c-0.5,1.5-0.8,3-1.6,4.4c-0.5,1-1.4,1.7-2.2,2.4
					c-1.2,1.2-2,2.5-2.5,4c-0.1,0.2-0.1,0.5-0.4,0.6c0-4.5,0-9.1,0-13.6c0-0.5,0.1-0.7,0.7-0.7c4.7,0,9.4,0,14.1,0c0.9,0,1,0.1,1,1
					C102.9,154.7,102.9,159,102.9,163.4z"/>
				<path class="st2" d="M138.6,163.7c-0.5-1.3-1-2.6-2-3.7c-0.7-0.8-1.5-1.5-2.3-2.3c-1.1-1.2-1.5-2.7-1.9-4.1
					c-0.3-1.1-0.7-2.2-1-3.2c0-0.1-0.1-0.2-0.2-0.2c-0.4,1.2-0.8,2.3-1.1,3.5c-0.6,2-1.7,3.7-3.2,5.2c-1.6,1.6-2.7,3.5-3.2,5.7
					c0,0.1-0.1,0.2-0.1,0.3c0,0,0,0-0.1,0.1c0.1-0.6-0.3-1-0.5-1.5c0-0.3,0-0.6,0-0.9c0-4.1,0-8.1,0-12.2c0-0.6,0.3-0.8,0.9-0.8
					c0.2,0,0.4,0,0.6,0c4.5,0,8.9,0,13.4,0c0.9,0,0.9,0,0.9,0.9c0,4.5,0,8.9,0,13.4c0,0,0,0,0,0
					C138.7,163.7,138.6,163.7,138.6,163.7z"/>
				<path class="st2" d="M105.9,149.4c4.4-0.2,8.9-0.1,13.3-0.1c0.3,0.2,0.8,0,0.8,0.7c0,4.3,0,8.5,0,12.8c0,0.2,0.1,0.4-0.2,0.5
					c-0.6-2-1.9-3.7-3.5-5.1c-1.3-1.1-1.8-2.5-2.3-4c-0.3-1.1-0.7-2.2-1-3.4c-0.2,0.7-0.4,1.3-0.6,1.8c-0.4,1.3-0.7,2.6-1.3,3.8
					c-0.4,0.8-1,1.4-1.6,1.9c-1.6,1.3-2.7,3-3.3,4.9c-0.4-0.1-0.2-0.4-0.2-0.6C105.9,158.3,105.9,153.9,105.9,149.4z"/>
			</g>
			<g>
				<path class="st2" d="M113.2-34.3c0,0.1,0,0.3,0,0.4c0,0.4-0.1,0.8,0,1.2c0.1,0.5,0.7,0,1,0.4c-0.3,0.3-0.8,0-1.1,0.2
					c-0.2-0.2-0.2,0.1-0.3,0.2c-0.2-0.5-0.8-0.1-1.1-0.4c1-0.3,1-0.3,1-1.4c0-0.2,0-0.3,0-0.5C112.9-34.3,113-34.3,113.2-34.3z"/>
				<path class="st2" d="M106.5,41.9c-2,0-4,0-6,0c-0.7,0-0.8-0.2-0.8-0.8c0-3.6,0.1-7.2,0-10.8c-0.1-1.7,0.5-3.3,0.8-4.9
					c0.2-1.1,0.5-2.1,0.8-3.3c0.3,0.5,0.4,1,0.4,1.5c-0.1,0.6,0.3,1,0.4,1.5c0.2,1.2,0.6,2.3,0.9,3.5c0,0.2,0.1,0.3,0.3,0.3
					c0.2,0,0.2-0.2,0.2-0.3c0.3-1.1,0.7-2.1,0.9-3.2c0.1-0.7,0.4-1.3,0.5-2c0.1-0.4,0.2-0.8,0.3-1.2c0.1,0,0.1,0,0.2,0
					c0.3,1.4,0.7,2.8,1,4.1c0.2,0.8,0.4,1.5,0.6,2.3c0.1,0,0.1,0,0.2,0c0.6-2.2,1.1-4.4,1.7-6.6c0.1,0,0.1,0,0.2,0
					c0.6,2.2,1,4.5,1.7,6.7c0.1,0,0.2,0,0.2,0c0.5-2.2,1.1-4.4,1.6-6.7c0.2,0.1,0.2,0.3,0.3,0.4c0.1-0.1,0-0.4,0.3-0.4
					c0.6,2.2,1,4.5,1.8,6.6c0.7-2.2,1.2-4.4,1.8-6.7c0.1,0,0.1,0,0.2,0c0.6,2.2,1.1,4.4,1.7,6.6c0.1,0,0.1,0,0.2,0
					c0.2-0.7,0.4-1.5,0.6-2.2c0.3-1.4,0.7-2.8,1-4.1c0.1,0,0.1,0,0.2,0c0.1,0.4,0.2,0.8,0.3,1.2c-0.2,0.4,0.2,0.6,0.3,1
					c0.3,1.4,0.6,2.8,1.1,4.2c0,0.1,0,0.3,0.2,0.3c0.2,0,0.2-0.2,0.3-0.3c0.1-0.5,0.3-1.1,0.4-1.6c0.3-1.1,0.6-2.3,0.9-3.4
					c0-0.5,0.2-1,0.4-1.6c0.4,1.6,0.8,3,1.1,4.4c0.1,0.4,0.1,0.8,0.3,1.1c0.4,1,0.3,2,0.3,2.9c0,3.5,0,7.1,0,10.6
					c0,0.6-0.1,0.8-0.8,0.8c-2,0-4,0-6,0c-0.5,0-1.1,0-1.6,0c-1.3,0-2.6,0-3.9,0c-0.7,0-1.3,0-2,0c-1.3,0-2.6,0-3.9,0
					C107.5,41.9,107,41.9,106.5,41.9z M118.7,34.6C118.7,34.6,118.7,34.6,118.7,34.6c0,0.4,0,0.9,0,1.3c0,1.1,0,1.1,1.2,1.1
					c1.6,0,1.6,0,1.6-1.5c0-1.1,0.1-2.1-0.1-3.2c-0.1-0.6-0.8-1-1.4-1c-0.7,0.1-1.2,0.5-1.2,1.2C118.6,33.2,118.7,33.9,118.7,34.6z
					 M107.3,34.6C107.3,34.6,107.2,34.6,107.3,34.6c0-0.7,0-1.3,0-2c0-0.3-0.1-0.6-0.4-0.9c-0.4-0.4-0.9-0.5-1.4-0.3
					c-0.7,0.2-0.9,0.8-0.9,1.4c0,1.2,0,2.4,0,3.6c0,0.4,0.2,0.5,0.5,0.5c0.6,0,1.1,0,1.7,0c0.4,0,0.5-0.1,0.5-0.5
					C107.2,35.9,107.3,35.2,107.3,34.6z"/>
				<path class="st2" d="M141,68c0.4,1.3,0.8,2.6,1.2,3.9c0.4,1.3,0.8,2.5,1.2,3.8c0.4,1.4,0.9,2.8,1.5,4.2
					c1.3-4.2,2.6-8.4,3.9-12.6c0.1,0,0.1,0,0.2,0c1.3,4.4,2.5,8.8,3.8,13.1c0,0,0.1,0,0.1,0c1-3.7,1.9-7.3,2.9-11
					c0.2-0.7,0.3-1.4,0.5-2.1c0.4,0.8,0.4,1.7,0.6,2.5c0.3,1.4,0.5,2.8,0.7,4.1c0.2,1,0.4,2,0.5,3c0.2,1,0.3,2,0.5,3
					c0.1,0.4,0.1,0.6-0.2,0.9c-0.3,0.4-0.6,0.9-0.9,1.3c-0.4-0.3-0.2-0.7-0.3-1.1c-0.4-1.4-0.8-2.8-1-4.2c0-0.2-0.2-0.4-0.5-0.7
					c0.2,0.6-0.1,0.8-0.2,1.2c-0.2,1-0.5,2-0.9,2.9c-0.5,1.4-0.9,2.7-1.2,4.1c0,0-0.1,0-0.1,0c-0.3,0-0.6,0-0.9-0.1
					c-0.1-0.1-0.2-0.2-0.2-0.3c-0.4-1-0.7-2.1-1.2-3.1c-0.5-1.3-1-2.5-1.5-3.8c-0.2-0.5-0.2-1.1-0.7-1.5c-0.1,0.2-0.2,0.3-0.2,0.5
					c-0.8,1.9-1.5,3.9-2.3,5.8c-0.5,1.2-0.8,2.4-0.8,3.7c0.1,3.3,0,6.6,0.1,9.9c-0.5,0-0.3-0.4-0.3-0.6c0-3.3,0-6.5,0-9.8
					c0-0.7-0.2-0.9-0.9-0.8c-0.2-0.7-0.4-1.5-0.7-2.2c-0.7-1.9-1.4-3.8-2.1-5.7c0-0.1,0-0.3-0.2-0.3c-0.2,0-0.2,0.2-0.2,0.3
					c-0.1,0.6-0.3,1.2-0.5,1.8c-0.3,1.2-0.7,2.4-1,3.6c-0.1,0.4-0.1,1.1-0.4,1.3c-0.4,0.3-0.4,0.7-0.4,1c0,3.3,0,6.5,0,9.8
					c0,0.2,0.1,0.5-0.1,0.7c-1.4,0.1-2.8-0.1-4.2,0.1c0-0.1,0-0.1,0-0.2c1.2,0,2.4,0,3.6,0c0.3,0,0.5-0.1,0.5-0.4
					c0-3.6,0-7.1,0-10.7c0-0.2,0-0.4-0.2-0.5c-1-0.5-1.1-1.5-1.3-2.4c-0.2-0.6,0.1-1.2,0.3-1.8c0.5-2.1,1.1-4.2,1.6-6.4
					c0.5-1.8,0.9-3.7,1.4-5.5C140.9,67.3,140.8,67.7,141,68z"/>
				<path class="st2" d="M70.1,69.5c0.4,1.5,0.9,3.1,1.3,4.6c0.3,1.2,0.6,2.4,0.9,3.5c0.2,0.9,0.5,1.9,0.9,2.8
					c1.3-4.4,2.5-8.8,3.8-13.1c0.1,0,0.1,0,0.2,0c1.3,4.2,2.6,8.4,3.9,12.6c0,0,0.1,0,0.1,0c0.3-0.9,0.6-1.9,0.9-2.8
					c0.3-1,0.7-2,1-3c0.2-0.7,0.4-1.4,0.6-2.1c0.4-1.3,0.8-2.7,1.2-4c0.2-0.3,0.1-0.7,0.5-1c0.4,1.5,0.8,3.1,1.1,4.6
					c0.6,2.3,1.1,4.6,1.7,6.9c0,0.1,0.1,0.2,0.1,0.3c0.5,1.2,0.3,2.4-0.3,3.5c-0.1,0.1-0.1,0.2-0.3,0.3c-0.8,0.4-0.8,1-0.8,1.7
					c0,3.2,0,6.4,0,9.6c0,0.6,0.2,0.7,0.8,0.7c1.1-0.1,2.2,0,3.4,0c0,0.1,0,0.1,0,0.2c-1.4-0.2-2.8,0-4.2-0.1
					c-0.2-0.2-0.1-0.5-0.1-0.7c0-3,0-6,0-9.1c0-0.6,0.4-1.3-0.4-1.8c0,0,0-0.1-0.1-0.2c-0.6-2.1-1.2-4.3-1.8-6.4
					c0-0.1,0-0.3-0.2-0.3c-0.2,0-0.2,0.2-0.2,0.3c-0.2,0.5-0.3,1-0.5,1.4c-0.4,1.2-0.9,2.4-1.4,3.6c-0.3,0.9-0.6,1.8-0.9,2.8
					c-0.7-0.1-0.9,0.1-0.9,0.8c0,3.2,0,6.5,0,9.7c0,0.2,0.3,0.6-0.3,0.6c0-0.3,0-0.6,0-0.8c0-3.2,0-6.4,0-9.6c0-0.5,0.1-1,0-1.5
					c-0.3-0.8-0.6-1.6-0.9-2.4c-0.5-1.1-0.9-2.2-1.4-3.3c-0.3-0.8-0.6-1.5-1-2.5c-1.2,3.1-2.3,6.1-3.4,9c-0.3-0.1-0.7,0-1,0
					c0-0.1,0-0.2,0-0.3c-0.4-1.3-0.9-2.6-1.3-3.9c-0.4-1.3-0.8-2.6-1.2-3.9c-0.2,0.1-0.3,0.2-0.3,0.4c-0.3,1.3-0.5,2.5-0.9,3.8
					c-0.2,0.6,0,1.2-0.5,1.7c-0.4-0.5-0.7-1-1.1-1.5c-0.1-0.1-0.1-0.3-0.1-0.4c0.3-1.2,0.5-2.4,0.7-3.6c0.3-1.5,0.5-3.1,0.8-4.6
					c0.3-1.4,0.5-2.9,0.8-4.3c0-0.1,0-0.3,0.2-0.3C69.8,68.1,69.9,68.8,70.1,69.5z"/>
				<path class="st2" d="M51.9,126.2c-0.9-0.2-1.7-0.1-2.6-0.1c-0.4,0-0.5-0.1-0.7-0.5c-0.5-0.7-0.7-1.6-1.4-2.2
					c-0.1-0.1-0.1-0.1-0.2-0.2c-0.1-0.2,0.1-0.5-0.2-0.5c-0.2,0-0.6,0.3-0.5,0.4c0.1,0.6-0.5,0.9-0.8,1.3c-0.4,0.4-0.3,1-0.7,1.5
					c-0.3,0.3-0.5,0.3-0.9,0.4c-0.4,0.1-0.9-0.3-1.1,0.3c-0.3-0.1-0.6,0-0.9-0.1c-0.4,0-0.6-0.1-0.4-0.5c0.3-0.6,0.6-1.3,0.9-1.9
					c0.6-1.1,1.2-2.3,1.4-3.6c0.2-1.2,0.4-2.3,0.6-3.5c0.2-0.9,0.3-1.8,0.5-2.8c0.3-1.6,0.5-3.2,0.8-4.8c0.2-1.5,0.5-3.1,0.7-4.6
					c0.1-0.5,0.3-1.1,0.3-1.8c0.5,0.8,0.4,1.6,0.6,2.4c0.5,2.3,0.8,4.5,1.2,6.8c0.3,1.8,0.6,3.7,0.9,5.5c0.4,2.3,0.7,4.6,1.8,6.8
					C51.5,124.9,51.8,125.5,51.9,126.2z"/>
				<path class="st2" d="M183,126.4c-0.1-0.4-0.4-0.3-0.7-0.3c-1.2,0-1.4-0.1-1.7-1.2c0,0,0-0.1-0.1-0.1c-0.5-0.7-0.9-1.4-1.4-2.1
					c-0.2-0.2-0.3-0.3-0.4,0c-0.4,0.9-1.2,1.7-1.5,2.6c-0.3,1-1,0.6-1.6,0.7c-0.6,0.1-1.2-0.1-1.8,0.1c0.6-1.5,1.1-3,1.7-4.4
					c0.2-0.5,0.2-1,0.3-1.4c0.4-2.2,0.7-4.5,1.1-6.7c0.4-2,0.7-4.1,1.1-6.1c0.2-1.3,0.5-2.5,0.6-3.8c0-0.2,0.2-0.4,0.3-0.6
					c0.4,2.4,0.7,4.7,1.1,7.1c0.3,1.9,0.7,3.8,1,5.7c0.3,1.7,0.5,3.5,0.9,5.2c0.2,1.1,0.7,2.2,1.4,3.2c0.4,0.5,0.5,1.2,0.8,1.7
					c0.1,0.3,0,0.4-0.3,0.4C183.7,126.4,183.4,126.3,183,126.4z"/>
				<path class="st2" d="M113.1-28.2c0.8,0.4,1.1,1,0.7,1.6c-0.3,0.6-0.9,0.7-1.4,0.4c-0.6-0.3-0.7-1-0.3-1.5
					c0.2-0.2,0.4-0.4,0.7-0.6C112.9-28.4,113-28.3,113.1-28.2z"/>
				<path class="st2" d="M134.4,68.3c-0.2,0.2-0.4,0.2-0.7,0C134,68.2,134.2,68.1,134.4,68.3z"/>
				<path class="st2" d="M92.1,68.2c-0.2,0.2-0.4,0.2-0.7,0C91.7,68.1,91.9,68.2,92.1,68.2z"/>
				<path class="st2" d="M112.8-29.8c0.1,0.2,0.1,0.4,0,0.6C112.7-29.4,112.7-29.6,112.8-29.8z"/>
				<path class="st2" d="M157.5,83c-0.1-0.1-0.1-0.2,0-0.4C157.7,82.8,157.7,82.9,157.5,83z"/>
				<path class="st2" d="M68.4,82.6c0.1,0.1,0.1,0.3,0,0.4C68.3,82.9,68.1,82.8,68.4,82.6z"/>
				<path class="st2" d="M133.5,68.2c-0.2,0.2-0.2,0.1-0.3-0.1C133.3,68.2,133.4,68.2,133.5,68.2z"/>
				<path class="st2" d="M92.7,68.2c-0.1,0.2-0.1,0.2-0.3,0.1C92.5,68.2,92.6,68.2,92.7,68.2z"/>
				<path class="st2" d="M112.8-29.1c0.1,0.1,0.1,0.3,0,0.4C112.7-28.8,112.7-28.9,112.8-29.1z"/>
				<path class="st2" d="M112,73.2c0.5-0.4,0.5-1.1,0.8-1.6c0.1-0.1,0-0.3,0.2-0.3c0.2,0,0.2,0.2,0.2,0.3c0.3,0.5,0.3,1.2,0.8,1.6
					c0,0.2,0.1,0.4,0.2,0.7c0.6,1.3,1.1,2.7,1.7,4c0.4,0.9,0.9,1.8,1.5,2.6c0.1,0.6,0.6,1.1,0.9,1.7c1,1.4,2.4,2.5,3.7,3.6
					c0.5,0.5,1,1.1,1.8,1.3c0.3,0.6,0.9,1,1.4,1.5c1.7,1.7,3.1,3.5,4.1,5.6c0.3,0.7,0.6,1.4,0.8,2.2c0.2,0.8,0.4,1.6,0.5,2.4
					c0,0.3,0.1,0.7-0.1,1c-0.5-0.3-0.4-0.8-0.6-1.2c-1-2.3-2.5-4.1-4.3-5.8c-2.1-1.9-4.1-3.8-6.3-5.6c-2-1.7-3-3.8-4-6
					c-0.7-1.5-1.3-3-2-4.5c-0.1-0.1-0.1-0.2-0.3-0.3c-0.3,0.7-0.6,1.4-0.9,2.1c-1.2,2.6-2.2,5.3-4,7.6c-0.4,0.5-0.9,0.7-1.3,1.1
					c-1,0.9-2.1,1.8-3,2.8c-1.1,1.1-2.4,2.1-3.5,3.2c-1.9,1.8-3.4,3.8-4.2,6.2c-0.1,0.2-0.1,0.4-0.3,0.5c-0.3-0.8-0.1-1.6,0.1-2.4
					c0.2-0.9,0.5-1.9,0.9-2.8c0.5-0.9,0.9-1.8,1.5-2.7c1.1-1.6,2.4-3,3.9-4.4c0.1-0.1,0.2-0.2,0.2-0.4c0.1,0,0.3-0.1,0.4-0.1
					c1.4-1.2,2.8-2.4,4.1-3.6c0.9-0.8,1.5-1.7,1.9-2.9c0.2-0.2,0.3-0.4,0.5-0.6c0.9-1.5,1.5-3.1,2.1-4.6
					C111.4,74.6,111.8,73.9,112,73.2z"/>
				<path class="st2" d="M113,127.1c9.8,0,19.6,0,29.4,0c0.7,0,0.9,0.2,0.9,0.8c-0.1,1.2,0,1.2-1.3,1.2c-6.5,0-12.9,0-19.4,0
					c-1.7,0-3.5-0.1-5.2-0.1c-2.4,0.1-4.7,0.1-7.1,0c-1.8,0-3.6-0.1-5.4,0c-4.3,0.1-8.5,0-12.8,0.1c-2.9,0-5.7,0-8.6,0
					c-0.6,0-0.7-0.2-0.7-0.7c0-1.4,0-1.4,1.5-1.4C93.8,127.1,103.4,127.1,113,127.1z"/>
				<path class="st2" d="M127.5,118.4c0,1.6,0,3.3,0,4.9c0,0.5-0.1,0.7-0.7,0.7c-1.5,0-3.1,0-4.6,0c-0.4,0-0.6-0.1-0.6-0.6
					c0-3.3,0-6.7,0-10c0-0.5,0.2-0.6,0.6-0.6c1.6,0,3.2,0,4.8,0c0.5,0,0.5,0.3,0.5,0.6C127.6,115.1,127.6,116.7,127.5,118.4
					C127.6,118.4,127.6,118.4,127.5,118.4z"/>
				<path class="st2" d="M104.3,118.5c0,1.6,0,3.3,0,4.9c0,0.4-0.1,0.6-0.6,0.6c-1.6,0-3.2,0-4.8,0c-0.4,0-0.6-0.1-0.6-0.5
					c0-3.4,0-6.8,0-10.1c0-0.4,0.1-0.5,0.5-0.5c1.6,0,3.1,0,4.7,0c0.5,0,0.7,0.2,0.7,0.7C104.2,115.2,104.3,116.9,104.3,118.5z"/>
				<path class="st2" d="M120.8,118.5c0,1.6,0,3.3,0,4.9c0,0.4-0.1,0.6-0.6,0.6c-1.2,0-2.3,0-3.5,0c-0.4,0-0.6-0.1-0.6-0.6
					c0-3.3,0-6.6,0-9.9c0-0.5,0.2-0.7,0.7-0.7c1.1,0,2.2,0,3.4,0c0.5,0,0.7,0.2,0.7,0.6C120.8,115.1,120.8,116.8,120.8,118.5z"/>
				<path class="st2" d="M110.6,118.5c0-1.6,0-3.3,0-4.9c0-0.5,0.2-0.7,0.7-0.7c1.1,0,2.2,0,3.4,0c0.5,0,0.6,0.2,0.6,0.6
					c0,3.3,0,6.7,0,10c0,0.5-0.2,0.6-0.6,0.6c-1.1,0-2.3,0-3.4,0c-0.6,0-0.7-0.2-0.7-0.7C110.6,121.7,110.6,120.1,110.6,118.5z"/>
				<path class="st2" d="M105.1,118.4c0-1.6,0-3.3,0-4.9c0-0.5,0.2-0.7,0.7-0.7c1.1,0,2.2,0,3.3,0c0.5,0,0.7,0.1,0.7,0.6
					c0,3.3,0,6.6,0,9.9c0,0.4-0.1,0.6-0.6,0.6c-1.2,0-2.4,0-3.6,0c-0.4,0-0.5-0.1-0.5-0.5C105.1,121.8,105.1,120.1,105.1,118.4z"/>
				<path class="st2" d="M115.3,92.7c0,1.1,0,2.2,0,3.3c0,0.5-0.1,0.7-0.7,0.7c-1.1,0-2.3,0-3.4,0c-0.5,0-0.6-0.2-0.6-0.6
					c0-2.3,0-4.6,0-6.9c0-0.3,0.1-0.5,0.4-0.6c1.3-0.7,2.7-0.7,4,0c0.3,0.2,0.4,0.4,0.4,0.7C115.3,90.5,115.3,91.6,115.3,92.7z"/>
				<path class="st2" d="M101.4,107.7c0.8,0,1.6,0,2.4,0c0.3,0,0.5,0.1,0.5,0.4c0,1.2,0,2.3,0,3.5c0,0.3-0.1,0.4-0.5,0.5
					c-1.6,0.1-3.3,0-4.9,0.1c-0.4,0-0.6-0.1-0.6-0.5c0-1.2,0-2.3,0-3.5c0-0.4,0.2-0.5,0.6-0.5C99.7,107.7,100.5,107.7,101.4,107.7z"
					/>
				<path class="st2" d="M124.6,107.7c0.8,0,1.6,0,2.4,0c0.4,0,0.5,0.1,0.5,0.5c0,1.2,0,2.3,0,3.5c0,0.4-0.2,0.5-0.5,0.5
					c-1.7,0-3.4,0.1-5-0.1c-0.3,0-0.4-0.1-0.4-0.4c0-1.2,0-2.4,0-3.5c0-0.4,0.2-0.4,0.5-0.4C123,107.7,123.8,107.7,124.6,107.7z"/>
				<path class="st2" d="M109.8,93.2c0,1,0,2,0,3c0,0.4-0.1,0.6-0.6,0.6c-1.2,0-2.4,0-3.6,0c-0.4,0-0.6-0.2-0.6-0.5
					c0-0.7,0-1.5,0-2.2c0-0.3,0.1-0.4,0.3-0.6c1.2-1.3,2.5-2.5,4-3.6c0.1-0.1,0.2-0.2,0.3-0.1c0.2,0.1,0.1,0.2,0.1,0.3
					C109.8,91,109.8,92.1,109.8,93.2z"/>
				<path class="st2" d="M116.1,93c0-1,0-2,0-3c0-0.1-0.1-0.3,0.1-0.4c0.2-0.1,0.3,0.1,0.4,0.2c1.4,1,2.7,2.2,3.8,3.4
					c0.3,0.3,0.4,0.5,0.4,0.9c0,0.7,0,1.4,0,2.1c0,0.4-0.1,0.5-0.6,0.5c-1.2,0-2.4,0-3.6,0c-0.4,0-0.6-0.2-0.6-0.6
					C116.1,95.1,116.1,94.1,116.1,93z"/>
				<path class="st2" d="M101.3,106.9c-0.8,0-1.6,0-2.4,0c-0.4,0-0.5-0.1-0.5-0.5c0.1-1.2,0.5-2.4,0.9-3.5c0.1-0.3,0.3-0.3,0.5-0.3
					c1.3,0,2.7,0,4,0c0.4,0,0.5,0.1,0.5,0.5c0,1.1,0,2.2,0,3.3c0,0.3-0.1,0.5-0.5,0.4C103,106.9,102.1,106.9,101.3,106.9z"/>
				<path class="st2" d="M124.6,106.9c-0.8,0-1.6,0-2.4,0c-0.4,0-0.6-0.1-0.5-0.5c0-1.1,0-2.2,0-3.3c0-0.4,0.2-0.5,0.6-0.5
					c1.3,0,2.6,0,4,0c0.3,0,0.5,0,0.6,0.3c0.3,1.1,0.7,2.2,0.8,3.4c0.1,0.4-0.1,0.6-0.5,0.6C126.2,106.9,125.4,106.9,124.6,106.9z"
					/>
				<path class="st2" d="M112.9,112.1c-0.6,0-1.1,0-1.7,0c-0.4,0-0.6-0.1-0.6-0.5c0-1.1,0-2.3,0-3.4c0-0.4,0.2-0.5,0.6-0.5
					c1.2,0,2.4,0,3.6,0c0.5,0,0.6,0.2,0.6,0.6c0,1.1,0,2.2,0,3.3c0,0.4-0.2,0.6-0.6,0.6C114.1,112.1,113.5,112.1,112.9,112.1z"/>
				<path class="st2" d="M105.1,109.9c0-0.6,0-1.2,0-1.7c0-0.4,0.2-0.5,0.5-0.5c1.2,0,2.4,0,3.6,0c0.4,0,0.5,0.2,0.5,0.5
					c0,1.1,0,2.2,0,3.3c0,0.4-0.2,0.6-0.6,0.6c-1.2,0-2.4,0-3.6,0c-0.4,0-0.5-0.1-0.5-0.5C105.1,111.1,105.1,110.5,105.1,109.9z"/>
				<path class="st2" d="M118.5,107.7c0.6,0,1.1,0,1.7,0c0.4,0,0.6,0.1,0.6,0.5c0,1.1,0,2.3,0,3.4c0,0.4-0.2,0.5-0.6,0.5
					c-1.2,0-2.3,0-3.5,0c-0.4,0-0.6-0.2-0.6-0.6c0-1.1,0-2.2,0-3.3c0-0.4,0.1-0.6,0.6-0.6C117.3,107.7,117.9,107.7,118.5,107.7z"/>
				<path class="st2" d="M107.4,106.9c-0.6,0-1.2,0-1.8,0c-0.4,0-0.6-0.1-0.6-0.5c0-1.1,0-2.2,0-3.3c0-0.4,0.2-0.5,0.6-0.5
					c1.2,0,2.4,0,3.6,0c0.4,0,0.6,0.1,0.6,0.5c0,1.1,0,2.1,0,3.2c0,0.4-0.2,0.6-0.6,0.5C108.6,106.9,108,106.9,107.4,106.9z"/>
				<path class="st2" d="M113,106.9c-0.6,0-1.3,0-1.9,0c-0.3,0-0.5-0.1-0.5-0.5c0-1.1,0-2.3,0-3.4c0-0.3,0.1-0.4,0.4-0.4
					c1.3,0,2.6,0,3.8,0c0.3,0,0.4,0.1,0.4,0.4c0,1.1,0,2.3,0,3.4c0,0.3-0.1,0.5-0.5,0.5C114.2,106.9,113.6,106.9,113,106.9z"/>
				<path class="st2" d="M118.5,106.9c-0.6,0-1.3,0-1.9,0c-0.3,0-0.5-0.1-0.5-0.5c0-1.1,0-2.3,0-3.4c0-0.3,0.1-0.4,0.4-0.4
					c1.3,0,2.6,0,3.8,0c0.3,0,0.4,0.1,0.4,0.4c0,1.1,0,2.3,0,3.4c0,0.3-0.1,0.5-0.5,0.5C119.7,106.9,119.1,106.9,118.5,106.9z"/>
				<path class="st2" d="M118.5,97.5c0.6,0,1.2,0,1.8,0c0.4,0,0.5,0.1,0.5,0.5c0,1.1,0,2.2,0,3.3c0,0.3-0.1,0.5-0.5,0.5
					c-1.3,0-2.5,0-3.8,0c-0.3,0-0.5-0.1-0.5-0.5c0-1.1,0-2.3,0-3.4c0-0.3,0.1-0.4,0.4-0.4C117.2,97.5,117.9,97.5,118.5,97.5z"/>
				<path class="st2" d="M113,101.8c-0.6,0-1.2,0-1.8,0c-0.4,0-0.6-0.1-0.6-0.5c0-1.1,0-2.2,0-3.3c0-0.3,0.1-0.5,0.5-0.5
					c1.3,0,2.5,0,3.8,0c0.4,0,0.5,0.1,0.5,0.5c0,1.1,0,2.2,0,3.3c0,0.4-0.1,0.5-0.5,0.5C114.2,101.8,113.6,101.8,113,101.8z"/>
				<path class="st2" d="M107.4,97.5c0.6,0,1.2,0,1.8,0c0.4,0,0.6,0.1,0.6,0.5c0,1.1,0,2.2,0,3.3c0,0.4-0.2,0.5-0.6,0.5
					c-1.2,0-2.4,0-3.6,0c-0.4,0-0.5-0.1-0.5-0.5c0-1.1,0-2.2,0-3.3c0-0.4,0.2-0.5,0.5-0.5C106.2,97.5,106.8,97.5,107.4,97.5z"/>
				<path class="st2" d="M104.3,99.7c0,0.5,0,1.1,0,1.6c0,0.3-0.1,0.5-0.4,0.5c-1.2,0-2.4,0-3.6,0c-0.4,0-0.4-0.1-0.3-0.4
					c0.5-1.3,1.2-2.4,2-3.6c0.1-0.2,0.3-0.2,0.6-0.2c1.8-0.1,1.8-0.1,1.8,1.7C104.3,99.4,104.3,99.5,104.3,99.7z"/>
				<path class="st2" d="M123.8,101.8c-0.6,0-1.1,0-1.7,0c-0.3,0-0.5-0.1-0.5-0.4c0-1.2,0-2.3,0-3.5c0-0.3,0.1-0.4,0.4-0.4
					c0.5,0,1,0,1.5,0c0.3,0,0.4,0.2,0.6,0.4c0.7,1.1,1.3,2.2,1.9,3.3c0.2,0.5,0.1,0.7-0.5,0.6C124.9,101.8,124.4,101.8,123.8,101.8z
					"/>
				<path class="st2" d="M69.5,97.9c0,9.7,0,19.4,0,29.2c-0.1,0.1-0.2,0.1-0.2-0.1c0-0.2,0-0.4,0-0.6c0-8.6,0-17.2,0-25.9
					c0-0.5,0-1,0-1.5c0,0-0.1,0-0.1,0c-0.1,1.3-0.2,2.6-0.4,3.9c-0.3-0.9-0.6-1.8-0.6-2.7c0.3-0.1,0.3-0.3,0.3-0.6
					c0-0.6,0-1.2,0-1.8C68.8,97.9,69.2,97.9,69.5,97.9z"/>
				<path class="st2" d="M156.4,127.1c0-9.7,0-19.4,0-29.2c0.4,0,0.7,0,1.1,0c0,0.6,0,1.2,0,1.8c0,0.2-0.1,0.5,0.3,0.6
					c0,0.9-0.3,1.8-0.6,2.7c-0.1-1.3-0.2-2.6-0.4-3.9c0,0-0.1,0-0.1,0c0,0.5,0,1,0,1.5c0,8.6,0,17.3,0,25.9
					C156.6,126.7,156.9,127.1,156.4,127.1z"/>
				<path class="st2" d="M104.3,94.7c0,0.5,0,0.8,0,1.1c0,0.9-0.2,1.1-1.2,0.9c-0.3,0-0.4-0.2-0.2-0.4
					C103.3,95.8,103.6,95.2,104.3,94.7z"/>
				<path class="st2" d="M121.6,94.7c0.7,0.5,1,1.1,1.4,1.6c0.2,0.2,0.1,0.4-0.2,0.4c-0.2,0-0.4,0-0.7,0c-0.4,0-0.5-0.1-0.5-0.5
					C121.7,95.8,121.6,95.3,121.6,94.7z"/>
				<path class="st2" d="M81.4,95.3c0.2,0.1,0.5,0.2,0.8,0.2c1.6,0,3.2,0,4.8,0c0,0.1,0.1,0.1,0.1,0.2c-1.8,0.1-3.6,0-5.4,0.1
					C81.5,95.7,81.3,95.6,81.4,95.3z"/>
				<path class="st2" d="M138.9,95.6c1.4-0.2,2.8,0,4.1-0.1c0.5,0,1,0.1,1.4-0.2c0.1,0.3,0,0.4-0.3,0.4c-1.8,0-3.5,0-5.3,0
					C138.9,95.6,138.9,95.6,138.9,95.6z"/>
				<path class="st2" d="M70.1,127.1c0.3-0.4,0.6-0.2,1-0.2C70.8,127.2,70.4,127,70.1,127.1z"/>
				<path class="st2" d="M144.5,95c-0.3-0.3-0.3-0.6,0-0.9C144.5,94.4,144.5,94.7,144.5,95z"/>
				<path class="st2" d="M81.4,94.2c0.3,0.3,0.3,0.5,0,0.8C81.4,94.7,81.4,94.4,81.4,94.2z"/>
				<path class="st2" d="M153.7,126.7c0.2-0.2,0.3-0.1,0.4,0.1C153.9,126.8,153.8,126.8,153.7,126.7z"/>
				<path class="st2" d="M71.8,126.8c0.1-0.2,0.2-0.3,0.4-0.1C72.1,126.8,72,126.8,71.8,126.8z"/>
				<path class="st2" d="M73.7,98c0,0.1,0,0.2,0,0.3c-0.1,0-0.1,0-0.2,0c-0.1-0.1-0.1-0.2-0.1-0.4C73.5,97.9,73.6,98,73.7,98z"/>
				<path class="st2" d="M95.3,100.7c-0.1-0.2-0.1-0.4,0.2-0.4C95.5,100.4,95.5,100.6,95.3,100.7z"/>
				<path class="st2" d="M130.4,100.2c0.3,0.1,0.2,0.3,0.2,0.4C130.4,100.6,130.4,100.4,130.4,100.2z"/>
				<path class="st2" d="M152.2,98.2c0-0.1,0-0.1,0-0.2c0.1,0,0.2,0,0.3,0c0,0.1-0.1,0.2-0.1,0.2C152.3,98.2,152.2,98.2,152.2,98.2z
					"/>
				<path class="st2" d="M154.3,126.8c0.1-0.1,0.1-0.1,0.1,0C154.5,126.8,154.4,126.8,154.3,126.8L154.3,126.8z"/>
				<path class="st2" d="M71.4,126.8c0-0.1,0.1-0.1,0.1,0C71.6,126.8,71.5,126.8,71.4,126.8L71.4,126.8z"/>
				<path class="st2" d="M119.8,163.3c0.3-0.1,0.2-0.3,0.2-0.5c0-4.3,0-8.5,0-12.8c0-0.7-0.5-0.4-0.8-0.7c5.4,0,10.8,0,16.2,0
					c2.3,0,4.5,0,6.8,0c0,4.6,0,9.3,0,13.9c0,0.3,0,0.5,0,0.8c-0.3-0.2-0.4-0.6-0.7-0.8c-0.9-0.7-1.8-0.6-2.5,0.3
					c-0.1,0.1-0.1,0.2-0.3,0.2c0-4.5,0-8.9,0-13.4c0-0.9,0-0.9-0.9-0.9c-4.5,0-8.9,0-13.4,0c-0.2,0-0.4,0-0.6,0
					c-0.6,0-0.9,0.2-0.9,0.8c0,4.1,0,8.1,0,12.2c0,0.3,0,0.6,0,0.9c-0.1-0.1-0.3-0.2-0.4-0.3c-0.8-0.6-1.5-0.5-2.2,0.2
					C120,163.6,120,163.6,119.8,163.3z"/>
				<path class="st2" d="M105.9,149.4c0,4.4,0,8.9,0,13.3c0,0.2-0.1,0.5,0.2,0.6c0,0.3-0.1,0.3-0.4,0.2c-1.4-0.9-1.4-0.9-2.8-0.1
					c0-4.3,0-8.6,0-13c0-0.9-0.1-1-1-1c-4.7,0-9.4,0-14.1,0c-0.6,0-0.7,0.2-0.7,0.7c0,4.5,0,9.1,0,13.6c-0.3-0.1-0.4-0.4-0.6-0.6
					c-1-0.9-2-0.4-2.6,0.4c-0.1,0.1-0.1,0.3-0.3,0.4c0-2,0-4.1,0-6.1c0-2.9,0-5.7,0-8.6c2.4,0,4.9,0,7.3,0c4.7,0,9.5,0,14.2,0
					C105.4,149.3,105.7,149.2,105.9,149.4z"/>
				<path class="st2" d="M87.2,169.5c-0.4-3.6,0.6-6.4,3.5-8.6c1.5-1.1,2.2-2.6,2.7-4.2c0.4-1.1,0.7-2.2,1.1-3.3
					c0.1-0.1,0.1-0.3,0.3-0.4c0.4,1.1,0.7,2.2,1.1,3.3c0.6,1.9,1.6,3.5,3.1,4.9c1.6,1.4,2.5,3.2,3.4,5.1c0.8,1.8,0.2,3.6,0.4,5.3
					c0,0.1,0,0.2-0.1,0.2c0,0.1-0.1,0.1-0.1,0.1c-0.5-3.4-1.9-6.4-3.8-9.3c-0.7-1.1-1.6-2.1-2.5-3c-1.2-1.1-1.8-1-3,0
					c-1.8,1.5-3.1,3.3-4.2,5.2C88.3,166.3,87.6,167.8,87.2,169.5z"/>
				<path class="st2" d="M131.3,153c0.4,1.2,0.7,2.3,1.1,3.5c0.4,1.3,0.8,2.7,1.9,3.7c0.6,0.6,1.4,1.2,2,1.8
					c1.7,1.6,2.4,3.6,2.4,5.9c0,0.5,0,1,0,1.5c-0.5-1.8-1.2-3.5-2.2-5.1c-1.2-1.9-2.4-3.6-4.3-4.9c-0.8-0.6-1.4-0.6-2.2,0.1
					c-2.1,1.8-3.6,4.1-4.8,6.6c-0.8,1.5-1.3,3.1-1.7,4.7c-0.1,0.4-0.1,0.8-0.1,1.2c-0.2-0.2-0.2-0.5-0.2-0.7c0-0.1,0-0.3,0-0.4
					c0-1.9-0.1-3.7,0.9-5.6c0.9-1.7,2-3.3,3.4-4.6c1.4-1.3,2.2-3,2.8-4.8c0.3-0.9,0.6-1.9,0.9-2.8C131.2,153,131.2,153,131.3,153z"
					/>
				<path class="st2" d="M119.8,168.5c-0.4-0.9-0.7-1.8-1.2-2.7c-1.2-2.2-2.5-4.3-4.5-6c-1.2-1.1-1.3-1.1-2.5,0
					c-1.7,1.5-3,3.3-4.1,5.3c-0.5,0.9-1,1.9-1.3,2.9c-0.1,0.1-0.2,0.3-0.4,0.4c0-0.4-0.1-0.9,0-1.2c0.3-0.7,0.3-1.4,0.4-2.1
					c0-0.9,0.7-1.5,1.1-2.2c0.5-0.7,1.1-1.3,1.8-1.8c1.5-1.1,2.2-2.6,2.7-4.2c0.3-0.9,0.6-1.9,1-3c0.2,0.7,0.4,1.3,0.6,1.8
					c0.5,1.4,0.8,2.8,1.7,4c0.6,0.8,1.6,1.4,2.3,2.1c0.8,0.8,1.7,1.7,1.9,2.7c0.2,1.2,0.6,2.4,0.5,3.7
					C120,168.3,119.9,168.3,119.8,168.5z"/>
				<path class="st2" d="M138.6,163.7c0.1,0,0.1,0,0.2,0c0,0.1,0,0.3-0.1,0.3C138.6,164,138.6,163.8,138.6,163.7z"/>
			</g>
			<g>
				<path class="st3" d="M165.2,130.2c-2.4,0-4.8,0-7.2,0c-0.9,0-1.9-0.3-2.8-0.5c-0.6-0.1-1.1-0.2-1.7-0.2c-3.2,0-6.4,0-9.5,0
					c-0.3,0-0.8-0.2-0.7,0.3c0,0.4-0.5,1.1,0.5,1.1c0.4,0,0.3,0.4,0.3,0.6c0,1.1-0.1,2.1,0,3.2c-0.3,0.3-0.6,0.3-1,0.3
					c-8.3-0.1-16.6,0.1-24.9-0.1c-3.8-0.1-7.7,0-11.6,0c-8,0.1-16,0-23.9,0c-0.3,0-0.6-0.1-0.8-0.3c0.1-1.1,0.1-2.2,0-3.3
					c0-0.3,0-0.5,0.4-0.6c0.8-0.1,0.3-0.7,0.4-1c0.1-0.3-0.2-0.4-0.5-0.4c-3.5,0-7.1,0-10.6,0c-1.1,0-2.2,0.3-3.4,0.5
					c-0.3,0-0.6,0.1-0.9,0.1c-2.2,0-4.5,0-6.7,0c-0.5,0-0.7-0.3-0.7-0.7c0-0.6-0.3-1.4,0.1-1.9c0.4-0.4,1.2-0.2,1.9-0.1
					c0.7,0,0.9-0.2,0.8-0.8c0-0.1,0-0.3,0-0.4c0-8.9,0-17.9,0-26.8c0-0.2-0.1-0.5,0.2-0.7c0.1,1.4,0.2,2.7,0.4,4
					c0.1-0.2,0.1-0.4,0.1-0.6c0.5-2.2,0.9-4.3,1.4-6.5c0.1-0.5,0-0.7-0.6-0.7c-1.5,0-2.9,0-4.4,0c0.6-0.2,1.2-0.1,1.8-0.1
					c0.8,0,1.7-0.1,2.5,0c0.7,0.1,1-0.2,1.1-0.9c0.2-1,0.3-1.9,0.6-2.9c0.2,1,0.5,1.8,0.7,2.7c0.2,1.1,0.2,1.1,1.5,1.1
					c0.1,0,0.2,0,0.3,0c0,0,0,0.1,0.1,0.1c-0.3,0-0.6,0-0.9,0c-0.4,0-0.5,0.1-0.5,0.5c0.1,0.9,0.4,1.8,0.6,2.6
					c0.2,0.8,0.1,1.6,0.6,2.3c0,0.9,0.3,1.8,0.6,2.7c0.1-1.3,0.2-2.6,0.4-3.9c0,0,0.1,0,0.1,0c0,0.5,0,1,0,1.5c0,8.6,0,17.2,0,25.9
					c0,0.2,0,0.4,0,0.6c0,0.1,0.1,0.1,0.2,0.1c0.2,0,0.4,0,0.5,0c0.3,0,0.7,0.1,1-0.2c0.1,0,0.3,0,0.4,0c0,0,0.1,0,0.1,0l0.1,0
					c0.1,0,0.2,0,0.3,0c0.2,0,0.3,0,0.4-0.1c0.2,0,0.5,0,0.7,0c0.6,0.1,0.7-0.2,0.7-0.7c0-9.3,0-18.5,0-27.8c0.1,0,0.1,0,0.2,0
					c-0.1,1.5,0.3,2.9,0.3,4.4c0.2-0.2,0.3-0.3,0.3-0.5c0.2-1,0.4-2.1,0.6-3.1c0.3-1.1,0.2-1.2-1-1.2c-0.1,0-0.2,0-0.3,0
					c-0.1,0-0.2,0-0.3,0c-1.3,0-2.6,0-3.9,0c-0.4,0-0.7,0-1.1,0c-0.6,0.1-0.8-0.1-0.7-0.7c0-0.1,0-0.2,0-0.3c0-1.1,0-1.1,1.1-1.2
					c0.9,0,1.8,0,2.7,0c0.9,0,0.9,0,0.9-0.8c0-3.4,0-6.9,0-10.3c0.3,0,0.7-0.1,1,0c0,3.3,0,6.6,0,9.9c0,1.2,0,1.2,1.3,1.3
					c0.7,0,0.9-0.3,1-0.8c0.1-0.8,0.2-1.7,0.5-2.5c0.1-0.5,0-1,0.5-1.5c0.3,1.5,0.7,2.9,0.9,4.3c0.1,0.4,0.3,0.6,0.7,0.6
					c0.6,0,1.2,0,1.8,0c0.5,0,0.3-0.4,0.3-0.6c0-3.2,0-6.5,0-9.7c0-0.7,0.2-0.9,0.9-0.8c0,0.4,0,0.7,0,1.1c0,2.9,0,5.7,0,8.6
					c-0.1,0.3-0.1,0.5,0,0.8c0,0.1,0,0.2,0,0.3c-0.1,0.3,0,0.4,0.3,0.4c1.8,0,3.6,0.1,5.4-0.1c0.5,0,0.8,0.2,0.7,0.7
					c0,0.2,0,0.5,0,0.7c0.1,0.6-0.1,0.9-0.8,0.8c-0.6,0-1.2,0-1.7,0c-2,0-3.9,0-5.9,0c-1.1,0-1.2,0-0.8,1.1c0,0.1,0.1,0.3,0.1,0.4
					c0.1,1.1,0.6,2.1,0.7,3.3c0.6-1.1,0.1-2.2,0.6-3.3c0.2,0.3,0.1,0.6,0.1,0.9c0,7.8,0,15.5,0,23.3c0,0.8,0,1.6,0,2.4
					c0,0.4,0.1,0.6,0.5,0.5c0.5,0,1,0,1.5,0c0.4,0,0.6-0.1,0.6-0.6c0-0.5,0-1.1,0-1.6c0-0.4,0.1-0.5,0.6-0.5c1.3,0,2.6,0,3.9,0
					c2,0,3.9,0,5.9,0c2.2,0,2.2,0,2-2.1c0-2.9,0-5.9,0-8.8c0.1-4.2-0.2-8.3,0.2-12.5c0.2-0.1,0.2-0.3,0.2-0.4c0-0.2,0-0.3,0-0.5
					c0.2-0.1,0.2-0.3,0.3-0.5c0.8-2.4,2.3-4.4,4.2-6.2c1.2-1.1,2.4-2.1,3.5-3.2c1-1,2-1.9,3-2.8c0.4-0.4,1-0.7,1.3-1.1
					c1.8-2.3,2.8-5,4-7.6c0.3-0.7,0.6-1.4,0.9-2.1c0.2,0.1,0.3,0.2,0.3,0.3c0.7,1.5,1.3,3,2,4.5c1,2.2,2,4.4,4,6
					c2.2,1.8,4.2,3.8,6.3,5.6c1.8,1.7,3.4,3.5,4.3,5.8c0.2,0.4,0.1,0.9,0.6,1.2c0,0.2,0,0.3,0,0.5c-0.1,0.2,0,0.4,0.2,0.4
					c0.3,1.7,0.2,3.3,0.2,5c0,2.6,0,5.3,0,7.9c0,2.8,0,5.6,0,8.3c0,0.5,0,1.1,0,1.6c0,0.4,0.1,0.5,0.5,0.5c2.5,0,5,0,7.5,0
					c1.1,0,2.2,0,3.4,0c1.1,0,1.1,0,1.1,1c0,1.6,0,1.6,1.7,1.6c0.9,0,0.9,0,0.9-0.8c0-8.5,0-16.9,0-25.4c0-0.3-0.1-0.5,0.1-0.9
					c0.4,1,0,2.2,0.6,3.1c0-0.7,0.3-1.4,0.5-2.1c0.1-0.7,0.3-1.4,0.5-2.1c0.1-0.3,0-0.5-0.4-0.5c-0.4,0-0.8,0.1-1.2,0.1
					c-2.3-0.3-4.6-0.1-7-0.1c-0.7,0.1-0.9-0.2-0.8-0.8c0-0.2,0-0.4,0-0.6c-0.1-0.6,0.2-0.8,0.8-0.8c1.8,0,3.5,0,5.3,0
					c0.3,0,0.4-0.1,0.3-0.4c0-0.1,0-0.2,0-0.3c0.1-0.3,0.1-0.6,0-0.9c0-0.3,0-0.6,0-0.8c0-2.9,0-5.8,0-8.7c0.7-0.1,0.9,0.1,0.9,0.8
					c0,3.3,0,6.5,0,9.8c0,0.2-0.2,0.6,0.3,0.6c0.6,0,1.2,0,1.8,0c0.4,0,0.6-0.2,0.7-0.6c0.3-1.4,0.6-2.7,0.9-4.2
					c0.1,0.2,0.3,0.3,0.3,0.4c0.2,1.1,0.5,2.1,0.7,3.2c0.2,1.2,0.1,1.2,1.3,1.2c0,0,0.1,0,0.1,0c0.9,0,0.9,0,0.9-0.9
					c0-3.4,0-6.9,0-10.3c0.3,0,0.6,0,0.9,0.1c0,0.1-0.1,0.3,0.1,0.4c0,2.4,0,4.8,0,7.2c-0.1,0.1-0.1,0.1,0,0.2c0,0.1,0,0.3,0,0.4
					c-0.2,0.2-0.2,0.5,0,0.7c0.1,0.7-0.1,1.4,0.2,2c1,0.3,2,0.1,3,0.1c0.1,0,0.3,0,0.4,0c1.1,0.1,1.1,0.1,1.1,1.2c0,0.1,0,0.2,0,0.3
					c0.1,0.6-0.1,0.8-0.7,0.7c-0.4,0-0.7,0-1.1,0c-1.3,0-2.6,0-3.9,0c-0.1,0-0.2,0-0.3,0c-0.3-0.1-0.6,0-0.9,0
					c-0.4,0-0.5,0.1-0.4,0.5c0.3,1.3,0.5,2.5,0.7,3.8c0,0.2,0.1,0.3,0.3,0.4c0-1.5,0.4-3,0.3-4.5c0.1,0,0.1,0,0.2,0
					c0,9.1,0,18.2,0,27.2c0,1.3,0,1.3,1.3,1.3c0.1,0.1,0.3,0.1,0.4,0.1c0.1,0,0.2,0,0.3,0l0.1,0l0.1,0c0.6,0,1.2,0.3,1.9,0.3
					c0.5,0,0.2-0.4,0.2-0.6c0-8.6,0-17.3,0-25.9c0-0.5,0-1,0-1.5c0,0,0.1,0,0.1,0c0.1,1.3,0.2,2.6,0.4,3.9c0.3-0.9,0.6-1.8,0.6-2.7
					c0.1-0.1,0.1-0.2,0.2-0.3c0.3-1.4,0.6-2.8,0.9-4.2c0.2-0.9,0.1-0.9-0.9-1c-0.1,0-0.1,0-0.2-0.1c1.1,0.1,1.6-0.4,1.6-1.5
					c0.1-0.8,0.3-1.6,0.6-2.4c0.4,1,0.5,2,0.7,3c0.1,0.6,0.4,0.8,1.1,0.8c1.2,0,2.4,0,3.6,0c0.2,0,0.5-0.1,0.7,0.1
					c-1.4,0-2.8,0-4.2,0c-0.9,0-1,0-0.8,0.9c0.2,0.9,0.4,1.9,0.6,2.8c0.3,1.4,0.6,2.7,0.9,4.3c0.2-1.5,0.3-2.8,0.5-4.2
					c0.1,0.3,0.1,0.5,0.1,0.7c0,4.6,0,9.1,0,13.7c0,4.6,0,9.1,0,13.7c0,0.5,0.1,0.8,0.8,0.7c0.5,0,1,0,1.5,0c0.4,0,0.5,0.1,0.5,0.5
					c0,0.5,0,1.1,0,1.6C165.9,130,165.7,130.2,165.2,130.2z M113,127.1c-9.6,0-19.2,0-28.8,0c-1.5,0-1.4,0-1.5,1.4
					c0,0.5,0.1,0.7,0.7,0.7c2.9,0,5.7,0,8.6,0c4.3,0,8.5,0.1,12.8-0.1c1.8-0.1,3.6,0,5.4,0c2.3,0.1,4.7,0.1,7.1,0
					c1.7-0.1,3.5,0.1,5.2,0.1c6.5,0,12.9,0,19.4,0c1.3,0,1.3,0,1.3-1.2c0-0.6-0.2-0.8-0.9-0.8C132.6,127.1,122.8,127.1,113,127.1z
					 M127.5,118.4C127.6,118.4,127.6,118.4,127.5,118.4c0-1.7,0-3.3,0-5c0-0.3,0-0.6-0.5-0.6c-1.6,0-3.2,0-4.8,0
					c-0.4,0-0.6,0.2-0.6,0.6c0,3.3,0,6.7,0,10c0,0.5,0.2,0.6,0.6,0.6c1.5,0,3.1,0,4.6,0c0.6,0,0.7-0.2,0.7-0.7
					C127.5,121.7,127.5,120.1,127.5,118.4z M104.3,118.5c0-1.7,0-3.3,0-5c0-0.5-0.2-0.7-0.7-0.7c-1.6,0-3.1,0-4.7,0
					c-0.4,0-0.5,0.1-0.5,0.5c0,3.4,0,6.8,0,10.1c0,0.4,0.2,0.5,0.6,0.5c1.6,0,3.2,0,4.8,0c0.5,0,0.6-0.1,0.6-0.6
					C104.2,121.8,104.3,120.2,104.3,118.5z M120.8,118.5c0-1.7,0-3.3,0-5c0-0.5-0.1-0.7-0.7-0.6c-1.1,0-2.2,0-3.4,0
					c-0.5,0-0.7,0.2-0.7,0.7c0,3.3,0,6.6,0,9.9c0,0.5,0.2,0.6,0.6,0.6c1.2,0,2.3,0,3.5,0c0.5,0,0.6-0.2,0.6-0.6
					C120.8,121.8,120.8,120.1,120.8,118.5z M110.6,118.5c0,1.6,0,3.3,0,4.9c0,0.5,0.1,0.7,0.7,0.7c1.1,0,2.3,0,3.4,0
					c0.5,0,0.6-0.1,0.6-0.6c0-3.3,0-6.7,0-10c0-0.4-0.2-0.6-0.6-0.6c-1.1,0-2.2,0-3.4,0c-0.6,0-0.7,0.2-0.7,0.7
					C110.6,115.2,110.6,116.8,110.6,118.5z M105.1,118.4c0,1.7,0,3.4,0,5.1c0,0.4,0.1,0.5,0.5,0.5c1.2,0,2.4,0,3.6,0
					c0.5,0,0.6-0.1,0.6-0.6c0-3.3,0-6.6,0-9.9c0-0.5-0.2-0.7-0.7-0.6c-1.1,0-2.2,0-3.3,0c-0.5,0-0.7,0.1-0.7,0.7
					C105.1,115.1,105.1,116.8,105.1,118.4z M115.3,92.7c0-1.1,0-2.3,0-3.4c0-0.3-0.1-0.5-0.4-0.7c-1.3-0.7-2.7-0.7-4,0
					c-0.3,0.1-0.4,0.3-0.4,0.6c0,2.3,0,4.6,0,6.9c0,0.4,0.1,0.6,0.6,0.6c1.1,0,2.3,0,3.4,0c0.6,0,0.7-0.2,0.7-0.7
					C115.3,95,115.3,93.8,115.3,92.7z M101.4,107.7c-0.8,0-1.7,0-2.5,0c-0.4,0-0.6,0.1-0.6,0.5c0,1.2,0,2.3,0,3.5
					c0,0.4,0.2,0.5,0.6,0.5c1.6,0,3.3,0.1,4.9-0.1c0.3,0,0.5-0.1,0.5-0.5c0-1.2,0-2.3,0-3.5c0-0.3-0.1-0.5-0.5-0.4
					C103,107.7,102.2,107.7,101.4,107.7z M124.6,107.7c-0.8,0-1.7,0-2.5,0c-0.3,0-0.5,0.1-0.5,0.4c0,1.2,0,2.4,0,3.5
					c0,0.3,0.1,0.4,0.4,0.4c1.7,0.2,3.4,0.1,5,0.1c0.3,0,0.5-0.2,0.5-0.5c0-1.2,0-2.3,0-3.5c0-0.4-0.2-0.5-0.5-0.5
					C126.2,107.7,125.4,107.7,124.6,107.7z M109.8,93.2c0-1.1,0-2.1,0-3.2c0-0.1,0-0.3-0.1-0.3c-0.2-0.1-0.2,0.1-0.3,0.1
					c-1.4,1.1-2.8,2.3-4,3.6c-0.2,0.2-0.3,0.4-0.3,0.6c0,0.7,0,1.5,0,2.2c0,0.4,0.1,0.5,0.6,0.5c1.2,0,2.4,0,3.6,0
					c0.4,0,0.6-0.2,0.6-0.6C109.8,95.2,109.8,94.2,109.8,93.2z M116.1,93c0,1,0,2.1,0,3.1c0,0.4,0.1,0.6,0.6,0.6c1.2,0,2.4,0,3.6,0
					c0.4,0,0.6-0.1,0.6-0.5c0-0.7,0-1.4,0-2.1c0-0.4-0.1-0.7-0.4-0.9c-1.2-1.2-2.4-2.4-3.8-3.4c-0.1-0.1-0.2-0.3-0.4-0.2
					c-0.2,0.1-0.1,0.3-0.1,0.4C116.1,91,116.1,92,116.1,93z M101.3,106.9c0.9,0,1.7,0,2.6,0c0.3,0,0.5-0.1,0.5-0.4
					c0-1.1,0-2.2,0-3.3c0-0.4-0.1-0.5-0.5-0.5c-1.3,0-2.7,0-4,0c-0.2,0-0.5,0-0.5,0.3c-0.3,1.2-0.7,2.3-0.9,3.5
					c0,0.4,0.1,0.5,0.5,0.5C99.6,106.9,100.4,106.9,101.3,106.9z M124.6,106.9c0.8,0,1.6,0,2.4,0c0.5,0,0.6-0.1,0.5-0.6
					c-0.2-1.2-0.5-2.3-0.8-3.4c-0.1-0.3-0.3-0.3-0.6-0.3c-1.3,0-2.6,0-4,0c-0.4,0-0.6,0.1-0.6,0.5c0,1.1,0,2.2,0,3.3
					c0,0.4,0.2,0.5,0.5,0.5C123,106.9,123.8,106.9,124.6,106.9z M112.9,112.1c0.6,0,1.2,0,1.8,0c0.4,0,0.6-0.1,0.6-0.6
					c0-1.1,0-2.2,0-3.3c0-0.4-0.1-0.6-0.6-0.6c-1.2,0-2.4,0-3.6,0c-0.4,0-0.6,0.1-0.6,0.5c0,1.1,0,2.3,0,3.4c0,0.4,0.2,0.6,0.6,0.5
					C111.8,112.1,112.3,112.1,112.9,112.1z M105.1,109.9c0,0.6,0,1.2,0,1.7c0,0.4,0.2,0.5,0.5,0.5c1.2,0,2.4,0,3.6,0
					c0.4,0,0.6-0.1,0.6-0.6c0-1.1,0-2.2,0-3.3c0-0.4-0.1-0.6-0.5-0.5c-1.2,0-2.4,0-3.6,0c-0.4,0-0.5,0.1-0.5,0.5
					C105.1,108.8,105.1,109.3,105.1,109.9z M118.5,107.7c-0.6,0-1.2,0-1.8,0c-0.4,0-0.6,0.2-0.6,0.6c0,1.1,0,2.2,0,3.3
					c0,0.5,0.2,0.6,0.6,0.6c1.2,0,2.3,0,3.5,0c0.4,0,0.6-0.1,0.6-0.5c0-1.1,0-2.3,0-3.4c0-0.4-0.2-0.6-0.6-0.5
					C119.6,107.7,119.1,107.7,118.5,107.7z M107.4,106.9c0.6,0,1.2,0,1.7,0c0.4,0,0.6-0.1,0.6-0.5c0-1.1,0-2.1,0-3.2
					c0-0.4-0.2-0.5-0.6-0.5c-1.2,0-2.4,0-3.6,0c-0.4,0-0.6,0.1-0.6,0.5c0,1.1,0,2.2,0,3.3c0,0.4,0.2,0.5,0.6,0.5
					C106.2,106.9,106.8,106.9,107.4,106.9z M113,106.9c0.6,0,1.3,0,1.9,0c0.3,0,0.5-0.1,0.5-0.5c0-1.1,0-2.3,0-3.4
					c0-0.3-0.1-0.4-0.4-0.4c-1.3,0-2.6,0-3.8,0c-0.3,0-0.4,0.1-0.4,0.4c0,1.1,0,2.3,0,3.4c0,0.3,0.1,0.5,0.5,0.5
					C111.7,106.9,112.3,106.9,113,106.9z M118.5,106.9c0.6,0,1.3,0,1.9,0c0.4,0,0.5-0.1,0.5-0.5c0-1.1,0-2.3,0-3.4
					c0-0.3-0.1-0.4-0.4-0.4c-1.3,0-2.6,0-3.8,0c-0.3,0-0.4,0.1-0.4,0.4c0,1.1,0,2.3,0,3.4c0,0.3,0.1,0.5,0.5,0.5
					C117.2,106.9,117.8,106.9,118.5,106.9z M118.5,97.5c-0.6,0-1.3,0-1.9,0c-0.3,0-0.4,0.1-0.4,0.4c0,1.1,0,2.3,0,3.4
					c0,0.3,0.1,0.5,0.5,0.5c1.3,0,2.5,0,3.8,0c0.3,0,0.5-0.1,0.5-0.5c0-1.1,0-2.2,0-3.3c0-0.4-0.1-0.5-0.5-0.5
					C119.7,97.5,119.1,97.5,118.5,97.5z M113,101.8c0.6,0,1.2,0,1.8,0c0.4,0,0.5-0.1,0.5-0.5c0-1.1,0-2.2,0-3.3
					c0-0.3-0.1-0.5-0.5-0.5c-1.3,0-2.5,0-3.8,0c-0.4,0-0.5,0.2-0.5,0.5c0,1.1,0,2.2,0,3.3c0,0.4,0.2,0.5,0.6,0.5
					C111.8,101.8,112.4,101.8,113,101.8z M107.4,97.5c-0.6,0-1.2,0-1.8,0c-0.4,0-0.5,0.1-0.5,0.5c0,1.1,0,2.2,0,3.3
					c0,0.4,0.1,0.5,0.5,0.5c1.2,0,2.4,0,3.6,0c0.4,0,0.6-0.1,0.6-0.5c0-1.1,0-2.2,0-3.3c0-0.4-0.2-0.5-0.6-0.5
					C108.6,97.5,108,97.5,107.4,97.5z M104.3,99.7c0-0.2,0-0.3,0-0.5c0-1.7,0-1.7-1.8-1.7c-0.2,0-0.4,0-0.6,0.2
					c-0.8,1.1-1.5,2.3-2,3.6c-0.1,0.3-0.1,0.4,0.3,0.4c1.2,0,2.4,0,3.6,0c0.4,0,0.4-0.2,0.4-0.5C104.2,100.8,104.3,100.2,104.3,99.7
					z M123.8,101.8c0.6,0,1.1,0,1.7,0c0.6,0,0.7-0.1,0.5-0.6c-0.5-1.1-1.2-2.2-1.9-3.3c-0.1-0.2-0.3-0.4-0.6-0.4c-0.5,0-1,0-1.5,0
					c-0.3,0-0.4,0.1-0.4,0.4c0,1.2,0,2.3,0,3.5c0,0.4,0.2,0.4,0.5,0.4C122.7,101.8,123.3,101.8,123.8,101.8z M104.3,94.7
					c-0.7,0.5-1,1.1-1.4,1.6c-0.2,0.2-0.1,0.4,0.2,0.4c1,0.1,1.2,0,1.2-0.9C104.3,95.5,104.3,95.2,104.3,94.7z M121.6,94.7
					c0,0.6,0,1.1,0,1.6c0,0.4,0.1,0.5,0.5,0.5c0.2,0,0.4,0,0.7,0c0.3,0,0.4-0.2,0.2-0.4C122.6,95.8,122.3,95.2,121.6,94.7z"/>
				<path class="st3" d="M70.1,69.5c0.5-0.1,0.4-0.5,0.5-0.7c0.3-2.4,0.8-4.8,1.2-7.3c0.3-2.2,0.8-4.4,1.1-6.6
					c0.4-2.4,0.7-4.8,1.2-7.1c0.3-1.7,0.6-3.4,0.8-5.2c0.3-1.9,0.6-3.8,0.9-5.6c0.2-1.3,0.6-2.6,0.7-3.9c0.1-0.4,0.1-0.7-0.4-0.9
					c-0.4-0.1-0.7-0.5-0.6-0.8c0.1-0.4,0.3-0.7,0.8-0.8c0.3,0,0.7,0,0.6-0.4c0-0.3,0.3-0.8-0.3-1c-0.3-0.1-0.5-0.5-0.4-0.9
					c0.1-0.3,0.2-0.7,0.7-0.7c0.2,0,0.4,0,0.4-0.2c0-0.2-0.2-0.3-0.4-0.3c-0.9-0.4-1.1-1.7-0.2-2.4c0.7-0.5,1.6-0.4,2.1,0.3
					c0.4,0.6,0.3,1.5-0.3,1.9c-0.1,0-0.1,0-0.2,0.1c-0.1,0.1-0.4,0.2-0.4,0.4c0,0.2,0.3,0.2,0.5,0.2c0.4,0.1,0.6,0.3,0.6,0.7
					c0,0.4-0.1,0.8-0.5,0.9c-0.5,0.1-0.4,0.5-0.3,0.8c0,0.3,0.1,0.6,0.6,0.6c0.5,0,0.8,0.3,0.8,0.8c0.1,0.4-0.1,0.8-0.6,0.9
					c-0.3,0.1-0.4,0.2-0.3,0.6c0.5,2.6,1,5.2,1.3,7.9c0.3,2.7,0.9,5.3,1.3,8c0.4,2.4,0.8,4.9,1.3,7.3c0.4,2.3,0.8,4.7,1.1,7
					c0.3,1.6,0.6,3.3,0.8,4.9c0.1,0.3,0.2,0,0.3,0.1c-0.4,1.3-0.8,2.7-1.2,4c-0.2,0.7-0.4,1.4-0.6,2.1c-0.3,1-0.7,2-1,3
					c-0.3,0.9-0.6,1.9-0.9,2.8c0,0-0.1,0-0.1,0c-1.3-4.2-2.6-8.4-3.9-12.6c-0.1,0-0.1,0-0.2,0c-1.3,4.4-2.5,8.8-3.8,13.1
					c-0.4-1-0.6-1.9-0.9-2.8c-0.3-1.2-0.6-2.4-0.9-3.5C71,72.6,70.5,71,70.1,69.5z M78.4,55.7C78.4,55.7,78.4,55.7,78.4,55.7
					c0-0.5,0-1,0-1.5c0-0.4-0.3-0.7-0.7-0.8c-0.4-0.1-0.6,0.2-0.8,0.5c-0.1,0.2-0.2,0.5-0.2,0.7c0,0.7,0,1.4,0,2
					c0,0.6,0.2,0.7,0.8,0.7c1.1,0,0.9,0.1,0.9-0.8C78.4,56.3,78.4,56,78.4,55.7z"/>
				<path class="st3" d="M141,68c0.1-0.1,0.3,0.3,0.3-0.1c0.3-2.3,0.7-4.5,1.1-6.7c0.3-2,0.7-3.9,1-5.8c0.3-1.8,0.6-3.7,0.9-5.5
					c0.3-1.9,0.7-3.8,1-5.7c0.3-1.6,0.4-3.2,0.7-4.7c0.3-1.9,0.5-3.8,1-5.6c0.1-0.4,0.1-0.7,0.2-1.1c0-0.3-0.2-0.3-0.4-0.4
					c-0.5-0.2-0.7-0.5-0.6-0.9c0.1-0.4,0.3-0.8,0.8-0.8c0.4,0,0.5-0.3,0.6-0.6c0-0.3,0.2-0.6-0.3-0.8c-0.4-0.1-0.5-0.5-0.5-0.9
					c0-0.4,0.3-0.6,0.6-0.7c0.2-0.1,0.5,0,0.6-0.3c0-0.2-0.3-0.3-0.5-0.4c-0.6-0.4-0.9-1-0.7-1.7c0.2-0.5,0.9-0.9,1.5-0.9
					c0.7,0,1.1,0.4,1.3,1c0.2,0.6,0,1-0.4,1.4c-0.1,0.1-0.3,0.2-0.4,0.3c-0.1,0.1-0.2,0.1-0.2,0.2c0,0.2,0.2,0.2,0.3,0.2
					c0.5,0,0.8,0.4,0.8,0.8c0.1,0.4-0.2,0.7-0.6,1c-0.4,0.2-0.1,0.6-0.2,0.9c0,0.3,0.2,0.4,0.4,0.4c0.6,0,0.9,0.4,1,0.8
					c0.1,0.5-0.2,0.8-0.7,0.9c-0.4,0.1-0.3,0.4-0.3,0.6c0.4,2.2,0.8,4.4,1.2,6.5c0.3,1.5,0.4,3,0.7,4.5c0.2,1.1,0.4,2.2,0.6,3.3
					c0.3,1.6,0.5,3.1,0.8,4.7c0.2,1.3,0.4,2.7,0.7,4c0.4,2.1,0.7,4.3,1.1,6.4c0.3,2.1,0.8,4.1,1,6.2c0,0.3,0,0.8,0.5,0.9
					c-1,3.7-1.9,7.3-2.9,11c0,0-0.1,0-0.1,0c-1.3-4.4-2.5-8.8-3.8-13.1c-0.1,0-0.1,0-0.2,0c-1.3,4.2-2.6,8.4-3.9,12.6
					c-0.6-1.4-1-2.8-1.5-4.2c-0.4-1.3-0.8-2.5-1.2-3.8C141.8,70.7,141.4,69.3,141,68z M147.5,55.6C147.5,55.6,147.5,55.6,147.5,55.6
					c0,0.4,0,0.9,0,1.3c0,0.4,0.1,0.6,0.5,0.5c0.2,0,0.5,0,0.7,0c0.2,0,0.4-0.1,0.4-0.3c0-1.1,0.2-2.1-0.1-3.2
					c-0.1-0.4-0.4-0.6-0.8-0.6c-0.4,0.1-0.7,0.4-0.7,0.8C147.5,54.7,147.5,55.2,147.5,55.6z"/>
				<path class="st3" d="M119.5,26.5c-0.2,0.7-0.4,1.5-0.6,2.2c-0.1,0-0.1,0-0.2,0c-0.6-2.2-1.1-4.4-1.7-6.6c-0.1,0-0.1,0-0.2,0
					c-0.5,2.2-1,4.5-1.8,6.7c-0.8-2.2-1.1-4.4-1.8-6.6c-0.3,0-0.2,0.3-0.3,0.4c-0.1-0.1-0.1-0.3-0.3-0.4c-0.5,2.2-1.1,4.5-1.6,6.7
					c-0.1,0-0.2,0-0.2,0c-0.7-2.2-1.1-4.5-1.7-6.7c-0.1,0-0.1,0-0.2,0c-0.6,2.2-1.1,4.4-1.7,6.6c-0.1,0-0.1,0-0.2,0
					c-0.2-0.8-0.4-1.5-0.6-2.3c0.4-1.2,0.3-2.4,0.5-3.7c0.2-1.6,0.4-3.2,0.6-4.8c0.3-2.1,0.5-4.2,0.7-6.4c0.1-0.8,0.2-1.6,0.3-2.4
					c0.1-0.6,0.1-1.1-0.5-1.5c0,0,0,0-0.1,0c-1.6-1.5-1.6-1.7-1.2-3.8c0.3-1.3,0.4-2.7,0.5-4c0.2-1.3,0.3-2.6,0.6-3.9
					c0.4,2.1,0.8,4.3,1.2,6.4c0,0,0.1,0,0.1,0c1.1-9.4,2.3-18.8,3.4-28.2c0.1,0,0.1,0,0.2,0c1.1,9.4,2.3,18.8,3.4,28.2
					c0,0,0.1,0,0.1,0c0.4-2.1,0.8-4.3,1.2-6.4c0.1,0,0.1,0,0.2,0c0.2,2,0.5,3.9,0.7,5.9c0.2,1.3,0.4,2.6,0.5,3.9c0,0.4,0,0.7-0.3,1
					c-0.4,0.4-0.8,0.8-1.3,1.2c-0.3,0.3-0.4,0.6-0.4,1c0.3,2,0.5,4,0.8,6c0.2,1.3,0.3,2.7,0.4,4c0.2,1.5,0.4,3.1,0.6,4.6
					C119.1,24.5,119.1,25.5,119.5,26.5z"/>
				<path class="st3" d="M104.9,23.5c0,0.7-0.4,1.3-0.5,2c-0.2,1.1-0.6,2.1-0.9,3.2c0,0.1,0,0.3-0.2,0.3c-0.2,0-0.2-0.2-0.3-0.3
					c-0.3-1.2-0.7-2.3-0.9-3.5c-0.1-0.5-0.5-1-0.4-1.5c0.2,0,0.2,0.3,0.3,0.4c0.4-3.2,0.9-6.3,1.3-9.4c0.1,0,0.1,0,0.2,0
					c0.2,1.4,0.4,2.8,0.6,4.1c0.2,1.5,0.4,3,0.6,4.5C104.7,23.4,104.8,23.5,104.9,23.5z"/>
				<path class="st3" d="M124.1,23.6c-0.3,1.1-0.6,2.3-0.9,3.4c-0.1,0.5-0.3,1.1-0.4,1.6c0,0.2-0.1,0.3-0.3,0.3
					c-0.2,0-0.2-0.2-0.2-0.3c-0.4-1.4-0.8-2.8-1.1-4.2c-0.1-0.3-0.4-0.6-0.3-1c0.5-0.4,0.3-1,0.4-1.5c0.2-1.3,0.4-2.7,0.6-4
					c0.1-1.1,0.3-2.2,0.4-3.3c0.1,0,0.1,0,0.2,0c0.4,3.1,0.9,6.2,1.3,9.4C124,23.9,123.9,23.6,124.1,23.6z"/>
				<path class="st3" d="M133.2,65.6c-0.5-0.1-1-0.1-1.5,0c-0.2-0.3-0.3-0.5-0.2-0.9c0.2-1,0.4-2,0.6-3c0-0.2,0.2-0.4,0.3-0.6
					c0.2,0,0.3,0.2,0.3,0.3c0.1,1.2,0.5,2.3,0.8,3.4C133.5,65.2,133.4,65.4,133.2,65.6z"/>
				<path class="st3" d="M94.2,65.6c-0.5-0.1-1-0.1-1.5,0c-0.5-0.3-0.2-0.7-0.1-1.1c0.2-1,0.6-2,0.7-3c0-0.1,0.1-0.2,0.2-0.4
					c0.2,0.2,0.3,0.5,0.4,0.7c0.2,1,0.4,2,0.6,3C94.5,65.1,94.5,65.3,94.2,65.6z"/>
				<path class="st3" d="M59.3,94.7c-0.2,0-0.2-0.2-0.2-0.3C59.3,94.5,59.3,94.6,59.3,94.7z"/>
				<path class="st3" d="M166.8,94.4c0,0.2,0,0.3-0.2,0.3C166.6,94.6,166.6,94.5,166.8,94.4z"/>
				<path class="st3" d="M59.6,94.8c-0.1,0-0.1,0-0.2,0C59.5,94.7,59.5,94.7,59.6,94.8z"/>
				<path class="st3" d="M166.5,94.8c-0.1,0-0.1,0-0.2,0C166.4,94.7,166.4,94.7,166.5,94.8z"/>
				<path class="st3" d="M89.3,186.7c-0.1,0.1-0.3,0.1-0.5,0.1c-1.6,0-3.2,0.2-4.8,0.1c0-0.2,0-0.5,0-0.7c0-6.2,0-12.3,0-18.5
					c0-0.2,0.1-0.4,0-0.6c-0.5-1-0.4-2.1-0.2-3.2c0.2,0,0.2-0.3,0.3-0.4c0.6-0.8,1.6-1.3,2.6-0.4c0.2,0.2,0.3,0.5,0.6,0.6
					c0.3-0.1,0.3-0.4,0.4-0.6c0.5-1.5,1.4-2.8,2.5-4c0.8-0.8,1.7-1.4,2.2-2.4c0.8-1.4,1.1-3,1.6-4.4c0.2-0.7,0.3-1.5,0.8-2.2
					c0.5,1.5,0.9,2.8,1.3,4.1c0.5,1.4,1.1,2.7,2.2,3.8c1.6,1.7,3,3.5,3.8,5.7c0.1,0.4,0.1,0.9,0.5,1.2c-0.2-0.6,0.4-1,0.5-1.5
					c1.5-0.8,1.5-0.8,2.8,0.1c0.2,0.2,0.4,0.1,0.4-0.2c0.7-1.9,1.8-3.5,3.3-4.9c0.6-0.6,1.2-1.2,1.6-1.9c0.6-1.2,1-2.5,1.3-3.8
					c0.2-0.6,0.4-1.2,0.6-1.8c0.4,1.2,0.7,2.3,1,3.4c0.5,1.5,1,2.9,2.3,4c1.6,1.4,2.9,3,3.5,5.1c0.2,0.3,0.2,0.3,0.6-0.1
					c0.7-0.7,1.4-0.7,2.2-0.2c0.1,0.1,0.3,0.2,0.4,0.3c0.2,0.5,0.5,0.9,0.5,1.5c0.1-0.1,0.1-0.1,0.1-0.1c0-0.1,0.1-0.2,0.1-0.3
					c0.5-2.2,1.6-4,3.2-5.7c1.5-1.5,2.6-3.2,3.2-5.2c0.4-1.2,0.7-2.3,1.1-3.5c0.2,0,0.2,0.1,0.2,0.2c0.3,1.1,0.7,2.2,1,3.2
					c0.5,1.5,0.8,3,1.9,4.1c0.7,0.8,1.6,1.5,2.3,2.3c0.9,1.1,1.5,2.4,2,3.7c0,0.1,0,0.3,0.1,0.3c0.1,0,0.1-0.2,0.1-0.3c0,0,0,0,0,0
					c0.2,0,0.2-0.1,0.3-0.2c0.7-0.9,1.6-1,2.5-0.3c0.3,0.2,0.3,0.6,0.7,0.8c0.1,0.8,0.4,1.5,0.1,2.3c-0.3,0.8-0.3,1.7-0.3,2.5
					c0,1.6,0,3.2,0,4.7c0,4.5,0,8.9,0,13.4c-1.6,0.1-3.2-0.1-4.8-0.1c-0.2,0-0.3,0-0.5-0.1c0-3.9,0-7.9,0-11.8c0-2.1-0.1-4.1-0.9-6
					c-0.9-2.1-1.9-4.2-3.5-5.9c-0.9-0.9-1.3-0.9-2.2,0c0,0-0.1,0.1-0.1,0.2c-1.5,1.8-2.5,3.8-3.3,5.9c-0.5,1.3-1,2.7-1.1,4.1
					c-0.2,4.5-0.1,9,0,13.5c-0.1,0-0.3,0.1-0.4,0.1c-2.2,0.1-4.5,0.2-6.7,0c-0.1,0-0.2-0.1-0.4-0.1c0-4-0.1-7.9,0-11.9
					c0.1-2.7-0.5-5.2-1.7-7.7c-0.8-1.6-1.7-3.1-3-4.3c-0.3-0.3-0.6-0.3-0.9,0c-1,1-1.8,2.2-2.5,3.4c-1,1.7-1.7,3.5-2,5.5
					c-0.2,1.2-0.1,2.3-0.1,3.5c0,3.9,0,7.7,0,11.6c-0.7,0.3-1.5,0.2-2.2,0.2c-1.6,0.2-3.2-0.1-4.8-0.1c-0.1,0-0.3-0.1-0.4-0.1
					c0-4.2,0-8.4,0-12.7c0-0.5,0-1-0.1-1.5c-0.5-2.4-1.3-4.7-2.5-6.8c-0.6-1.1-1.3-2.2-2.2-3.1c-0.5-0.5-0.9-0.5-1.4-0.1
					c-0.2,0.2-0.4,0.4-0.6,0.6c-0.8,0.9-1.5,1.9-2.1,2.9c-0.9,1.6-1.6,3.3-2,5.2c-0.2,1.2-0.2,2.3-0.2,3.5
					C89.3,178.7,89.3,182.7,89.3,186.7z M87.2,169.5c0.4-1.7,1-3.2,1.8-4.6c1.1-2,2.4-3.8,4.2-5.2c1.2-1,1.8-1.1,3,0
					c1,0.9,1.8,1.9,2.5,3c1.9,2.8,3.4,5.9,3.8,9.3c0,0,0.1-0.1,0.1-0.1c0-0.1,0.1-0.2,0.1-0.2c-0.2-1.8,0.4-3.5-0.4-5.3
					c-0.9-1.9-1.8-3.7-3.4-5.1c-1.5-1.4-2.5-3-3.1-4.9c-0.4-1.1-0.7-2.2-1.1-3.3c-0.2,0.1-0.2,0.3-0.3,0.4c-0.4,1.1-0.7,2.2-1.1,3.3
					c-0.5,1.6-1.2,3.1-2.7,4.2C87.9,163.1,86.8,165.9,87.2,169.5z M131.3,153c0,0-0.1,0-0.1,0c-0.3,0.9-0.6,1.9-0.9,2.8
					c-0.7,1.7-1.4,3.4-2.8,4.8c-1.4,1.3-2.5,2.9-3.4,4.6c-1,1.8-0.8,3.7-0.9,5.6c0,0.1,0,0.3,0,0.4c0,0.2,0,0.5,0.2,0.7
					c0-0.4,0-0.8,0.1-1.2c0.4-1.6,0.9-3.2,1.7-4.7c1.2-2.4,2.6-4.7,4.8-6.6c0.8-0.7,1.4-0.7,2.2-0.1c1.8,1.3,3.1,3.1,4.3,4.9
					c1,1.6,1.7,3.3,2.2,5.1c0-0.5,0.1-1,0-1.5c0-2.3-0.8-4.3-2.4-5.9c-0.6-0.6-1.4-1.2-2-1.8c-1-1-1.4-2.4-1.9-3.7
					C132,155.3,131.7,154.1,131.3,153z M119.8,168.5c0.1-0.1,0.1-0.2,0.1-0.2c0.1-1.3-0.3-2.5-0.5-3.7c-0.2-1.1-1-1.9-1.9-2.7
					c-0.7-0.7-1.7-1.3-2.3-2.1c-0.9-1.2-1.3-2.7-1.7-4c-0.2-0.6-0.4-1.1-0.6-1.8c-0.4,1.1-0.7,2.1-1,3c-0.5,1.6-1.2,3.1-2.7,4.2
					c-0.7,0.5-1.3,1.1-1.8,1.8c-0.5,0.7-1.1,1.3-1.1,2.2c0,0.7,0,1.4-0.4,2.1c-0.2,0.4,0,0.8,0,1.2c0.2-0.1,0.3-0.3,0.4-0.4
					c0.4-1,0.8-2,1.3-2.9c1.1-1.9,2.4-3.8,4.1-5.3c1.2-1,1.3-1.1,2.5,0c1.9,1.7,3.3,3.8,4.5,6C119.1,166.6,119.4,167.5,119.8,168.5z
					"/>
				<path class="st3" d="M81.9,145.1c0.2-0.3,0.5-0.3,0.8-0.3c15,0,30.1,0,45.1,0c5,0,10.1,0,15.1,0c0.9,0,0.9,0,1,0.9
					c0,1.1,0,2.2,0,3.4c-0.2,0.2-0.4,0.3-0.6,0.3c-0.4,0-0.7,0-1.1,0c-2.3,0-4.5,0-6.8,0c-5.4,0-10.8,0-16.2,0
					c-4.4,0-8.9-0.1-13.3,0.1c-0.2-0.2-0.5-0.1-0.7-0.1c-4.7,0-9.5,0-14.2,0c-2.4,0-4.9,0-7.3,0c-0.2,0-0.5,0-0.7,0
					c-0.4,0-0.8,0.1-1-0.2C81.9,147.7,81.9,146.4,81.9,145.1z"/>
				<path class="st3" d="M123.8,87.1c-0.7-0.3-1.2-0.8-1.8-1.3c-1.3-1.1-2.8-2.2-3.7-3.6c-0.4-0.5-0.8-1-0.9-1.7c0.2,0,0.3,0,0.5,0
					c0.5,0,1.1,0.1,1.6,0c1.2,0,2.4,0,3.6,0c0.5,0,0.7,0.1,0.7,0.7C123.7,83.1,123.8,85.1,123.8,87.1z"/>
				<path class="st3" d="M121.9,71.4c0-1.4,0-2.8,0-4.2c0-0.7,0.2-1.5,0.8-2c0.4-0.4,0.8-0.4,1.2,0c0.5,0.6,0.7,1.2,0.7,1.9
					c0,2.9,0,5.9,0,8.8c0,0.4-0.1,0.5-0.5,0.5c-0.7,0-1.6,0.3-2.1-0.1c-0.5-0.4-0.1-1.2-0.1-1.9C121.9,73.3,121.9,72.3,121.9,71.4
					C121.9,71.4,121.9,71.4,121.9,71.4z M124.2,71.8c0-1,0-1.9,0-2.9c0-0.5-0.2-0.9-0.4-1.3c-0.3-0.5-0.8-0.5-1.1,0
					c-0.3,0.4-0.4,0.9-0.4,1.4c0,1.6,0,3.3,0,4.9c0,1.5-0.3,1.3,1.4,1.3c0.4,0,0.5-0.1,0.5-0.5C124.2,73.8,124.2,72.8,124.2,71.8z"
					/>
				<path class="st3" d="M108.5,80.5c-0.4,1.1-1.1,2-1.9,2.9c-1.3,1.3-2.7,2.5-4.1,3.6c-0.1,0.1-0.2,0.2-0.4,0.1c0-2,0-4,0-6
					c0-0.6,0.2-0.7,0.7-0.7c1.2,0,2.4,0,3.6,0c0.5,0.1,1.1,0,1.6,0C108.2,80.5,108.4,80.5,108.5,80.5z"/>
				<path class="st3" d="M104,71.4c0,1.5,0,3,0,4.4c0,0.4-0.1,0.5-0.5,0.5c-0.6,0-1.2,0-1.7,0c-0.4,0-0.5-0.1-0.5-0.5
					c0-3,0-5.9,0-8.9c0-0.5,0.2-1.1,0.5-1.5c0.2-0.3,0.4-0.6,0.9-0.6c0.5,0,0.7,0.3,0.9,0.6c0.3,0.5,0.5,1.1,0.5,1.8
					C104,68.6,104,70,104,71.4z M103.6,71.8c0-0.9,0-1.9,0-2.8c0-0.5-0.1-0.9-0.4-1.3c-0.4-0.5-0.8-0.5-1.1,0
					c-0.2,0.4-0.4,0.8-0.4,1.3c0,1.7,0,3.3,0,5c0,1.3,0,1.3,1.4,1.3c0.5,0,0.6-0.2,0.6-0.6C103.6,73.7,103.6,72.8,103.6,71.8z"/>
				<path class="st3" d="M114.4,63.9c0-1.3,0-2.7,0-4c0-0.6,0.2-1.2,0.4-1.7c0.2-0.4,0.5-0.7,0.9-0.7c0.4,0,0.7,0.3,0.9,0.6
					c0.3,0.6,0.5,1.2,0.5,1.8c0,2.8,0,5.7,0,8.5c0,0.4-0.1,0.6-0.6,0.6c-0.6,0-1.1,0-1.7,0c-0.4,0-0.5-0.1-0.5-0.5
					C114.4,67,114.4,65.4,114.4,63.9z M114.8,64.4c0,0.4,0,0.7,0,1.1c0,0.4,0,0.8,0,1.2c0,1.3-0.2,1.2,1.3,1.2
					c0.5,0,0.7-0.1,0.7-0.6c0-1.8,0-3.7,0-5.5c0-0.4-0.1-0.8-0.2-1.1c-0.1-0.3-0.3-0.6-0.7-0.7c-0.3,0-0.6,0.2-0.7,0.5
					c-0.1,0.4-0.3,0.8-0.3,1.3C114.8,62.6,114.8,63.5,114.8,64.4z"/>
				<path class="st3" d="M111.5,64.1c0,1.5,0,2.9,0,4.4c0,0.5-0.1,0.6-0.6,0.6c-0.7-0.1-1.6,0.3-2.1-0.1c-0.4-0.4-0.1-1.3-0.1-1.9
					c0-2.3,0-4.6,0-6.9c0-0.7,0.2-1.4,0.5-2c0.5-0.8,1.4-0.8,1.8,0.1c0.3,0.5,0.5,1.1,0.5,1.7C111.5,61.2,111.5,62.7,111.5,64.1
					C111.5,64.1,111.5,64.1,111.5,64.1z M109.2,64.3c0,0.9,0,1.7,0,2.4c0,1.3-0.2,1.1,1.3,1.2c0.5,0,0.7-0.1,0.7-0.6
					c0-1.7,0-3.4,0-5.1c0-0.5,0-0.9-0.2-1.4c-0.1-0.4-0.3-0.8-0.8-0.8c-0.5,0-0.7,0.5-0.8,0.9C109.1,62.1,109.3,63.3,109.2,64.3z"/>
			</g>
			<g>
				<path class="st4" d="M165,183.8c0,0.9,0,1.8,0,2.6c0,0.6-0.1,0.8-0.8,0.8c-7.6,0-15.3,0-22.9,0c-26.6,0-53.1,0-79.7,0
					c-0.7,0-0.8-0.2-0.8-0.8c0.1-0.9,0,5,0,4.1c0.1-0.8-0.1-8.4-0.1-9.2c0.1-9.5-0.1-19,0.1-28.4c0.2-6.2-0.1-12.4-0.1-18.5
					c0-1.1,0-2.2,0-3.4c0-0.3,0-0.5-0.1-0.7c2.2,0,4.5,0,6.7,0c0.3,0,0.6,0,0.9-0.1c1.1-0.2,2.2-0.5,3.4-0.5c3.5-0.1,7.1,0,10.6,0
					c0.3,0,0.6,0.1,0.5,0.4c-0.1,0.3,0.4,0.9-0.4,1c-0.4,0-0.5,0.3-0.4,0.6c0.1,1.1,0,2.2,0,3.3c0,0.7,0.1,1.5,0.1,2.2
					c0,2.7,0,5.4,0,8.1c0,1.3,0,2.7,0,4c-0.1,0.4,0,0.7,0,1.1c-0.1,5.2,0.1,10.4-0.1,15.6c-0.1,1.5,0.2,3,0.1,4.5c0,4.3,0,8.6,0,13
					c0,1.1,0,2.2,0,3.3c0,0.4,0.1,0.5,0.5,0.5c0.5,0,1,0,1.5,0c1.6,0.1,3.2-0.1,4.8-0.1c0.2,0,0.3,0,0.5-0.1c3.7,0,7.4,0,11.1,0
					c0.1,0,0.3,0.1,0.4,0.1c1.6,0,3.2,0.3,4.8,0.1c0.7-0.1,1.5,0.1,2.2-0.2c3.4,0,6.8,0,10.1,0c0.1,0,0.2,0.1,0.4,0.1
					c2.2,0.2,4.5,0.1,6.7,0c0.1,0,0.3-0.1,0.4-0.1c3.7,0,7.4,0,11.1,0c0.1,0.1,0.3,0.1,0.5,0.1c1.6,0,3.2,0.2,4.8,0.1
					c0.4,0,0.9,0,1.3,0c0.6,0.1,0.8-0.1,0.8-0.7c0-7.3,0-14.5,0-21.8c0-4.8,0-9.6,0-14.5c0-0.3,0.2-0.6,0-0.9c0-1.1,0-2.2,0-3.4
					c0.4-0.1,0.2-0.4,0.2-0.6c-0.1-0.2-0.2-0.4-0.2-0.7c0-3.2-0.1-6.4,0.1-9.7c-0.1-1.1,0-2.1,0-3.2c0-0.2,0.1-0.6-0.3-0.6
					c-1,0-0.5-0.7-0.5-1.1c-0.1-0.5,0.5-0.3,0.7-0.3c3.2,0,6.4,0,9.5,0c0.6,0,1.2,0,1.7,0.2c0.9,0.2,1.9,0.5,2.8,0.5
					c2.4,0.1,4.8,0,7.2,0c-0.2,0.2-0.1,0.5-0.1,0.7c0,1.1,0,2.2,0,3.2c0,2.3,0,4.7-0.1,7c-0.1,4.3,0,8.7,0.1,13c0.1,9,0,18.1,0,27.1
					C165.1,182.1,164.9,182.9,165,183.8z M71.8,156.4c0-0.7,0-1.4,0-2.1c0-0.7,0-1.4,0-2.1c0-0.6-0.2-1.1-0.5-1.7
					c-0.3-0.6-1.1-0.7-1.5-0.3c-0.3,0.3-0.5,0.6-0.6,1c-0.2,1.4-0.3,2.8-0.2,4.1c0.1,1.4,0,2.8,0.1,4.2c0,0.6-0.3,1.4,0.1,1.7
					c0.4,0.4,1.2,0.1,1.9,0.2c0.5,0.1,0.7-0.1,0.7-0.7C71.8,159.4,71.8,157.9,71.8,156.4z M154.1,156.4
					C154.1,156.4,154.1,156.4,154.1,156.4c0,1.5,0,3,0,4.6c0,0.4,0.1,0.6,0.6,0.6c0.5,0,1,0,1.5,0c0.5,0,0.6-0.2,0.6-0.6
					c0-2.8,0-5.7,0-8.5c0-0.7-0.1-1.3-0.5-1.9c-0.4-0.6-1-0.7-1.5-0.1c-0.4,0.5-0.7,1-0.7,1.6C154.1,153.5,154.1,154.9,154.1,156.4z
					 M71.8,141.3c0-1.4,0-2.9,0-4.3c0-0.7-0.3-1.3-0.7-1.8c-0.3-0.4-0.7-0.6-1.1-0.3c-0.4,0.3-0.7,0.8-0.7,1.3
					c-0.2,1.4-0.1,2.9-0.1,4.3c0,1.8,0.1,3.5-0.1,5.3c0,0.3,0.2,0.3,0.4,0.3c0.6,0,1.2,0,1.8,0c0.5,0,0.6-0.2,0.6-0.6
					C71.8,144.2,71.8,142.8,71.8,141.3z M154.1,141.3c0,1,0,2,0,3c0,0.6-0.3,1.5,0.1,1.8c0.4,0.4,1.3,0.1,2,0.1
					c0.5,0,0.6-0.2,0.6-0.6c0-2.8,0-5.5,0-8.3c0-0.6,0-1.3-0.4-1.9c-0.2-0.3-0.4-0.7-0.9-0.7c-0.5,0-0.8,0.4-0.9,0.8
					c-0.3,0.6-0.5,1.2-0.4,1.9C154.1,138.7,154.1,140,154.1,141.3z"/>
				<path class="st4" d="M130.4,100.2c0-0.2,0-0.3,0-0.5c0.3-0.3,0.1-0.7,0.1-1c-0.1-0.8-0.3-1.6-0.5-2.4c-0.2-0.8-0.5-1.5-0.8-2.2
					c-1-2.1-2.4-3.9-4.1-5.6c-0.5-0.5-1.1-0.8-1.4-1.5c0-2,0-4,0-6c0-0.6-0.2-0.7-0.7-0.7c-1.2,0-2.4,0-3.6,0c0-11.8,0-23.6,0-35.4
					c0-0.5,0.2-0.6,0.7-0.6c0.8,0,1.6,0.1,2.3-0.1c1.4,1,2.8,2.1,4.3,3c0.4,0.3,0.5,0.5,0.4,0.9c-0.2,0.7-0.3,1.4-0.5,2.1
					c-0.2,0.7-0.3,1.3-0.3,2c0,7,0,13.9,0,20.9c0,0.6,0.1,0.7,0.7,0.7c0.8-0.1,1.5-0.1,2.3,0c0.6,0,0.9-0.1,0.9-0.8
					c-0.1-1.4,0-2.9,0-4.3c0-0.5,0.1-0.7,0.7-0.6c0.7,0.1,0.9-0.2,0.9-0.8c-0.1-0.6,0-1.2,0-1.8c0.5-0.1,1-0.1,1.5,0
					c0,0.9,0,1.7,0,2.6c0.1,0.2,0.1,0.2,0.3,0.1c0.1,0,0.2,0,0.3,0c0.2,0.2,0.4,0.2,0.7,0c0.5,0.1,0.2,0.4,0.2,0.6
					c0,5.2,0,10.4,0,15.5c0,3.4,0,6.9,0,10.3c0,0.1,0,0.1,0,0.2c0,8.7,0,17.5,0,26.2c0,0.6-0.2,0.8-0.8,0.8c-1,0-2,0-3,0
					c0-2.8,0-5.6,0-8.3c0-2.6,0-5.3,0-7.9c0-1.7,0.1-3.3-0.2-5C130.7,100.5,130.7,100.3,130.4,100.2z M121.9,71.4
					C121.9,71.4,121.9,71.4,121.9,71.4c0,1,0,2,0,3c0,0.7-0.3,1.5,0.1,1.9c0.5,0.4,1.4,0.1,2.1,0.1c0.4,0,0.5-0.1,0.5-0.5
					c0-2.9,0-5.9,0-8.8c0-0.7-0.2-1.4-0.7-1.9c-0.4-0.4-0.8-0.4-1.2,0c-0.6,0.6-0.7,1.3-0.8,2C121.9,68.5,121.9,69.9,121.9,71.4z"/>
				<path class="st4" d="M95.3,100.7c-0.4,4.2-0.1,8.3-0.2,12.5c0,2.9,0,5.9,0,8.8c-1,0-2,0-3,0c-0.6,0-0.9-0.2-0.8-0.8
					c0-8.7,0-17.5,0-26.2c0-0.1,0-0.1,0-0.2c0-4,0-7.9,0-11.9c0-4.7,0-9.3,0-14c0-0.2-0.2-0.5,0.2-0.6c0.2,0.2,0.4,0.2,0.7,0
					c0.1,0,0.2,0,0.3,0c0.2,0.2,0.2,0.1,0.3-0.1c0-0.9,0-1.7,0-2.6c0.5-0.1,1-0.1,1.5,0c0,0.7,0,1.4,0,2.1c0,0.4,0.1,0.6,0.6,0.6
					c1,0,0.9-0.2,0.9,0.9c0,1.4,0,2.8,0,4.2c0,0.5,0.2,0.6,0.7,0.6c0.9,0,1.7,0,2.6,0c0.5,0,0.6-0.1,0.6-0.6c0-2.8,0-5.6,0-8.3
					c0-4.2,0-8.4,0-12.6c0-1.4-0.5-2.6-0.8-3.9c-0.1-0.6,0-1,0.5-1.3c1.4-0.9,2.7-1.9,4.1-2.9c0.8,0.3,1.6,0.1,2.3,0.1
					c0.5,0,0.7,0.1,0.7,0.6c0,11.8,0,23.6,0,35.4c-1.2,0-2.4,0-3.6,0c-0.5,0-0.7,0.1-0.7,0.7c0,2,0,4,0,6c0,0.1-0.1,0.3-0.2,0.4
					c-1.5,1.3-2.8,2.8-3.9,4.4c-0.6,0.8-1,1.8-1.5,2.7c-0.4,0.9-0.7,1.9-0.9,2.8c-0.2,0.7-0.4,1.6-0.1,2.4c0,0.2,0,0.3,0,0.5
					C95.2,100.3,95.2,100.5,95.3,100.7z M104,71.4c0-1.4,0-2.8,0-4.2c0-0.6-0.1-1.2-0.5-1.8c-0.2-0.3-0.5-0.6-0.9-0.6
					c-0.4,0-0.7,0.3-0.9,0.6c-0.3,0.5-0.5,1-0.5,1.5c0,3,0,5.9,0,8.9c0,0.3,0.1,0.5,0.5,0.5c0.6,0,1.2,0,1.7,0
					c0.4,0,0.5-0.1,0.5-0.5C104,74.3,104,72.9,104,71.4z"/>
				<path class="st4" d="M68.3,82.2c0.4-0.5,0.3-1.1,0.5-1.7c0.4-1.2,0.6-2.5,0.9-3.8c0-0.2,0.1-0.3,0.3-0.4
					c0.4,1.3,0.8,2.6,1.2,3.9c0.4,1.3,0.9,2.6,1.3,3.9c0,0.1,0,0.2,0,0.3c0,3.4,0,6.9,0,10.3c0,0.8,0,0.8-0.9,0.8
					c-0.9,0-1.8,0-2.7,0c-0.3-0.2-0.5-0.5-0.4-0.8c0,0,0-0.1-0.1-0.1c0.2-1.2,0.1-2.5,0.1-3.7c0-2.6,0.1-5.3-0.1-7.9
					c0.1-0.2,0.1-0.3,0-0.4C68.4,82.5,68.4,82.4,68.3,82.2z"/>
				<path class="st4" d="M153.4,84.6c0.3-1.4,0.8-2.8,1.2-4.1c0.3-1,0.6-1.9,0.9-2.9c0.1-0.4,0.4-0.6,0.2-1.2
					c0.3,0.3,0.4,0.4,0.5,0.7c0.2,1.4,0.7,2.8,1,4.2c0.1,0.4,0,0.8,0.3,1.1c0,0.1,0,0.3,0,0.4c-0.1,0.1-0.1,0.2,0,0.4
					c-0.2,3.9-0.1,7.8,0,11.8c0,0.4-0.1,0.7-0.5,0.9c-0.1,0-0.3,0-0.4,0c-1-0.3-2-0.2-3-0.1c-0.3-0.7-0.1-1.4-0.2-2
					c0.2-0.2,0.2-0.5,0-0.7c0-0.1,0-0.3,0-0.4c0.1-0.1,0.1-0.1,0-0.2c0-2.4,0-4.8,0-7.2C153.6,84.8,153.5,84.7,153.4,84.6z"/>
				<path class="st4" d="M87.2,124c-1.3,0-2.6,0-3.9,0c-0.4,0-0.6,0.1-0.6,0.5c0,0.5,0,1.1,0,1.6c0,0.4-0.2,0.6-0.6,0.6
					c-0.5,0-1,0-1.5,0c-0.4,0-0.5-0.2-0.5-0.5c0-0.8,0-1.6,0-2.4c0-7.8,0-15.5,0-23.3c0-0.3,0.1-0.5-0.1-0.9c-0.4,1,0,2.2-0.6,3.3
					c-0.1-1.2-0.5-2.3-0.7-3.3c0-0.1-0.1-0.3-0.1-0.4c-0.3-1.1-0.3-1.1,0.8-1.1c2,0,3.9,0,5.9,0c0.6,0,1.2,0,1.7,0
					c0.2,1.1,0.1,2.2,0.1,3.4c0.1,7.1,0,14.2,0,21.4C87.2,123.1,86.9,123.5,87.2,124z"/>
				<path class="st4" d="M138.9,97.9c2.3,0,4.6-0.2,7,0.1c0.4,0,0.8,0,1.2-0.1c0.4,0,0.5,0.1,0.4,0.5c-0.1,0.7-0.3,1.4-0.5,2.1
					c-0.1,0.7-0.4,1.4-0.5,2.1c-0.6-0.9-0.1-2.1-0.6-3.1c-0.2,0.3-0.1,0.6-0.1,0.9c0,8.5,0,16.9,0,25.4c0,0.8,0,0.8-0.9,0.8
					c-1.7,0-1.7,0-1.7-1.6c0-1,0-1-1.1-1c-1.1,0-2.2,0-3.4,0c0.3-0.5,0-1,0-1.4C138.8,114.3,138.6,106.1,138.9,97.9z"/>
				<path class="st4" d="M153.7,126.7c-1.3,0-1.3,0-1.3-1.3c0-9.1,0-18.2,0-27.2c0-0.1,0.1-0.2,0.1-0.2c1.3,0,2.6,0,3.9,0
					c0,9.7,0,19.4,0,29.2c-0.7,0.1-1.3-0.2-1.9-0.3c0-0.1-0.1-0.1-0.1,0c-0.1,0-0.2,0-0.3,0C154,126.5,153.9,126.5,153.7,126.7z"/>
				<path class="st4" d="M71.4,126.8c-0.1,0-0.3,0-0.4,0c-0.3,0-0.7-0.2-1,0.2c-0.2,0-0.4,0-0.5,0c0-9.7,0-19.4,0-29.2
					c1.3,0,2.6,0,3.9,0c0,0.1,0,0.3,0.1,0.4c0,9.3,0,18.5,0,27.8c0,0.5-0.1,0.7-0.7,0.7c-0.2,0-0.4,0-0.7,0
					c-0.2-0.2-0.3-0.1-0.4,0.1c-0.1,0-0.2,0-0.3,0C71.5,126.7,71.5,126.8,71.4,126.8z"/>
				<path class="st4" d="M145.6,95.7c0-3.3,0-6.6-0.1-9.9c0-1.3,0.2-2.5,0.8-3.7c0.8-1.9,1.5-3.9,2.3-5.8c0.1-0.2,0.2-0.3,0.2-0.5
					c0.5,0.4,0.6,1,0.7,1.5c0.5,1.3,1,2.5,1.5,3.8c0.4,1,0.7,2.1,1.2,3.1c0,0.1,0.1,0.2,0.2,0.3c0,3.4,0,6.9,0,10.3
					c0,0.9,0,0.9-0.9,0.9c0,0-0.1,0-0.1,0c-1.2,0-1.1,0-1.3-1.2c-0.2-1.1-0.4-2.1-0.7-3.2c0-0.1-0.1-0.2-0.3-0.4
					c-0.3,1.5-0.6,2.8-0.9,4.2c-0.1,0.4-0.3,0.6-0.7,0.6C146.8,95.7,146.2,95.7,145.6,95.7z"/>
				<path class="st4" d="M73.6,84.6c1.1-2.9,2.2-5.9,3.4-9c0.4,1,0.7,1.7,1,2.5c0.4,1.1,0.8,2.2,1.4,3.3c0.4,0.8,0.6,1.6,0.9,2.4
					c0.2,0.5,0,1,0,1.5c0,3.2,0,6.4,0,9.6c0,0.3,0,0.6,0,0.8c-0.6,0-1.2,0-1.8,0c-0.4,0-0.6-0.2-0.7-0.6c-0.3-1.4-0.6-2.8-0.9-4.3
					c-0.4,0.5-0.3,1.1-0.5,1.5c-0.3,0.8-0.4,1.7-0.5,2.5c-0.1,0.6-0.3,0.9-1,0.8c-1.3-0.1-1.3,0-1.3-1.3
					C73.5,91.2,73.5,87.9,73.6,84.6z"/>
				<path class="st4" d="M87,94.8c0,0.2,0,0.4,0,0.6c-1.6,0-3.2,0-4.8,0c-0.3,0-0.5,0-0.8-0.2c0-0.1,0-0.2,0-0.3
					c0.3-0.3,0.3-0.5,0-0.8c0-2.9,0-5.7,0-8.6c0-0.4,0-0.7,0-1.1c0.3-0.9,0.6-1.8,0.9-2.8c0.4-1.2,0.9-2.4,1.4-3.6
					c0.2-0.5,0.3-1,0.5-1.4c0.1-0.1,0-0.3,0.2-0.3c0.2,0,0.2,0.2,0.2,0.3c0.6,2.1,1.2,4.3,1.8,6.4c0,0.1,0,0.2,0.1,0.2
					c0.8,0.4,0.4,1.2,0.4,1.8c0,3,0,6,0,9.1C86.9,94.4,86.8,94.6,87,94.8z"/>
				<path class="st4" d="M138.9,95.6c0-0.2,0-0.5,0-0.7c0.2-0.2,0.1-0.5,0.1-0.7c0-3.3,0-6.5,0-9.8c0-0.4-0.1-0.7,0.4-1
					c0.3-0.2,0.3-0.9,0.4-1.3c0.3-1.2,0.7-2.4,1-3.6c0.1-0.6,0.4-1.2,0.5-1.8c0-0.1,0-0.3,0.2-0.3c0.2,0,0.2,0.1,0.2,0.3
					c0.6,1.9,1.3,3.8,2.1,5.7c0.3,0.7,0.5,1.5,0.7,2.2c0,2.9,0,5.8,0,8.7c0,0.3,0,0.6,0,0.8c-0.3,0.3-0.3,0.6,0,0.9
					c0,0.1,0,0.2,0,0.3c-0.5,0.3-1,0.1-1.4,0.2C141.6,95.5,140.2,95.4,138.9,95.6z"/>
				<path class="st4" d="M152.2,98.2c0.1,1.5-0.3,3-0.3,4.5c-0.3,0-0.3-0.2-0.3-0.4c-0.2-1.3-0.5-2.5-0.7-3.8
					c-0.1-0.4,0-0.6,0.4-0.5c0.3,0,0.6-0.1,0.9,0C152.2,98,152.2,98.1,152.2,98.2z"/>
				<path class="st4" d="M73.7,98c0.1,0,0.2,0,0.3,0c1.2,0,1.3,0.1,1,1.2c-0.3,1-0.5,2.1-0.6,3.1c0,0.2-0.1,0.3-0.3,0.5
					c0-1.5-0.4-2.9-0.3-4.4C73.7,98.2,73.7,98.1,73.7,98z"/>
				<path class="st4" d="M117.9,80.4c-0.2,0-0.3,0-0.5,0c-0.7-0.8-1.1-1.7-1.5-2.6c-0.6-1.3-1.1-2.7-1.7-4c-0.1-0.2-0.2-0.4-0.2-0.7
					c0-9.3,0-18.5,0-27.8c0-0.8,0-0.8,0.9-0.8c0.8,0,1.6,0.1,2.4-0.1c0.4-0.1,0.7,0.1,0.6,0.5c0,0.1,0,0.2,0,0.3
					C117.9,57,117.9,68.7,117.9,80.4z M114.4,63.9c0,1.5,0,3,0,4.6c0,0.4,0.1,0.5,0.5,0.5c0.6,0,1.1,0,1.7,0c0.5,0,0.6-0.2,0.6-0.6
					c0-2.8,0-5.7,0-8.5c0-0.6-0.2-1.3-0.5-1.8c-0.2-0.3-0.5-0.6-0.9-0.6c-0.5,0-0.8,0.3-0.9,0.7c-0.3,0.5-0.4,1.1-0.4,1.7
					C114.4,61.2,114.4,62.6,114.4,63.9z"/>
				<path class="st4" d="M108.5,80.5c-0.2,0-0.3,0-0.5,0c0-11.8,0-23.5,0-35.3c0-0.7,0-0.7,0.8-0.6c0.8,0.1,1.6,0.1,2.4,0
					c0.6,0,0.8,0.2,0.7,0.7c0,9,0,18,0,27c0,0.3,0,0.6,0,0.9c-0.2,0.7-0.5,1.4-0.8,2c-0.7,1.6-1.2,3.2-2.1,4.6
					C108.9,80.1,108.7,80.3,108.5,80.5z M111.5,64.1C111.5,64.1,111.5,64.1,111.5,64.1c0-1.4,0-2.8,0-4.2c0-0.6-0.2-1.2-0.5-1.7
					c-0.4-0.9-1.3-0.9-1.8-0.1c-0.4,0.6-0.5,1.3-0.5,2c0,2.3,0,4.6,0,6.9c0,0.7-0.3,1.5,0.1,1.9c0.4,0.4,1.4,0.1,2.1,0.1
					c0.5,0,0.6-0.1,0.6-0.6C111.5,67,111.5,65.5,111.5,64.1z"/>
				<path class="st4" d="M124.2,71.8c0,1,0,2,0,2.9c0,0.4-0.1,0.5-0.5,0.5c-1.7,0-1.4,0.2-1.4-1.3c0-1.6,0-3.3,0-4.9
					c0-0.5,0.1-1,0.4-1.4c0.3-0.5,0.8-0.5,1.1,0c0.2,0.4,0.4,0.8,0.4,1.3C124.2,69.9,124.2,70.9,124.2,71.8z"/>
				<path class="st4" d="M103.6,71.8c0,1,0,2,0,2.9c0,0.4-0.1,0.6-0.6,0.6c-1.4,0-1.4,0-1.4-1.3c0-1.7,0-3.3,0-5
					c0-0.5,0.1-0.9,0.4-1.3c0.3-0.5,0.8-0.5,1.1,0c0.3,0.4,0.4,0.8,0.4,1.3C103.6,69.9,103.6,70.8,103.6,71.8z"/>
				<path class="st4" d="M114.8,64.4c0-0.9,0-1.8,0-2.7c0-0.5,0.2-0.9,0.3-1.3c0.1-0.3,0.3-0.5,0.7-0.5c0.4,0,0.6,0.3,0.7,0.7
					c0.1,0.4,0.2,0.7,0.2,1.1c0,1.8,0,3.7,0,5.5c0,0.5-0.2,0.6-0.7,0.6c-1.5,0-1.2,0.1-1.3-1.2c0-0.4,0-0.8,0-1.2
					C114.8,65.2,114.8,64.8,114.8,64.4z"/>
				<path class="st4" d="M109.2,64.3c0.1-1-0.2-2.2,0.1-3.4c0.1-0.4,0.3-0.9,0.8-0.9c0.5,0,0.6,0.4,0.8,0.8c0.2,0.5,0.2,0.9,0.2,1.4
					c0,1.7,0,3.4,0,5.1c0,0.5-0.2,0.6-0.7,0.6c-1.5,0-1.2,0.1-1.3-1.2C109.2,66,109.2,65.2,109.2,64.3z"/>
			</g>
		</g>
		<g>
			<g>
				<path class="st2" d="M201.6,144.6c3.1-1.1,6.6-1.2,10.7,0.1c6.4,2,10.3,8,12,13.8c4.3,14.5-2.6,31.3-14.5,40.2
					c-3.5,2.6-7.3,4.2-11.7,4.7c3.4-3.1,12.1-11,8-16.5c-2.2-2.9-6-0.8-8,1c1.4-1.2-1-7.2-2.1-8.2c-2.2-2.1-5.7-0.7-7.1,1.6
					c1.1-2,0.6-4.5-1.1-6.1c-2.9-2.7-6.1-1.1-8.2,1.3c0.3-7.3-9.8-4.7-11.6,0.2c0.3-3.3-1.1-7.8-5.1-7.5
					c-7.8,0.5-10.6,11.9-10.5,17.7c-3.9-10.7-0.1-27.1,4.4-36.9c1.6-3.5,4.4-7,7.1-9.8c4.6-4.8,13.8-11.1,20.2-4.6
					c5.9,6,3.9,21.9-0.4,27.9C188.5,156.9,193.5,147.4,201.6,144.6z"/>
			</g>
			<path class="st5" d="M60.7,252.1c-11.3-4.1-22.6-9.8-21.9-15.6c1.4-12.3,28.4-4.3,36.3-2.7c35.3,7.4,84.5,37.8,113.2,0.7
				c15.7-20.3,5.5-41,2.8-63.5c-2.4-19.5,14.9-28.5,24.9-42.5c7-9.8,13-27.6,1.1-37.3c-10.4-8.5-29.2,9.9-29.2,9.9s-0.4,7.7,7.9,3.6
				c8.4-4.1,27.5,6.3,3,22.3c-14.3,9.4-35.5,24.1-25.8,53.4c4.1,12.2,7.1,33.9-5.7,41.8c-9.5,5.8-23.4,5-34.2,3.6
				c-35.2-4.5-86.7-34.4-117.9-7.7c-17.1,14.6,2.9,34.1,20.3,44.7C43.3,258.1,51.8,254.4,60.7,252.1z"/>
			<path class="st3" d="M183.4,185.6c-1.9-5.3-1.4-11-1.6-16.4c-1.5-20.6,18-30,29.8-43.7c3.5-4.3,6.2-10,5-15.6
				c-0.6-1.8-0.7-3.4-2-4.8c-7.1-6.7-17.9-4.1-24.8,0.3c1.2,0.7,3,0.8,6.1-0.7c8.4-4.1,27.5,6.3,3,22.3
				c-14.3,9.4-35.5,24.1-25.8,53.4c4.1,12.2,7.1,33.9-5.7,41.8c-4.7,2.9-10.4,4.1-16.3,4.5c-15.1,6.6-35.4,2.7-51.5-1.5
				c-22.6-5.8-56.8-24.5-72.5-0.8c-3,4.5-2.9,10.3-0.6,14.2c5.4,6.8,14.8,9.5,24.4,9.5c0.1,0,0.3,0,0.4,0
				c-7.3-3.5-12.8-7.5-12.4-11.6c1.4-12.3,28.4-4.3,36.3-2.7c35.3,7.4,84.5,37.8,113.2,0.7c2-2.6,3.6-5.3,4.9-7.9
				C192,213,187.9,199.1,183.4,185.6z"/>
			<g>
				<path class="st5" d="M153.1,114.7c0.6,3.2-3.1,5.2-5,5.6c-1.3,0.2-2.4-0.6-3.6,0.2c-0.4,0.3-2.8,3.5-2.1,4
					c-0.7-0.5,0-3.9,0.2-4.7c0.7-2,2.2-3.7,3.5-4.9C147.8,113.5,152.5,110.7,153.1,114.7z"/>
			</g>
			<g>
				<path class="st5" d="M146.5,126.1c0.5,3.1,2.3,6.3,4.4,8.8c3.3,4,9,7.3,11.3,11.9c0.9,1.8,2.4,11.9,5.5,11.9
					c0.9,0,2.5-2.2,3.1-2.7c1.4-1.1,2.9-1.9,4.7-2.2c4.9-1,9.6-0.6,14.1-3.1c4.1-2.2,7.5-7.6,2.9-11.3c-4.8-3.8-8.2-0.1-11,3
					c-2.6,2.7-5.4,5.9-9.9,4.6c-5-1.4-7.6-7.4-10.2-11.2c-2.8-4-6.1-9.7-10.1-12.6C148,121.2,146,123,146.5,126.1z"/>
			</g>
			<path class="st5" d="M191.1,171c-2.4-19.5,14.9-28.5,24.9-42.5c7-9.8,13-27.6,1.1-37.3c-10.4-8.5-29.2,9.9-29.2,9.9
				s-0.2,3.1,1.8,4.3c6.9-4.4,17.7-7.1,24.8-0.3c1.3,1.4,1.4,3.1,2,4.8c1.2,5.7-1.5,11.3-5,15.6c-11.8,13.7-31.3,23.1-29.8,43.7
				c0.2,5.4-0.3,11.1,1.6,16.4c4.5,13.5,8.6,27.4,9.8,41C201.5,208.9,193.5,190.6,191.1,171z"/>
			<path class="st5" d="M196.4,286c-9.7-15.5-34-19.1-50.5-21.8c-21.4-3.5-43.1-3.6-64.6-6.5c-3.7-0.5-12.1-2.6-20.6-5.6
				c-8.9,2.3-17.4,6-25.1,10.8c4.9,3,9.7,5.3,13.3,6.6c24.6,8.6,51.8,10.3,77.3,7.1c12.6-1.6,26.6-4.5,39.2-1.5
				c0.5,0.1,1,0.2,1.6,0.4c8,2,21.8,6.4,24,14.3c1.9,6.7-5.4,13.2-11.6,14.9C189.7,302.8,204.2,298.6,196.4,286z"/>
			<path class="st3" d="M189.3,298.9c0.9-1.3,1.9-2.7,2.4-4.6c1.1-6.1-2.3-11.8-7.6-14.9c-34.3-20.3-71.2-6.9-107.2-3.1
				c16.4,2.4,33.2,2.3,49.3,0.3c12.6-1.6,26.6-4.5,39.2-1.5c0.5,0.1,1,0.2,1.6,0.4c8,2,21.8,6.4,24,14.3c1.1,4.1-1.1,8-4.4,10.9
				C187.5,300.2,188.4,299.6,189.3,298.9z"/>
			<g>
				<path class="st5" d="M150.2,129.4c-0.3,4.6-7.4,4.5-8.8,2.1c-0.5-0.9-0.6-2.3-0.5-3.5c0-0.5,1.1-4.1,1.1-4.1
					c1.6,2.1,2.9,2.5,5.2,2.7C148.6,126.7,150.4,126.9,150.2,129.4z"/>
			</g>
			<g>
				<path class="st5" d="M151,126.2c-1.5,2.6-5.8,1.9-7.6,0.7c-1.1-0.7-2.4-2-2.4-3.5C141.4,117.3,155.1,119.4,151,126.2z"/>
			</g>
			<path class="st2" d="M162.8,108.5c0,0-1.4,5.9,8.2,10c11.4,4.9,23.1-9.5,23.1-9.5l-2.6-0.5L162.8,108.5z"/>
			<polygon class="st2" points="191,87.6 205.6,72.5 195,92.2 			"/>
			<polygon class="st2" points="206.1,93.8 223,81 209.3,98.9 			"/>
			<polygon class="st2" points="199.5,87.2 218.6,69.1 206.9,91.5 			"/>
			<path class="st5" d="M182,97.8l-5.7,0.8c0,0-6.1-4.6-9.7-1.8c-3.7,2.8-7.5,10.5-7.5,10.5l19.6,5.8l20.7-5.5l12.2-9.3
				c0,0-2.8-6.5-8.8-11.2l-13.3-0.2L182,97.8z"/>
			<polygon class="st5" points="191.2,86.9 197.7,78.5 197.6,85.9 194.4,90.1 			"/>
			<path class="st5" d="M207,90.8c0,0,11.2-4.7,10.8-4.7c-0.4,0-8.2,12.3-8.2,12.3L207,90.8z"/>
			<path class="st6" d="M177.2,100.8l-4.1,5C173.1,105.8,177.6,106,177.2,100.8z"/>
			<path class="st6" d="M167.6,103.5l3-3.9C170.6,99.6,167.2,99.5,167.6,103.5z"/>
			<path class="st6" d="M197.3,98.8C197.3,98.8,197.2,98.8,197.3,98.8c0-0.1,0-0.1,0-0.2c-0.1-0.4-0.5-0.8-0.9-0.9
				c-0.5-0.1-1.3,0.1-1.6,0.5c-0.4,0.8,0.4,1.3,1,1.5c0.3,0.1,0.6,0.1,0.9,0C197.1,99.6,197.3,99.3,197.3,98.8z"/>
			<path class="st2" d="M191.8,97.5l10.5-3.2C202.3,94.3,196.4,101.9,191.8,97.5z"/>
			<path class="st6" d="M186.8,95.5C186.8,95.5,186.8,95.5,186.8,95.5c0,0,0-0.1,0-0.1c-0.1-0.3-0.4-0.6-0.7-0.7
				c-0.4-0.1-1,0.1-1.2,0.4c-0.3,0.6,0.3,1,0.8,1.1c0.2,0.1,0.5,0.1,0.7,0C186.7,96.2,186.8,95.9,186.8,95.5z"/>
			<path class="st2" d="M187.7,95.9l-3.6-4.5C184.1,91.4,183.5,95.8,187.7,95.9z"/>
			<path class="st7" d="M161.7,108.1c0,0,1.1-4.3,4.5-7c0,0-2,4.9-0.4,8.2L161.7,108.1z"/>
			<polygon class="st7" points="186.1,111.1 187.5,107 188,110.6 			"/>
			<polygon class="st7" points="160.5,107.7 160.6,111.8 161.8,108.1 			"/>
			<path class="st7" d="M173.4,111.5c0,0,1.6-3.9,5-6.5c0,0-2.3,4.5-0.6,7.8L173.4,111.5z"/>
			<polygon class="st7" points="182,112.2 183.3,105.8 184.3,111.6 			"/>
			<polygon class="st7" points="178.8,113 179,116.2 181.7,112.3 			"/>
		</g>
	</g>
</g>
</svg>
