<svg id="Warstwa_1" xmlns="http://www.w3.org/2000/svg" xmlns:xlink="http://www.w3.org/1999/xlink" width="173" height="230" viewBox="0 0 226 300"><style>.st0{clip-path:url(#SVGID_2_);} .st1{fill:#9B1B1B;} .st2{fill:#B82825;} .st3{fill:#F96C5A;} .st4{fill:#D63C34;} .st5{fill:#CA3427;} .st6{fill:#353535;} .st7{fill:#FFFFFF;}</style><defs><path id="SVGID_1_" d="M-4.3 0h251v300h-251z"/></defs><clipPath id="SVGID_2_"><use xlink:href="#SVGID_1_" overflow="visible"/></clipPath><g class="st0"><path class="st1" d="M113.1-28.2c-.1-.1-.2-.1-.3-.2v-.3c.1-.1.1-.3 0-.4v-.1c.1-.2.1-.4 0-.6v-2.1c.1-.1.1-.3.3-.2v3.9zM89.3 186.7v-11.9c0-1.2-.1-2.3.2-3.5.4-1.8 1.1-3.5 2-5.2.6-1.1 1.2-2.1 2.1-2.9l.6-.6c.6-.4.9-.4 1.4.1.9.9 1.6 2 2.2 3.1 1.2 2.1 2 4.4 2.5 6.8.1.5.1 1 .1 1.5v12.7c-3.7-.1-7.4-.1-11.1-.1zM125.5 186.7c0-4.5-.1-9 0-13.5.1-1.4.5-2.8 1.1-4.1.8-2.1 1.8-4.1 3.3-5.9 0 0 .1-.1.1-.2.9-.9 1.4-.9 2.2 0 1.6 1.7 2.7 3.7 3.5 5.9.8 1.9.9 4 .9 6-.1 3.9 0 7.9 0 11.8h-11.1zM107.9 186.7v-11.6c0-1.2-.1-2.3.1-3.5.3-2 1.1-3.8 2-5.5.7-1.2 1.4-2.4 2.5-3.4.4-.3.6-.3.9 0 1.3 1.3 2.2 2.8 3 4.3 1.2 2.4 1.7 5 1.7 7.7-.1 4 0 7.9 0 11.9-3.5.1-6.8.1-10.2.1zM71.8 156.4v4.4c0 .6-.2.7-.7.7-.6-.1-1.5.3-1.9-.2-.4-.4-.1-1.1-.1-1.7-.1-1.4 0-2.8-.1-4.2-.1-1.4 0-2.8.2-4.1.1-.4.3-.8.6-1 .4-.4 1.2-.3 1.5.3.3.5.5 1 .5 1.7v4.1zM154.1 156.4V152c0-.6.3-1.1.7-1.6.5-.5 1.1-.4 1.5.1.4.6.5 1.2.5 1.9v8.5c0 .4-.1.6-.6.6h-1.5c-.5 0-.6-.1-.6-.6v-4.5zM71.8 141.3v4.3c0 .4-.1.6-.6.6h-1.8c-.2 0-.4 0-.4-.3.2-1.8 0-3.5.1-5.3 0-1.4-.1-2.9.1-4.3.1-.5.3-1 .7-1.3.5-.4.9-.1 1.1.3.4.5.7 1.2.7 1.8.1 1.4.1 2.8.1 4.2zM154.1 141.3v-3.8c0-.7.2-1.3.4-1.9.2-.4.4-.7.9-.8.5 0 .7.4.9.7.4.6.4 1.2.4 1.9v8.3c0 .4-.1.6-.6.6-.7-.1-1.5.3-2-.1-.4-.4-.1-1.2-.1-1.8.1-1.1.1-2.1.1-3.1zM118.7 34.6v-2c0-.7.5-1.2 1.2-1.2.6 0 1.2.4 1.4 1 .3 1.1.1 2.1.1 3.2 0 1.5 0 1.5-1.6 1.5-1.2 0-1.2 0-1.2-1.1.1-.5.1-1 .1-1.4zM107.3 34.6v2c0 .4-.1.5-.5.5h-1.7c-.4 0-.6-.1-.5-.5V33c0-.6.2-1.2.9-1.4.5-.2 1-.1 1.4.3.3.2.4.5.4.9-.1.5-.1 1.1 0 1.8-.1 0 0 0 0 0zM78.4 55.7v.9c0 .9.1.8-.9.8-.6 0-.8-.1-.8-.7v-2c0-.3 0-.5.2-.7.2-.3.4-.6.8-.5.4.1.7.3.7.8v1.4zM147.5 55.6v-1.4c0-.4.3-.8.7-.8.4-.1.7.2.8.6.3 1.1.1 2.1.1 3.2 0 .2-.2.3-.4.3h-.7c-.4 0-.5-.1-.5-.5v-1.4z"/><g><path class="st2" d="M165.2 130.2c.5 0 .7-.2.7-.7v-1.6c0-.4-.2-.5-.5-.5h-1.5c-.6.1-.8-.2-.8-.7V113 99.3c0-.2 0-.5-.1-.7-.2 1.3-.3 2.7-.5 4.2-.3-1.5-.6-2.9-.9-4.3-.2-.9-.4-1.9-.6-2.8-.2-.8-.2-.9.8-.9H166.6c.1 0 .1 0 .2-.1.2 0 .2-.2.2-.3.6-1.7 1.2-3.5 1.8-5.2h.1c.2 1.5.4 2.9.6 4.4.3 1.9.6 3.8.9 5.6.2 1.5.4 3.1.7 4.6.4 2.8.8 5.5 1.3 8.3.2 1.2.3 2.3.5 3.5.1 1 .3 1.9.4 2.9.1.5 0 .8-.7.7-.6-.1-.8.1-.8.7v5.6c0 .6.2.7.7.7.6 0 1.1 0 1.7-.1.6-.2 1.2 0 1.8-.1.6-.1 1.3.3 1.6-.7.3-.9 1-1.7 1.5-2.6.1-.3.2-.3.4 0 .5.7.9 1.4 1.4 2.1 0 0 0 .1.1.1.3 1.1.5 1.2 1.7 1.2.2 0 .6-.1.7.3v12.3c-.2 14.8-.1 36.3-.1 51 0 .5-.2.7-.7.7-5.4 0-11.6-.3-17-.3-.3 0 .1-6.4-.2-6.4-.1-.8.1-1.6.1-2.4 0-9 .1-18.1 0-27.1-.1-4.3-.1-8.7-.1-13 0-2.3.1-4.7.1-7V131c-.4-.3-.4-.6-.3-.8zM60 94.8c1.5 0 2.9.1 4.4 0 .6 0 .7.2.6.7-.5 2.2-1 4.3-1.4 6.5 0 .2-.1.4-.1.6-.2-1.3-.4-2.7-.4-4-.3.2-.2.5-.2.7v27.2c.1.6-.1.8-.8.8-.6 0-1.5-.3-1.9.1-.4.4-.1 1.2-.1 1.9 0 .5.1.7.7.7.2.2.1.5.1.7v3.4c0 6.2.3 12.4.1 18.5-.2 9.5 0 19-.1 28.4 0 .8.2 8.4.1 9.2-.3 0-.6-.1-.9-.1H43.9c-.6 0-.8-.1-.8-.7 0-10.8.1-28.4 0-39.3-.1-7.7 0-15.5-.1-23.2v-.8c.3-.5.7-.2 1.1-.3.3-.1.6 0 .9-.4.4-.5.3-1 .7-1.5.3-.3.8-.6.8-1.3 0-.1.3-.4.5-.4.3 0 .1.3.2.5 0 .1.1.1.2.2.7.6.9 1.5 1.4 2.2.2.4.3.5.7.5.9 0 1.7-.1 2.6.1.6.2 1.2.1 1.8.1.4 0 .6-.1.6-.6v-5.8c0-.5-.2-.7-.7-.6-.7.1-.9-.2-.8-.8.3-1.6.5-3.2.7-4.9.2-1.3.4-2.7.6-4 .3-2.1.7-4.3 1-6.4.2-1.2.3-2.4.5-3.6.3-1.8.6-3.5.8-5.3.2-1.5.4-3.1.7-4.6 0-.1.1-.3.2-.4.6 1.7 1.2 3.5 1.8 5.2 0 .2 0 .3.2.3.1 0 .1 0 .2.1h.2c-.2.4-.1.4.1.4zM111.9 41.9h2c-.1.5 0 .7.6.7h2.7c.5 0 .7-.1.6-.7h1.6c-.1.5 0 .7.6.7h2c.3 0 .5.1.5.4 0 .4.1.9-.1 1.3-.8.3-1.6.1-2.3.1-.5 0-.7.1-.7.6v35.4c-.5.1-1.1 0-1.6 0V45.2v-.3c0-.4-.2-.6-.6-.5-.8.2-1.6.1-2.4.1-.9 0-.9 0-.9.8v27.8c-.5-.4-.5-1.1-.8-1.6-.1-.1 0-.3-.2-.3s-.2.2-.2.3c-.3.5-.3 1.2-.8 1.6v-.9-27c0-.6-.1-.8-.7-.7h-2.4c-.8-.1-.8-.1-.8.6v35.3c-.5 0-1.1.2-1.6 0V45c0-.5-.2-.6-.7-.6-.8 0-1.6.1-2.3-.1v-.1c-.1-1.6-.1-1.6 1.6-1.6h.9c.6.1.7-.2.6-.7h1.6c-.1.5.1.7.6.7h2.7c.5 0 .6-.2.5-.7zM157 95.7c.3-.2.5-.5.5-.9h.2c.1 0 .1 0 .2.1 1 .1 1 .1.9 1l-.9 4.2c0 .1-.1.2-.2.3-.3-.1-.3-.3-.3-.6V98c.6.1.8-.1.7-.7V97c.1-1.2.1-1.2-1.1-1.3zM81.9 134.7c.2.2.5.3.8.3h23.9c3.9 0 7.7-.1 11.6 0 8.3.1 16.6 0 24.9.1.4 0 .7 0 1-.3-.1 3.2 0 6.4-.1 9.7 0 .2.1.4.2.7.1.2.2.5-.2.6-.1-.9-.1-.9-1-.9H82.8c-.3 0-.6 0-.8.3v-8.1c-.1-.9-.1-1.6-.1-2.4zM81.9 149.1c.3.4.7.2 1 .2h.7V164c-.2 1.1-.3 2.2.2 3.2.1.2 0 .4 0 .6V187h-1.5c-.4 0-.5-.1-.5-.5v-3.3-13c0-1.5-.2-3-.1-4.5.3-5.2.1-10.4.1-15.6.1-.3 0-.7.1-1zM142.2 149.3h1.1c.3 0 .5 0 .6-.3.1.3 0 .6 0 .9v36.3c0 .6-.2.8-.8.7h-1.3v-13.4-4.7c0-.9 0-1.7.3-2.5.3-.7 0-1.5-.1-2.3v-.8c.2-4.6.2-9.2.2-13.9zM138.9 97.9c-.3 8.2-.1 16.4-.1 24.6 0 .5.3 1 0 1.4h-7.5c-.4 0-.5-.1-.5-.5v-1.6h3c.6 0 .9-.2.8-.8V94.8c1.4-.2 2.8 0 4.2-.1V95.5c-.6-.1-.9.2-.8.8v.6c0 .8.2 1.1.9 1zM87.2 124c-.2-.4 0-.9 0-1.3v-21.4c0-1.1.1-2.2-.1-3.4.7.1.9-.2.8-.8v-.7c.1-.5-.1-.8-.7-.7 0-.1-.1-.1-.1-.2v-.6c1.4.1 2.8-.1 4.2.1v26.2c0 .6.2.8.8.8h3c.2 2.1.2 2.1-2 2.1-2-.1-4-.1-5.9-.1zM68.5 97.9v1.8c0 .2.1.5-.3.6-.4-.7-.4-1.5-.6-2.3-.2-.9-.5-1.7-.6-2.6 0-.4 0-.5.5-.5h.9c-.1.4.1.6.4.8-1.1.1-1.1.1-1.1 1.2v.3c-.1.6.2.8.8.7zM153.6 95.6c1-.1 2-.2 3 .1-1 0-2 .2-3-.1zM153.4 92.8c.2.2.2.5 0 .7-.1-.2-.1-.5 0-.7zM153.4 84.6c.1.1.1.2 0 .4-.1-.2-.1-.3 0-.4zM153.4 92.1c.1.1.1.1 0 .2-.1 0-.1-.1 0-.2zM102.9 163.4c-.1.5-.6.9-.5 1.5-.4-.3-.3-.8-.5-1.2-.7-2.2-2.2-4-3.8-5.7-1.1-1.1-1.7-2.4-2.2-3.8-.5-1.3-.9-2.7-1.3-4.1-.5.8-.6 1.5-.8 2.2-.5 1.5-.8 3-1.6 4.4-.5 1-1.4 1.7-2.2 2.4-1.2 1.2-2 2.5-2.5 4-.1.2-.1.5-.4.6v-13.6c0-.5.1-.7.7-.7h14.1c.9 0 1 .1 1 1v13zM138.6 163.7c-.5-1.3-1-2.6-2-3.7-.7-.8-1.5-1.5-2.3-2.3-1.1-1.2-1.5-2.7-1.9-4.1-.3-1.1-.7-2.2-1-3.2 0-.1-.1-.2-.2-.2-.4 1.2-.8 2.3-1.1 3.5-.6 2-1.7 3.7-3.2 5.2-1.6 1.6-2.7 3.5-3.2 5.7 0 .1-.1.2-.1.3l-.1.1c.1-.6-.3-1-.5-1.5v-.9-12.2c0-.6.3-.8.9-.8h14c.9 0 .9 0 .9.9v13.4c-.1-.2-.2-.2-.2-.2zM105.9 149.4c4.4-.2 8.9-.1 13.3-.1.3.2.8 0 .8.7v12.8c0 .2.1.4-.2.5-.6-2-1.9-3.7-3.5-5.1-1.3-1.1-1.8-2.5-2.3-4-.3-1.1-.7-2.2-1-3.4-.2.7-.4 1.3-.6 1.8-.4 1.3-.7 2.6-1.3 3.8-.4.8-1 1.4-1.6 1.9-1.6 1.3-2.7 3-3.3 4.9-.4-.1-.2-.4-.2-.6-.1-4.3-.1-8.7-.1-13.2z"/></g><g><path class="st2" d="M113.2-34.3v.4c0 .4-.1.8 0 1.2.1.5.7 0 1 .4-.3.3-.8 0-1.1.2-.2-.2-.2.1-.3.2-.2-.5-.8-.1-1.1-.4 1-.3 1-.3 1-1.4v-.5c.2-.1.3-.1.5-.1zM106.5 41.9h-6c-.7 0-.8-.2-.8-.8 0-3.6.1-7.2 0-10.8-.1-1.7.5-3.3.8-4.9.2-1.1.5-2.1.8-3.3.3.5.4 1 .4 1.5-.1.6.3 1 .4 1.5.2 1.2.6 2.3.9 3.5 0 .2.1.3.3.3.2 0 .2-.2.2-.3.3-1.1.7-2.1.9-3.2.1-.7.4-1.3.5-2l.3-1.2h.2c.3 1.4.7 2.8 1 4.1.2.8.4 1.5.6 2.3h.2c.6-2.2 1.1-4.4 1.7-6.6h.2c.6 2.2 1 4.5 1.7 6.7h.2c.5-2.2 1.1-4.4 1.6-6.7.2.1.2.3.3.4.1-.1 0-.4.3-.4.6 2.2 1 4.5 1.8 6.6.7-2.2 1.2-4.4 1.8-6.7h.2c.6 2.2 1.1 4.4 1.7 6.6h.2c.2-.7.4-1.5.6-2.2.3-1.4.7-2.8 1-4.1h.2l.3 1.2c-.2.4.2.6.3 1 .3 1.4.6 2.8 1.1 4.2 0 .1 0 .3.2.3s.2-.2.3-.3c.1-.5.3-1.1.4-1.6.3-1.1.6-2.3.9-3.4 0-.5.2-1 .4-1.6.4 1.6.8 3 1.1 4.4.1.4.1.8.3 1.1.4 1 .3 2 .3 2.9V41c0 .6-.1.8-.8.8h-17.4c-.6.1-1.1.1-1.6.1zm12.2-7.3v1.3c0 1.1 0 1.1 1.2 1.1 1.6 0 1.6 0 1.6-1.5 0-1.1.1-2.1-.1-3.2-.1-.6-.8-1-1.4-1-.7.1-1.2.5-1.2 1.2-.2.7-.1 1.4-.1 2.1zm-11.4 0s-.1 0 0 0v-2c0-.3-.1-.6-.4-.9-.4-.4-.9-.5-1.4-.3-.7.2-.9.8-.9 1.4v3.6c0 .4.2.5.5.5h1.7c.4 0 .5-.1.5-.5-.1-.5 0-1.2 0-1.8zM141 68l1.2 3.9c.4 1.3.8 2.5 1.2 3.8.4 1.4.9 2.8 1.5 4.2l3.9-12.6h.2c1.3 4.4 2.5 8.8 3.8 13.1h.1c1-3.7 1.9-7.3 2.9-11 .2-.7.3-1.4.5-2.1.4.8.4 1.7.6 2.5.3 1.4.5 2.8.7 4.1.2 1 .4 2 .5 3 .2 1 .3 2 .5 3 .1.4.1.6-.2.9-.3.4-.6.9-.9 1.3-.4-.3-.2-.7-.3-1.1-.4-1.4-.8-2.8-1-4.2 0-.2-.2-.4-.5-.7.2.6-.1.8-.2 1.2-.2 1-.5 2-.9 2.9-.5 1.4-.9 2.7-1.2 4.1h-.1c-.3 0-.6 0-.9-.1-.1-.1-.2-.2-.2-.3-.4-1-.7-2.1-1.2-3.1-.5-1.3-1-2.5-1.5-3.8-.2-.5-.2-1.1-.7-1.5-.1.2-.2.3-.2.5-.8 1.9-1.5 3.9-2.3 5.8-.5 1.2-.8 2.4-.8 3.7.1 3.3 0 6.6.1 9.9-.5 0-.3-.4-.3-.6V85c0-.7-.2-.9-.9-.8-.2-.7-.4-1.5-.7-2.2l-2.1-5.7c0-.1 0-.3-.2-.3s-.2.2-.2.3c-.1.6-.3 1.2-.5 1.8-.3 1.2-.7 2.4-1 3.6-.1.4-.1 1.1-.4 1.3-.4.3-.4.7-.4 1v9.8c0 .2.1.5-.1.7-1.4.1-2.8-.1-4.2.1v-.2h3.6c.3 0 .5-.1.5-.4V83.3c0-.2 0-.4-.2-.5-1-.5-1.1-1.5-1.3-2.4-.2-.6.1-1.2.3-1.8.5-2.1 1.1-4.2 1.6-6.4.5-1.8.9-3.7 1.4-5.5.4.6.3 1 .5 1.3zM70.1 69.5c.4 1.5.9 3.1 1.3 4.6.3 1.2.6 2.4.9 3.5.2.9.5 1.9.9 2.8 1.3-4.4 2.5-8.8 3.8-13.1h.2l3.9 12.6h.1c.3-.9.6-1.9.9-2.8.3-1 .7-2 1-3l.6-2.1c.4-1.3.8-2.7 1.2-4 .2-.3.1-.7.5-1 .4 1.5.8 3.1 1.1 4.6.6 2.3 1.1 4.6 1.7 6.9 0 .1.1.2.1.3.5 1.2.3 2.4-.3 3.5-.1.1-.1.2-.3.3-.8.4-.8 1-.8 1.7v9.6c0 .6.2.7.8.7 1.1-.1 2.2 0 3.4 0v.2c-1.4-.2-2.8 0-4.2-.1-.2-.2-.1-.5-.1-.7v-9.1c0-.6.4-1.3-.4-1.8 0 0 0-.1-.1-.2-.6-2.1-1.2-4.3-1.8-6.4 0-.1 0-.3-.2-.3s-.2.2-.2.3c-.2.5-.3 1-.5 1.4-.4 1.2-.9 2.4-1.4 3.6-.3.9-.6 1.8-.9 2.8-.7-.1-.9.1-.9.8v9.7c0 .2.3.6-.3.6v-.8V85c0-.5.1-1 0-1.5l-.9-2.4c-.5-1.1-.9-2.2-1.4-3.3-.3-.8-.6-1.5-1-2.5-1.2 3.1-2.3 6.1-3.4 9-.3-.1-.7 0-1 0V84c-.4-1.3-.9-2.6-1.3-3.9l-1.2-3.9c-.2.1-.3.2-.3.4-.3 1.3-.5 2.5-.9 3.8-.2.6 0 1.2-.5 1.7-.4-.5-.7-1-1.1-1.5-.1-.1-.1-.3-.1-.4.3-1.2.5-2.4.7-3.6.3-1.5.5-3.1.8-4.6.3-1.4.5-2.9.8-4.3 0-.1 0-.3.2-.3.3.7.4 1.4.6 2.1zM51.9 126.2c-.9-.2-1.7-.1-2.6-.1-.4 0-.5-.1-.7-.5-.5-.7-.7-1.6-1.4-2.2l-.2-.2c-.1-.2.1-.5-.2-.5-.2 0-.6.3-.5.4.1.6-.5.9-.8 1.3-.4.4-.3 1-.7 1.5-.3.3-.5.3-.9.4-.4.1-.9-.3-1.1.3-.3-.1-.6 0-.9-.1-.4 0-.6-.1-.4-.5.3-.6.6-1.3.9-1.9.6-1.1 1.2-2.3 1.4-3.6.2-1.2.4-2.3.6-3.5.2-.9.3-1.8.5-2.8.3-1.6.5-3.2.8-4.8.2-1.5.5-3.1.7-4.6.1-.5.3-1.1.3-1.8.5.8.4 1.6.6 2.4.5 2.3.8 4.5 1.2 6.8.3 1.8.6 3.7.9 5.5.4 2.3.7 4.6 1.8 6.8.3.4.6 1 .7 1.7zM183 126.4c-.1-.4-.4-.3-.7-.3-1.2 0-1.4-.1-1.7-1.2 0 0 0-.1-.1-.1-.5-.7-.9-1.4-1.4-2.1-.2-.2-.3-.3-.4 0-.4.9-1.2 1.7-1.5 2.6-.3 1-1 .6-1.6.7-.6.1-1.2-.1-1.8.1.6-1.5 1.1-3 1.7-4.4.2-.5.2-1 .3-1.4.4-2.2.7-4.5 1.1-6.7.4-2 .7-4.1 1.1-6.1.2-1.3.5-2.5.6-3.8 0-.2.2-.4.3-.6.4 2.4.7 4.7 1.1 7.1.3 1.9.7 3.8 1 5.7.3 1.7.5 3.5.9 5.2.2 1.1.7 2.2 1.4 3.2.4.5.5 1.2.8 1.7.1.3 0 .4-.3.4-.1 0-.4-.1-.8 0zM113.1-28.2c.8.4 1.1 1 .7 1.6-.3.6-.9.7-1.4.4-.6-.3-.7-1-.3-1.5.2-.2.4-.4.7-.6.1-.1.2 0 .3.1zM134.4 68.3c-.2.2-.4.2-.7 0 .3-.1.5-.2.7 0zM92.1 68.2c-.2.2-.4.2-.7 0 .3-.1.5 0 .7 0zM112.8-29.8c.1.2.1.4 0 .6-.1-.2-.1-.4 0-.6zM157.5 83c-.1-.1-.1-.2 0-.4.2.2.2.3 0 .4zM68.4 82.6c.1.1.1.3 0 .4-.1-.1-.3-.2 0-.4zM133.5 68.2c-.2.2-.2.1-.3-.1.1.1.2.1.3.1zM92.7 68.2c-.1.2-.1.2-.3.1.1-.1.2-.1.3-.1zM112.8-29.1c.1.1.1.3 0 .4-.1-.1-.1-.2 0-.4zM112 73.2c.5-.4.5-1.1.8-1.6.1-.1 0-.3.2-.3s.2.2.2.3c.3.5.3 1.2.8 1.6 0 .2.1.4.2.7.6 1.3 1.1 2.7 1.7 4 .4.9.9 1.8 1.5 2.6.1.6.6 1.1.9 1.7 1 1.4 2.4 2.5 3.7 3.6.5.5 1 1.1 1.8 1.3.3.6.9 1 1.4 1.5 1.7 1.7 3.1 3.5 4.1 5.6.3.7.6 1.4.8 2.2.2.8.4 1.6.5 2.4 0 .3.1.7-.1 1-.5-.3-.4-.8-.6-1.2-1-2.3-2.5-4.1-4.3-5.8-2.1-1.9-4.1-3.8-6.3-5.6-2-1.7-3-3.8-4-6-.7-1.5-1.3-3-2-4.5-.1-.1-.1-.2-.3-.3l-.9 2.1c-1.2 2.6-2.2 5.3-4 7.6-.4.5-.9.7-1.3 1.1-1 .9-2.1 1.8-3 2.8-1.1 1.1-2.4 2.1-3.5 3.2-1.9 1.8-3.4 3.8-4.2 6.2-.1.2-.1.4-.3.5-.3-.8-.1-1.6.1-2.4.2-.9.5-1.9.9-2.8.5-.9.9-1.8 1.5-2.7 1.1-1.6 2.4-3 3.9-4.4.1-.1.2-.2.2-.4.1 0 .3-.1.4-.1 1.4-1.2 2.8-2.4 4.1-3.6.9-.8 1.5-1.7 1.9-2.9.2-.2.3-.4.5-.6.9-1.5 1.5-3.1 2.1-4.6 0-.8.4-1.5.6-2.2zM113 127.1h29.4c.7 0 .9.2.9.8-.1 1.2 0 1.2-1.3 1.2h-19.4c-1.7 0-3.5-.1-5.2-.1-2.4.1-4.7.1-7.1 0-1.8 0-3.6-.1-5.4 0-4.3.1-8.5 0-12.8.1h-8.6c-.6 0-.7-.2-.7-.7 0-1.4 0-1.4 1.5-1.4 9.5.1 19.1.1 28.7.1zM127.5 118.4v4.9c0 .5-.1.7-.7.7h-4.6c-.4 0-.6-.1-.6-.6v-10c0-.5.2-.6.6-.6h4.8c.5 0 .5.3.5.6.1 1.7.1 3.3 0 5 .1 0 .1 0 0 0zM104.3 118.5v4.9c0 .4-.1.6-.6.6h-4.8c-.4 0-.6-.1-.6-.5v-10.1c0-.4.1-.5.5-.5h4.7c.5 0 .7.2.7.7 0 1.6.1 3.3.1 4.9zM120.8 118.5v4.9c0 .4-.1.6-.6.6h-3.5c-.4 0-.6-.1-.6-.6v-9.9c0-.5.2-.7.7-.7h3.4c.5 0 .7.2.7.6-.1 1.7-.1 3.4-.1 5.1zM110.6 118.5v-4.9c0-.5.2-.7.7-.7h3.4c.5 0 .6.2.6.6v10c0 .5-.2.6-.6.6h-3.4c-.6 0-.7-.2-.7-.7v-4.9zM105.1 118.4v-4.9c0-.5.2-.7.7-.7h3.3c.5 0 .7.1.7.6v9.9c0 .4-.1.6-.6.6h-3.6c-.4 0-.5-.1-.5-.5v-5z"/><path class="st2" d="M115.3 92.7V96c0 .5-.1.7-.7.7h-3.4c-.5 0-.6-.2-.6-.6v-6.9c0-.3.1-.5.4-.6 1.3-.7 2.7-.7 4 0 .3.2.4.4.4.7-.1 1.2-.1 2.3-.1 3.4zM101.4 107.7h2.4c.3 0 .5.1.5.4v3.5c0 .3-.1.4-.5.5-1.6.1-3.3 0-4.9.1-.4 0-.6-.1-.6-.5v-3.5c0-.4.2-.5.6-.5h2.5zM124.6 107.7h2.4c.4 0 .5.1.5.5v3.5c0 .4-.2.5-.5.5-1.7 0-3.4.1-5-.1-.3 0-.4-.1-.4-.4v-3.5c0-.4.2-.4.5-.4.9-.1 1.7-.1 2.5-.1zM109.8 93.2v3c0 .4-.1.6-.6.6h-3.6c-.4 0-.6-.2-.6-.5v-2.2c0-.3.1-.4.3-.6 1.2-1.3 2.5-2.5 4-3.6.1-.1.2-.2.3-.1.2.1.1.2.1.3.1.9.1 2 .1 3.1zM116.1 93v-3c0-.1-.1-.3.1-.4.2-.1.3.1.4.2 1.4 1 2.7 2.2 3.8 3.4.3.3.4.5.4.9v2.1c0 .4-.1.5-.6.5h-3.6c-.4 0-.6-.2-.6-.6.1-1 .1-2 .1-3.1zM101.3 106.9h-2.4c-.4 0-.5-.1-.5-.5.1-1.2.5-2.4.9-3.5.1-.3.3-.3.5-.3h4c.4 0 .5.1.5.5v3.3c0 .3-.1.5-.5.4-.8.1-1.7.1-2.5.1zM124.6 106.9h-2.4c-.4 0-.6-.1-.5-.5v-3.3c0-.4.2-.5.6-.5h4c.3 0 .5 0 .6.3.3 1.1.7 2.2.8 3.4.1.4-.1.6-.5.6h-2.6zM112.9 112.1h-1.7c-.4 0-.6-.1-.6-.5v-3.4c0-.4.2-.5.6-.5h3.6c.5 0 .6.2.6.6v3.3c0 .4-.2.6-.6.6-.7-.1-1.3-.1-1.9-.1zM105.1 109.9v-1.7c0-.4.2-.5.5-.5h3.6c.4 0 .5.2.5.5v3.3c0 .4-.2.6-.6.6h-3.6c-.4 0-.5-.1-.5-.5.1-.5.1-1.1.1-1.7zM118.5 107.7h1.7c.4 0 .6.1.6.5v3.4c0 .4-.2.5-.6.5h-3.5c-.4 0-.6-.2-.6-.6v-3.3c0-.4.1-.6.6-.6.6.1 1.2.1 1.8.1zM107.4 106.9h-1.8c-.4 0-.6-.1-.6-.5v-3.3c0-.4.2-.5.6-.5h3.6c.4 0 .6.1.6.5v3.2c0 .4-.2.6-.6.5-.6.1-1.2.1-1.8.1zM113 106.9h-1.9c-.3 0-.5-.1-.5-.5V103c0-.3.1-.4.4-.4h3.8c.3 0 .4.1.4.4v3.4c0 .3-.1.5-.5.5H113zM118.5 106.9h-1.9c-.3 0-.5-.1-.5-.5V103c0-.3.1-.4.4-.4h3.8c.3 0 .4.1.4.4v3.4c0 .3-.1.5-.5.5h-1.7zM118.5 97.5h1.8c.4 0 .5.1.5.5v3.3c0 .3-.1.5-.5.5h-3.8c-.3 0-.5-.1-.5-.5v-3.4c0-.3.1-.4.4-.4h2.1zM113 101.8h-1.8c-.4 0-.6-.1-.6-.5V98c0-.3.1-.5.5-.5h3.8c.4 0 .5.1.5.5v3.3c0 .4-.1.5-.5.5H113zM107.4 97.5h1.8c.4 0 .6.1.6.5v3.3c0 .4-.2.5-.6.5h-3.6c-.4 0-.5-.1-.5-.5V98c0-.4.2-.5.5-.5h1.8zM104.3 99.7v1.6c0 .3-.1.5-.4.5h-3.6c-.4 0-.4-.1-.3-.4.5-1.3 1.2-2.4 2-3.6.1-.2.3-.2.6-.2 1.8-.1 1.8-.1 1.8 1.7-.1.1-.1.2-.1.4zM123.8 101.8h-1.7c-.3 0-.5-.1-.5-.4v-3.5c0-.3.1-.4.4-.4h1.5c.3 0 .4.2.6.4.7 1.1 1.3 2.2 1.9 3.3.2.5.1.7-.5.6h-1.7zM69.5 97.9v29.2c-.1.1-.2.1-.2-.1v-.6-25.9V99h-.1c-.1 1.3-.2 2.6-.4 3.9-.3-.9-.6-1.8-.6-2.7.3-.1.3-.3.3-.6v-1.8c.3.1.7.1 1 .1zM156.4 127.1V97.9h1.1v1.8c0 .2-.1.5.3.6 0 .9-.3 1.8-.6 2.7-.1-1.3-.2-2.6-.4-3.9h-.1v27.4c-.1.2.2.6-.3.6zM104.3 94.7v1.1c0 .9-.2 1.1-1.2.9-.3 0-.4-.2-.2-.4.4-.5.7-1.1 1.4-1.6zM121.6 94.7c.7.5 1 1.1 1.4 1.6.2.2.1.4-.2.4h-.7c-.4 0-.5-.1-.5-.5.1-.4 0-.9 0-1.5zM81.4 95.3c.2.1.5.2.8.2H87c0 .1.1.1.1.2-1.8.1-3.6 0-5.4.1-.2-.1-.4-.2-.3-.5zM138.9 95.6c1.4-.2 2.8 0 4.1-.1.5 0 1 .1 1.4-.2.1.3 0 .4-.3.4h-5.3l.1-.1zM70.1 127.1c.3-.4.6-.2 1-.2-.3.3-.7.1-1 .2zM144.5 95c-.3-.3-.3-.6 0-.9v.9zM81.4 94.2c.3.3.3.5 0 .8v-.8zM153.7 126.7c.2-.2.3-.1.4.1-.2 0-.3 0-.4-.1zM71.8 126.8c.1-.2.2-.3.4-.1-.1.1-.2.1-.4.1zM73.7 98v.3h-.2c-.1-.1-.1-.2-.1-.4.1 0 .2.1.3.1zM95.3 100.7c-.1-.2-.1-.4.2-.4 0 .1 0 .3-.2.4zM130.4 100.2c.3.1.2.3.2.4-.2 0-.2-.2-.2-.4zM152.2 98.2V98h.3c0 .1-.1.2-.1.2h-.2zM154.3 126.8c.1-.1.1-.1.1 0h-.1zM71.4 126.8c0-.1.1-.1.1 0h-.1zM119.8 163.3c.3-.1.2-.3.2-.5V150c0-.7-.5-.4-.8-.7h23V164c-.3-.2-.4-.6-.7-.8-.9-.7-1.8-.6-2.5.3-.1.1-.1.2-.3.2v-13.4c0-.9 0-.9-.9-.9h-14c-.6 0-.9.2-.9.8v13.1c-.1-.1-.3-.2-.4-.3-.8-.6-1.5-.5-2.2.2-.3.4-.3.4-.5.1zM105.9 149.4v13.3c0 .2-.1.5.2.6 0 .3-.1.3-.4.2-1.4-.9-1.4-.9-2.8-.1v-13c0-.9-.1-1-1-1H87.8c-.6 0-.7.2-.7.7v13.6c-.3-.1-.4-.4-.6-.6-1-.9-2-.4-2.6.4-.1.1-.1.3-.3.4v-6.1-8.6h21.5c.3.1.6 0 .8.2z"/><path class="st2" d="M87.2 169.5c-.4-3.6.6-6.4 3.5-8.6 1.5-1.1 2.2-2.6 2.7-4.2.4-1.1.7-2.2 1.1-3.3.1-.1.1-.3.3-.4.4 1.1.7 2.2 1.1 3.3.6 1.9 1.6 3.5 3.1 4.9 1.6 1.4 2.5 3.2 3.4 5.1.8 1.8.2 3.6.4 5.3 0 .1 0 .2-.1.2 0 .1-.1.1-.1.1-.5-3.4-1.9-6.4-3.8-9.3-.7-1.1-1.6-2.1-2.5-3-1.2-1.1-1.8-1-3 0-1.8 1.5-3.1 3.3-4.2 5.2-.8 1.5-1.5 3-1.9 4.7zM131.3 153c.4 1.2.7 2.3 1.1 3.5.4 1.3.8 2.7 1.9 3.7.6.6 1.4 1.2 2 1.8 1.7 1.6 2.4 3.6 2.4 5.9v1.5c-.5-1.8-1.2-3.5-2.2-5.1-1.2-1.9-2.4-3.6-4.3-4.9-.8-.6-1.4-.6-2.2.1-2.1 1.8-3.6 4.1-4.8 6.6-.8 1.5-1.3 3.1-1.7 4.7-.1.4-.1.8-.1 1.2-.2-.2-.2-.5-.2-.7v-.4c0-1.9-.1-3.7.9-5.6.9-1.7 2-3.3 3.4-4.6 1.4-1.3 2.2-3 2.8-4.8.3-.9.6-1.9.9-2.8 0-.1 0-.1.1-.1zM119.8 168.5c-.4-.9-.7-1.8-1.2-2.7-1.2-2.2-2.5-4.3-4.5-6-1.2-1.1-1.3-1.1-2.5 0-1.7 1.5-3 3.3-4.1 5.3-.5.9-1 1.9-1.3 2.9-.1.1-.2.3-.4.4 0-.4-.1-.9 0-1.2.3-.7.3-1.4.4-2.1 0-.9.7-1.5 1.1-2.2.5-.7 1.1-1.3 1.8-1.8 1.5-1.1 2.2-2.6 2.7-4.2.3-.9.6-1.9 1-3 .2.7.4 1.3.6 1.8.5 1.4.8 2.8 1.7 4 .6.8 1.6 1.4 2.3 2.1.8.8 1.7 1.7 1.9 2.7.2 1.2.6 2.4.5 3.7.2.1.1.1 0 .3zM138.6 163.7h.2c0 .1 0 .3-.1.3s-.1-.2-.1-.3z"/></g><g><path class="st3" d="M165.2 130.2H158c-.9 0-1.9-.3-2.8-.5-.6-.1-1.1-.2-1.7-.2H144c-.3 0-.8-.2-.7.3 0 .4-.5 1.1.5 1.1.4 0 .3.4.3.6 0 1.1-.1 2.1 0 3.2-.3.3-.6.3-1 .3-8.3-.1-16.6.1-24.9-.1-3.8-.1-7.7 0-11.6 0-8 .1-16 0-23.9 0-.3 0-.6-.1-.8-.3.1-1.1.1-2.2 0-3.3 0-.3 0-.5.4-.6.8-.1.3-.7.4-1 .1-.3-.2-.4-.5-.4H71.6c-1.1 0-2.2.3-3.4.5-.3 0-.6.1-.9.1h-6.7c-.5 0-.7-.3-.7-.7 0-.6-.3-1.4.1-1.9.4-.4 1.2-.2 1.9-.1.7 0 .9-.2.8-.8v-.4-26.8c0-.2-.1-.5.2-.7.1 1.4.2 2.7.4 4 .1-.2.1-.4.1-.6.5-2.2.9-4.3 1.4-6.5.1-.5 0-.7-.6-.7h-4.4c.6-.2 1.2-.1 1.8-.1.8 0 1.7-.1 2.5 0 .7.1 1-.2 1.1-.9.2-1 .3-1.9.6-2.9.2 1 .5 1.8.7 2.7.2 1.1.2 1.1 1.5 1.1h.3s0 .1.1.1h-.9c-.4 0-.5.1-.5.5.1.9.4 1.8.6 2.6.2.8.1 1.6.6 2.3 0 .9.3 1.8.6 2.7.1-1.3.2-2.6.4-3.9h.1v28c0 .1.1.1.2.1h.5c.3 0 .7.1 1-.2H71.9c.2 0 .3 0 .4-.1h.7c.6.1.7-.2.7-.7V98.2h.2c-.1 1.5.3 2.9.3 4.4.2-.2.3-.3.3-.5.2-1 .4-2.1.6-3.1.3-1.1.2-1.2-1-1.2h-5.6c-.6.1-.8-.1-.7-.7v-.3c0-1.1 0-1.1 1.1-1.2h2.7c.9 0 .9 0 .9-.8V84.5c.3 0 .7-.1 1 0v9.9c0 1.2 0 1.2 1.3 1.3.7 0 .9-.3 1-.8.1-.8.2-1.7.5-2.5.1-.5 0-1 .5-1.5.3 1.5.7 2.9.9 4.3.1.4.3.6.7.6h1.8c.5 0 .3-.4.3-.6v-9.7c0-.7.2-.9.9-.8v9.7c-.1.3-.1.5 0 .8v.3c-.1.3 0 .4.3.4 1.8 0 3.6.1 5.4-.1.5 0 .8.2.7.7v.7c.1.6-.1.9-.8.8H79.4c-1.1 0-1.2 0-.8 1.1 0 .1.1.3.1.4.1 1.1.6 2.1.7 3.3.6-1.1.1-2.2.6-3.3.2.3.1.6.1.9v25.7c0 .4.1.6.5.5h1.5c.4 0 .6-.1.6-.6v-1.6c0-.4.1-.5.6-.5h9.8c2.2 0 2.2 0 2-2.1V113c.1-4.2-.2-8.3.2-12.5.2-.1.2-.3.2-.4v-.5c.2-.1.2-.3.3-.5.8-2.4 2.3-4.4 4.2-6.2 1.2-1.1 2.4-2.1 3.5-3.2 1-1 2-1.9 3-2.8.4-.4 1-.7 1.3-1.1 1.8-2.3 2.8-5 4-7.6l.9-2.1c.2.1.3.2.3.3.7 1.5 1.3 3 2 4.5 1 2.2 2 4.4 4 6 2.2 1.8 4.2 3.8 6.3 5.6 1.8 1.7 3.4 3.5 4.3 5.8.2.4.1.9.6 1.2v.5c-.1.2 0 .4.2.4.3 1.7.2 3.3.2 5V123.2c0 .4.1.5.5.5H142c1.1 0 1.1 0 1.1 1 0 1.6 0 1.6 1.7 1.6.9 0 .9 0 .9-.8v-25.4c0-.3-.1-.5.1-.9.4 1 0 2.2.6 3.1 0-.7.3-1.4.5-2.1.1-.7.3-1.4.5-2.1.1-.3 0-.5-.4-.5s-.8.1-1.2.1c-2.3-.3-4.6-.1-7-.1-.7.1-.9-.2-.8-.8v-.6c-.1-.6.2-.8.8-.8h5.3c.3 0 .4-.1.3-.4v-.3c.1-.3.1-.6 0-.9V93v-8.7c.7-.1.9.1.9.8v9.8c0 .2-.2.6.3.6h1.8c.4 0 .6-.2.7-.6.3-1.4.6-2.7.9-4.2.1.2.3.3.3.4.2 1.1.5 2.1.7 3.2.2 1.2.1 1.2 1.3 1.2h.1c.9 0 .9 0 .9-.9V84.3c.3 0 .6 0 .9.1 0 .1-.1.3.1.4V92c-.1.1-.1.1 0 .2v.4c-.2.2-.2.5 0 .7.1.7-.1 1.4.2 2 1 .3 2 .1 3 .1h.4c1.1.1 1.1.1 1.1 1.2v.3c.1.6-.1.8-.7.7H152c-.3-.1-.6 0-.9 0-.4 0-.5.1-.4.5.3 1.3.5 2.5.7 3.8 0 .2.1.3.3.4 0-1.5.4-3 .3-4.5h.2V125c0 1.3 0 1.3 1.3 1.3.1.1.3.1.4.1h.5c.6 0 1.2.3 1.9.3.5 0 .2-.4.2-.6v-25.9-1.5h.1c.1 1.3.2 2.6.4 3.9.3-.9.6-1.8.6-2.7.1-.1.1-.2.2-.3l.9-4.2c.2-.9.1-.9-.9-1-.1 0-.1 0-.2-.1 1.1.1 1.6-.4 1.6-1.5.1-.8.3-1.6.6-2.4.4 1 .5 2 .7 3 .1.6.4.8 1.1.8h3.6c.2 0 .5-.1.7.1h-4.2c-.9 0-1 0-.8.9.2.9.4 1.9.6 2.8.3 1.4.6 2.7.9 4.3.2-1.5.3-2.8.5-4.2.1.3.1.5.1.7v27.4c0 .5.1.8.8.7h1.5c.4 0 .5.1.5.5v1.6c.1 1-.1 1.2-.6 1.2zm-52.2-3.1H84.2c-1.5 0-1.4 0-1.5 1.4 0 .5.1.7.7.7H92c4.3 0 8.5.1 12.8-.1 1.8-.1 3.6 0 5.4 0 2.3.1 4.7.1 7.1 0 1.7-.1 3.5.1 5.2.1h19.4c1.3 0 1.3 0 1.3-1.2 0-.6-.2-.8-.9-.8-9.7-.1-19.5-.1-29.3-.1zm14.5-8.7c.1 0 .1 0 0 0v-5c0-.3 0-.6-.5-.6h-4.8c-.4 0-.6.2-.6.6v10c0 .5.2.6.6.6h4.6c.6 0 .7-.2.7-.7v-4.9zm-23.2.1v-5c0-.5-.2-.7-.7-.7h-4.7c-.4 0-.5.1-.5.5v10.1c0 .4.2.5.6.5h4.8c.5 0 .6-.1.6-.6-.2-1.5-.1-3.1-.1-4.8zm16.5 0v-5c0-.5-.1-.7-.7-.6h-3.4c-.5 0-.7.2-.7.7v9.9c0 .5.2.6.6.6h3.5c.5 0 .6-.2.6-.6.1-1.7.1-3.4.1-5zm-10.2 0v4.9c0 .5.1.7.7.7h3.4c.5 0 .6-.1.6-.6v-10c0-.4-.2-.6-.6-.6h-3.4c-.6 0-.7.2-.7.7v4.9zm-5.5-.1v5.1c0 .4.1.5.5.5h3.6c.5 0 .6-.1.6-.6v-9.9c0-.5-.2-.7-.7-.6h-3.3c-.5 0-.7.1-.7.7v4.8zm10.2-25.7v-3.4c0-.3-.1-.5-.4-.7-1.3-.7-2.7-.7-4 0-.3.1-.4.3-.4.6v6.9c0 .4.1.6.6.6h3.4c.6 0 .7-.2.7-.7.1-1 .1-2.2.1-3.3zm-13.9 15h-2.5c-.4 0-.6.1-.6.5v3.5c0 .4.2.5.6.5 1.6 0 3.3.1 4.9-.1.3 0 .5-.1.5-.5v-3.5c0-.3-.1-.5-.5-.4h-2.4zm23.2 0h-2.5c-.3 0-.5.1-.5.4v3.5c0 .3.1.4.4.4 1.7.2 3.4.1 5 .1.3 0 .5-.2.5-.5v-3.5c0-.4-.2-.5-.5-.5-.8.1-1.6.1-2.4.1zm-14.8-14.5V90c0-.1 0-.3-.1-.3-.2-.1-.2.1-.3.1-1.4 1.1-2.8 2.3-4 3.6-.2.2-.3.4-.3.6v2.2c0 .4.1.5.6.5h3.6c.4 0 .6-.2.6-.6-.1-.9-.1-1.9-.1-2.9zm6.3-.2v3.1c0 .4.1.6.6.6h3.6c.4 0 .6-.1.6-.5v-2.1c0-.4-.1-.7-.4-.9-1.2-1.2-2.4-2.4-3.8-3.4-.1-.1-.2-.3-.4-.2-.2.1-.1.3-.1.4-.1 1-.1 2-.1 3zm-14.8 13.9h2.6c.3 0 .5-.1.5-.4v-3.3c0-.4-.1-.5-.5-.5h-4c-.2 0-.5 0-.5.3-.3 1.2-.7 2.3-.9 3.5 0 .4.1.5.5.5.6-.1 1.4-.1 2.3-.1zm23.3 0h2.4c.5 0 .6-.1.5-.6-.2-1.2-.5-2.3-.8-3.4-.1-.3-.3-.3-.6-.3h-4c-.4 0-.6.1-.6.5v3.3c0 .4.2.5.5.5h2.6zm-11.7 5.2h1.8c.4 0 .6-.1.6-.6v-3.3c0-.4-.1-.6-.6-.6h-3.6c-.4 0-.6.1-.6.5v3.4c0 .4.2.6.6.5.7.1 1.2.1 1.8.1zm-7.8-2.2v1.7c0 .4.2.5.5.5h3.6c.4 0 .6-.1.6-.6v-3.3c0-.4-.1-.6-.5-.5h-3.6c-.4 0-.5.1-.5.5-.1.6-.1 1.1-.1 1.7zm13.4-2.2h-1.8c-.4 0-.6.2-.6.6v3.3c0 .5.2.6.6.6h3.5c.4 0 .6-.1.6-.5v-3.4c0-.4-.2-.6-.6-.5-.6-.1-1.1-.1-1.7-.1zm-11.1-.8h1.7c.4 0 .6-.1.6-.5v-3.2c0-.4-.2-.5-.6-.5h-3.6c-.4 0-.6.1-.6.5v3.3c0 .4.2.5.6.5.7-.1 1.3-.1 1.9-.1zm5.6 0h1.9c.3 0 .5-.1.5-.5V103c0-.3-.1-.4-.4-.4h-3.8c-.3 0-.4.1-.4.4v3.4c0 .3.1.5.5.5h1.7zm5.5 0h1.9c.4 0 .5-.1.5-.5V103c0-.3-.1-.4-.4-.4h-3.8c-.3 0-.4.1-.4.4v3.4c0 .3.1.5.5.5h1.7zm0-9.4h-1.9c-.3 0-.4.1-.4.4v3.4c0 .3.1.5.5.5h3.8c.3 0 .5-.1.5-.5V98c0-.4-.1-.5-.5-.5h-2zm-5.5 4.3h1.8c.4 0 .5-.1.5-.5V98c0-.3-.1-.5-.5-.5H111c-.4 0-.5.2-.5.5v3.3c0 .4.2.5.6.5h1.9zm-5.6-4.3h-1.8c-.4 0-.5.1-.5.5v3.3c0 .4.1.5.5.5h3.6c.4 0 .6-.1.6-.5V98c0-.4-.2-.5-.6-.5h-1.8zm-3.1 2.2v-.5c0-1.7 0-1.7-1.8-1.7-.2 0-.4 0-.6.2-.8 1.1-1.5 2.3-2 3.6-.1.3-.1.4.3.4h3.6c.4 0 .4-.2.4-.5 0-.4.1-1 .1-1.5zm19.5 2.1h1.7c.6 0 .7-.1.5-.6-.5-1.1-1.2-2.2-1.9-3.3-.1-.2-.3-.4-.6-.4H122c-.3 0-.4.1-.4.4v3.5c0 .4.2.4.5.4h1.7zm-19.5-7.1c-.7.5-1 1.1-1.4 1.6-.2.2-.1.4.2.4 1 .1 1.2 0 1.2-.9v-1.1zm17.3 0v1.6c0 .4.1.5.5.5h.7c.3 0 .4-.2.2-.4-.4-.6-.7-1.2-1.4-1.7zM70.1 69.5c.5-.1.4-.5.5-.7.3-2.4.8-4.8 1.2-7.3.3-2.2.8-4.4 1.1-6.6.4-2.4.7-4.8 1.2-7.1.3-1.7.6-3.4.8-5.2.3-1.9.6-3.8.9-5.6.2-1.3.6-2.6.7-3.9.1-.4.1-.7-.4-.9-.4-.1-.7-.5-.6-.8.1-.4.3-.7.8-.8.3 0 .7 0 .6-.4 0-.3.3-.8-.3-1-.3-.1-.5-.5-.4-.9.1-.3.2-.7.7-.7.2 0 .4 0 .4-.2s-.2-.3-.4-.3c-.9-.4-1.1-1.7-.2-2.4.7-.5 1.6-.4 2.1.3.4.6.3 1.5-.3 1.9-.1 0-.1 0-.2.1s-.4.2-.4.4.3.2.5.2c.4.1.6.3.6.7 0 .4-.1.8-.5.9-.5.1-.4.5-.3.8 0 .3.1.6.6.6s.8.3.8.8c.1.4-.1.8-.6.9-.3.1-.4.2-.3.6.5 2.6 1 5.2 1.3 7.9.3 2.7.9 5.3 1.3 8 .4 2.4.8 4.9 1.3 7.3.4 2.3.8 4.7 1.1 7 .3 1.6.6 3.3.8 4.9.1.3.2 0 .3.1-.4 1.3-.8 2.7-1.2 4l-.6 2.1c-.3 1-.7 2-1 3-.3.9-.6 1.9-.9 2.8H81l-3.9-12.6h-.2c-1.3 4.4-2.5 8.8-3.8 13.1-.4-1-.6-1.9-.9-2.8-.3-1.2-.6-2.4-.9-3.5-.3-1.6-.8-3.2-1.2-4.7zm8.3-13.8v-1.5c0-.4-.3-.7-.7-.8-.4-.1-.6.2-.8.5-.1.2-.2.5-.2.7v2c0 .6.2.7.8.7 1.1 0 .9.1.9-.8v-.8zM141 68c.1-.1.3.3.3-.1.3-2.3.7-4.5 1.1-6.7.3-2 .7-3.9 1-5.8.3-1.8.6-3.7.9-5.5.3-1.9.7-3.8 1-5.7.3-1.6.4-3.2.7-4.7.3-1.9.5-3.8 1-5.6.1-.4.1-.7.2-1.1 0-.3-.2-.3-.4-.4-.5-.2-.7-.5-.6-.9.1-.4.3-.8.8-.8.4 0 .5-.3.6-.6 0-.3.2-.6-.3-.8-.4-.1-.5-.5-.5-.9s.3-.6.6-.7c.2-.1.5 0 .6-.3 0-.2-.3-.3-.5-.4-.6-.4-.9-1-.7-1.7.2-.5.9-.9 1.5-.9.7 0 1.1.4 1.3 1 .2.6 0 1-.4 1.4-.1.1-.3.2-.4.3-.1.1-.2.1-.2.2 0 .2.2.2.3.2.5 0 .8.4.8.8.1.4-.2.7-.6 1-.4.2-.1.6-.2.9 0 .3.2.4.4.4.6 0 .9.4 1 .8.1.5-.2.8-.7.9-.4.1-.3.4-.3.6.4 2.2.8 4.4 1.2 6.5.3 1.5.4 3 .7 4.5l.6 3.3c.3 1.6.5 3.1.8 4.7.2 1.3.4 2.7.7 4 .4 2.1.7 4.3 1.1 6.4.3 2.1.8 4.1 1 6.2 0 .3 0 .8.5.9-1 3.7-1.9 7.3-2.9 11h-.1c-1.3-4.4-2.5-8.8-3.8-13.1h-.2L145 79.9c-.6-1.4-1-2.8-1.5-4.2-.4-1.3-.8-2.5-1.2-3.8-.5-1.2-.9-2.6-1.3-3.9zm6.5-12.4v1.3c0 .4.1.6.5.5h.7c.2 0 .4-.1.4-.3 0-1.1.2-2.1-.1-3.2-.1-.4-.4-.6-.8-.6-.4.1-.7.4-.7.8v1.5zM119.5 26.5c-.2.7-.4 1.5-.6 2.2h-.2c-.6-2.2-1.1-4.4-1.7-6.6h-.2c-.5 2.2-1 4.5-1.8 6.7-.8-2.2-1.1-4.4-1.8-6.6-.3 0-.2.3-.3.4-.1-.1-.1-.3-.3-.4-.5 2.2-1.1 4.5-1.6 6.7h-.2c-.7-2.2-1.1-4.5-1.7-6.7h-.2c-.6 2.2-1.1 4.4-1.7 6.6h-.2c-.2-.8-.4-1.5-.6-2.3.4-1.2.3-2.4.5-3.7l.6-4.8c.3-2.1.5-4.2.7-6.4l.3-2.4c.1-.6.1-1.1-.5-1.5h-.1c-1.6-1.5-1.6-1.7-1.2-3.8.3-1.3.4-2.7.5-4 .2-1.3.3-2.6.6-3.9.4 2.1.8 4.3 1.2 6.4h.1c1.1-9.4 2.3-18.8 3.4-28.2h.2c1.1 9.4 2.3 18.8 3.4 28.2h.1c.4-2.1.8-4.3 1.2-6.4h.2c.2 2 .5 3.9.7 5.9.2 1.3.4 2.6.5 3.9 0 .4 0 .7-.3 1-.4.4-.8.8-1.3 1.2-.3.3-.4.6-.4 1 .3 2 .5 4 .8 6 .2 1.3.3 2.7.4 4 .2 1.5.4 3.1.6 4.6.5.9.5 1.9.9 2.9zM104.9 23.5c0 .7-.4 1.3-.5 2-.2 1.1-.6 2.1-.9 3.2 0 .1 0 .3-.2.3s-.2-.2-.3-.3c-.3-1.2-.7-2.3-.9-3.5-.1-.5-.5-1-.4-1.5.2 0 .2.3.3.4.4-3.2.9-6.3 1.3-9.4h.2c.2 1.4.4 2.8.6 4.1l.6 4.5c0 .1.1.2.2.2zM124.1 23.6c-.3 1.1-.6 2.3-.9 3.4-.1.5-.3 1.1-.4 1.6 0 .2-.1.3-.3.3-.2 0-.2-.2-.2-.3-.4-1.4-.8-2.8-1.1-4.2-.1-.3-.4-.6-.3-1 .5-.4.3-1 .4-1.5.2-1.3.4-2.7.6-4 .1-1.1.3-2.2.4-3.3h.2c.4 3.1.9 6.2 1.3 9.4.2-.1.1-.4.3-.4zM133.2 65.6c-.5-.1-1-.1-1.5 0-.2-.3-.3-.5-.2-.9l.6-3c0-.2.2-.4.3-.6.2 0 .3.2.3.3.1 1.2.5 2.3.8 3.4 0 .4-.1.6-.3.8zM94.2 65.6c-.5-.1-1-.1-1.5 0-.5-.3-.2-.7-.1-1.1.2-1 .6-2 .7-3 0-.1.1-.2.2-.4.2.2.3.5.4.7l.6 3c0 .3 0 .5-.3.8zM59.3 94.7c-.2 0-.2-.2-.2-.3.2.1.2.2.2.3zM166.8 94.4c0 .2 0 .3-.2.3 0-.1 0-.2.2-.3zM59.6 94.8h-.2c.1-.1.1-.1.2 0zM166.5 94.8h-.2c.1-.1.1-.1.2 0zM89.3 186.7c-.1.1-.3.1-.5.1-1.6 0-3.2.2-4.8.1v-.7-18.5c0-.2.1-.4 0-.6-.5-1-.4-2.1-.2-3.2.2 0 .2-.3.3-.4.6-.8 1.6-1.3 2.6-.4.2.2.3.5.6.6.3-.1.3-.4.4-.6.5-1.5 1.4-2.8 2.5-4 .8-.8 1.7-1.4 2.2-2.4.8-1.4 1.1-3 1.6-4.4.2-.7.3-1.5.8-2.2.5 1.5.9 2.8 1.3 4.1.5 1.4 1.1 2.7 2.2 3.8 1.6 1.7 3 3.5 3.8 5.7.1.4.1.9.5 1.2-.2-.6.4-1 .5-1.5 1.5-.8 1.5-.8 2.8.1.2.2.4.1.4-.2.7-1.9 1.8-3.5 3.3-4.9.6-.6 1.2-1.2 1.6-1.9.6-1.2 1-2.5 1.3-3.8l.6-1.8c.4 1.2.7 2.3 1 3.4.5 1.5 1 2.9 2.3 4 1.6 1.4 2.9 3 3.5 5.1.2.3.2.3.6-.1.7-.7 1.4-.7 2.2-.2.1.1.3.2.4.3.2.5.5.9.5 1.5l.1-.1c0-.1.1-.2.1-.3.5-2.2 1.6-4 3.2-5.7 1.5-1.5 2.6-3.2 3.2-5.2.4-1.2.7-2.3 1.1-3.5.2 0 .2.1.2.2.3 1.1.7 2.2 1 3.2.5 1.5.8 3 1.9 4.1.7.8 1.6 1.5 2.3 2.3.9 1.1 1.5 2.4 2 3.7 0 .1 0 .3.1.3s.1-.2.1-.3c.2 0 .2-.1.3-.2.7-.9 1.6-1 2.5-.3.3.2.3.6.7.8.1.8.4 1.5.1 2.3-.3.8-.3 1.7-.3 2.5v18.1c-1.6.1-3.2-.1-4.8-.1-.2 0-.3 0-.5-.1v-11.8c0-2.1-.1-4.1-.9-6-.9-2.1-1.9-4.2-3.5-5.9-.9-.9-1.3-.9-2.2 0 0 0-.1.1-.1.2-1.5 1.8-2.5 3.8-3.3 5.9-.5 1.3-1 2.7-1.1 4.1-.2 4.5-.1 9 0 13.5-.1 0-.3.1-.4.1-2.2.1-4.5.2-6.7 0-.1 0-.2-.1-.4-.1 0-4-.1-7.9 0-11.9.1-2.7-.5-5.2-1.7-7.7-.8-1.6-1.7-3.1-3-4.3-.3-.3-.6-.3-.9 0-1 1-1.8 2.2-2.5 3.4-1 1.7-1.7 3.5-2 5.5-.2 1.2-.1 2.3-.1 3.5v11.6c-.7.3-1.5.2-2.2.2-1.6.2-3.2-.1-4.8-.1-.1 0-.3-.1-.4-.1V174c0-.5 0-1-.1-1.5-.5-2.4-1.3-4.7-2.5-6.8-.6-1.1-1.3-2.2-2.2-3.1-.5-.5-.9-.5-1.4-.1l-.6.6c-.8.9-1.5 1.9-2.1 2.9-.9 1.6-1.6 3.3-2 5.2-.2 1.2-.2 2.3-.2 3.5-.3 4-.3 8-.3 12zm-2.1-17.2c.4-1.7 1-3.2 1.8-4.6 1.1-2 2.4-3.8 4.2-5.2 1.2-1 1.8-1.1 3 0 1 .9 1.8 1.9 2.5 3 1.9 2.8 3.4 5.9 3.8 9.3l.1-.1c0-.1.1-.2.1-.2-.2-1.8.4-3.5-.4-5.3-.9-1.9-1.8-3.7-3.4-5.1-1.5-1.4-2.5-3-3.1-4.9-.4-1.1-.7-2.2-1.1-3.3-.2.1-.2.3-.3.4-.4 1.1-.7 2.2-1.1 3.3-.5 1.6-1.2 3.1-2.7 4.2-2.7 2.1-3.8 4.9-3.4 8.5zm44.1-16.5h-.1c-.3.9-.6 1.9-.9 2.8-.7 1.7-1.4 3.4-2.8 4.8-1.4 1.3-2.5 2.9-3.4 4.6-1 1.8-.8 3.7-.9 5.6v.4c0 .2 0 .5.2.7 0-.4 0-.8.1-1.2.4-1.6.9-3.2 1.7-4.7 1.2-2.4 2.6-4.7 4.8-6.6.8-.7 1.4-.7 2.2-.1 1.8 1.3 3.1 3.1 4.3 4.9 1 1.6 1.7 3.3 2.2 5.1 0-.5.1-1 0-1.5 0-2.3-.8-4.3-2.4-5.9-.6-.6-1.4-1.2-2-1.8-1-1-1.4-2.4-1.9-3.7-.4-1.1-.7-2.3-1.1-3.4zm-11.5 15.5c.1-.1.1-.2.1-.2.1-1.3-.3-2.5-.5-3.7-.2-1.1-1-1.9-1.9-2.7-.7-.7-1.7-1.3-2.3-2.1-.9-1.2-1.3-2.7-1.7-4-.2-.6-.4-1.1-.6-1.8-.4 1.1-.7 2.1-1 3-.5 1.6-1.2 3.1-2.7 4.2-.7.5-1.3 1.1-1.8 1.8s-1.1 1.3-1.1 2.2c0 .7 0 1.4-.4 2.1-.2.4 0 .8 0 1.2.2-.1.3-.3.4-.4.4-1 .8-2 1.3-2.9 1.1-1.9 2.4-3.8 4.1-5.3 1.2-1 1.3-1.1 2.5 0 1.9 1.7 3.3 3.8 4.5 6 .4.7.7 1.6 1.1 2.6zM81.9 145.1c.2-.3.5-.3.8-.3h60.2c.9 0 .9 0 1 .9v3.4c-.2.2-.4.3-.6.3h-24.1c-4.4 0-8.9-.1-13.3.1-.2-.2-.5-.1-.7-.1H83c-.4 0-.8.1-1-.2-.1-1.5-.1-2.8-.1-4.1z"/><path class="st3" d="M123.8 87.1c-.7-.3-1.2-.8-1.8-1.3-1.3-1.1-2.8-2.2-3.7-3.6-.4-.5-.8-1-.9-1.7h.5c.5 0 1.1.1 1.6 0h3.6c.5 0 .7.1.7.7-.1 1.9 0 3.9 0 5.9zM121.9 71.4v-4.2c0-.7.2-1.5.8-2 .4-.4.8-.4 1.2 0 .5.6.7 1.2.7 1.9v8.8c0 .4-.1.5-.5.5-.7 0-1.6.3-2.1-.1s-.1-1.2-.1-1.9v-3zm2.3.4v-2.9c0-.5-.2-.9-.4-1.3-.3-.5-.8-.5-1.1 0-.3.4-.4.9-.4 1.4v4.9c0 1.5-.3 1.3 1.4 1.3.4 0 .5-.1.5-.5v-2.9zM108.5 80.5c-.4 1.1-1.1 2-1.9 2.9-1.3 1.3-2.7 2.5-4.1 3.6-.1.1-.2.2-.4.1v-6c0-.6.2-.7.7-.7h3.6c.5.1 1.1 0 1.6 0 .2.1.4.1.5.1zM104 71.4v4.4c0 .4-.1.5-.5.5h-1.7c-.4 0-.5-.1-.5-.5v-8.9c0-.5.2-1.1.5-1.5.2-.3.4-.6.9-.6s.7.3.9.6c.3.5.5 1.1.5 1.8-.1 1.4-.1 2.8-.1 4.2zm-.4.4V69c0-.5-.1-.9-.4-1.3-.4-.5-.8-.5-1.1 0-.2.4-.4.8-.4 1.3v5c0 1.3 0 1.3 1.4 1.3.5 0 .6-.2.6-.6-.1-1-.1-1.9-.1-2.9zM114.4 63.9v-4c0-.6.2-1.2.4-1.7.2-.4.5-.7.9-.7s.7.3.9.6c.3.6.5 1.2.5 1.8v8.5c0 .4-.1.6-.6.6h-1.7c-.4 0-.5-.1-.5-.5.1-1.5.1-3.1.1-4.6zm.4.5v2.3c0 1.3-.2 1.2 1.3 1.2.5 0 .7-.1.7-.6v-5.5c0-.4-.1-.8-.2-1.1-.1-.3-.3-.6-.7-.7-.3 0-.6.2-.7.5-.1.4-.3.8-.3 1.3-.1.8-.1 1.7-.1 2.6zM111.5 64.1v4.4c0 .5-.1.6-.6.6-.7-.1-1.6.3-2.1-.1-.4-.4-.1-1.3-.1-1.9v-6.9c0-.7.2-1.4.5-2 .5-.8 1.4-.8 1.8.1.3.5.5 1.1.5 1.7v4.1zm-2.3.2v2.4c0 1.3-.2 1.1 1.3 1.2.5 0 .7-.1.7-.6v-5.1c0-.5 0-.9-.2-1.4-.1-.4-.3-.8-.8-.8s-.7.5-.8.9c-.3 1.2-.1 2.4-.2 3.4z"/></g><g><path class="st4" d="M165 183.8v2.6c0 .6-.1.8-.8.8H61.6c-.7 0-.8-.2-.8-.8.1-.9 0 5 0 4.1.1-.8-.1-8.4-.1-9.2.1-9.5-.1-19 .1-28.4.2-6.2-.1-12.4-.1-18.5V131c0-.3 0-.5-.1-.7h6.7c.3 0 .6 0 .9-.1 1.1-.2 2.2-.5 3.4-.5 3.5-.1 7.1 0 10.6 0 .3 0 .6.1.5.4-.1.3.4.9-.4 1-.4 0-.5.3-.4.6.1 1.1 0 2.2 0 3.3 0 .7.1 1.5.1 2.2v12.1c-.1.4 0 .7 0 1.1-.1 5.2.1 10.4-.1 15.6-.1 1.5.2 3 .1 4.5v16.3c0 .4.1.5.5.5H84c1.6.1 3.2-.1 4.8-.1.2 0 .3 0 .5-.1h11.1c.1 0 .3.1.4.1 1.6 0 3.2.3 4.8.1.7-.1 1.5.1 2.2-.2h10.1c.1 0 .2.1.4.1 2.2.2 4.5.1 6.7 0 .1 0 .3-.1.4-.1h11.1c.1.1.3.1.5.1 1.6 0 3.2.2 4.8.1h1.3c.6.1.8-.1.8-.7v-21.8-14.5c0-.3.2-.6 0-.9V146c.4-.1.2-.4.2-.6-.1-.2-.2-.4-.2-.7 0-3.2-.1-6.4.1-9.7-.1-1.1 0-2.1 0-3.2 0-.2.1-.6-.3-.6-1 0-.5-.7-.5-1.1-.1-.5.5-.3.7-.3h9.5c.6 0 1.2 0 1.7.2.9.2 1.9.5 2.8.5 2.4.1 4.8 0 7.2 0-.2.2-.1.5-.1.7v3.2c0 2.3 0 4.7-.1 7-.1 4.3 0 8.7.1 13 .1 9 0 18.1 0 27.1.1.6-.1 1.4 0 2.3zm-93.2-27.4v-2.1-2.1c0-.6-.2-1.1-.5-1.7-.3-.6-1.1-.7-1.5-.3-.3.3-.5.6-.6 1-.2 1.4-.3 2.8-.2 4.1.1 1.4 0 2.8.1 4.2 0 .6-.3 1.4.1 1.7.4.4 1.2.1 1.9.2.5.1.7-.1.7-.7v-4.3zm82.3 0v4.6c0 .4.1.6.6.6h1.5c.5 0 .6-.2.6-.6v-8.5c0-.7-.1-1.3-.5-1.9-.4-.6-1-.7-1.5-.1-.4.5-.7 1-.7 1.6v4.3zm-82.3-15.1V137c0-.7-.3-1.3-.7-1.8-.3-.4-.7-.6-1.1-.3-.4.3-.7.8-.7 1.3-.2 1.4-.1 2.9-.1 4.3 0 1.8.1 3.5-.1 5.3 0 .3.2.3.4.3h1.8c.5 0 .6-.2.6-.6-.1-1.3-.1-2.7-.1-4.2zm82.3 0v3c0 .6-.3 1.5.1 1.8.4.4 1.3.1 2 .1.5 0 .6-.2.6-.6v-8.3c0-.6 0-1.3-.4-1.9-.2-.3-.4-.7-.9-.7s-.8.4-.9.8c-.3.6-.5 1.2-.4 1.9-.1 1.3-.1 2.6-.1 3.9zM130.4 100.2v-.5c.3-.3.1-.7.1-1-.1-.8-.3-1.6-.5-2.4-.2-.8-.5-1.5-.8-2.2-1-2.1-2.4-3.9-4.1-5.6-.5-.5-1.1-.8-1.4-1.5v-6c0-.6-.2-.7-.7-.7h-3.6V44.9c0-.5.2-.6.7-.6.8 0 1.6.1 2.3-.1 1.4 1 2.8 2.1 4.3 3 .4.3.5.5.4.9-.2.7-.3 1.4-.5 2.1-.2.7-.3 1.3-.3 2v20.9c0 .6.1.7.7.7.8-.1 1.5-.1 2.3 0 .6 0 .9-.1.9-.8-.1-1.4 0-2.9 0-4.3 0-.5.1-.7.7-.6.7.1.9-.2.9-.8-.1-.6 0-1.2 0-1.8.5-.1 1-.1 1.5 0v2.6c.1.2.1.2.3.1h.3c.2.2.4.2.7 0 .5.1.2.4.2.6V121c0 .6-.2.8-.8.8h-3v-8.3-7.9c0-1.7.1-3.3-.2-5-.1-.1-.1-.3-.4-.4zm-8.5-28.8v3c0 .7-.3 1.5.1 1.9.5.4 1.4.1 2.1.1.4 0 .5-.1.5-.5v-8.8c0-.7-.2-1.4-.7-1.9-.4-.4-.8-.4-1.2 0-.6.6-.7 1.3-.8 2v4.2zM95.3 100.7c-.4 4.2-.1 8.3-.2 12.5v8.8h-3c-.6 0-.9-.2-.8-.8V95v-.2-11.9-14c0-.2-.2-.5.2-.6.2.2.4.2.7 0h.3c.2.2.2.1.3-.1v-2.6c.5-.1 1-.1 1.5 0v2.1c0 .4.1.6.6.6 1 0 .9-.2.9.9v4.2c0 .5.2.6.7.6h2.6c.5 0 .6-.1.6-.6v-8.3-12.6c0-1.4-.5-2.6-.8-3.9-.1-.6 0-1 .5-1.3 1.4-.9 2.7-1.9 4.1-2.9.8.3 1.6.1 2.3.1.5 0 .7.1.7.6v35.4h-3.6c-.5 0-.7.1-.7.7v6c0 .1-.1.3-.2.4-1.5 1.3-2.8 2.8-3.9 4.4-.6.8-1 1.8-1.5 2.7-.4.9-.7 1.9-.9 2.8-.2.7-.4 1.6-.1 2.4v.5c-.4-.1-.4.1-.3.3zm8.7-29.3v-4.2c0-.6-.1-1.2-.5-1.8-.2-.3-.5-.6-.9-.6s-.7.3-.9.6c-.3.5-.5 1-.5 1.5v8.9c0 .3.1.5.5.5h1.7c.4 0 .5-.1.5-.5.1-1.5.1-2.9.1-4.4zM68.3 82.2c.4-.5.3-1.1.5-1.7.4-1.2.6-2.5.9-3.8 0-.2.1-.3.3-.4l1.2 3.9c.4 1.3.9 2.6 1.3 3.9V94.7c0 .8 0 .8-.9.8h-2.7c-.3-.2-.5-.5-.4-.8 0 0 0-.1-.1-.1.2-1.2.1-2.5.1-3.7 0-2.6.1-5.3-.1-7.9.1-.2.1-.3 0-.4 0-.1 0-.2-.1-.4zM153.4 84.6c.3-1.4.8-2.8 1.2-4.1.3-1 .6-1.9.9-2.9.1-.4.4-.6.2-1.2.3.3.4.4.5.7.2 1.4.7 2.8 1 4.2.1.4 0 .8.3 1.1v.4c-.1.1-.1.2 0 .4-.2 3.9-.1 7.8 0 11.8 0 .4-.1.7-.5.9h-.4c-1-.3-2-.2-3-.1-.3-.7-.1-1.4-.2-2 .2-.2.2-.5 0-.7v-.4c.1-.1.1-.1 0-.2v-7.2c.2-.5.1-.6 0-.7zM87.2 124h-3.9c-.4 0-.6.1-.6.5v1.6c0 .4-.2.6-.6.6h-1.5c-.4 0-.5-.2-.5-.5v-2.4-23.3c0-.3.1-.5-.1-.9-.4 1 0 2.2-.6 3.3-.1-1.2-.5-2.3-.7-3.3 0-.1-.1-.3-.1-.4-.3-1.1-.3-1.1.8-1.1H87c.2 1.1.1 2.2.1 3.4.1 7.1 0 14.2 0 21.4.1.2-.2.6.1 1.1zM138.9 97.9c2.3 0 4.6-.2 7 .1.4 0 .8 0 1.2-.1.4 0 .5.1.4.5-.1.7-.3 1.4-.5 2.1-.1.7-.4 1.4-.5 2.1-.6-.9-.1-2.1-.6-3.1-.2.3-.1.6-.1.9v25.4c0 .8 0 .8-.9.8-1.7 0-1.7 0-1.7-1.6 0-1 0-1-1.1-1h-3.4c.3-.5 0-1 0-1.4.1-8.3-.1-16.5.2-24.7zM153.7 126.7c-1.3 0-1.3 0-1.3-1.3V98.2c0-.1.1-.2.1-.2h3.9v29.2c-.7.1-1.3-.2-1.9-.3 0-.1-.1-.1-.1 0h-.3c-.1-.4-.2-.4-.4-.2zM71.4 126.8H71c-.3 0-.7-.2-1 .2h-.5V97.8h3.9c0 .1 0 .3.1.4V126c0 .5-.1.7-.7.7h-.7c-.2-.2-.3-.1-.4.1h-.3c.1-.1.1 0 0 0zM145.6 95.7c0-3.3 0-6.6-.1-9.9 0-1.3.2-2.5.8-3.7.8-1.9 1.5-3.9 2.3-5.8.1-.2.2-.3.2-.5.5.4.6 1 .7 1.5.5 1.3 1 2.5 1.5 3.8.4 1 .7 2.1 1.2 3.1 0 .1.1.2.2.3v10.3c0 .9 0 .9-.9.9h-.1c-1.2 0-1.1 0-1.3-1.2-.2-1.1-.4-2.1-.7-3.2 0-.1-.1-.2-.3-.4-.3 1.5-.6 2.8-.9 4.2-.1.4-.3.6-.7.6h-1.9zM73.6 84.6c1.1-2.9 2.2-5.9 3.4-9 .4 1 .7 1.7 1 2.5.4 1.1.8 2.2 1.4 3.3.4.8.6 1.6.9 2.4.2.5 0 1 0 1.5v10.4h-1.8c-.4 0-.6-.2-.7-.6-.3-1.4-.6-2.8-.9-4.3-.4.5-.3 1.1-.5 1.5-.3.8-.4 1.7-.5 2.5-.1.6-.3.9-1 .8-1.3-.1-1.3 0-1.3-1.3-.1-3.1-.1-6.4 0-9.7zM87 94.8v.6h-4.8c-.3 0-.5 0-.8-.2v-.3c.3-.3.3-.5 0-.8v-8.6-1.1c.3-.9.6-1.8.9-2.8.4-1.2.9-2.4 1.4-3.6.2-.5.3-1 .5-1.4.1-.1 0-.3.2-.3s.2.2.2.3c.6 2.1 1.2 4.3 1.8 6.4 0 .1 0 .2.1.2.8.4.4 1.2.4 1.8v9.1c0 .3-.1.5.1.7zM138.9 95.6v-.7c.2-.2.1-.5.1-.7v-9.8c0-.4-.1-.7.4-1 .3-.2.3-.9.4-1.3.3-1.2.7-2.4 1-3.6.1-.6.4-1.2.5-1.8 0-.1 0-.3.2-.3s.2.1.2.3c.6 1.9 1.3 3.8 2.1 5.7.3.7.5 1.5.7 2.2v9.5c-.3.3-.3.6 0 .9v.3c-.5.3-1 .1-1.4.2-1.5 0-2.9-.1-4.2.1zM152.2 98.2c.1 1.5-.3 3-.3 4.5-.3 0-.3-.2-.3-.4-.2-1.3-.5-2.5-.7-3.8-.1-.4 0-.6.4-.5.3 0 .6-.1.9 0v.2zM73.7 98h.3c1.2 0 1.3.1 1 1.2-.3 1-.5 2.1-.6 3.1 0 .2-.1.3-.3.5 0-1.5-.4-2.9-.3-4.4-.1-.2-.1-.3-.1-.4zM117.9 80.4h-.5c-.7-.8-1.1-1.7-1.5-2.6-.6-1.3-1.1-2.7-1.7-4-.1-.2-.2-.4-.2-.7V45.3c0-.8 0-.8.9-.8.8 0 1.6.1 2.4-.1.4-.1.7.1.6.5v35.5zm-3.5-16.5v4.6c0 .4.1.5.5.5h1.7c.5 0 .6-.2.6-.6v-8.5c0-.6-.2-1.3-.5-1.8-.2-.3-.5-.6-.9-.6-.5 0-.8.3-.9.7-.3.5-.4 1.1-.4 1.7-.1 1.3-.1 2.7-.1 4zM108.5 80.5h-.5V45.2c0-.7 0-.7.8-.6.8.1 1.6.1 2.4 0 .6 0 .8.2.7.7v27.9c-.2.7-.5 1.4-.8 2-.7 1.6-1.2 3.2-2.1 4.6-.1.3-.3.5-.5.7zm3-16.4v-4.2c0-.6-.2-1.2-.5-1.7-.4-.9-1.3-.9-1.8-.1-.4.6-.5 1.3-.5 2V67c0 .7-.3 1.5.1 1.9.4.4 1.4.1 2.1.1.5 0 .6-.1.6-.6v-4.3z"/><path class="st4" d="M124.2 71.8v2.9c0 .4-.1.5-.5.5-1.7 0-1.4.2-1.4-1.3V69c0-.5.1-1 .4-1.4.3-.5.8-.5 1.1 0 .2.4.4.8.4 1.3v2.9zM103.6 71.8v2.9c0 .4-.1.6-.6.6-1.4 0-1.4 0-1.4-1.3v-5c0-.5.1-.9.4-1.3.3-.5.8-.5 1.1 0 .3.4.4.8.4 1.3.1.9.1 1.8.1 2.8zM114.8 64.4v-2.7c0-.5.2-.9.3-1.3.1-.3.3-.5.7-.5.4 0 .6.3.7.7.1.4.2.7.2 1.1v5.5c0 .5-.2.6-.7.6-1.5 0-1.2.1-1.3-1.2v-1.2c.1-.2.1-.6.1-1zM109.2 64.3c.1-1-.2-2.2.1-3.4.1-.4.3-.9.8-.9s.6.4.8.8c.2.5.2.9.2 1.4v5.1c0 .5-.2.6-.7.6-1.5 0-1.2.1-1.3-1.2.1-.7.1-1.5.1-2.4z"/></g><g><path class="st2" d="M201.6 144.6c3.1-1.1 6.6-1.2 10.7.1 6.4 2 10.3 8 12 13.8 4.3 14.5-2.6 31.3-14.5 40.2-3.5 2.6-7.3 4.2-11.7 4.7 3.4-3.1 12.1-11 8-16.5-2.2-2.9-6-.8-8 1 1.4-1.2-1-7.2-2.1-8.2-2.2-2.1-5.7-.7-7.1 1.6 1.1-2 .6-4.5-1.1-6.1-2.9-2.7-6.1-1.1-8.2 1.3.3-7.3-9.8-4.7-11.6.2.3-3.3-1.1-7.8-5.1-7.5-7.8.5-10.6 11.9-10.5 17.7-3.9-10.7-.1-27.1 4.4-36.9 1.6-3.5 4.4-7 7.1-9.8 4.6-4.8 13.8-11.1 20.2-4.6 5.9 6 3.9 21.9-.4 27.9 4.8-6.6 9.8-16.1 17.9-18.9z"/><path class="st5" d="M60.7 252.1c-11.3-4.1-22.6-9.8-21.9-15.6 1.4-12.3 28.4-4.3 36.3-2.7 35.3 7.4 84.5 37.8 113.2.7 15.7-20.3 5.5-41 2.8-63.5-2.4-19.5 14.9-28.5 24.9-42.5 7-9.8 13-27.6 1.1-37.3-10.4-8.5-29.2 9.9-29.2 9.9s-.4 7.7 7.9 3.6c8.4-4.1 27.5 6.3 3 22.3-14.3 9.4-35.5 24.1-25.8 53.4 4.1 12.2 7.1 33.9-5.7 41.8-9.5 5.8-23.4 5-34.2 3.6-35.2-4.5-86.7-34.4-117.9-7.7-17.1 14.6 2.9 34.1 20.3 44.7 7.8-4.7 16.3-8.4 25.2-10.7z"/><path class="st3" d="M183.4 185.6c-1.9-5.3-1.4-11-1.6-16.4-1.5-20.6 18-30 29.8-43.7 3.5-4.3 6.2-10 5-15.6-.6-1.8-.7-3.4-2-4.8-7.1-6.7-17.9-4.1-24.8.3 1.2.7 3 .8 6.1-.7 8.4-4.1 27.5 6.3 3 22.3-14.3 9.4-35.5 24.1-25.8 53.4 4.1 12.2 7.1 33.9-5.7 41.8-4.7 2.9-10.4 4.1-16.3 4.5-15.1 6.6-35.4 2.7-51.5-1.5-22.6-5.8-56.8-24.5-72.5-.8-3 4.5-2.9 10.3-.6 14.2 5.4 6.8 14.8 9.5 24.4 9.5h.4c-7.3-3.5-12.8-7.5-12.4-11.6 1.4-12.3 28.4-4.3 36.3-2.7 35.3 7.4 84.5 37.8 113.2.7 2-2.6 3.6-5.3 4.9-7.9-1.3-13.6-5.4-27.5-9.9-41z"/><path class="st5" d="M153.1 114.7c.6 3.2-3.1 5.2-5 5.6-1.3.2-2.4-.6-3.6.2-.4.3-2.8 3.5-2.1 4-.7-.5 0-3.9.2-4.7.7-2 2.2-3.7 3.5-4.9 1.7-1.4 6.4-4.2 7-.2zM146.5 126.1c.5 3.1 2.3 6.3 4.4 8.8 3.3 4 9 7.3 11.3 11.9.9 1.8 2.4 11.9 5.5 11.9.9 0 2.5-2.2 3.1-2.7 1.4-1.1 2.9-1.9 4.7-2.2 4.9-1 9.6-.6 14.1-3.1 4.1-2.2 7.5-7.6 2.9-11.3-4.8-3.8-8.2-.1-11 3-2.6 2.7-5.4 5.9-9.9 4.6-5-1.4-7.6-7.4-10.2-11.2-2.8-4-6.1-9.7-10.1-12.6-3.3-2-5.3-.2-4.8 2.9z"/><path class="st5" d="M191.1 171c-2.4-19.5 14.9-28.5 24.9-42.5 7-9.8 13-27.6 1.1-37.3-10.4-8.5-29.2 9.9-29.2 9.9s-.2 3.1 1.8 4.3c6.9-4.4 17.7-7.1 24.8-.3 1.3 1.4 1.4 3.1 2 4.8 1.2 5.7-1.5 11.3-5 15.6-11.8 13.7-31.3 23.1-29.8 43.7.2 5.4-.3 11.1 1.6 16.4 4.5 13.5 8.6 27.4 9.8 41 8.4-17.7.4-36-2-55.6zM196.4 286c-9.7-15.5-34-19.1-50.5-21.8-21.4-3.5-43.1-3.6-64.6-6.5-3.7-.5-12.1-2.6-20.6-5.6-8.9 2.3-17.4 6-25.1 10.8 4.9 3 9.7 5.3 13.3 6.6 24.6 8.6 51.8 10.3 77.3 7.1 12.6-1.6 26.6-4.5 39.2-1.5.5.1 1 .2 1.6.4 8 2 21.8 6.4 24 14.3 1.9 6.7-5.4 13.2-11.6 14.9 10.3-1.9 24.8-6.1 17-18.7z"/><path class="st3" d="M189.3 298.9c.9-1.3 1.9-2.7 2.4-4.6 1.1-6.1-2.3-11.8-7.6-14.9-34.3-20.3-71.2-6.9-107.2-3.1 16.4 2.4 33.2 2.3 49.3.3 12.6-1.6 26.6-4.5 39.2-1.5.5.1 1 .2 1.6.4 8 2 21.8 6.4 24 14.3 1.1 4.1-1.1 8-4.4 10.9.9-.5 1.8-1.1 2.7-1.8z"/><path class="st5" d="M150.2 129.4c-.3 4.6-7.4 4.5-8.8 2.1-.5-.9-.6-2.3-.5-3.5 0-.5 1.1-4.1 1.1-4.1 1.6 2.1 2.9 2.5 5.2 2.7 1.4.1 3.2.3 3 2.8z"/><path class="st5" d="M151 126.2c-1.5 2.6-5.8 1.9-7.6.7-1.1-.7-2.4-2-2.4-3.5.4-6.1 14.1-4 10 2.8z"/><path class="st2" d="M162.8 108.5s-1.4 5.9 8.2 10c11.4 4.9 23.1-9.5 23.1-9.5l-2.6-.5h-28.7zM191 87.6l14.6-15.1L195 92.2zM206.1 93.8L223 81l-13.7 17.9zM199.5 87.2l19.1-18.1-11.7 22.4z"/><path class="st5" d="M182 97.8l-5.7.8s-6.1-4.6-9.7-1.8c-3.7 2.8-7.5 10.5-7.5 10.5l19.6 5.8 20.7-5.5 12.2-9.3s-2.8-6.5-8.8-11.2l-13.3-.2-7.5 10.9z"/><path class="st5" d="M191.2 86.9l6.5-8.4-.1 7.4-3.2 4.2zM207 90.8s11.2-4.7 10.8-4.7c-.4 0-8.2 12.3-8.2 12.3l-2.6-7.6z"/><path class="st6" d="M177.2 100.8l-4.1 5s4.5.2 4.1-5zM167.6 103.5l3-3.9s-3.4-.1-3 3.9zM197.3 98.8s-.1 0 0 0v-.2c-.1-.4-.5-.8-.9-.9-.5-.1-1.3.1-1.6.5-.4.8.4 1.3 1 1.5.3.1.6.1.9 0 .4-.1.6-.4.6-.9z"/><path class="st2" d="M191.8 97.5l10.5-3.2s-5.9 7.6-10.5 3.2z"/><path class="st6" d="M186.8 95.5v-.1c-.1-.3-.4-.6-.7-.7-.4-.1-1 .1-1.2.4-.3.6.3 1 .8 1.1.2.1.5.1.7 0 .3 0 .4-.3.4-.7z"/><path class="st2" d="M187.7 95.9l-3.6-4.5s-.6 4.4 3.6 4.5z"/><path class="st7" d="M161.7 108.1s1.1-4.3 4.5-7c0 0-2 4.9-.4 8.2l-4.1-1.2zM186.1 111.1l1.4-4.1.5 3.6z"/><path class="st7" d="M160.5 107.7l.1 4.1 1.2-3.7zM173.4 111.5s1.6-3.9 5-6.5c0 0-2.3 4.5-.6 7.8l-4.4-1.3zM182 112.2l1.3-6.4 1 5.8zM178.8 113l.2 3.2 2.7-3.9z"/></g></g></svg>