<?xml version="1.0" encoding="utf-8"?>
<!-- Generator: Adobe Illustrator 19.2.1, SVG Export Plug-In . SVG Version: 6.00 Build 0)  -->
<svg version="1.1" id="Warstwa_1" xmlns="http://www.w3.org/2000/svg" xmlns:xlink="http://www.w3.org/1999/xlink" x="0px" y="0px"
	 width="82px" height="82px" viewBox="0 0 82 82" style="enable-background:new 0 0 82 82;" xml:space="preserve">
<style type="text/css">
	.st0{fill:#F0583E;}
</style>
<path class="st0" d="M41,1C18.9,1,1,18.9,1,41c0,22.1,17.9,40,40,40c22.1,0,40-17.9,40-40C81,18.9,63.1,1,41,1z M52.5,22.6
	c-1.6-0.4-3.1-0.6-4.6-0.6c-1.5,0-2.4,0.3-3,1c-0.6,0.7-0.9,2-0.9,3.9v2.7h8v8h-8v30H34v-30h-5v-8h5v-2.8c0-3.2,0.2-5.6,0.9-7.2
	c0.7-1.6,1.9-2.9,3.7-3.9c1.8-1,4.1-1.5,6.9-1.5c2.9,0,5.7,0.4,8.4,1.3L52.5,22.6z"/>
</svg>
