<svg id="Warstwa_1" xmlns="http://www.w3.org/2000/svg" width="82" height="82" viewBox="0 0 82 82"><style>.st0{fill-rule:evenodd;clip-rule:evenodd;fill:#F0583E;}</style><path class="st0" d="M60.3 29.2c-.1-.2-.2-.2-.3-.2-.1.1-.2 0-.4 0H21.9c-.2 0-.4 0-.6.1-.1.2-.2.3-.2.5 0 2.4 1.3 4.5 3.8 6.1.9.6 2.2 1.5 4 2.7 2.8 1.8 4.8 3.2 6.2 4.2l.2.1c.3.2.5.4.7.5.7.5 1.1.8 1.2.8.4.2.7.4 1.2.7.6.3 1 .5 1.3.6.6.1 1 .2 1.2.2.2 0 .6-.1 1.2-.2.3-.2.7-.4 1.3-.6.5-.4.9-.6 1.2-.7.2-.2.6-.4 1.2-.8.2-.2.4-.3.7-.5l.2-.1c1.4-1 3.4-2.3 6.2-4.2 1.9-1.2 3.2-2.1 4-2.7.9-.6 1.5-1.4 2.4-2.5.8-1.1.9-2 .9-2.9v-.7l.1-.3c-.2 0 0-.1 0-.1z"/><path class="st0" d="M47.8 45.3c-.2.2-.6.4-1.1.7-.5.4-.9.6-1.1.8-.8.4-1.5.8-2.2 1.1-1.1.4-2 .5-2.7.5-.7 0-1.6-.2-2.7-.5-.7-.3-1.4-.7-2.2-1.1-.2-.2-.5-.4-1.1-.8-.5-.3-.8-.5-1.1-.7-3.3-2.3-7-4.8-11-7.3-.5-.5-1.6-1-1.6-1.5v16.6c0 .2.1.4.2.5.2.2.5.3.7.3h37.8c.2 0 .2-.2.4-.3.1-.2 0-.4 0-.5V36.5c0 .5-.9 1-1.5 1.4-4.2 2.7-7.6 5.1-10.8 7.4z"/><path class="st0" d="M41 1C18.9 1 1 18.9 1 41s17.9 40 40 40 40-17.9 40-40S63.1 1 41 1zm23 52.2c-1 1-.6 2-1.3 2.6-.8.7-1.9 1.2-3.1 1.2H21.9c-1.2 0-2.6-.6-3.3-1.2-.8-.7-1.5-1.7-1.5-2.6V29.6c1-1 .8-1.3 1.5-2 .9-.7 2.3-.6 3.3-.6h37.8c1.1 0 2.2 0 3.1.6.8.7 1.3 1.1 1.3 2v23.6z"/></svg>