<?xml version="1.0" encoding="utf-8"?>
<!-- Generator: Adobe Illustrator 19.2.1, SVG Export Plug-In . SVG Version: 6.00 Build 0)  -->
<svg version="1.1" id="Warstwa_1" xmlns="http://www.w3.org/2000/svg" xmlns:xlink="http://www.w3.org/1999/xlink" x="0px" y="0px"
	 width="82px" height="82px" viewBox="0 0 82 82" style="enable-background:new 0 0 82 82;" xml:space="preserve">
<style type="text/css">
	.st0{fill-rule:evenodd;clip-rule:evenodd;fill:#F0583E;}
	.st1{fill:#FFFFFF;}
</style>
<g>
	<g>
		<path class="st0" d="M41,1C18.9,1,1,18.9,1,41c0,22.1,17.9,40,40,40c22.1,0,40-17.9,40-40C81,18.9,63.1,1,41,1z"/>
	</g>
	<path class="st1" d="M60.8,56.3c0.7,0,0.8-0.2,1-0.8c0.8-3.4,0.1-6.3-2.3-8.8c-1.6-1.7-3.3-3.3-5-5c-0.2-0.2-0.4-0.4-0.8-0.8
		c0.3-0.2,0.6-0.4,0.8-0.6c1.7-1.7,3.4-3.3,5.1-5.1c2.5-2.6,3.1-5.6,2.2-9.1c-0.1-0.5-0.3-0.7-0.8-0.6c-2.8,0.1-4.7-1.8-4.6-4.6
		c0-0.6-0.2-0.8-0.7-0.9c-3.4-0.9-6.5-0.2-9,2.3c-1.7,1.7-3.4,3.4-5.1,5c-0.2,0.2-0.4,0.4-0.7,0.6c-0.4-0.4-0.8-0.7-1.1-1.1
		c-1.5-1.5-3-3.1-4.6-4.6c-2.5-2.4-5.5-3.1-8.8-2.3c-0.5,0.1-0.8,0.3-0.8,1c0.1,2.5-2,4.7-4.5,4.6c-0.7,0-0.9,0.2-1,0.7
		c-0.8,3.4-0.1,6.3,2.3,8.8c1.5,1.6,3.1,3.1,4.7,4.7c0.3,0.3,0.6,0.7,1,1.1c-0.3,0.3-0.5,0.6-0.8,0.8c-1.6,1.6-3.2,3.2-4.8,4.8
		c-1.1,1.1-1.9,2.3-2.3,3.8c-0.6,2-0.6,4.1,0.2,6.1c3.4-0.4,5.6,2.1,5.2,5.2c3.1,1.4,7.1,0.6,9.7-1.9c1.7-1.7,3.4-3.4,5.2-5.2
		c0.2-0.2,0.4-0.4,0.7-0.6c0.3,0.3,0.5,0.5,0.8,0.7c1.7,1.7,3.3,3.4,5,5c2.5,2.4,5.5,3.1,8.8,2.2c0.5-0.1,0.7-0.3,0.7-0.9
		C56,58.5,58.3,56.2,60.8,56.3z M49.2,25.5c1.9-1.7,4.8-1.4,6.7,0.3c1.8,1.8,2.3,4.7,0.7,6.6c-1.7,2.1-3.7,3.9-5.5,5.7
		c-2.5-2.5-4.9-4.9-7.2-7.3C45.7,29.1,47.3,27.2,49.2,25.5z M25.8,33.2c-2.8-3-1.4-7.8,2.6-8.8c1.5-0.4,3.1-0.2,4.3,0.9
		c1.9,1.7,3.6,3.7,5.4,5.5c-2.4,2.4-4.8,4.8-7.2,7.2c-0.1-0.1-0.3-0.2-0.4-0.3C28.8,36.3,27.2,34.8,25.8,33.2z M37.7,51.6
		c-1.5,1.5-2.9,2.9-4.4,4.4c-2.1,2.1-5.3,2.1-7.4,0.1c-2.1-2-2-5.3,0.1-7.4c1.6-1.6,3.1-3.1,4.7-4.7c0.1-0.1,0.1-0.1,0.1-0.1
		c2.4,2.4,4.9,4.8,7.3,7.2C38,51.3,37.8,51.5,37.7,51.6z M40.8,48.1c-2.3-2.3-4.7-4.7-7-7.1c2.4-2.4,4.8-4.8,7.2-7.2
		c2.4,2.3,4.8,4.7,7.1,7C45.7,43.3,43.2,45.7,40.8,48.1z M49.6,56.8c-2.1-1.7-4-3.7-5.9-5.5c2.5-2.5,5-5,7.3-7.3
		c1.8,1.7,3.8,3.4,5.4,5.3c1.7,1.9,1.4,4.9-0.3,6.7C54.5,57.8,51.5,58.3,49.6,56.8z"/>
	<path class="st1" d="M60.7,57.1c-2,0-3.6,1.6-3.6,3.6c0,2,1.6,3.6,3.6,3.6c2,0,3.6-1.6,3.7-3.6C64.3,58.8,62.7,57.1,60.7,57.1z"/>
	<path class="st1" d="M21.2,24.9c2,0,3.6-1.6,3.6-3.6c0-2-1.6-3.6-3.6-3.6c-2,0-3.6,1.6-3.6,3.6C17.6,23.3,19.2,24.9,21.2,24.9z"/>
	<path class="st1" d="M21.2,57.2c-1.9,0-3.5,1.6-3.5,3.4c0,2,1.5,3.6,3.4,3.6c2,0,3.6-1.5,3.6-3.5C24.8,58.8,23.1,57.1,21.2,57.2z"
		/>
	<path class="st1" d="M60.6,24.8c1.9,0,3.5-1.6,3.5-3.6c0-2-1.5-3.5-3.5-3.5c-2,0-3.5,1.5-3.5,3.5C57.2,23.2,58.7,24.8,60.6,24.8z"
		/>
</g>
</svg>
