<svg id="Warstwa_1" xmlns="http://www.w3.org/2000/svg" width="82" height="82" viewBox="0 0 82 82"><style>.st0{fill-rule:evenodd;clip-rule:evenodd;fill:#F0583E;} .st1{fill:#FFFFFF;}</style><path class="st0" d="M41 1C18.9 1 1 18.9 1 41s17.9 40 40 40 40-17.9 40-40S63.1 1 41 1z"/><path class="st1" d="M60.8 56.3c.7 0 .8-.2 1-.8.8-3.4.1-6.3-2.3-8.8-1.6-1.7-3.3-3.3-5-5l-.8-.8c.3-.2.6-.4.8-.6 1.7-1.7 3.4-3.3 5.1-5.1 2.5-2.6 3.1-5.6 2.2-9.1-.1-.5-.3-.7-.8-.6-2.8.1-4.7-1.8-4.6-4.6 0-.6-.2-.8-.7-.9-3.4-.9-6.5-.2-9 2.3-1.7 1.7-3.4 3.4-5.1 5-.2.2-.4.4-.7.6-.4-.4-.8-.7-1.1-1.1-1.5-1.5-3-3.1-4.6-4.6-2.5-2.4-5.5-3.1-8.8-2.3-.5.1-.8.3-.8 1 .1 2.5-2 4.7-4.5 4.6-.7 0-.9.2-1 .7-.8 3.4-.1 6.3 2.3 8.8 1.5 1.6 3.1 3.1 4.7 4.7.3.3.6.7 1 1.1-.3.3-.5.6-.8.8l-4.8 4.8c-1.1 1.1-1.9 2.3-2.3 3.8-.6 2-.6 4.1.2 6.1 3.4-.4 5.6 2.1 5.2 5.2 3.1 1.4 7.1.6 9.7-1.9l5.2-5.2c.2-.2.4-.4.7-.6.3.3.5.5.8.7 1.7 1.7 3.3 3.4 5 5 2.5 2.4 5.5 3.1 8.8 2.2.5-.1.7-.3.7-.9-.5-2.3 1.8-4.6 4.3-4.5zM49.2 25.5c1.9-1.7 4.8-1.4 6.7.3 1.8 1.8 2.3 4.7.7 6.6-1.7 2.1-3.7 3.9-5.5 5.7-2.5-2.5-4.9-4.9-7.2-7.3 1.8-1.7 3.4-3.6 5.3-5.3zm-23.4 7.7c-2.8-3-1.4-7.8 2.6-8.8 1.5-.4 3.1-.2 4.3.9 1.9 1.7 3.6 3.7 5.4 5.5L30.9 38c-.1-.1-.3-.2-.4-.3-1.7-1.4-3.3-2.9-4.7-4.5zm11.9 18.4L33.3 56c-2.1 2.1-5.3 2.1-7.4.1-2.1-2-2-5.3.1-7.4l4.7-4.7.1-.1c2.4 2.4 4.9 4.8 7.3 7.2-.1.2-.3.4-.4.5zm3.1-3.5c-2.3-2.3-4.7-4.7-7-7.1l7.2-7.2c2.4 2.3 4.8 4.7 7.1 7-2.4 2.5-4.9 4.9-7.3 7.3zm8.8 8.7c-2.1-1.7-4-3.7-5.9-5.5L51 44c1.8 1.7 3.8 3.4 5.4 5.3 1.7 1.9 1.4 4.9-.3 6.7-1.6 1.8-4.6 2.3-6.5.8z"/><path class="st1" d="M60.7 57.1c-2 0-3.6 1.6-3.6 3.6s1.6 3.6 3.6 3.6 3.6-1.6 3.7-3.6c-.1-1.9-1.7-3.6-3.7-3.6zM21.2 24.9c2 0 3.6-1.6 3.6-3.6s-1.6-3.6-3.6-3.6-3.6 1.6-3.6 3.6 1.6 3.6 3.6 3.6zM21.2 57.2c-1.9 0-3.5 1.6-3.5 3.4 0 2 1.5 3.6 3.4 3.6 2 0 3.6-1.5 3.6-3.5.1-1.9-1.6-3.6-3.5-3.5zM60.6 24.8c1.9 0 3.5-1.6 3.5-3.6s-1.5-3.5-3.5-3.5-3.5 1.5-3.5 3.5c.1 2 1.6 3.6 3.5 3.6z"/></svg>