<svg id="Warstwa_1" xmlns="http://www.w3.org/2000/svg" width="82" height="82" viewBox="0 0 82 82"><style>.st0{fill:#F0583E;}</style><path class="st0" d="M75.6 21.4C72 15.1 67.2 10.1 61 6.5 54.9 2.8 48.3 1 41 1c-7.3 0-13.9 1.8-20.1 5.5-6.1 3.7-11 8.6-14.6 14.9C2.8 27.7 1 34.6 1 42c0 8.9 2.5 17 7.6 24.1 5.1 7.1 11.7 12.1 19.7 14.8.9.2 1.6.1 2.1-.4.5-.4.7-1 .7-1.6V76v-4.8l-1.2.2c-.8.1-1.7.2-2.9.2s-2.4-.1-3.6-.4c-1.3-.2-2.4-.8-3.5-1.6s-1.8-1.9-2.3-3.3l-.6-1.1c-.3-.8-.9-1.7-1.6-2.7-.7-1-1.5-1.7-2.3-2l-.4-.3c-.2-.2-.5-.4-.7-.6-.2-.2-.4-.5-.5-.7-.1-.2 0-.5.3-.6.3-.2.8-.2 1.5-.2l1 .2c.7.1 1.6.6 2.6 1.3 1 .7 1.9 1.6 2.5 2.8.8 1.5 1.8 2.6 2.9 3.3 1.1.8 2.3 1.1 3.4 1.1s2.1-.1 3-.3c.8-.2 1.6-.4 2.3-.8.3-2.4 1.2-4.2 2.6-5.5-2-.2-3.8-.5-5.3-1-1.6-.4-3.2-1.1-4.9-2.1-1.7-1-3.1-2.2-4.2-3.6s-2-3.3-2.7-5.6c-.7-2.3-1.1-5-1.1-8 0-4.3 1.4-8 4.1-11-1.2-3.3-1.1-6.9.5-10.9 1-.3 2.5-.1 4.5.7 2 .8 3.4 1.5 4.3 2.1.9.6 1.7 1.1 2.2 1.4 3.2-.9 6.6-1.4 10-1.4 3.4 0 6.8.5 10 1.4l2-1.3c1.4-.9 2.9-1.6 4.8-2.3 1.8-.7 3.2-.9 4.2-.6 1.6 4 1.7 7.7.4 10.9 2.7 3 4.1 6.7 4.1 11 0 3-.4 5.7-1.1 8-.7 2.3-1.6 4.2-2.8 5.6-1.1 1.4-2.5 2.6-4.2 3.6-1.7 1-3.3 1.7-4.9 2.1-1.6.4-3.4.7-5.3 1 1.8 1.6 2.7 4.1 2.7 7.6v11.3c0 .6.2 1.2.7 1.6.4.4 1.1.6 2.1.4 8.1-2.7 14.6-7.7 19.7-14.8C78.5 59 81 50.9 81 42c0-7.4-1.8-14.3-5.4-20.6zm0 0"/></svg>