<?xml version="1.0" encoding="utf-8"?>
<!-- Generator: Adobe Illustrator 19.2.1, SVG Export Plug-In . SVG Version: 6.00 Build 0)  -->
<svg version="1.1" id="Warstwa_1" xmlns="http://www.w3.org/2000/svg" xmlns:xlink="http://www.w3.org/1999/xlink" x="0px" y="0px"
	 width="82px" height="82px" viewBox="0 0 82 82" style="enable-background:new 0 0 82 82;" xml:space="preserve">
<style type="text/css">
	.st0{fill:#F0583E;}
</style>
<g>
	<path class="st0" d="M75.6,21.4c-3.6-6.3-8.4-11.3-14.6-14.9C54.9,2.8,48.3,1,41,1c-7.3,0-13.9,1.8-20.1,5.5
		c-6.1,3.7-11,8.6-14.6,14.9C2.8,27.7,1,34.6,1,42c0,8.9,2.5,17,7.6,24.1c5.1,7.1,11.7,12.1,19.7,14.8c0.9,0.2,1.6,0.1,2.1-0.4
		c0.5-0.4,0.7-1,0.7-1.6c0-0.1,0-1.1,0-2.9c0-1.8,0-3.4,0-4.8l-1.2,0.2c-0.8,0.1-1.7,0.2-2.9,0.2c-1.2,0-2.4-0.1-3.6-0.4
		c-1.3-0.2-2.4-0.8-3.5-1.6c-1.1-0.8-1.8-1.9-2.3-3.3L17,65.2c-0.3-0.8-0.9-1.7-1.6-2.7c-0.7-1-1.5-1.7-2.3-2l-0.4-0.3
		c-0.2-0.2-0.5-0.4-0.7-0.6c-0.2-0.2-0.4-0.5-0.5-0.7c-0.1-0.2,0-0.5,0.3-0.6c0.3-0.2,0.8-0.2,1.5-0.2l1,0.2
		c0.7,0.1,1.6,0.6,2.6,1.3c1,0.7,1.9,1.6,2.5,2.8c0.8,1.5,1.8,2.6,2.9,3.3c1.1,0.8,2.3,1.1,3.4,1.1c1.1,0,2.1-0.1,3-0.3
		c0.8-0.2,1.6-0.4,2.3-0.8c0.3-2.4,1.2-4.2,2.6-5.5c-2-0.2-3.8-0.5-5.3-1c-1.6-0.4-3.2-1.1-4.9-2.1c-1.7-1-3.1-2.2-4.2-3.6
		c-1.1-1.4-2-3.3-2.7-5.6c-0.7-2.3-1.1-5-1.1-8c0-4.3,1.4-8,4.1-11C18.3,25.6,18.4,22,20,18c1-0.3,2.5-0.1,4.5,0.7
		c2,0.8,3.4,1.5,4.3,2.1c0.9,0.6,1.7,1.1,2.2,1.4c3.2-0.9,6.6-1.4,10-1.4c3.4,0,6.8,0.5,10,1.4l2-1.3c1.4-0.9,2.9-1.6,4.8-2.3
		c1.8-0.7,3.2-0.9,4.2-0.6c1.6,4,1.7,7.7,0.4,10.9c2.7,3,4.1,6.7,4.1,11c0,3-0.4,5.7-1.1,8c-0.7,2.3-1.6,4.2-2.8,5.6
		c-1.1,1.4-2.5,2.6-4.2,3.6c-1.7,1-3.3,1.7-4.9,2.1c-1.6,0.4-3.4,0.7-5.3,1c1.8,1.6,2.7,4.1,2.7,7.6v11.3c0,0.6,0.2,1.2,0.7,1.6
		c0.4,0.4,1.1,0.6,2.1,0.4c8.1-2.7,14.6-7.7,19.7-14.8C78.5,59,81,50.9,81,42C81,34.6,79.2,27.7,75.6,21.4L75.6,21.4z M75.6,21.4"/>
</g>
</svg>
