<?xml version="1.0" encoding="utf-8"?>
<!-- Generator: Adobe Illustrator 19.2.1, SVG Export Plug-In . SVG Version: 6.00 Build 0)  -->
<svg version="1.1" id="Warstwa_1" xmlns="http://www.w3.org/2000/svg" xmlns:xlink="http://www.w3.org/1999/xlink" x="0px" y="0px"
	 width="82px" height="82px" viewBox="0 0 82 82" style="enable-background:new 0 0 82 82;" xml:space="preserve">
<style type="text/css">
	.st0{fill-rule:evenodd;clip-rule:evenodd;fill:#F0583E;}
</style>
<g>
	<path class="st0" d="M60.3,29.2C60.2,29,60.1,29,60,29c-0.1,0.1-0.2,0-0.4,0H21.9c-0.2,0-0.4,0-0.6,0.1c-0.1,0.2-0.2,0.3-0.2,0.5
		c0,2.4,1.3,4.5,3.8,6.1c0.9,0.6,2.2,1.5,4,2.7c2.8,1.8,4.8,3.2,6.2,4.2l0.2,0.1c0.3,0.2,0.5,0.4,0.7,0.5c0.7,0.5,1.1,0.8,1.2,0.8
		c0.4,0.2,0.7,0.4,1.2,0.7c0.6,0.3,1,0.5,1.3,0.6c0.6,0.1,1,0.2,1.2,0.2c0.2,0,0.6-0.1,1.2-0.2c0.3-0.2,0.7-0.4,1.3-0.6
		c0.5-0.4,0.9-0.6,1.2-0.7c0.2-0.2,0.6-0.4,1.2-0.8c0.2-0.2,0.4-0.3,0.7-0.5l0.2-0.1c1.4-1,3.4-2.3,6.2-4.2c1.9-1.2,3.2-2.1,4-2.7
		c0.9-0.6,1.5-1.4,2.4-2.5c0.8-1.1,0.9-2,0.9-2.9v-0.5v-0.2l0.1-0.3C60.1,29.3,60.3,29.2,60.3,29.2z"/>
	<path class="st0" d="M47.8,45.3c-0.2,0.2-0.6,0.4-1.1,0.7c-0.5,0.4-0.9,0.6-1.1,0.8c-0.8,0.4-1.5,0.8-2.2,1.1
		c-1.1,0.4-2,0.5-2.7,0.5c-0.7,0-1.6-0.2-2.7-0.5c-0.7-0.3-1.4-0.7-2.2-1.1c-0.2-0.2-0.5-0.4-1.1-0.8c-0.5-0.3-0.8-0.5-1.1-0.7
		c-3.3-2.3-7-4.8-11-7.3C22.1,37.5,21,37,21,36.5v16.6c0,0.2,0.1,0.4,0.2,0.5c0.2,0.2,0.5,0.3,0.7,0.3h37.8c0.2,0,0.2-0.2,0.4-0.3
		c0.1-0.2,0-0.4,0-0.5V36.5c0,0.5-0.9,1-1.5,1.4C54.4,40.6,51,43,47.8,45.3z"/>
	<path class="st0" d="M41,1C18.9,1,1,18.9,1,41c0,22.1,17.9,40,40,40c22.1,0,40-17.9,40-40C81,18.9,63.1,1,41,1z M64,53.2
		c-1,1-0.6,2-1.3,2.6c-0.8,0.7-1.9,1.2-3.1,1.2H21.9c-1.2,0-2.6-0.6-3.3-1.2c-0.8-0.7-1.5-1.7-1.5-2.6V29.6c1-1,0.8-1.3,1.5-2
		c0.9-0.7,2.3-0.6,3.3-0.6h37.8c1.1,0,2.2,0,3.1,0.6c0.8,0.7,1.3,1.1,1.3,2V53.2z"/>
</g>
</svg>
