<svg id="Warstwa_1" xmlns="http://www.w3.org/2000/svg" width="82" height="82" viewBox="0 0 82 82"><style>.st0{fill-rule:evenodd;clip-rule:evenodd;fill:#F0583E;} .st1{fill:#FFFFFF;}</style><path class="st0" d="M41 1C18.9 1 1 18.9 1 41s17.9 40 40 40 40-17.9 40-40S63.1 1 41 1z"/><path class="st1" d="M39.6 65.5c-5.8 4.4-14 2-16.4-4.5-.4-1-.5-2-.7-3-.1-.2-.3-.5-.5-.6-7.8-1.7-10.3-11.2-4.8-16.7.1-.1.1-.2.2-.3-.9-1.6-1.4-3.3-1.3-5.2.1-4.1 3.1-7.7 7.1-8.5.5-.1.8-.3 1-.8 3.3-7.4 12.1-10.4 19.2-6.4.5.3 1 .3 1.6.2 7.1-2.1 14.3 2.6 15.3 9.9.1.7.1 1.4.1 2 0 .3.2.6.4.7 4.8 1.8 5.7 7.9 2.2 11.2-.1.1-.1.2 0 .1.5 1.6 1.1 3.1 1.4 4.7 1.1 5.8-3.2 12-9.1 13-.7.1-1.5.2-2.2.2-.5 0-.7.2-.8.6-1.2 3.4-4.2 5.4-7.7 5.3-1.8 0-3.5-.7-5-1.9zM50.9 55c.9-.1 1.5-.2 2.2-.3.9-.2 1.3-.8 1.3-1.6 0-.9-.4-1.4-1.3-1.7-.8-.2-1.5-.3-2.3-.4-1.4-.3-1.9-1-1.7-2.5.3-2.1 1.2-4.1 2-6 .9-2.2 1.9-4.4 2.7-6.7.6-1.8.4-3.5-1.2-4.7-1.6-1.2-3.4-1.2-5.1-.4-1.3.6-1.4.3-2.2-.4-1.7-1.6-3.4-1.7-5.1-.1-2.3 2.1-2.2 1.4-4.1.6-.9-.4-1.7-.8-2.6-.9-2.5-.2-4.6 1.3-5.6 4.1-1.6 4.7-3.1 9.5-4.6 14.3-.7 2.3.5 4.5 2.8 5.2 2.6.8 4.4.1 5.3-2.4l3.6-9c.5-1.3 1-2.6 1.6-3.9.3-.7 1-1.1 1.6-.9.7.2 1.1.8 1 1.6-.1.5-.2 1.1-.4 1.6-1 2.5-2 5.1-3 7.6-.7 1.9.5 3.2 2.5 2.9 1.3-.2 1.9-1.1 2.4-2.2 1.9-3.7 3.8-7.4 5.7-11.2.2-.4.4-.9.8-1.1.4-.2.9-.3 1.3-.1.2.1.4.8.3 1.1-.1.6-.4 1.2-.7 1.8-1.3 2.7-2.6 5.4-3.8 8.1-1.2 2.8.4 6.1 3.3 7.1 1 .2 2.3.3 3.3.5zM59.4 66.3c0 1.6-1.2 2.9-2.8 2.9-1.5 0-2.8-1.3-2.8-2.8 0-1.6 1.3-2.9 2.8-2.8 1.6-.1 2.8 1.1 2.8 2.7zM11.1 37c1.5 0 2.7 1.2 2.7 2.7 0 1.5-1.2 2.7-2.7 2.7-1.5 0-2.7-1.2-2.7-2.7 0-1.6 1.2-2.7 2.7-2.7zM47.5 14.2c0 1.5-1.1 2.7-2.6 2.7s-2.6-1.2-2.7-2.6c0-1.5 1.2-2.7 2.7-2.7 1.5 0 2.6 1.2 2.6 2.6zM65 30.9c-1.3 0-2.3-1-2.3-2.2 0-1.3 1-2.3 2.3-2.3 1.2 0 2.3 1.1 2.3 2.3-.1 1.2-1.1 2.2-2.3 2.2zM21.4 19.9c1.2 0 2 .8 2.1 2 0 1.1-.9 2.1-2 2.1s-2-.9-2-2c-.1-1.2.8-2.1 1.9-2.1zM37.7 70.4c0-1 .7-1.7 1.7-1.7.9 0 1.8.8 1.7 1.7 0 .9-.8 1.7-1.7 1.7-1 0-1.7-.7-1.7-1.7zM70.7 44.3c0 .9-.8 1.7-1.7 1.7-.9 0-1.7-.8-1.7-1.7 0-.9.7-1.7 1.7-1.7.9 0 1.7.8 1.7 1.7zM26 11.3c0-.8.5-1.4 1.3-1.4s1.5.5 1.5 1.4c0 .8-.6 1.5-1.4 1.4-.8 0-1.4-.6-1.4-1.4zM73.6 36c0 .7-.6 1.2-1.3 1.2-.7 0-1.2-.6-1.2-1.3 0-.7.6-1.2 1.2-1.2.8.1 1.3.6 1.3 1.3z"/><path class="st1" d="M18.2 60.5c0-.7.5-1.2 1.3-1.2.7 0 1.2.5 1.2 1.2s-.5 1.2-1.2 1.2c-.8 0-1.3-.5-1.3-1.2z"/></svg>