<?xml version="1.0" encoding="utf-8"?>
<!-- Generator: Adobe Illustrator 19.2.1, SVG Export Plug-In . SVG Version: 6.00 Build 0)  -->
<svg version="1.1" id="Warstwa_1" xmlns="http://www.w3.org/2000/svg" xmlns:xlink="http://www.w3.org/1999/xlink" x="0px" y="0px"
	 width="82px" height="82px" viewBox="0 0 82 82" style="enable-background:new 0 0 82 82;" xml:space="preserve">
<style type="text/css">
	.st0{fill-rule:evenodd;clip-rule:evenodd;fill:#F0583E;}
	.st1{fill:#FFFFFF;}
</style>
<g>
	<g>
		<path class="st0" d="M41,1C18.9,1,1,18.9,1,41c0,22.1,17.9,40,40,40c22.1,0,40-17.9,40-40C81,18.9,63.1,1,41,1z"/>
	</g>
	<g>
		<path class="st1" d="M39.6,65.5c-5.8,4.4-14,2-16.4-4.5c-0.4-1-0.5-2-0.7-3c-0.1-0.2-0.3-0.5-0.5-0.6c-7.8-1.7-10.3-11.2-4.8-16.7
			c0.1-0.1,0.1-0.2,0.2-0.3c-0.9-1.6-1.4-3.3-1.3-5.2c0.1-4.1,3.1-7.7,7.1-8.5c0.5-0.1,0.8-0.3,1-0.8c3.3-7.4,12.1-10.4,19.2-6.4
			c0.5,0.3,1,0.3,1.6,0.2c7.1-2.1,14.3,2.6,15.3,9.9c0.1,0.7,0.1,1.4,0.1,2c0,0.3,0.2,0.6,0.4,0.7c4.8,1.8,5.7,7.9,2.2,11.2
			c-0.1,0.1-0.1,0.2,0,0.1c0.5,1.6,1.1,3.1,1.4,4.7c1.1,5.8-3.2,12-9.1,13c-0.7,0.1-1.5,0.2-2.2,0.2c-0.5,0-0.7,0.2-0.8,0.6
			c-1.2,3.4-4.2,5.4-7.7,5.3C42.8,67.4,41.1,66.7,39.6,65.5z M50.9,55c0.9-0.1,1.5-0.2,2.2-0.3c0.9-0.2,1.3-0.8,1.3-1.6
			c0-0.9-0.4-1.4-1.3-1.7c-0.8-0.2-1.5-0.3-2.3-0.4c-1.4-0.3-1.9-1-1.7-2.5c0.3-2.1,1.2-4.1,2-6c0.9-2.2,1.9-4.4,2.7-6.7
			c0.6-1.8,0.4-3.5-1.2-4.7c-1.6-1.2-3.4-1.2-5.1-0.4c-1.3,0.6-1.4,0.3-2.2-0.4c-1.7-1.6-3.4-1.7-5.1-0.1c-2.3,2.1-2.2,1.4-4.1,0.6
			c-0.9-0.4-1.7-0.8-2.6-0.9c-2.5-0.2-4.6,1.3-5.6,4.1c-1.6,4.7-3.1,9.5-4.6,14.3c-0.7,2.3,0.5,4.5,2.8,5.2c2.6,0.8,4.4,0.1,5.3-2.4
			c1.2-3,2.4-6,3.6-9c0.5-1.3,1-2.6,1.6-3.9c0.3-0.7,1-1.1,1.6-0.9c0.7,0.2,1.1,0.8,1,1.6c-0.1,0.5-0.2,1.1-0.4,1.6
			c-1,2.5-2,5.1-3,7.6c-0.7,1.9,0.5,3.2,2.5,2.9c1.3-0.2,1.9-1.1,2.4-2.2c1.9-3.7,3.8-7.4,5.7-11.2c0.2-0.4,0.4-0.9,0.8-1.1
			c0.4-0.2,0.9-0.3,1.3-0.1c0.2,0.1,0.4,0.8,0.3,1.1c-0.1,0.6-0.4,1.2-0.7,1.8c-1.3,2.7-2.6,5.4-3.8,8.1c-1.2,2.8,0.4,6.1,3.3,7.1
			C48.6,54.7,49.9,54.8,50.9,55z"/>
		<path class="st1" d="M59.4,66.3c0,1.6-1.2,2.9-2.8,2.9c-1.5,0-2.8-1.3-2.8-2.8c0-1.6,1.3-2.9,2.8-2.8
			C58.2,63.5,59.4,64.7,59.4,66.3z"/>
		<path class="st1" d="M11.1,37c1.5,0,2.7,1.2,2.7,2.7c0,1.5-1.2,2.7-2.7,2.7c-1.5,0-2.7-1.2-2.7-2.7C8.4,38.1,9.6,37,11.1,37z"/>
		<path class="st1" d="M47.5,14.2c0,1.5-1.1,2.7-2.6,2.7c-1.5,0-2.6-1.2-2.7-2.6c0-1.5,1.2-2.7,2.7-2.7
			C46.4,11.6,47.5,12.8,47.5,14.2z"/>
		<path class="st1" d="M65,30.9c-1.3,0-2.3-1-2.3-2.2c0-1.3,1-2.3,2.3-2.3c1.2,0,2.3,1.1,2.3,2.3C67.2,29.9,66.2,30.9,65,30.9z"/>
		<path class="st1" d="M21.4,19.9c1.2,0,2,0.8,2.1,2c0,1.1-0.9,2.1-2,2.1c-1.1,0-2-0.9-2-2C19.4,20.8,20.3,19.9,21.4,19.9z"/>
		<path class="st1" d="M37.7,70.4c0-1,0.7-1.7,1.7-1.7c0.9,0,1.8,0.8,1.7,1.7c0,0.9-0.8,1.7-1.7,1.7C38.4,72.1,37.7,71.4,37.7,70.4z
			"/>
		<path class="st1" d="M70.7,44.3c0,0.9-0.8,1.7-1.7,1.7c-0.9,0-1.7-0.8-1.7-1.7c0-0.9,0.7-1.7,1.7-1.7
			C69.9,42.6,70.7,43.4,70.7,44.3z"/>
		<path class="st1" d="M26,11.3c0-0.8,0.5-1.4,1.3-1.4c0.8,0,1.5,0.5,1.5,1.4c0,0.8-0.6,1.5-1.4,1.4C26.6,12.7,26,12.1,26,11.3z"/>
		<path class="st1" d="M73.6,36c0,0.7-0.6,1.2-1.3,1.2c-0.7,0-1.2-0.6-1.2-1.3c0-0.7,0.6-1.2,1.2-1.2C73.1,34.8,73.6,35.3,73.6,36z"
			/>
		<path class="st1" d="M18.2,60.5c0-0.7,0.5-1.2,1.3-1.2c0.7,0,1.2,0.5,1.2,1.2c0,0.7-0.5,1.2-1.2,1.2
			C18.7,61.7,18.2,61.2,18.2,60.5z"/>
	</g>
</g>
</svg>
