<?xml version="1.0" encoding="utf-8"?>
<!-- Generator: Adobe Illustrator 19.2.1, SVG Export Plug-In . SVG Version: 6.00 Build 0)  -->
<svg version="1.1" id="Warstwa_1" xmlns="http://www.w3.org/2000/svg" xmlns:xlink="http://www.w3.org/1999/xlink" x="0px" y="0px"
	 width="300px" height="200px" viewBox="0 0 300 200" style="enable-background:new 0 0 300 200;" xml:space="preserve">
<style type="text/css">
	.st0{fill:#EDEDED;}
	.st1{fill:#E6E6E6;}
	.st2{fill:#534741;}
	.st3{fill:#3E3531;}
	.st4{fill:#F5F5F5;}
	.st5{fill:#A4B13A;}
	.st6{fill:#F0583E;}
	.st7{fill:#879039;}
	.st8{fill:#B82825;}
	.st9{fill:#D6D6D6;}
	.st10{fill:#CA3427;}
	.st11{fill:#E54325;}
</style>
<rect class="st0" width="300" height="200"/>
<path class="st1" d="M90.8,192.5c0,4.1,3.3,7.4,7.4,7.4h103.7c4.1,0,7.4-3.3,7.4-7.4l0,0c0-4.1-3.3-7.4-7.4-7.4H98.1
	C94.1,185.1,90.8,188.4,90.8,192.5L90.8,192.5z"/>
<g>
	<path class="st2" d="M104.8,188.2c-0.6,1.8,0.4,3.7,2.2,4.3c0.3,0.1,0.7,0.2,1,0.2c1.4,0,2.8-0.9,3.2-2.4l18-55.7h-7.2L104.8,188.2
		z"/>
	<path class="st2" d="M195.2,188.2l-17.3-53.6h-7.2l18,55.7c0.6,1.8,2.5,2.8,4.3,2.2C194.8,191.9,195.8,190,195.2,188.2z"/>
</g>
<polygon class="st3" points="122.1,134.6 116.3,152.4 123.5,152.4 129.2,134.6 "/>
<polygon class="st3" points="177.9,134.6 170.8,134.6 176.5,152.4 183.7,152.4 "/>
<rect x="65" y="20.3" class="st1" width="170" height="115.5"/>
<path class="st2" d="M237.4,142.6H62.6c-1.9,0-3.4-1.5-3.4-3.4c0-1.9,1.5-3.4,3.4-3.4h174.8c1.9,0,3.4,1.5,3.4,3.4
	C240.8,141.1,239.3,142.6,237.4,142.6L237.4,142.6z"/>
<g>
	<g>
		<g>
			<g>
				<g>
					<rect x="69.8" y="25.1" class="st4" width="160.3" height="105.9"/>
				</g>
			</g>
		</g>
	</g>
</g>
<g>
	<g>
		<path class="st5" d="M150,103.8c-14.5,0-26.2-11.7-26.2-26.2h-9.5c0,19.7,16,35.7,35.7,35.7c19.7,0,35.7-16,35.7-35.7h-9.5
			C176.2,92.1,164.5,103.8,150,103.8z"/>
	</g>
</g>
<g>
	<g>
		<path class="st6" d="M150,41.9c-2.1,0-4.2,0.2-6.2,0.5l1.7,9.4c1.5-0.3,3-0.4,4.6-0.4c8.1,0,15.3,3.6,20.1,9.4l7.3-6.1
			C170.8,46.8,161,41.9,150,41.9z"/>
	</g>
</g>
<g>
	<g>
		<path class="st7" d="M114.3,77.6h9.5c0-12.9,9.4-23.7,21.7-25.8l-1.7-9.4C127,45.4,114.3,60,114.3,77.6z"/>
	</g>
</g>
<g>
	<g>
		<path class="st8" d="M185.7,77.6c0-8.7-3.1-16.8-8.4-23l-7.3,6.1c3.8,4.6,6.1,10.4,6.1,16.8H185.7z"/>
	</g>
</g>
<g>
	<g>
		<rect x="77.2" y="32" class="st5" width="7.5" height="7.5"/>
	</g>
</g>
<g>
	<g>
		<rect x="77.2" y="39.6" class="st7" width="7.5" height="7.5"/>
	</g>
</g>
<g>
	<g>
		<rect x="77.2" y="47" class="st6" width="7.5" height="7.5"/>
	</g>
</g>
<g>
	<g>
		<rect x="77.2" y="54.6" class="st8" width="7.5" height="7.5"/>
	</g>
</g>
<g>
	<g>
		<rect x="87.6" y="33.6" class="st9" width="14" height="4.4"/>
	</g>
</g>
<g>
	<g>
		<rect x="79" y="95.6" class="st9" width="14" height="4.4"/>
	</g>
</g>
<g>
	<g>
		<rect x="188.3" y="116.5" class="st9" width="14" height="4.4"/>
	</g>
</g>
<g>
	<g>
		<rect x="206.4" y="65.3" class="st9" width="14" height="4.4"/>
	</g>
</g>
<g>
	<g>
		<rect x="189.5" y="33.6" class="st9" width="14" height="4.4"/>
	</g>
</g>
<g>
	<g>
		<rect x="87.6" y="41.1" class="st9" width="14" height="4.4"/>
	</g>
</g>
<g>
	<g>
		<rect x="87.6" y="48.6" class="st9" width="14" height="4.4"/>
	</g>
</g>
<g>
	<g>
		<rect x="87.6" y="56.2" class="st9" width="14" height="4.4"/>
	</g>
</g>
<g>
	<g>
		<path class="st2" d="M111.5,98.2H95.9c-0.2,0-0.3-0.2-0.3-0.3c0-0.2,0.2-0.3,0.3-0.3h15.4l7.8-23.4c0.1-0.2,0.3-0.3,0.4-0.2
			c0.2,0.1,0.3,0.3,0.2,0.4l-7.9,23.6C111.8,98.1,111.7,98.2,111.5,98.2L111.5,98.2z"/>
	</g>
</g>
<g>
	<g>
		<path class="st2" d="M160.3,49c0,0-0.1,0-0.1,0c-0.2-0.1-0.3-0.3-0.2-0.5l5.8-12.8c0.1-0.1,0.2-0.2,0.3-0.2h20.3
			c0.2,0,0.3,0.2,0.3,0.3c0,0.2-0.2,0.3-0.3,0.3h-20l-5.7,12.6C160.5,48.9,160.4,49,160.3,49L160.3,49z"/>
	</g>
</g>
<g>
	<g>
		<path class="st2" d="M203.3,67.8h-23.7c-0.2,0-0.3-0.2-0.3-0.3c0-0.2,0.2-0.3,0.3-0.3h23.7c0.2,0,0.3,0.2,0.3,0.3
			C203.7,67.7,203.5,67.8,203.3,67.8L203.3,67.8z"/>
	</g>
</g>
<g>
	<g>
		<path class="st2" d="M185.7,119h-23c-0.1,0-0.2,0-0.2-0.1l-10.1-9.9c-0.1-0.1-0.1-0.4,0-0.5c0.1-0.1,0.4-0.1,0.5,0l10,9.8h22.8
			c0.2,0,0.3,0.2,0.3,0.3C186.1,118.9,185.9,119,185.7,119L185.7,119z"/>
	</g>
</g>
<g>
	<g>
		<path class="st2" d="M119.5,76.1c-1,0-1.9-0.8-1.9-1.9c0-1,0.8-1.9,1.9-1.9c1,0,1.9,0.8,1.9,1.9C121.4,75.3,120.5,76.1,119.5,76.1
			L119.5,76.1z M119.5,73c-0.7,0-1.2,0.5-1.2,1.2c0,0.7,0.5,1.2,1.2,1.2c0.7,0,1.2-0.5,1.2-1.2C120.7,73.6,120.1,73,119.5,73
			L119.5,73z"/>
	</g>
</g>
<g>
	<g>
		<path class="st2" d="M160.3,50.5c-1,0-1.9-0.8-1.9-1.9c0-1,0.8-1.9,1.9-1.9c1,0,1.9,0.8,1.9,1.9C162.1,49.7,161.3,50.5,160.3,50.5
			L160.3,50.5z M160.3,47.4c-0.7,0-1.2,0.5-1.2,1.2c0,0.7,0.5,1.2,1.2,1.2c0.7,0,1.2-0.5,1.2-1.2C161.5,48,160.9,47.4,160.3,47.4
			L160.3,47.4z"/>
	</g>
</g>
<g>
	<g>
		<path class="st2" d="M179.6,69.4c-1,0-1.9-0.8-1.9-1.9c0-1,0.8-1.9,1.9-1.9c1,0,1.9,0.8,1.9,1.9C181.5,68.5,180.6,69.4,179.6,69.4
			L179.6,69.4z M179.6,66.3c-0.7,0-1.2,0.5-1.2,1.2c0,0.7,0.5,1.2,1.2,1.2c0.7,0,1.2-0.5,1.2-1.2C180.8,66.8,180.3,66.3,179.6,66.3
			L179.6,66.3z"/>
	</g>
</g>
<g>
	<g>
		<path class="st2" d="M152.7,110.7c-1,0-1.9-0.8-1.9-1.9c0-1,0.8-1.9,1.9-1.9c1,0,1.9,0.8,1.9,1.9
			C154.6,109.9,153.8,110.7,152.7,110.7L152.7,110.7z M152.7,107.6c-0.7,0-1.2,0.5-1.2,1.2c0,0.7,0.5,1.2,1.2,1.2
			c0.7,0,1.2-0.5,1.2-1.2C153.9,108.2,153.4,107.6,152.7,107.6L152.7,107.6z"/>
	</g>
</g>
<path class="st2" d="M237.4,20.3H62.6c-1.9,0-3.4-1.5-3.4-3.4c0-1.9,1.5-3.4,3.4-3.4h174.8c1.9,0,3.4,1.5,3.4,3.4
	C240.8,18.8,239.3,20.3,237.4,20.3L237.4,20.3z"/>
<g>
	<g>
		<g>
			<polygon class="st10" points="141.5,75 132.3,74.8 150.1,95.3 			"/>
			<polygon class="st10" points="159.3,75.4 150.1,95.3 168.3,75.5 168.3,75.5 168.3,75.5 			"/>
		</g>
		<polygon class="st11" points="162.4,66 138.5,65.5 132.3,74.8 141.5,75 159.3,75.4 168.3,75.5 		"/>
		<polygon class="st8" points="141.5,75 150.1,95.3 159.3,75.4 		"/>
		<polygon class="st6" points="150.6,65.7 138.5,65.5 141.5,75 150.6,65.7 159.3,75.4 162.4,66 		"/>
	</g>
</g>
</svg>
