<svg id="Warstwa_1" xmlns="http://www.w3.org/2000/svg" xmlns:xlink="http://www.w3.org/1999/xlink" width="300" height="200" viewBox="0 0 300 200"><style>.st0{fill:#EDEDED;} .st1{clip-path:url(#SVGID_2_);} .st2{fill:#FDB988;} .st3{fill:none;stroke:#EBEBEB;stroke-width:8;stroke-linecap:round;stroke-linejoin:round;stroke-miterlimit:10;} .st4{opacity:0.2;fill:none;stroke:#FDB988;stroke-width:10;stroke-linecap:round;stroke-linejoin:round;stroke-miterlimit:10;} .st5{fill:#FEF4EA;} .st6{fill:#EBEBEB;} .st7{fill:#FFBB02;} .st8{opacity:0.3;fill:#E99703;} .st9{opacity:0.2;fill:none;stroke:#FFFFFF;stroke-width:8;stroke-linecap:round;stroke-linejoin:round;stroke-miterlimit:10;} .st10{fill:none;stroke:#FFFFFF;stroke-width:8;stroke-linecap:round;stroke-linejoin:round;stroke-miterlimit:10;} .st11{fill:#FED5B8;} .st12{opacity:0.15;fill:none;stroke:#FFFFFF;stroke-width:10;stroke-linecap:round;stroke-linejoin:round;stroke-miterlimit:10;} .st13{opacity:0.15;} .st14{opacity:0.1;fill:none;stroke:#915F36;stroke-width:10;stroke-linecap:round;stroke-linejoin:round;stroke-miterlimit:10;} .st15{opacity:0.1;fill:#FDB988;} .st16{opacity:0.1;} .st17{opacity:0.3;fill:none;stroke:#FFFFFF;stroke-width:8;stroke-linecap:round;stroke-linejoin:round;stroke-miterlimit:10;} .st18{fill:#FFFFFF;} .st19{fill:#F0583E;}</style><path class="st0" d="M0 0h300v200H0z"/><defs><path id="SVGID_1_" d="M0-38.2h300v238H0z"/></defs><clipPath id="SVGID_2_"><use xlink:href="#SVGID_1_" overflow="visible"/></clipPath><g class="st1"><path class="st2" d="M-81.3 223.2l52.5 14.1 142.7-99.9c4.2-2.9 5.2-8.6 2.3-12.8l-14.9-25.9-33.1-8.9-8.5 31.6-141 101.8z"/><path class="st4" d="M69.5 145.5c6.5 2.6 13.3 4.9 20.1 6.8l-118.8 83.2"/><path class="st5" d="M144.2 53.1l-4-1.1c.9-3.2-1-6.5-4.3-7.4l-4-1.1c.4-1.6-.5-3.3-2.1-3.7l-16.6-4.4c-1.6-.4-3.3.5-3.7 2.1l-4-1.1c-3.2-.9-6.5 1-7.4 4.3l-4-1.1c-3.2-.9-6.5 1-7.4 4.2l-1.6 5.9 27.5 21.1 34.3-4.6 1.6-5.9c.8-3.1-1.1-6.4-4.3-7.2z"/><path class="st6" d="M85.1 49.7l-14.9 94.2c13.7 5.5 28 9.3 42.6 11.4l34.2-89c-21.5-1.9-42.5-7.5-61.9-16.6z"/><path class="st5" d="M86.5 66.4c16.2 6.9 33.3 11.5 50.8 13.6l5.4-14.2c-18.5-2-36.7-6.8-53.8-14.4l-2.4 15z"/><path class="st7" d="M86.5 66.4l-11.9 74.9c5.7 2.2 11.6 4.1 17.5 5.7 5.9 1.6 12 2.9 18 3.9l27.2-70.8c-17.5-2.1-34.6-6.7-50.8-13.7z"/><ellipse transform="rotate(-75 99.345 83.557)" class="st8" cx="99.3" cy="83.6" rx="2.4" ry="2.4"/><ellipse transform="rotate(-74.995 93.46 105.482)" class="st8" cx="93.5" cy="105.5" rx="2.4" ry="2.4"/><ellipse transform="rotate(-75 85.924 133.65)" class="st8" cx="85.9" cy="133.6" rx="2.4" ry="2.4"/><ellipse transform="rotate(-75.006 107.127 127.582)" class="st8" cx="107.1" cy="127.6" rx="2.4" ry="2.4"/><ellipse transform="rotate(-75 101.762 111.05)" class="st8" cx="101.8" cy="111" rx="3.2" ry="3.2"/><ellipse transform="rotate(-74.995 108.475 86.002)" class="st8" cx="108.5" cy="86" rx="1.2" ry="1.2"/><g><path class="st3" d="M86.1 51.7c9.3 4.2 19 7.7 28.8 10.3 9.8 2.6 20 4.5 30.1 5.5"/><path class="st9" d="M88.8 68.7l-1.3-.4-.1.5zM84.1 90.2l-8 50.3"/><g><path class="st10" d="M112.8 36.7l16.6 4.4m-24.3-3.4l4 1.1 1.3.3m-16.7 1.8l4 1.1 1.3.3"/></g></g><path class="st5" d="M123 69.1l-8.4-2.2-3.8 14c-.6 2.3.8 4.7 3.1 5.3l3 .8c.6.2 1 .8.8 1.5l-1.9 7.2c-.6 2.4.8 4.8 3.3 5.4 2.3.5 4.5-1 5.1-3.2l7.1-26.5-8.3-2.3z"/><g><path class="st2" d="M106.6 77.7c-.4-5.1-4.9-8.8-9.9-8.3l-23.4 2.1c-3.8.3-7.1 3-8.1 6.8l-11.6 43.3-142.3 99.6 23.2 6.2 132.4-92.7c1.8-1.2 3-3.1 3.6-5.1l10.8-40.4 17-1.5c5-.5 8.8-4.9 8.3-10z"/><path class="st11" d="M96.8 72.7l-2.7.2c-.9.1-1.6.9-1.5 1.8l.7 8.3c.1.9.9 1.6 1.8 1.5l2.8-.2c3.2-.3 5.5-3.1 5.3-6.2-.1-3.3-3.1-5.7-6.4-5.4z"/><path class="st12" d="M-84.8 220.5l139.4-97.6.5-.3.2-.6 11.6-43.3c.8-3 3.5-5.3 6.6-5.5L96.8 71c.9-.1 1.8 0 2.6.2"/></g><g><path class="st2" d="M140.5 99.5l-12.2-3.3c-4-1.1-6.4-5.2-5.3-9.2 1.1-4 5.2-6.4 9.2-5.3l12.2 3.3c4 1.1 6.4 5.2 5.3 9.2-1 4-5.2 6.3-9.2 5.3z"/><path class="st11" d="M134.8 85.1l-3-.8c-2.5-.7-5.2.7-6 3.2-.9 2.6.7 5.5 3.4 6.2l3.2.9c.6.2 1.3-.2 1.5-.9l1.9-7c0-.7-.4-1.4-1-1.6z"/><path class="st2" d="M128.9 143l-12.2-3.3c-4-1.1-6.4-5.2-5.3-9.2 1.1-4 5.2-6.4 9.2-5.3l12.2 3.3c4 1.1 6.4 5.2 5.3 9.2-1.1 4-5.2 6.4-9.2 5.3z"/><path class="st11" d="M123.1 128.7l-3-.8c-2.5-.7-5.2.7-6 3.2-.9 2.6.7 5.5 3.4 6.2l3.2.9c.6.2 1.3-.2 1.5-.9l1.9-7c0-.8-.4-1.5-1-1.6z"/><path class="st2" d="M139.3 114.7l-17.5-4.7c-4-1.1-6.4-5.2-5.3-9.2 1.1-4 5.2-6.4 9.2-5.3l17.5 4.7c4 1.1 6.4 5.2 5.3 9.2-1.1 4-5.2 6.4-9.2 5.3z"/><path class="st11" d="M128.2 98.9l-3-.8c-2.5-.7-5.2.7-6 3.2-.9 2.6.7 5.5 3.4 6.2l3.2.9c.6.2 1.3-.2 1.5-.9l1.9-7c0-.7-.3-1.4-1-1.6z"/><path class="st2" d="M135.4 129.2l-17.5-4.7c-4-1.1-6.4-5.2-5.3-9.2 1.1-4 5.2-6.4 9.2-5.3l17.5 4.7c4 1.1 6.4 5.2 5.3 9.2-1.1 4-5.2 6.4-9.2 5.3z"/><path class="st11" d="M124.3 113.4l-3-.8c-2.5-.7-5.2.7-6 3.2-.9 2.6.7 5.5 3.4 6.2l3.2.9c.6.2 1.3-.2 1.5-.9l1.9-7c.1-.7-.3-1.4-1-1.6z"/><g class="st13"><path class="st10" d="M124.4 87.4c.9-3.3 4.3-5.2 7.6-4.4l12.2 3.3"/></g><g class="st13"><path class="st10" d="M117.8 101.2c.9-3.3 4.3-5.2 7.6-4.4l17.5 4.7"/></g><g class="st13"><path class="st10" d="M113.9 115.7c.9-3.3 4.3-5.2 7.6-4.4L139 116"/></g><g class="st13"><path class="st10" d="M112.7 130.9c.9-3.3 4.3-5.2 7.6-4.4l12.2 3.3"/></g></g><g><path class="st2" d="M381.3 223.2l-52.5 14.1-142.7-99.9c-4.2-2.9-5.2-8.6-2.3-12.8l14.9-25.9 33.1-8.9 8.5 31.6 141 101.8z"/><path class="st14" d="M329.1 235.4l-118.8-83.2c6.8-1.9 13.6-4.1 20.1-6.8"/><path class="st5" d="M155.8 53.1l4-1.1c-.9-3.2 1-6.5 4.3-7.4l4-1.1c-.4-1.6.5-3.3 2.1-3.7l16.6-4.4c1.6-.4 3.3.5 3.7 2.1l4-1.1c3.2-.9 6.5 1 7.4 4.3l4-1.1c3.2-.9 6.5 1 7.4 4.2l1.6 5.9-27.5 21.1-34.3-4.6-1.6-5.9c-.8-3.1 1.1-6.4 4.3-7.2z"/><path class="st6" d="M214.9 49.7l14.9 94.2c-13.7 5.5-28 9.3-42.6 11.4l-34.2-89c21.5-1.9 42.5-7.5 61.9-16.6z"/><path class="st5" d="M213.5 66.4c-16.2 6.9-33.3 11.5-50.8 13.6l-5.4-14.2c18.6-2.1 36.8-6.9 53.9-14.4l2.3 15z"/><path class="st7" d="M213.5 66.4l11.9 74.9c-5.7 2.2-11.6 4.1-17.5 5.7-5.9 1.6-12 2.9-18 3.9l-27.2-70.8c17.5-2.1 34.6-6.7 50.8-13.7z"/><ellipse transform="rotate(-15 200.658 83.554)" class="st8" cx="200.7" cy="83.6" rx="2.4" ry="2.4"/><ellipse transform="rotate(-15 206.508 105.47)" class="st8" cx="206.5" cy="105.5" rx="2.4" ry="2.4"/><ellipse transform="rotate(-15.006 214.075 133.643)" class="st8" cx="214.1" cy="133.6" rx="2.4" ry="2.4"/><ellipse transform="rotate(-15.006 192.84 127.562)" class="st8" cx="192.9" cy="127.6" rx="2.4" ry="2.4"/><ellipse transform="rotate(-15 198.264 111.058)" class="st8" cx="198.2" cy="111" rx="3.2" ry="3.2"/><ellipse transform="rotate(-15.006 191.497 85.996)" class="st8" cx="191.5" cy="86" rx="1.2" ry="1.2"/><g><path class="st3" d="M155 67.5c10.1-1 20.3-2.8 30.1-5.5 9.8-2.6 19.5-6.1 28.8-10.3"/><path class="st9" d="M211.2 68.7l1.3-.4.1.5zM215.9 90.2l8 50.3"/><g><path class="st10" d="M170.6 41.1l16.6-4.4M164.5 45.9l4-1.1 1.3-.3m-13.6 9.9l4-1.1 1.3-.3"/></g></g><g><path class="st2" d="M193.4 77.7c.4-5.1 4.9-8.8 9.9-8.3l23.4 2.1c3.8.3 7.1 3 8.1 6.8l11.6 43.3 142.3 99.6-23.2 6.2-132.4-92.7c-1.8-1.2-3-3.1-3.6-5.1l-10.8-40.4-17-1.5c-5-.5-8.8-4.9-8.3-10z"/><path class="st11" d="M203.2 72.7l2.7.2c.9.1 1.6.9 1.5 1.8l-.7 8.3c-.1.9-.9 1.6-1.8 1.5l-2.8-.2c-3.2-.3-5.5-3.1-5.3-6.2.1-3.3 3.1-5.7 6.4-5.4z"/><path class="st15" d="M200.6 71.2c.8-.2 1.7-.3 2.6-.2l23.4 2.1c3.1.3 5.8 2.5 6.6 5.5l11.6 43.3.2.6.5.3 139.4 97.6"/></g><g><path class="st2" d="M159.5 99.5l12.2-3.3c4-1.1 6.4-5.2 5.3-9.2-1.1-4-5.2-6.4-9.2-5.3L155.6 85c-4 1.1-6.4 5.2-5.3 9.2 1 4 5.2 6.3 9.2 5.3z"/><path class="st11" d="M165.2 85.1l3-.8c2.5-.7 5.2.7 6 3.2.9 2.6-.7 5.5-3.4 6.2l-3.2.9c-.6.2-1.3-.2-1.5-.9l-1.9-7c0-.7.4-1.4 1-1.6z"/><path class="st2" d="M171.1 143l12.2-3.3c4-1.1 6.4-5.2 5.3-9.2-1.1-4-5.2-6.4-9.2-5.3l-12.2 3.3c-4 1.1-6.4 5.2-5.3 9.2 1.1 4 5.2 6.4 9.2 5.3z"/><path class="st11" d="M176.9 128.7l3-.8c2.5-.7 5.2.7 6 3.2.9 2.6-.7 5.5-3.4 6.2l-3.2.9c-.6.2-1.3-.2-1.5-.9l-1.9-7c0-.8.4-1.5 1-1.6z"/><path class="st2" d="M160.7 114.7l17.5-4.7c4-1.1 6.4-5.2 5.3-9.2-1.1-4-5.2-6.4-9.2-5.3l-17.5 4.7c-4 1.1-6.4 5.2-5.3 9.2 1.1 4 5.2 6.4 9.2 5.3z"/><path class="st11" d="M171.8 98.9l3-.8c2.5-.7 5.2.7 6 3.2.9 2.6-.7 5.5-3.4 6.2l-3.2.9c-.6.2-1.3-.2-1.5-.9l-1.9-7c0-.7.3-1.4 1-1.6z"/><path class="st2" d="M164.6 129.2l17.5-4.7c4-1.1 6.4-5.2 5.3-9.2-1.1-4-5.2-6.4-9.2-5.3l-17.5 4.7c-4 1.1-6.4 5.2-5.3 9.2 1.1 4 5.2 6.4 9.2 5.3z"/><path class="st11" d="M175.7 113.4l3-.8c2.5-.7 5.2.7 6 3.2.9 2.6-.7 5.5-3.4 6.2l-3.2.9c-.6.2-1.3-.2-1.5-.9l-1.9-7c-.1-.7.3-1.4 1-1.6z"/><g class="st16"><path class="st10" d="M155.9 86.2l12.2-3.3c3.3-.9 6.7 1.1 7.6 4.4"/></g><g class="st16"><path class="st10" d="M157.2 101.5l17.5-4.7c3.3-.9 6.7 1.1 7.6 4.4"/></g><g class="st16"><path class="st10" d="M161 116l17.5-4.7c3.3-.9 6.7 1.1 7.6 4.4"/></g><g class="st16"><path class="st10" d="M167.6 129.8l12.2-3.3c3.3-.9 6.7 1.1 7.6 4.4"/></g></g></g></g><path class="st17" d="M150 29.4v8M137 32.9l4 6.9M163 32.9l-4 6.9"/><path class="st18" d="M201.7 33.9c-.6-1.4-1.7-2.6-3.1-3.1-.2-.1-.2-.4 0-.4 1.4-.6 2.6-1.7 3.1-3.1.1-.2.4-.2.4 0 .6 1.4 1.7 2.6 3.1 3.1.2.1.2.4 0 .4-1.4.6-2.6 1.7-3.1 3.1 0 .2-.3.2-.4 0M76.9 53.1c-.6-1.4-1.7-2.6-3.1-3.1-.2-.1-.2-.4 0-.4 1.4-.6 2.6-1.7 3.1-3.1.1-.2.4-.2.4 0 .6 1.4 1.7 2.6 3.1 3.1.2.1.2.4 0 .4-1.4.6-2.6 1.7-3.1 3.1-.1.2-.3.2-.4 0M237.572 38.43l2.12-2.12 3.254 3.252-2.12 2.12zM224.388 55.922l2.12-2.122 3.254 3.252-2.12 2.122z"/><path class="st19" d="M220.382 22.527l2.12-2.12 3.254 3.252-2.122 2.12zM223.5 42.9h4.6v3h-4.6zM242.965 29.2l3.253-3.253 2.12 2.12-3.25 3.254z"/><path class="st18" d="M233.06 30.095l3.25-3.254 2.123 2.12-3.25 3.255zM56.99 39.602l3.252-3.253 2.12 2.12-3.252 3.253z"/><path class="st19" d="M74.257 23.763l3.253-3.253 2.122 2.12-3.253 3.254zM71.9 37h4.6v3h-4.6zM51.587 27.973l2.12-2.12 3.254 3.252-2.12 2.12z"/><path class="st18" d="M61.486 28.872l2.122-2.12 3.252 3.254-2.122 2.12z"/></svg>