<svg id="Warstwa_1" xmlns="http://www.w3.org/2000/svg" width="300" height="200" viewBox="0 0 300 200"><style>.st0{fill:#EDEDED;} .st1{fill:#E6E6E6;} .st2{fill:#534741;} .st3{fill:#3E3531;} .st4{fill:#F5F5F5;} .st5{fill:#A4B13A;} .st6{fill:#F0583E;} .st7{fill:#879039;} .st8{fill:#B82825;} .st9{fill:#D6D6D6;} .st10{fill:#CA3427;} .st11{fill:#E54325;}</style><path class="st0" d="M0 0h300v200H0z"/><path class="st1" d="M90.8 192.5c0 4.1 3.3 7.4 7.4 7.4h103.7c4.1 0 7.4-3.3 7.4-7.4 0-4.1-3.3-7.4-7.4-7.4H98.1c-4 0-7.3 3.3-7.3 7.4z"/><path class="st2" d="M104.8 188.2c-.6 1.8.4 3.7 2.2 4.3.3.1.7.2 1 .2 1.4 0 2.8-.9 3.2-2.4l18-55.7H122l-17.2 53.6zM195.2 188.2l-17.3-53.6h-7.2l18 55.7c.6 1.8 2.5 2.8 4.3 2.2 1.8-.6 2.8-2.5 2.2-4.3z"/><path class="st3" d="M122.1 134.6l-5.8 17.8h7.2l5.7-17.8zM177.9 134.6h-7.1l5.7 17.8h7.2z"/><path class="st1" d="M65 20.3h170v115.5H65z"/><path class="st2" d="M237.4 142.6H62.6c-1.9 0-3.4-1.5-3.4-3.4s1.5-3.4 3.4-3.4h174.8c1.9 0 3.4 1.5 3.4 3.4s-1.5 3.4-3.4 3.4z"/><path class="st4" d="M69.8 25.1h160.3V131H69.8z"/><path class="st5" d="M150 103.8c-14.5 0-26.2-11.7-26.2-26.2h-9.5c0 19.7 16 35.7 35.7 35.7 19.7 0 35.7-16 35.7-35.7h-9.5c0 14.5-11.7 26.2-26.2 26.2z"/><path class="st6" d="M150 41.9c-2.1 0-4.2.2-6.2.5l1.7 9.4c1.5-.3 3-.4 4.6-.4 8.1 0 15.3 3.6 20.1 9.4l7.3-6.1c-6.7-7.9-16.5-12.8-27.5-12.8z"/><path class="st7" d="M114.3 77.6h9.5c0-12.9 9.4-23.7 21.7-25.8l-1.7-9.4c-16.8 3-29.5 17.6-29.5 35.2z"/><path class="st8" d="M185.7 77.6c0-8.7-3.1-16.8-8.4-23l-7.3 6.1c3.8 4.6 6.1 10.4 6.1 16.8h9.6z"/><path class="st5" d="M77.2 32h7.5v7.5h-7.5z"/><path class="st7" d="M77.2 39.6h7.5v7.5h-7.5z"/><path class="st6" d="M77.2 47h7.5v7.5h-7.5z"/><path class="st8" d="M77.2 54.6h7.5v7.5h-7.5z"/><path class="st9" d="M87.6 33.6h14V38h-14zM79 95.6h14v4.4H79zM188.3 116.5h14v4.4h-14zM206.4 65.3h14v4.4h-14zM189.5 33.6h14V38h-14zM87.6 41.1h14v4.4h-14zM87.6 48.6h14V53h-14zM87.6 56.2h14v4.4h-14z"/><path class="st2" d="M111.5 98.2H95.9c-.2 0-.3-.2-.3-.3 0-.2.2-.3.3-.3h15.4l7.8-23.4c.1-.2.3-.3.4-.2.2.1.3.3.2.4L111.8 98c0 .1-.1.2-.3.2zM160.3 49h-.1c-.2-.1-.3-.3-.2-.5l5.8-12.8c.1-.1.2-.2.3-.2h20.3c.2 0 .3.2.3.3 0 .2-.2.3-.3.3h-20l-5.7 12.6c-.2.2-.3.3-.4.3zM203.3 67.8h-23.7c-.2 0-.3-.2-.3-.3 0-.2.2-.3.3-.3h23.7c.2 0 .3.2.3.3.1.2-.1.3-.3.3zM185.7 119h-23c-.1 0-.2 0-.2-.1l-10.1-9.9c-.1-.1-.1-.4 0-.5.1-.1.4-.1.5 0l10 9.8h22.8c.2 0 .3.2.3.3.1.3-.1.4-.3.4z"/><path class="st2" d="M119.5 76.1c-1 0-1.9-.8-1.9-1.9 0-1 .8-1.9 1.9-1.9 1 0 1.9.8 1.9 1.9 0 1.1-.9 1.9-1.9 1.9zm0-3.1c-.7 0-1.2.5-1.2 1.2s.5 1.2 1.2 1.2 1.2-.5 1.2-1.2c0-.6-.6-1.2-1.2-1.2zM160.3 50.5c-1 0-1.9-.8-1.9-1.9 0-1 .8-1.9 1.9-1.9 1 0 1.9.8 1.9 1.9-.1 1.1-.9 1.9-1.9 1.9zm0-3.1c-.7 0-1.2.5-1.2 1.2s.5 1.2 1.2 1.2 1.2-.5 1.2-1.2c0-.6-.6-1.2-1.2-1.2zM179.6 69.4c-1 0-1.9-.8-1.9-1.9 0-1 .8-1.9 1.9-1.9 1 0 1.9.8 1.9 1.9 0 1-.9 1.9-1.9 1.9zm0-3.1c-.7 0-1.2.5-1.2 1.2s.5 1.2 1.2 1.2 1.2-.5 1.2-1.2-.5-1.2-1.2-1.2zM152.7 110.7c-1 0-1.9-.8-1.9-1.9 0-1 .8-1.9 1.9-1.9 1 0 1.9.8 1.9 1.9 0 1.1-.8 1.9-1.9 1.9zm0-3.1c-.7 0-1.2.5-1.2 1.2s.5 1.2 1.2 1.2 1.2-.5 1.2-1.2c0-.6-.5-1.2-1.2-1.2zM237.4 20.3H62.6c-1.9 0-3.4-1.5-3.4-3.4s1.5-3.4 3.4-3.4h174.8c1.9 0 3.4 1.5 3.4 3.4s-1.5 3.4-3.4 3.4z"/><g><path class="st10" d="M141.5 75l-9.2-.2 17.8 20.5zM159.3 75.4l-9.2 19.9 18.2-19.8z"/><path class="st11" d="M162.4 66l-23.9-.5-6.2 9.3 9.2.2 17.8.4 9 .1z"/><path class="st8" d="M141.5 75l8.6 20.3 9.2-19.9z"/><path class="st6" d="M150.6 65.7l-12.1-.2 3 9.5 9.1-9.3 8.7 9.7 3.1-9.4z"/></g></svg>