<?xml version="1.0" encoding="utf-8"?>
<!-- Generator: Adobe Illustrator 19.2.1, SVG Export Plug-In . SVG Version: 6.00 Build 0)  -->
<svg version="1.1" id="Warstwa_1" xmlns="http://www.w3.org/2000/svg" xmlns:xlink="http://www.w3.org/1999/xlink" x="0px" y="0px"
	 width="300px" height="200px" viewBox="0 0 300 200" style="enable-background:new 0 0 300 200;" xml:space="preserve">
<style type="text/css">
	.st0{fill:#EDEDED;}
	.st1{clip-path:url(#SVGID_2_);}
	.st2{fill:#FDB988;}
	.st3{fill:none;stroke:#EBEBEB;stroke-width:8;stroke-linecap:round;stroke-linejoin:round;stroke-miterlimit:10;}
	.st4{opacity:0.2;fill:none;stroke:#FDB988;stroke-width:10;stroke-linecap:round;stroke-linejoin:round;stroke-miterlimit:10;}
	.st5{fill:#FEF4EA;}
	.st6{fill:#EBEBEB;}
	.st7{fill:#FFBB02;}
	.st8{opacity:0.3;fill:#E99703;}
	.st9{opacity:0.2;fill:none;stroke:#FFFFFF;stroke-width:8;stroke-linecap:round;stroke-linejoin:round;stroke-miterlimit:10;}
	.st10{fill:none;stroke:#FFFFFF;stroke-width:8;stroke-linecap:round;stroke-linejoin:round;stroke-miterlimit:10;}
	.st11{fill:#FED5B8;}
	.st12{opacity:0.15;fill:none;stroke:#FFFFFF;stroke-width:10;stroke-linecap:round;stroke-linejoin:round;stroke-miterlimit:10;}
	.st13{opacity:0.15;}
	.st14{opacity:0.1;fill:none;stroke:#915F36;stroke-width:10;stroke-linecap:round;stroke-linejoin:round;stroke-miterlimit:10;}
	.st15{opacity:0.1;fill:#FDB988;}
	.st16{opacity:0.1;}
	.st17{opacity:0.3;fill:none;stroke:#FFFFFF;stroke-width:8;stroke-linecap:round;stroke-linejoin:round;stroke-miterlimit:10;}
	.st18{fill:#FFFFFF;}
	.st19{fill:#F0583E;}
</style>
<rect class="st0" width="300" height="200"/>
<g>
	<g>
		<defs>
			<rect id="SVGID_1_" y="-38.2" width="300" height="238"/>
		</defs>
		<clipPath id="SVGID_2_">
			<use xlink:href="#SVGID_1_"  style="overflow:visible;"/>
		</clipPath>
		<g class="st1">
			<g>
				<path class="st2" d="M-81.3,223.2l52.5,14.1l142.7-99.9c4.2-2.9,5.2-8.6,2.3-12.8l-14.9-25.9l-33.1-8.9l-8.5,31.6L-81.3,223.2z"
					/>
				<path class="st3" d="M71.6,143.1"/>
				<path class="st4" d="M69.5,145.5c6.5,2.6,13.3,4.9,20.1,6.8l-118.8,83.2"/>
				<g>
					<g>
						<path class="st5" d="M144.2,53.1l-4-1.1c0.9-3.2-1-6.5-4.3-7.4l-4-1.1c0.4-1.6-0.5-3.3-2.1-3.7l-16.6-4.4
							c-1.6-0.4-3.3,0.5-3.7,2.1l-4-1.1c-3.2-0.9-6.5,1-7.4,4.3l-4-1.1c-3.2-0.9-6.5,1-7.4,4.2l-1.6,5.9l27.5,21.1l34.3-4.6l1.6-5.9
							C149.3,57.2,147.4,53.9,144.2,53.1z"/>
						<path class="st6" d="M85.1,49.7l-14.9,94.2c13.7,5.5,28,9.3,42.6,11.4l34.2-89C125.5,64.4,104.5,58.8,85.1,49.7z"/>
						<path class="st5" d="M86.5,66.4c16.2,6.9,33.3,11.5,50.8,13.6l5.4-14.2C124.2,63.8,106,59,88.9,51.4L86.5,66.4z"/>
						<path class="st7" d="M86.5,66.4L86.5,66.4l-11.9,74.9c5.7,2.2,11.6,4.1,17.5,5.7c5.9,1.6,12,2.9,18,3.9l27.2-70.8
							C119.8,78,102.7,73.4,86.5,66.4z"/>
						<g>
							
								<ellipse transform="matrix(0.2588 -0.9659 0.9659 0.2588 -7.0757 157.8871)" class="st8" cx="99.3" cy="83.6" rx="2.4" ry="2.4"/>
							
								<ellipse transform="matrix(0.2589 -0.9659 0.9659 0.2589 -32.6207 168.4471)" class="st8" cx="93.5" cy="105.5" rx="2.4" ry="2.4"/>
							
								<ellipse transform="matrix(0.2588 -0.9659 0.9659 0.2588 -65.4078 182.0515)" class="st8" cx="85.9" cy="133.6" rx="2.4" ry="2.4"/>
							
								<ellipse transform="matrix(0.2587 -0.9659 0.9659 0.2587 -43.8243 198.0435)" class="st8" cx="107.1" cy="127.6" rx="2.4" ry="2.4"/>
							
								<ellipse transform="matrix(0.2588 -0.9659 0.9659 0.2588 -31.8392 180.5983)" class="st8" cx="101.8" cy="111" rx="3.2" ry="3.2"/>
							
								<ellipse transform="matrix(0.2589 -0.9659 0.9659 0.2589 -2.6788 168.5124)" class="st8" cx="108.5" cy="86" rx="1.2" ry="1.2"/>
						</g>
					</g>
					<g>
						<path class="st3" d="M86.1,51.7 M86.1,51.7c9.3,4.2,19,7.7,28.8,10.3c9.8,2.6,20,4.5,30.1,5.5"/>
						<g>
							<polygon class="st9" points="88.8,68.7 87.5,68.3 87.4,68.8 							"/>
							<line class="st9" x1="84.1" y1="90.2" x2="76.1" y2="140.5"/>
						</g>
						<g>
							<path class="st10" d="M112.8,36.7l16.6,4.4 M105.1,37.7l4,1.1l1.3,0.3 M93.7,40.9l4,1.1l1.3,0.3"/>
						</g>
					</g>
					<path class="st5" d="M123,69.1l-8.4-2.2l-3.8,14c-0.6,2.3,0.8,4.7,3.1,5.3l3,0.8c0.6,0.2,1,0.8,0.8,1.5l-1.9,7.2
						c-0.6,2.4,0.8,4.8,3.3,5.4c2.3,0.5,4.5-1,5.1-3.2l7.1-26.5L123,69.1z"/>
				</g>
				<g>
					<path class="st2" d="M106.6,77.7c-0.4-5.1-4.9-8.8-9.9-8.3l-23.4,2.1c-3.8,0.3-7.1,3-8.1,6.8l-11.6,43.3l-142.3,99.6l23.2,6.2
						l132.4-92.7c1.8-1.2,3-3.1,3.6-5.1l10.8-40.4l17-1.5C103.3,87.2,107.1,82.8,106.6,77.7z"/>
					<g>
						<g>
							<path class="st11" d="M96.8,72.7l-2.7,0.2c-0.9,0.1-1.6,0.9-1.5,1.8l0.7,8.3c0.1,0.9,0.9,1.6,1.8,1.5l2.8-0.2
								c3.2-0.3,5.5-3.1,5.3-6.2C103.1,74.8,100.1,72.4,96.8,72.7z"/>
						</g>
					</g>
					<path class="st12" d="M-84.8,220.5l139.4-97.6l0.5-0.3l0.2-0.6l11.6-43.3c0.8-3,3.5-5.3,6.6-5.5L96.8,71c0.9-0.1,1.8,0,2.6,0.2
						"/>
				</g>
				<g>
					<g>
						<g>
							<path class="st2" d="M140.5,99.5l-12.2-3.3c-4-1.1-6.4-5.2-5.3-9.2c1.1-4,5.2-6.4,9.2-5.3l12.2,3.3c4,1.1,6.4,5.2,5.3,9.2
								C148.7,98.2,144.5,100.5,140.5,99.5z"/>
						</g>
						<path class="st11" d="M134.8,85.1l-3-0.8c-2.5-0.7-5.2,0.7-6,3.2c-0.9,2.6,0.7,5.5,3.4,6.2l3.2,0.9c0.6,0.2,1.3-0.2,1.5-0.9
							l1.9-7C135.8,86,135.4,85.3,134.8,85.1z"/>
					</g>
					<g>
						<g>
							<g>
								<path class="st2" d="M128.9,143l-12.2-3.3c-4-1.1-6.4-5.2-5.3-9.2c1.1-4,5.2-6.4,9.2-5.3l12.2,3.3c4,1.1,6.4,5.2,5.3,9.2
									C137,141.7,132.9,144.1,128.9,143z"/>
							</g>
						</g>
						<path class="st11" d="M123.1,128.7l-3-0.8c-2.5-0.7-5.2,0.7-6,3.2c-0.9,2.6,0.7,5.5,3.4,6.2l3.2,0.9c0.6,0.2,1.3-0.2,1.5-0.9
							l1.9-7C124.1,129.5,123.7,128.8,123.1,128.7z"/>
					</g>
					<g>
						<g>
							<path class="st2" d="M139.3,114.7l-17.5-4.7c-4-1.1-6.4-5.2-5.3-9.2c1.1-4,5.2-6.4,9.2-5.3l17.5,4.7c4,1.1,6.4,5.2,5.3,9.2
								C147.4,113.4,143.3,115.8,139.3,114.7z"/>
						</g>
						<path class="st11" d="M128.2,98.9l-3-0.8c-2.5-0.7-5.2,0.7-6,3.2c-0.9,2.6,0.7,5.5,3.4,6.2l3.2,0.9c0.6,0.2,1.3-0.2,1.5-0.9
							l1.9-7C129.2,99.8,128.9,99.1,128.2,98.9z"/>
					</g>
					<g>
						<g>
							<g>
								<path class="st2" d="M135.4,129.2l-17.5-4.7c-4-1.1-6.4-5.2-5.3-9.2c1.1-4,5.2-6.4,9.2-5.3l17.5,4.7c4,1.1,6.4,5.2,5.3,9.2
									C143.5,127.9,139.4,130.3,135.4,129.2z"/>
							</g>
						</g>
						<path class="st11" d="M124.3,113.4l-3-0.8c-2.5-0.7-5.2,0.7-6,3.2c-0.9,2.6,0.7,5.5,3.4,6.2l3.2,0.9c0.6,0.2,1.3-0.2,1.5-0.9
							l1.9-7C125.4,114.3,125,113.6,124.3,113.4z"/>
					</g>
					<g class="st13">
						<path class="st10" d="M124.4,87.4c0.9-3.3,4.3-5.2,7.6-4.4l12.2,3.3"/>
					</g>
					<g class="st13">
						<path class="st10" d="M117.8,101.2c0.9-3.3,4.3-5.2,7.6-4.4l17.5,4.7"/>
					</g>
					<g class="st13">
						<path class="st10" d="M113.9,115.7c0.9-3.3,4.3-5.2,7.6-4.4L139,116"/>
					</g>
					<g class="st13">
						<path class="st10" d="M112.7,130.9c0.9-3.3,4.3-5.2,7.6-4.4l12.2,3.3"/>
					</g>
				</g>
			</g>
			<g>
				<path class="st2" d="M381.3,223.2l-52.5,14.1l-142.7-99.9c-4.2-2.9-5.2-8.6-2.3-12.8l14.9-25.9l33.1-8.9l8.5,31.6L381.3,223.2z"
					/>
				<path class="st3" d="M228.4,143.1"/>
				<path class="st14" d="M329.1,235.4l-118.8-83.2c6.8-1.9,13.6-4.1,20.1-6.8"/>
				<g>
					<g>
						<path class="st5" d="M155.8,53.1l4-1.1c-0.9-3.2,1-6.5,4.3-7.4l4-1.1c-0.4-1.6,0.5-3.3,2.1-3.7l16.6-4.4
							c1.6-0.4,3.3,0.5,3.7,2.1l4-1.1c3.2-0.9,6.5,1,7.4,4.3l4-1.1c3.2-0.9,6.5,1,7.4,4.2l1.6,5.9l-27.5,21.1l-34.3-4.6l-1.6-5.9
							C150.7,57.2,152.6,53.9,155.8,53.1z"/>
						<path class="st6" d="M214.9,49.7l14.9,94.2c-13.7,5.5-28,9.3-42.6,11.4l-34.2-89C174.5,64.4,195.5,58.8,214.9,49.7z"/>
						<path class="st5" d="M213.5,66.4c-16.2,6.9-33.3,11.5-50.8,13.6l-5.4-14.2c18.6-2.1,36.8-6.9,53.9-14.4L213.5,66.4z"/>
						<path class="st7" d="M213.5,66.4L213.5,66.4l11.9,74.9c-5.7,2.2-11.6,4.1-17.5,5.7c-5.9,1.6-12,2.9-18,3.9l-27.2-70.8
							C180.2,78,197.3,73.4,213.5,66.4z"/>
						<g>
							
								<ellipse transform="matrix(0.9659 -0.2588 0.2588 0.9659 -14.7872 54.777)" class="st8" cx="200.7" cy="83.6" rx="2.4" ry="2.4"/>
							
								<ellipse transform="matrix(0.9659 -0.2588 0.2588 0.9659 -20.2602 57.0377)" class="st8" cx="206.5" cy="105.5" rx="2.4" ry="2.4"/>
							
								<ellipse transform="matrix(0.9659 -0.2589 0.2589 0.9659 -27.3002 59.9813)" class="st8" cx="214.1" cy="133.6" rx="2.4" ry="2.4"/>
							
								<ellipse transform="matrix(0.9659 -0.2589 0.2589 0.9659 -26.4501 54.2758)" class="st8" cx="192.9" cy="127.6" rx="2.4" ry="2.4"/>
							
								<ellipse transform="matrix(0.9659 -0.2588 0.2588 0.9659 -21.9869 55.0946)" class="st8" cx="198.2" cy="111" rx="3.2" ry="3.2"/>
							
								<ellipse transform="matrix(0.9659 -0.2589 0.2589 0.9659 -15.7344 52.511)" class="st8" cx="191.5" cy="86" rx="1.2" ry="1.2"/>
						</g>
					</g>
					<g>
						<path class="st3" d="M213.9,51.7 M155,67.5c10.1-1,20.3-2.8,30.1-5.5c9.8-2.6,19.5-6.1,28.8-10.3"/>
						<g>
							<polygon class="st9" points="211.2,68.7 212.5,68.3 212.6,68.8 							"/>
							<line class="st9" x1="215.9" y1="90.2" x2="223.9" y2="140.5"/>
						</g>
						<g>
							<path class="st10" d="M170.6,41.1l16.6-4.4"/>
							<path class="st10" d="M164.5,45.9l4-1.1l1.3-0.3 M156.2,54.4l4-1.1l1.3-0.3"/>
						</g>
					</g>
				</g>
				<g>
					<path class="st2" d="M193.4,77.7c0.4-5.1,4.9-8.8,9.9-8.3l23.4,2.1c3.8,0.3,7.1,3,8.1,6.8l11.6,43.3l142.3,99.6l-23.2,6.2
						l-132.4-92.7c-1.8-1.2-3-3.1-3.6-5.1l-10.8-40.4l-17-1.5C196.7,87.2,192.9,82.8,193.4,77.7z"/>
					<g>
						<g>
							<path class="st11" d="M203.2,72.7l2.7,0.2c0.9,0.1,1.6,0.9,1.5,1.8l-0.7,8.3c-0.1,0.9-0.9,1.6-1.8,1.5l-2.8-0.2
								c-3.2-0.3-5.5-3.1-5.3-6.2C196.9,74.8,199.9,72.4,203.2,72.7z"/>
						</g>
					</g>
					<path class="st15" d="M200.6,71.2c0.8-0.2,1.7-0.3,2.6-0.2l23.4,2.1c3.1,0.3,5.8,2.5,6.6,5.5l11.6,43.3l0.2,0.6l0.5,0.3
						l139.4,97.6"/>
				</g>
				<g>
					<g>
						<g>
							<path class="st2" d="M159.5,99.5l12.2-3.3c4-1.1,6.4-5.2,5.3-9.2c-1.1-4-5.2-6.4-9.2-5.3L155.6,85c-4,1.1-6.4,5.2-5.3,9.2
								C151.3,98.2,155.5,100.5,159.5,99.5z"/>
						</g>
						<path class="st11" d="M165.2,85.1l3-0.8c2.5-0.7,5.2,0.7,6,3.2c0.9,2.6-0.7,5.5-3.4,6.2l-3.2,0.9c-0.6,0.2-1.3-0.2-1.5-0.9
							l-1.9-7C164.2,86,164.6,85.3,165.2,85.1z"/>
					</g>
					<g>
						<g>
							<g>
								<path class="st2" d="M171.1,143l12.2-3.3c4-1.1,6.4-5.2,5.3-9.2c-1.1-4-5.2-6.4-9.2-5.3l-12.2,3.3c-4,1.1-6.4,5.2-5.3,9.2
									C163,141.7,167.1,144.1,171.1,143z"/>
							</g>
						</g>
						<path class="st11" d="M176.9,128.7l3-0.8c2.5-0.7,5.2,0.7,6,3.2c0.9,2.6-0.7,5.5-3.4,6.2l-3.2,0.9c-0.6,0.2-1.3-0.2-1.5-0.9
							l-1.9-7C175.9,129.5,176.3,128.8,176.9,128.7z"/>
					</g>
					<g>
						<g>
							<path class="st2" d="M160.7,114.7l17.5-4.7c4-1.1,6.4-5.2,5.3-9.2c-1.1-4-5.2-6.4-9.2-5.3l-17.5,4.7c-4,1.1-6.4,5.2-5.3,9.2
								C152.6,113.4,156.7,115.8,160.7,114.7z"/>
						</g>
						<path class="st11" d="M171.8,98.9l3-0.8c2.5-0.7,5.2,0.7,6,3.2c0.9,2.6-0.7,5.5-3.4,6.2l-3.2,0.9c-0.6,0.2-1.3-0.2-1.5-0.9
							l-1.9-7C170.8,99.8,171.1,99.1,171.8,98.9z"/>
					</g>
					<g>
						<g>
							<g>
								<path class="st2" d="M164.6,129.2l17.5-4.7c4-1.1,6.4-5.2,5.3-9.2c-1.1-4-5.2-6.4-9.2-5.3l-17.5,4.7c-4,1.1-6.4,5.2-5.3,9.2
									C156.5,127.9,160.6,130.3,164.6,129.2z"/>
							</g>
						</g>
						<path class="st11" d="M175.7,113.4l3-0.8c2.5-0.7,5.2,0.7,6,3.2c0.9,2.6-0.7,5.5-3.4,6.2l-3.2,0.9c-0.6,0.2-1.3-0.2-1.5-0.9
							l-1.9-7C174.6,114.3,175,113.6,175.7,113.4z"/>
					</g>
					<g class="st16">
						<path class="st10" d="M155.9,86.2l12.2-3.3c3.3-0.9,6.7,1.1,7.6,4.4"/>
					</g>
					<g class="st16">
						<path class="st10" d="M157.2,101.5l17.5-4.7c3.3-0.9,6.7,1.1,7.6,4.4"/>
					</g>
					<g class="st16">
						<path class="st10" d="M161,116l17.5-4.7c3.3-0.9,6.7,1.1,7.6,4.4"/>
					</g>
					<g class="st16">
						<path class="st10" d="M167.6,129.8l12.2-3.3c3.3-0.9,6.7,1.1,7.6,4.4"/>
					</g>
				</g>
			</g>
		</g>
	</g>
	<line class="st17" x1="150" y1="29.4" x2="150" y2="37.4"/>
	<line class="st17" x1="137" y1="32.9" x2="141" y2="39.8"/>
	<line class="st17" x1="163" y1="32.9" x2="159" y2="39.8"/>
	<path class="st18" d="M201.7,33.9c-0.6-1.4-1.7-2.6-3.1-3.1c-0.2-0.1-0.2-0.4,0-0.4c1.4-0.6,2.6-1.7,3.1-3.1c0.1-0.2,0.4-0.2,0.4,0
		c0.6,1.4,1.7,2.6,3.1,3.1c0.2,0.1,0.2,0.4,0,0.4c-1.4,0.6-2.6,1.7-3.1,3.1C202.1,34.1,201.8,34.1,201.7,33.9"/>
	<path class="st18" d="M76.9,53.1c-0.6-1.4-1.7-2.6-3.1-3.1c-0.2-0.1-0.2-0.4,0-0.4c1.4-0.6,2.6-1.7,3.1-3.1c0.1-0.2,0.4-0.2,0.4,0
		c0.6,1.4,1.7,2.6,3.1,3.1c0.2,0.1,0.2,0.4,0,0.4c-1.4,0.6-2.6,1.7-3.1,3.1C77.2,53.3,77,53.3,76.9,53.1"/>
	<rect x="238.8" y="36.7" transform="matrix(0.707 -0.7072 0.7072 0.707 42.7859 181.3634)" class="st18" width="3" height="4.6"/>
	<rect x="225.6" y="54.2" transform="matrix(0.707 -0.7072 0.7072 0.707 26.5584 177.1465)" class="st18" width="3" height="4.6"/>
	<rect x="221.6" y="20.8" transform="matrix(0.7072 -0.7071 0.7071 0.7072 48.9585 164.511)" class="st19" width="3" height="4.6"/>
	<rect x="223.5" y="42.9" class="st19" width="4.6" height="3"/>
	
		<rect x="243.3" y="27.1" transform="matrix(0.7071 -0.7071 0.7071 0.7071 51.7656 182.0743)" class="st19" width="4.6" height="3"/>
	<rect x="233.4" y="28" transform="matrix(0.7068 -0.7074 0.7074 0.7068 48.2857 175.4116)" class="st18" width="4.6" height="3"/>
	<rect x="57.4" y="37.5" transform="matrix(0.7072 -0.707 0.707 0.7072 -10.117 53.6634)" class="st18" width="4.6" height="3"/>
	<rect x="74.6" y="21.7" transform="matrix(0.7071 -0.7072 0.7072 0.7071 6.1614 61.1758)" class="st19" width="4.6" height="3"/>
	<rect x="71.9" y="37" class="st19" width="4.6" height="3"/>
	<rect x="52.8" y="26.2" transform="matrix(0.7071 -0.7071 0.7071 0.7071 -4.2742 46.7823)" class="st19" width="3" height="4.6"/>
	<rect x="62.7" y="27.1" transform="matrix(0.7074 -0.7068 0.7068 0.7074 -2.022 54.0177)" class="st18" width="3" height="4.6"/>
</g>
</svg>
