<?xml version="1.0" encoding="utf-8"?>
<!-- Generator: Adobe Illustrator 19.2.1, SVG Export Plug-In . SVG Version: 6.00 Build 0)  -->
<svg version="1.1" id="Warstwa_1" xmlns="http://www.w3.org/2000/svg" xmlns:xlink="http://www.w3.org/1999/xlink" x="0px" y="0px"
	 width="376.7px" height="202.6px" viewBox="0 0 376.7 202.6" style="enable-background:new 0 0 376.7 202.6;" xml:space="preserve"
	>
<style type="text/css">
	.st0{fill:#6E7433;}
	.st1{fill:#A4B13A;}
	.st2{fill:#CA3427;}
	.st3{fill:#B82825;}
	.st4{fill:#E54325;}
	.st5{fill:#F0583E;}
	.st6{fill:#879039;}
	.st7{fill:#ECEAE9;}
	.st8{fill:#FFFFFF;}
</style>
<g>
	<g>
		<path class="st0" d="M73.5,0c-0.8,18.7-13.6,35.4-32.6,40.5c-0.6,0.2-1.2,0.3-1.8,0.4c3,9.6,10,17,18.9,21.1
			c17.1-9.6,26.3-29.9,20.9-49.8C77.7,7.8,75.9,3.7,73.5,0z"/>
		<path class="st0" d="M84.9,61.8l4.9-12.2c0.2-0.5,0.7-0.9,1.3-1l19.9-3.5l-9.6,8.2c-0.2,0.2-0.1,0.6,0.1,0.6l9.5,2.6l-10.5,3
			c-0.2,0.1-0.2,0.4,0,0.5l6.3,2.3l-14.7,4.2L84.9,61.8z"/>
		<path class="st1" d="M86.9,61.8l11.6-6.2c0.5-0.3,1.2-0.3,1.7,0l17.5,10.1L105,65.9c-0.3,0-0.5,0.3-0.3,0.6l5.6,8.1l-10-4.4
			c-0.2-0.1-0.4,0.1-0.3,0.4l3.4,5.8l-13.9-6.2L86.9,61.8z"/>
		<g>
			<g>
				<g>
					<polygon class="st2" points="52.4,38 54.5,38.2 50.6,33.2 					"/>
					<polygon class="st2" points="48.2,37.8 50.6,33.2 46.1,37.6 46.1,37.6 46.1,37.7 					"/>
				</g>
				<polygon class="st3" points="52.4,38 50.6,33.2 48.2,37.8 				"/>
			</g>
		</g>
		<g>
			<g>
				<g>
					<polygon class="st2" points="60.6,39.7 62.6,40.2 59.7,34.6 					"/>
					<polygon class="st2" points="56.5,38.7 59.7,34.6 54.5,38.1 54.5,38.1 54.5,38.2 					"/>
				</g>
				<polygon class="st3" points="60.6,39.7 59.7,34.6 56.5,38.7 				"/>
			</g>
		</g>
		<g>
			<g>
				<g>
					<polygon class="st2" points="68.2,42.9 70.2,43.8 68.3,37.7 					"/>
					<polygon class="st2" points="64.5,41.1 68.3,37.7 62.6,40.2 62.6,40.2 62.6,40.2 					"/>
				</g>
				<polygon class="st3" points="68.2,42.9 68.3,37.7 64.5,41.1 				"/>
			</g>
		</g>
		<g>
			<g>
				<g>
					<polygon class="st2" points="75.2,47.5 76.9,48.7 76.3,42.4 					"/>
					<polygon class="st2" points="71.8,45 76.3,42.4 70.1,43.7 70.1,43.7 70.1,43.8 					"/>
				</g>
				<polygon class="st3" points="75.2,47.5 76.3,42.4 71.8,45 				"/>
			</g>
		</g>
		<g>
			<g>
				<g>
					<polygon class="st2" points="81.1,53.3 82.5,54.9 83.1,48.6 					"/>
					<polygon class="st2" points="78.3,50.3 83.1,48.6 76.9,48.7 76.9,48.7 76.9,48.7 					"/>
				</g>
				<polygon class="st3" points="81.1,53.3 83.1,48.6 78.3,50.3 				"/>
			</g>
		</g>
		<g>
			<g>
				<g>
					<polygon class="st2" points="85.8,60.2 86.9,62 88.7,55.9 					"/>
					<polygon class="st2" points="83.6,56.6 88.7,55.9 82.5,54.8 82.5,54.8 82.5,54.8 					"/>
				</g>
				<polygon class="st3" points="85.8,60.2 88.7,55.9 83.6,56.6 				"/>
			</g>
		</g>
		<g>
			<g>
				<g>
					<polygon class="st2" points="89.9,92.9 89.5,95 95,91.8 					"/>
					<polygon class="st2" points="90.8,88.8 95,91.8 91.3,86.8 91.3,86.8 91.3,86.8 					"/>
				</g>
				<polygon class="st3" points="89.9,92.9 95,91.8 90.8,88.8 				"/>
			</g>
		</g>
		<g>
			<g>
				<g>
					<polygon class="st2" points="87,100.7 86.1,102.6 92.2,100.6 					"/>
					<polygon class="st2" points="88.6,96.9 92.2,100.6 89.5,95 89.5,94.9 89.5,94.9 					"/>
				</g>
				<polygon class="st3" points="87,100.7 92.2,100.6 88.6,96.9 				"/>
			</g>
		</g>
		<g>
			<g>
				<g>
					<polygon class="st2" points="82.6,107.8 81.4,109.5 87.7,108.7 					"/>
					<polygon class="st2" points="85,104.3 87.7,108.7 86.2,102.6 86.2,102.6 86.2,102.6 					"/>
				</g>
				<polygon class="st3" points="82.6,107.8 87.7,108.7 85,104.3 				"/>
			</g>
		</g>
		<ellipse transform="matrix(0.9659 -0.2588 0.2588 0.9659 -19.488 15.0988)" class="st1" cx="47.6" cy="81.6" rx="44" ry="44"/>
		<path class="st0" d="M70.3,115.2l4.3-7.1l-10.3,8.5l2.6-6.1l-8.6,9.5L46.9,42.4l-20,0.3C9.2,52.1-0.3,72.8,5.1,93
			c6.3,23.5,30.4,37.4,53.9,31.1c2.2-0.6,4.3-1.3,6.4-2.2c8.7-3.8,15.7-10.3,20.3-18.2l0.5-1L70.3,115.2z"/>
		<g>
			<g>
				<g>
					<polygon class="st2" points="30.5,85.7 13,90.4 58.3,119.9 					"/>
					<polygon class="st2" points="64.8,76.5 58.3,119.9 81.9,72 82,72 82,71.9 					"/>
				</g>
				<polygon class="st4" points="66,56.6 19.1,69.2 13,90.4 30.5,85.7 64.8,76.5 82,71.9 				"/>
				<polygon class="st3" points="30.5,85.7 58.3,119.9 64.8,76.5 				"/>
				<polygon class="st5" points="42.8,62.8 19.1,69.2 30.5,85.7 42.8,62.8 64.8,76.5 66,56.6 				"/>
			</g>
		</g>
		<path class="st1" d="M3.4,49.1l1.1-1.8c0.1-0.2,0.4-0.3,0.7-0.2L7,48.2c0.3,0.2,0.6,0.2,1,0.1l15.8-4.2c0.7-0.2,1.1-0.9,0.9-1.5
			l-1.9-7c-0.1-0.5,0.1-1.1,0.5-1.4l19.3-13l1,7.4c0,0.1,0.2,0.2,0.3,0.1l5-6.9l-2.8,16.1c0,0.2,0,0.4,0,0.5l0,0l2.1,7.9
			c0.2,0.7-0.2,1.4-0.9,1.5L6.8,58.7c-0.7,0.2-1.4-0.2-1.5-0.9l-2.1-7.7C3.1,49.8,3.2,49.4,3.4,49.1z"/>
		<path class="st6" d="M74.8,52.7l0.3-3.3l-4.7,0.1l-0.5-3.7l-4.6,0.9l-1.1-3l-3.3,1.1l-2.8-3.2l-2.6,3l-1.3-4.1l-2.3,2.1l-2.3-1.4
			c-0.2-0.1-0.5,0-0.6,0.2l-1.3,2.2l-0.1,0l-2.2-1.3c-0.2-0.1-0.5,0-0.6,0.2L43.3,45L41,43.6c-0.2-0.1-0.5,0-0.6,0.2L39,46.1l-0.1,0
			l-2.3-1.4c-0.2-0.1-0.5,0-0.6,0.2l-1.4,2.3l-0.1,0L32.3,46c-0.2-0.1-0.5,0-0.6,0.2l-1.3,2.3L28,47.1c-0.2-0.1-0.5,0-0.6,0.2
			l-1.3,2.3l-2.3-1.3c-0.2-0.1-0.5,0-0.6,0.2l-1.3,2.3l-2.3-1.3c-0.2-0.1-0.5,0-0.6,0.2l-1.3,2.3l-2.3-1.3c-0.2-0.1-0.5,0-0.6,0.2
			L13.3,53L11,51.7c-0.2-0.1-0.5,0-0.6,0.2l-1.3,2.3l-2.3-1.3c-0.2-0.1-0.5,0-0.6,0.2l-1.4,2.3l-0.2,0l0.6,2.3c0.2,0.8,1,1.2,1.7,1
			l38.2-10.2l2,7.5l-36.4,9.7c-0.6,0.1-0.9,0.7-0.7,1.3l1.6,5.9l0,0l0,0l2.3,1.3c0.2,0.1,0.5,0.1,0.7-0.2l1.3-2.3l2.3,1.3
			c0.2,0.1,0.5,0.1,0.7-0.2l1.3-2.3l2.3,1.3c0.2,0.1,0.5,0.1,0.7-0.2l1.3-2.3l2.3,1.3c0.2,0.1,0.5,0.1,0.7-0.2l1.3-2.3l2.3,1.3
			c0.2,0.1,0.5,0.1,0.7-0.2l1.3-2.3l2.3,1.3c0.2,0.1,0.5,0.1,0.7-0.2l1.3-2.3l2.3,1.3c0.2,0.1,0.5,0.1,0.7-0.2l1.3-2.3l0,0l0.1,0
			l0,0l2.3,1.3c0.2,0.1,0.5,0.1,0.7-0.2l1.3-2.3l0,0l0,0l0,0l8.8,4.3l-3.3-5.6l10.4,1.1l-5.2-4.3l5.7-0.8L54,55.4l0.1-6.8l1.4,1.8
			l1.9-3.8l1.2,3.6l3.7-2.8l1.1,2.9l4.7-1.3l0.1,2.5l4.4,0.4l1.2,3.4l4.7-1.6L74.8,52.7z"/>
		<path class="st7" d="M45,48.5L45,48.5l-30.2,8.1l0.4,1.7l0,0l0,0l2.3,1.3c0.2,0.1,0.5,0.1,0.7-0.2l1.3-2.3l2.3,1.3
			c0.2,0.1,0.5,0.1,0.7-0.2l1.3-2.3l2.3,1.3c0.2,0.1,0.5,0.1,0.7-0.2l1.3-2.3l0,0l0.1,0l0,0l2.3,1.3c0.2,0.1,0.5,0.1,0.7-0.2
			l1.3-2.3l0,0l0.1,0l0,0l2.3,1.3c0.2,0.1,0.5,0.1,0.7-0.2l1.3-2.3l2.3,1.3c0.2,0.1,0.5,0.1,0.7-0.2l1.3-2.3l2.3,1.3
			c0.2,0.1,0.5,0.1,0.7-0.2l1.1-1.8c0.6,0.3,1,0.8,1.2,1.5c0.3,1.3-0.4,2.5-1.7,2.9c-0.3,0.1-0.5,0.1-0.8,0.1l-1.7-1
			c-0.2-0.1-0.5-0.1-0.7,0.2l-1.3,2.3l-2.3-1.3c-0.2-0.1-0.5-0.1-0.7,0.2l-1.3,2.3l-2.3-1.3c-0.2-0.1-0.5-0.1-0.7,0.2l-1.3,2.3l0,0
			l-0.1,0l0,0l-2.3-1.3c-0.2-0.1-0.5-0.1-0.7,0.2L27.3,60l0,0l-0.1,0l0,0l-2.3-1.3c-0.2-0.1-0.5-0.1-0.7,0.2l-1.3,2.3l-2.3-1.3
			c-0.2-0.1-0.5-0.1-0.7,0.2l-1.3,2.3L16.4,61c-0.2-0.1-0.5-0.1-0.7,0.2l-1.3,2.3l0,0l0,0l0.3,1.2l30.2-8.1L47,56
			c2.1-0.6,3.3-2.7,2.7-4.8C49.2,49.2,47.1,47.9,45,48.5z M19.6,57.1L19.6,57.1L19.6,57.1L19.6,57.1z M23.8,55.9L23.8,55.9
			L23.8,55.9L23.8,55.9z M36.8,52.4L36.8,52.4L36.8,52.4L36.8,52.4z M41.1,51.3L41.1,51.3L41.1,51.3L41.1,51.3z M18.7,62.4
			L18.7,62.4L18.7,62.4L18.7,62.4z M22.9,61.2L22.9,61.2L22.9,61.2L22.9,61.2z M35.9,57.7L35.9,57.7L35.9,57.7L35.9,57.7z
			 M40.2,56.6L40.2,56.6L40.2,56.6L40.2,56.6z"/>
		<polygon class="st0" points="25.7,98.9 24.1,94.9 58.3,119.9 		"/>
		<polygon class="st1" points="82.3,71.8 64.8,76.5 62.2,82.7 65.3,86.2 63.9,82.2 65,80.5 65,81.9 67.8,85.5 66.7,81.5 67.2,79.9 
			67.7,81.2 70.1,82.7 68.7,80.9 68.7,79.5 83.8,75.4 		"/>
		<polygon class="st1" points="79.9,76.3 69.4,90.3 74.1,88 68.3,94.8 71.9,93 66.9,100 70.7,98.2 		"/>
		<path class="st8" d="M28.9,38.2l5.2-4c0,0,0.6,3.2-1,4.4C31.5,39.9,28.9,38.2,28.9,38.2z"/>
	</g>
	<g>
		<path class="st0" d="M164.1,119.9L136,87.8v32.1H125V49H136v29.2L158.8,49h14l-26,34.1l31.2,36.8H164.1z"/>
		<path class="st0" d="M237,119.9h-12.5l-17.9-24h-8.1v24h-11.1V49h9.4h11.7c9.4,0,14.8,3.8,17.7,7.1c3.7,4.1,5.7,9.8,5.7,16.4
			c0,6.5-2,12.2-5.7,16.3c-1.7,1.9-4.4,4.1-8.2,5.4L237,119.9z M208.4,86c4.6,0,8-1.3,10.2-3.8c2.7-2.9,3.2-6.9,3.2-9.7
			c0-2.9-0.5-6.9-3.2-9.7c-2.2-2.5-5.6-3.7-10.2-3.7h-9.9V86H208.4z"/>
		<path class="st0" d="M252.2,114.3c-2.8-2.1-4.9-4.7-6.3-7.6c-1.6-3.2-2.4-6.9-2.4-10.8V49h11.1v46.8c0,4.2,1.5,7.5,4.4,9.7
			c2.7,2.1,6.6,3.3,10.8,3.3c4.1,0,8-1.2,10.8-3.3c2.9-2.2,4.3-5.4,4.3-9.7V49H296v46.8c0,3.9-0.9,7.5-2.4,10.8
			c-1.5,3-3.6,5.5-6.3,7.6c-4.7,3.6-10.9,5.6-17.6,5.6S256.8,117.9,252.2,114.3z"/>
		<path class="st0" d="M364.9,93.2v19.2l-2.5,1.7c-0.1,0-0.1,0-0.2,0.1s-0.3,0.2-0.4,0.2c-0.1,0.1-0.2,0.2-0.3,0.2
			c-0.1,0.1-0.2,0.2-0.4,0.2c-0.1,0.1-0.2,0.2-0.4,0.3c-0.1,0.1-0.2,0.1-0.3,0.2c-0.1,0.1-0.2,0.1-0.3,0.2c-0.2,0.1-0.3,0.1-0.5,0.2
			c-0.1,0.1-0.2,0.1-0.3,0.2s-0.3,0.2-0.5,0.2c-0.1,0.1-0.1,0.1-0.2,0.2c-0.1,0-0.1,0-0.2,0c-0.1,0.1-0.3,0.2-0.5,0.3
			s-0.5,0.2-0.7,0.3c0,0,0,0-0.1,0.1c-4,1.8-8.2,2.8-12.7,3.1c0,0,0,0-0.1,0c-0.2,0-0.5,0-0.8,0h-0.1c-0.3,0-0.6,0-0.9,0
			c-3.8,0-7.6-0.6-11.2-1.8c-0.1,0-0.1,0-0.1,0c-0.4-0.1-0.7-0.3-1.1-0.4c-0.5-0.2-1-0.4-1.4-0.6c-1.2-0.5-2.4-1.1-3.4-1.7
			c-2.9-1.5-5.5-3.5-7.8-5.9c-3.2-3.2-5.8-7-7.6-11.3c-1.3-3.2-2.3-6.7-2.6-10.2c-0.1-1.1-0.2-2.4-0.2-3.5c0-0.6,0-1.2,0-1.8
			c0.3-4.1,1.1-8.2,2.8-12c1.8-4.2,4.4-8,7.6-11.3c3.2-3.2,7-5.8,11.3-7.5c4.3-1.9,9-2.8,13.8-2.8c0.3,0,0.6,0,0.9,0h0.1
			c0.3,0,0.6,0,0.8,0c0.1,0,0.1,0,0.1,0c0.3,0,0.6,0,0.9,0.1c4.1,0.3,8.1,1.2,11.9,3c0,0,0,0.1,0.1,0.1c0.2,0.1,0.4,0.2,0.6,0.3
			c0.1,0,0.1,0,0.1,0v13.1c-1.4-1.2-3.1-2.2-4.8-3.1c-1.4-0.7-3-1.2-4.4-1.6c-0.1,0-0.2,0-0.3-0.1c-0.1,0-0.2,0-0.3,0
			c-0.1-0.1-0.2-0.1-0.4-0.1c0,0-0.1,0-0.2-0.1c-0.4-0.1-0.9-0.1-1.2-0.2c-0.1,0-0.1,0-0.2,0s-0.3-0.1-0.4-0.1s-0.1,0-0.2,0
			s-0.3,0-0.4-0.1c-0.1,0-0.2,0-0.3,0c-0.2,0-0.4,0-0.6,0c-0.1,0-0.2-0.1-0.3-0.1c-0.1,0-0.2,0-0.3,0c-0.1,0-0.3,0-0.4,0
			s-0.2,0-0.2,0c-0.2,0-0.5,0-0.7,0c-4.5,0-8.8,1.1-12.5,3.4c-0.1,0.1-0.3,0.2-0.5,0.3c-1.5,1-3,2.1-4.2,3.4
			c-0.4,0.4-0.9,0.8-1.2,1.2c0,0,0,0.1-0.1,0.1c-0.5,0.6-0.9,1.1-1.2,1.7c-0.1,0.1-0.2,0.2-0.2,0.2c-0.2,0.3-0.4,0.6-0.6,0.9
			c-0.1,0.1-0.2,0.3-0.2,0.4c-1.4,2.3-2.4,4.7-3,7.3c-0.1,0.1-0.1,0.1-0.1,0.2c-0.2,1-0.4,1.9-0.5,2.9c0,0.4,0,0.8,0,1.1
			c-0.1,0.5-0.1,0.9-0.1,1.3c0,0.4,0,0.8,0.1,1.2c0.1,1.8,0.4,3.6,0.9,5.4c1.1,4,3.2,7.6,6.2,10.6c4.6,4.6,10.7,7.2,17.2,7.2
			c0.2,0,0.5,0,0.7,0c0.1,0,0.2,0,0.3-0.1c0.1,0,0.3,0,0.4,0s0.2,0,0.3,0s0.2,0,0.3,0c0.2,0,0.3,0,0.5,0c0-0.1,0.1-0.1,0.2-0.1
			c0.1,0,0.3,0,0.4,0s0.1,0,0.2,0c0.7-0.1,1.4-0.3,2.1-0.4c0.1,0,0.1,0,0.2-0.1c0.1,0,0.3,0,0.4-0.1c0.1,0,0.2,0,0.3,0
			c0.1-0.1,0.2-0.1,0.3-0.1c0.1-0.1,0.3-0.1,0.4-0.1s0.2-0.1,0.2-0.1c1.3-0.4,2.7-0.9,3.9-1.5c0,0,0,0,0.1,0V93.2h-13.4v-10h24.5
			V93.2z"/>
	</g>
</g>
<g>
	<g>
		<path class="st0" d="M42.7,157.8l-6.5-7.4v7.4h-2.6v-16.3h2.6v6.7l5.2-6.7h3.2l-6,7.9l7.2,8.5H42.7z"/>
		<path class="st0" d="M59.4,157.8h-2.9l-4.1-5.5h-1.9v5.5H48v-16.3h2.2h2.7c2.2,0,3.4,0.9,4.1,1.6c0.9,0.9,1.3,2.3,1.3,3.8
			c0,1.5-0.5,2.8-1.3,3.8c-0.4,0.4-1,0.9-1.9,1.3L59.4,157.8z M52.9,150c1.1,0,1.8-0.3,2.4-0.9c0.6-0.7,0.7-1.6,0.7-2.2
			c0-0.7-0.1-1.6-0.7-2.2c-0.5-0.6-1.3-0.9-2.4-0.9h-2.3v6.2H52.9z"/>
		<path class="st0" d="M70.6,154.3h-5.8l-1.4,3.5h-2.8l7.1-17.1l7.1,17.1H72L70.6,154.3z M69.7,152l-2-5l-2,5H69.7z"/>
		<path class="st0" d="M86.1,157.8l-6.5-7.4v7.4h-2.6v-16.3h2.6v6.7l5.2-6.7h3.2l-6,7.9l7.2,8.5H86.1z"/>
		<path class="st0" d="M93.9,157.2c-1-0.4-1.8-1-2.6-1.8s-1.3-1.6-1.8-2.6s-0.6-2.1-0.6-3.2c0-1.1,0.2-2.2,0.6-3.2
			c0.4-1,1-1.8,1.8-2.6c0.7-0.7,1.6-1.3,2.6-1.7c1-0.4,2.1-0.6,3.2-0.6c1.1,0,2.2,0.2,3.2,0.6c1,0.4,1.8,1,2.6,1.7
			c0.7,0.8,1.3,1.6,1.7,2.6c0.4,1,0.6,2.1,0.6,3.2c0,1.1-0.2,2.2-0.6,3.2s-1,1.8-1.7,2.6c-0.8,0.7-1.6,1.3-2.6,1.8
			c-1,0.4-2.1,0.6-3.2,0.6C96,157.8,94.9,157.6,93.9,157.2z M93.1,145.7c-1.1,1.1-1.6,2.5-1.6,4s0.6,2.9,1.6,4
			c1.1,1.1,2.5,1.7,4,1.7c1.5,0,2.9-0.6,4-1.7c1.1-1.1,1.6-2.5,1.6-4s-0.6-2.9-1.6-4c-1.1-1.1-2.5-1.7-4-1.7
			C95.6,144,94.2,144.6,93.1,145.7z"/>
		<path class="st0" d="M121.3,158.5l-4.3-9.8l-4,9.8l-7.5-17.1h2.8l4.6,10.8l2.7-6.8l1.3-3.4l1.4,3.3l2.9,6.8l4.3-10.8h2.8
			L121.3,158.5z"/>
		<path class="st0" d="M148.9,157.8H146l-4.1-5.5H140v5.5h-2.6v-16.3h2.2h2.7c2.2,0,3.4,0.9,4.1,1.6c0.9,0.9,1.3,2.3,1.3,3.8
			c0,1.5-0.5,2.8-1.3,3.8c-0.4,0.4-1,0.9-1.9,1.3L148.9,157.8z M142.3,150c1.1,0,1.8-0.3,2.4-0.9c0.6-0.7,0.7-1.6,0.7-2.2
			c0-0.7-0.1-1.6-0.7-2.2c-0.5-0.6-1.3-0.9-2.4-0.9H140v6.2H142.3z"/>
		<path class="st0" d="M152.4,156.5c-0.6-0.5-1.1-1.1-1.5-1.8c-0.4-0.7-0.6-1.6-0.6-2.5v-10.8h2.6v10.8c0,1,0.4,1.7,1,2.2
			c0.6,0.5,1.5,0.8,2.5,0.8c0.9,0,1.8-0.3,2.5-0.8c0.7-0.5,1-1.3,1-2.2v-10.8h2.6v10.8c0,0.9-0.2,1.7-0.6,2.5
			c-0.4,0.7-0.8,1.3-1.5,1.8c-1.1,0.8-2.5,1.3-4,1.3C154.9,157.8,153.5,157.3,152.4,156.5z"/>
		<path class="st0" d="M175.9,153c0,0.8-0.2,1.5-0.5,2.2c-0.4,0.6-0.9,1.1-1.5,1.6c-1.1,0.7-2.6,1.1-4.5,1.1h-1.5h-2.2v-16.3h2.6
			h1.1c1.8,0,3.1,0.3,4,1c0.5,0.4,0.9,0.9,1.1,1.4c0.2,0.5,0.3,1.1,0.3,1.7c0,0.9-0.3,2-1.3,3c0.3,0.2,0.5,0.4,0.7,0.6
			c0.5,0.5,0.9,1,1.1,1.6C175.8,151.5,175.9,152.2,175.9,153z M168.3,143.8v5c0.5-0.1,1.1-0.3,1.7-0.5c0.8-0.3,1.5-0.7,1.9-1.1
			c0.5-0.4,0.7-0.9,0.7-1.4c0-0.8-0.3-1.1-0.5-1.3c-0.6-0.5-1.8-0.6-2.7-0.6H168.3z M173.6,153c0-0.9-0.3-1.5-0.9-2.1
			c-0.3-0.3-0.7-0.6-1.3-0.8c-0.2,0.1-0.4,0.2-0.7,0.3c-0.9,0.4-1.8,0.6-2.5,0.7v4.4h1.1c1.4,0,2.5-0.2,3.2-0.7
			C173.3,154.4,173.6,153.8,173.6,153z"/>
		<path class="st0" d="M184,149.3v8.5h-2.6v-8.5l-5.7-7.8h3l4,5.6l4-5.6h2.9L184,149.3z"/>
		<path class="st0" d="M200.4,156.5c-0.6-0.5-1.1-1.1-1.5-1.8c-0.4-0.7-0.6-1.6-0.6-2.5v-10.8h2.6v10.8c0,1,0.4,1.7,1,2.2
			c0.6,0.5,1.5,0.8,2.5,0.8c0.9,0,1.8-0.3,2.5-0.8c0.7-0.5,1-1.3,1-2.2v-10.8h2.6v10.8c0,0.9-0.2,1.7-0.6,2.5
			c-0.4,0.7-0.8,1.3-1.5,1.8c-1.1,0.8-2.5,1.3-4,1.3C202.9,157.8,201.5,157.3,200.4,156.5z"/>
		<path class="st0" d="M221.9,154.5c-0.5,1.6-1.9,2.8-3.7,3.2c-0.3,0.1-0.7,0.1-1,0.1c-0.7,0-1.3-0.1-1.9-0.4
			c-1-0.4-1.9-1.1-2.7-2.1l2-1.6c0.5,0.6,1,1.1,1.6,1.3c0.5,0.2,1,0.2,1.5,0.1c0.8-0.2,1.5-0.7,1.7-1.4c0.2-0.7-0.3-1.4-0.7-1.8
			c-0.7-0.7-1.9-1.8-2-1.9l-2-1.9c-0.6-0.6-1-1.3-1.3-2c-0.2-0.7-0.2-1.4,0-2.1c0.2-0.7,0.6-1.3,1.2-1.8c0.5-0.5,1.2-0.8,2-0.9
			c0.8-0.2,1.6-0.1,2.4,0.2c0.8,0.3,1.6,0.9,2.2,1.6l-2,1.6c-0.8-1-1.7-1-2.2-0.9c-0.6,0.1-1.1,0.5-1.2,0.9
			c-0.1,0.3-0.1,0.8,0.6,1.5l2.7,2.6c0.4,0.4,0.9,0.9,1.2,1.2c0.7,0.6,1.2,1.4,1.4,2.1C222.1,153,222.1,153.8,221.9,154.5z"/>
		<path class="st0" d="M227.1,148.1h6v2.3h-6v5.1h7.2v2.3H227h-2.5v-16.3h2.5h7.3v2.3h-7.2V148.1z"/>
		<path class="st0" d="M248.7,157.8h-2.9l-4.1-5.5h-1.9v5.5h-2.6v-16.3h2.2h2.7c2.2,0,3.4,0.9,4.1,1.6c0.9,0.9,1.3,2.3,1.3,3.8
			c0,1.5-0.5,2.8-1.3,3.8c-0.4,0.4-1,0.9-1.9,1.3L248.7,157.8z M242.1,150c1.1,0,1.8-0.3,2.4-0.9c0.6-0.7,0.7-1.6,0.7-2.2
			c0-0.7-0.1-1.6-0.7-2.2c-0.5-0.6-1.3-0.9-2.4-0.9h-2.3v6.2H242.1z"/>
		<path class="st0" d="M259.5,154.5c-0.5,1.6-1.9,2.8-3.7,3.2c-0.3,0.1-0.7,0.1-1,0.1c-0.7,0-1.3-0.1-1.9-0.4
			c-1-0.4-1.9-1.1-2.7-2.1l2-1.6c0.5,0.6,1,1.1,1.6,1.3c0.5,0.2,1,0.2,1.5,0.1c0.8-0.2,1.5-0.7,1.7-1.4c0.2-0.7-0.3-1.4-0.7-1.8
			c-0.7-0.7-1.9-1.8-2-1.9l-2-1.9c-0.6-0.6-1-1.3-1.3-2c-0.2-0.7-0.2-1.4,0-2.1c0.2-0.7,0.6-1.3,1.2-1.8c0.5-0.5,1.2-0.8,2-0.9
			c0.8-0.2,1.6-0.1,2.4,0.2c0.8,0.3,1.6,0.9,2.2,1.6l-2,1.6c-0.8-1-1.7-1-2.2-0.9c-0.6,0.1-1.1,0.5-1.2,0.9
			c-0.1,0.3-0.1,0.8,0.6,1.5l2.7,2.6c0.4,0.4,0.9,0.9,1.2,1.2c0.7,0.6,1.2,1.4,1.4,2.1C259.7,153,259.8,153.8,259.5,154.5z"/>
		<path class="st0" d="M281.7,151.6v4.4l-0.6,0.4c0,0,0,0,0,0c0,0-0.1,0-0.1,0c0,0,0,0-0.1,0c0,0,0,0-0.1,0c0,0,0,0-0.1,0.1
			c0,0,0,0-0.1,0c0,0,0,0-0.1,0c0,0-0.1,0-0.1,0c0,0,0,0-0.1,0c0,0-0.1,0-0.1,0c0,0,0,0,0,0c0,0,0,0,0,0c0,0-0.1,0-0.1,0.1
			c0,0-0.1,0-0.2,0.1c0,0,0,0,0,0c-0.9,0.4-1.9,0.6-2.9,0.7c0,0,0,0,0,0c0,0-0.1,0-0.2,0h0c-0.1,0-0.1,0-0.2,0
			c-0.9,0-1.8-0.1-2.6-0.4c0,0,0,0,0,0c-0.1,0-0.2-0.1-0.2-0.1c-0.1,0-0.2-0.1-0.3-0.1c-0.3-0.1-0.6-0.2-0.8-0.4
			c-0.7-0.4-1.3-0.8-1.8-1.4c-0.7-0.7-1.3-1.6-1.8-2.6c-0.3-0.7-0.5-1.5-0.6-2.4c0-0.3,0-0.5,0-0.8c0-0.1,0-0.3,0-0.4
			c0.1-0.9,0.3-1.9,0.6-2.8c0.4-1,1-1.8,1.8-2.6s1.6-1.3,2.6-1.7c1-0.4,2.1-0.6,3.2-0.6c0.1,0,0.1,0,0.2,0h0c0.1,0,0.1,0,0.2,0
			c0,0,0,0,0,0c0.1,0,0.1,0,0.2,0c0.9,0.1,1.9,0.3,2.8,0.7c0,0,0,0,0,0c0,0,0.1,0,0.1,0.1c0,0,0,0,0,0v3c-0.3-0.3-0.7-0.5-1.1-0.7
			c-0.3-0.2-0.7-0.3-1-0.4c0,0,0,0-0.1,0c0,0,0,0-0.1,0c0,0,0,0-0.1,0c0,0,0,0,0,0c-0.1,0-0.2,0-0.3,0c0,0,0,0,0,0c0,0-0.1,0-0.1,0
			s0,0,0,0s-0.1,0-0.1,0c0,0,0,0-0.1,0c0,0-0.1,0-0.1,0c0,0,0,0-0.1,0c0,0,0,0-0.1,0s-0.1,0-0.1,0s0,0,0,0c0,0-0.1,0-0.2,0
			c-1,0-2,0.3-2.9,0.8c0,0-0.1,0-0.1,0.1c-0.4,0.2-0.7,0.5-1,0.8c-0.1,0.1-0.2,0.2-0.3,0.3c0,0,0,0,0,0c-0.1,0.1-0.2,0.3-0.3,0.4
			c0,0,0,0,0,0c0,0.1-0.1,0.1-0.1,0.2c0,0,0,0.1,0,0.1c-0.3,0.5-0.5,1.1-0.7,1.7c0,0,0,0,0,0c0,0.2-0.1,0.4-0.1,0.7
			c0,0.1,0,0.2,0,0.2c0,0.1,0,0.2,0,0.3c0,0.1,0,0.2,0,0.3c0,0.4,0.1,0.8,0.2,1.2c0.3,0.9,0.7,1.8,1.4,2.4c1.1,1.1,2.5,1.7,4,1.7
			c0,0,0.1,0,0.2,0c0,0,0,0,0.1,0c0,0,0.1,0,0.1,0c0,0,0,0,0.1,0s0,0,0.1,0c0,0,0.1,0,0.1,0c0,0,0,0,0,0c0,0,0.1,0,0.1,0
			c0,0,0,0,0,0c0.2,0,0.3-0.1,0.5-0.1c0,0,0,0,0,0c0,0,0.1,0,0.1,0c0,0,0,0,0.1,0c0,0,0,0,0.1,0c0,0,0.1,0,0.1,0s0,0,0,0
			c0.3-0.1,0.6-0.2,0.9-0.4c0,0,0,0,0,0v-3h-3.1v-2.3h5.6V151.6z"/>
		<path class="st0" d="M295.8,157.8h-2.9l-4.1-5.5h-1.9v5.5h-2.6v-16.3h2.2h2.7c2.2,0,3.4,0.9,4.1,1.6c0.9,0.9,1.3,2.3,1.3,3.8
			c0,1.5-0.5,2.8-1.3,3.8c-0.4,0.4-1,0.9-1.9,1.3L295.8,157.8z M289.2,150c1.1,0,1.8-0.3,2.4-0.9c0.6-0.7,0.7-1.6,0.7-2.2
			c0-0.7-0.1-1.6-0.7-2.2c-0.5-0.6-1.3-0.9-2.4-0.9h-2.3v6.2H289.2z"/>
		<path class="st0" d="M301.9,157.2c-1-0.4-1.8-1-2.6-1.8s-1.3-1.6-1.8-2.6s-0.6-2.1-0.6-3.2c0-1.1,0.2-2.2,0.6-3.2
			c0.4-1,1-1.8,1.8-2.6c0.7-0.7,1.6-1.3,2.6-1.7c1-0.4,2.1-0.6,3.2-0.6s2.2,0.2,3.2,0.6c1,0.4,1.8,1,2.6,1.7
			c0.7,0.8,1.3,1.6,1.7,2.6c0.4,1,0.6,2.1,0.6,3.2c0,1.1-0.2,2.2-0.6,3.2s-1,1.8-1.7,2.6c-0.8,0.7-1.6,1.3-2.6,1.8
			c-1,0.4-2.1,0.6-3.2,0.6S302.9,157.6,301.9,157.2z M301.1,145.7c-1.1,1.1-1.6,2.5-1.6,4s0.6,2.9,1.6,4c1.1,1.1,2.5,1.7,4,1.7
			c1.5,0,2.9-0.6,4-1.7c1.1-1.1,1.7-2.5,1.7-4s-0.6-2.9-1.7-4c-1.1-1.1-2.5-1.7-4-1.7C303.6,144,302.2,144.6,301.1,145.7z"/>
		<path class="st0" d="M317.8,156.5c-0.6-0.5-1.1-1.1-1.5-1.8c-0.4-0.7-0.5-1.6-0.5-2.5v-10.8h2.6v10.8c0,1,0.4,1.7,1,2.2
			c0.6,0.5,1.5,0.8,2.5,0.8c0.9,0,1.8-0.3,2.5-0.8c0.7-0.5,1-1.3,1-2.2v-10.8h2.6v10.8c0,0.9-0.2,1.7-0.6,2.5
			c-0.4,0.7-0.8,1.3-1.5,1.8c-1.1,0.8-2.5,1.3-4,1.3C320.3,157.8,318.9,157.3,317.8,156.5z"/>
		<path class="st0" d="M333.3,141.5h2.7c2.2,0,3.4,0.9,4.1,1.6c0.9,1,1.3,2.3,1.3,3.8c0,1.5-0.4,2.8-1.3,3.8
			c-0.7,0.7-1.9,1.6-4.1,1.6h-2.3v5.5h-2.6v-16.3H333.3z M339.1,146.9c0-0.6-0.1-1.6-0.7-2.2c-0.5-0.6-1.3-0.9-2.4-0.9h-2.3v6.2h2.3
			c1.1,0,1.8-0.3,2.4-0.9C339,148.5,339.1,147.5,339.1,146.9z"/>
	</g>
</g>
</svg>
