<svg id="Warstwa_1" xmlns="http://www.w3.org/2000/svg" width="376.7" height="165" viewBox="0 0 376.7 165"><style>.st0{fill:#6E7433;} .st1{fill:#A4B13A;} .st2{fill:#CA3427;} .st3{fill:#B82825;} .st4{fill:#E54325;} .st5{fill:#F0583E;} .st6{fill:#879039;} .st7{fill:#ECEAE9;} .st8{fill:#FFFFFF;}</style><path class="st0" d="M73.5-.5C72.7 18.2 59.9 34.9 40.9 40c-.6.2-1.2.3-1.8.4 3 9.6 10 17 18.9 21.1 17.1-9.6 26.3-29.9 20.9-49.8-1.2-4.4-3-8.5-5.4-12.2zM84.9 61.3l4.9-12.2c.2-.5.7-.9 1.3-1l19.9-3.5-9.6 8.2c-.2.2-.1.6.1.6L111 56l-10.5 3c-.2.1-.2.4 0 .5l6.3 2.3L92.1 66l-7.2-4.7z"/><path class="st1" d="M86.9 61.3l11.6-6.2c.5-.3 1.2-.3 1.7 0l17.5 10.1-12.7.2c-.3 0-.5.3-.3.6l5.6 8.1-10-4.4c-.2-.1-.4.1-.3.4l3.4 5.8-13.9-6.2-2.6-8.4z"/><path class="st2" d="M52.4 37.5l2.1.2-3.9-5zM48.2 37.3l2.4-4.6-4.5 4.4v.1z"/><path class="st3" d="M52.4 37.5l-1.8-4.8-2.4 4.6z"/><path class="st2" d="M60.6 39.2l2 .5-2.9-5.6zM56.5 38.2l3.2-4.1-5.2 3.5v.1z"/><path class="st3" d="M60.6 39.2l-.9-5.1-3.2 4.1z"/><path class="st2" d="M68.2 42.4l2 .9-1.9-6.1z"/><path class="st2" d="M64.5 40.6l3.8-3.4-5.7 2.5z"/><path class="st3" d="M68.2 42.4l.1-5.2-3.8 3.4z"/><path class="st2" d="M75.2 47l1.7 1.2-.6-6.3zM71.8 44.5l4.5-2.6-6.2 1.3v.1z"/><path class="st3" d="M75.2 47l1.1-5.1-4.5 2.6z"/><path class="st2" d="M81.1 52.8l1.4 1.6.6-6.3zM78.3 49.8l4.8-1.7-6.2.1z"/><path class="st3" d="M81.1 52.8l2-4.7-4.8 1.7z"/><path class="st2" d="M85.8 59.7l1.1 1.8 1.8-6.1zM83.6 56.1l5.1-.7-6.2-1.1z"/><path class="st3" d="M85.8 59.7l2.9-4.3-5.1.7z"/><path class="st2" d="M89.9 92.4l-.4 2.1 5.5-3.2zM90.8 88.3l4.2 3-3.7-5z"/><path class="st3" d="M89.9 92.4l5.1-1.1-4.2-3z"/><g><path class="st2" d="M87 100.2l-.9 1.9 6.1-2zM88.6 96.4l3.6 3.7-2.7-5.6v-.1z"/><path class="st3" d="M87 100.2l5.2-.1-3.6-3.7z"/></g><g><path class="st2" d="M82.6 107.3l-1.2 1.7 6.3-.8zM85 103.8l2.7 4.4-1.5-6.1z"/><path class="st3" d="M82.6 107.3l5.1.9-2.7-4.4z"/></g><ellipse transform="rotate(-15 47.608 81.1)" class="st1" cx="47.6" cy="81.1" rx="44" ry="44"/><path class="st0" d="M70.3 114.7l4.3-7.1-10.3 8.5 2.6-6.1-8.6 9.5-11.4-77.6-20 .3C9.2 51.6-.3 72.3 5.1 92.5c6.3 23.5 30.4 37.4 53.9 31.1 2.2-.6 4.3-1.3 6.4-2.2 8.7-3.8 15.7-10.3 20.3-18.2l.5-1-15.9 12.5z"/><g><path class="st2" d="M30.5 85.2L13 89.9l45.3 29.5zM64.8 76l-6.5 43.4 23.6-47.9h.1v-.1z"/><path class="st4" d="M66 56.1L19.1 68.7 13 89.9l17.5-4.7L64.8 76 82 71.4z"/><path class="st3" d="M30.5 85.2l27.8 34.2L64.8 76z"/><path class="st5" d="M42.8 62.3l-23.7 6.4 11.4 16.5 12.3-22.9 22 13.7L66 56.1z"/></g><path class="st1" d="M3.4 48.6l1.1-1.8c.1-.2.4-.3.7-.2L7 47.7c.3.2.6.2 1 .1l15.8-4.2c.7-.2 1.1-.9.9-1.5l-1.9-7c-.1-.5.1-1.1.5-1.4l19.3-13 1 7.4c0 .1.2.2.3.1l5-6.9-2.8 16.1v.5l2.1 7.9c.2.7-.2 1.4-.9 1.5L6.8 58.2c-.7.2-1.4-.2-1.5-.9l-2.1-7.7c-.1-.3 0-.7.2-1z"/><path class="st6" d="M74.8 52.2l.3-3.3-4.7.1-.5-3.7-4.6.9-1.1-3-3.3 1.1-2.8-3.2-2.6 3-1.3-4.1-2.3 2.1-2.3-1.4c-.2-.1-.5 0-.6.2l-1.3 2.2h-.1l-2.2-1.3c-.2-.1-.5 0-.6.2l-1.5 2.5-2.3-1.4c-.2-.1-.5 0-.6.2L39 45.6h-.1l-2.3-1.4c-.2-.1-.5 0-.6.2l-1.4 2.3h-.1l-2.2-1.2c-.2-.1-.5 0-.6.2L30.4 48 28 46.6c-.2-.1-.5 0-.6.2l-1.3 2.3-2.3-1.3c-.2-.1-.5 0-.6.2l-1.3 2.3-2.3-1.3c-.2-.1-.5 0-.6.2l-1.3 2.3-2.3-1.3c-.2-.1-.5 0-.6.2l-1.5 2.1-2.3-1.3c-.2-.1-.5 0-.6.2l-1.3 2.3-2.3-1.3c-.2-.1-.5 0-.6.2l-1.4 2.3h-.2l.6 2.3c.2.8 1 1.2 1.7 1L45.1 48l2 7.5-36.4 9.7c-.6.1-.9.7-.7 1.3l1.6 5.9 2.3 1.3c.2.1.5.1.7-.2l1.3-2.3 2.3 1.3c.2.1.5.1.7-.2l1.3-2.3 2.3 1.3c.2.1.5.1.7-.2l1.3-2.3 2.3 1.3c.2.1.5.1.7-.2l1.3-2.3 2.3 1.3c.2.1.5.1.7-.2l1.3-2.3 2.3 1.3c.2.1.5.1.7-.2l1.3-2.3 2.3 1.3c.2.1.5.1.7-.2l1.3-2.3h.1l2.3 1.3c.2.1.5.1.7-.2l1.3-2.3 8.8 4.3-3.3-5.6L62 62.6l-5.2-4.3 5.7-.8-8.5-2.6.1-6.8 1.4 1.8 1.9-3.8 1.2 3.6 3.7-2.8 1.1 2.9 4.7-1.3.1 2.5 4.4.4 1.2 3.4 4.7-1.6-3.7-1z"/><path class="st7" d="M45 48l-30.2 8.1.4 1.7 2.3 1.3c.2.1.5.1.7-.2l1.3-2.3 2.3 1.3c.2.1.5.1.7-.2l1.3-2.3 2.3 1.3c.2.1.5.1.7-.2l1.3-2.3h.1l2.3 1.3c.2.1.5.1.7-.2l1.3-2.3h.1l2.3 1.3c.2.1.5.1.7-.2l1.3-2.3 2.3 1.3c.2.1.5.1.7-.2l1.3-2.3 2.3 1.3c.2.1.5.1.7-.2l1.1-1.8c.6.3 1 .8 1.2 1.5.3 1.3-.4 2.5-1.7 2.9-.3.1-.5.1-.8.1l-1.7-1c-.2-.1-.5-.1-.7.2l-1.3 2.3-2.3-1.3c-.2-.1-.5-.1-.7.2L36 57.1l-2.3-1.3c-.2-.1-.5-.1-.7.2l-1.3 2.3h-.1L29.3 57c-.2-.1-.5-.1-.7.2l-1.3 2.3h-.1l-2.3-1.3c-.2-.1-.5-.1-.7.2l-1.3 2.3-2.3-1.3c-.2-.1-.5-.1-.7.2l-1.3 2.3-2.2-1.4c-.2-.1-.5-.1-.7.2L14.4 63l.3 1.2 30.2-8.1 2.1-.6c2.1-.6 3.3-2.7 2.7-4.8-.5-2-2.6-3.3-4.7-2.7zm-25.4 8.6zm4.2-1.2zm13-3.5zm4.3-1.1zM18.7 61.9zm4.2-1.2zm13-3.5zm4.3-1.1z"/><path class="st0" d="M25.7 98.4l-1.6-4 34.2 25z"/><path class="st1" d="M82.3 71.3L64.8 76l-2.6 6.2 3.1 3.5-1.4-4L65 80v1.4l2.8 3.6-1.1-4 .5-1.6.5 1.3 2.4 1.5-1.4-1.8V79l15.1-4.1z"/><path class="st1" d="M79.9 75.8l-10.5 14 4.7-2.3-5.8 6.8 3.6-1.8-5 7 3.8-1.8z"/><path class="st8" d="M28.9 37.7l5.2-4s.6 3.2-1 4.4c-1.6 1.3-4.2-.4-4.2-.4z"/><g><path class="st0" d="M164.1 119.4L136 87.3v32.1h-11V48.5h11v29.2l22.8-29.2h14l-26 34.1 31.2 36.8h-13.9zM237 119.4h-12.5l-17.9-24h-8.1v24h-11.1V48.5h21.1c9.4 0 14.8 3.8 17.7 7.1 3.7 4.1 5.7 9.8 5.7 16.4 0 6.5-2 12.2-5.7 16.3-1.7 1.9-4.4 4.1-8.2 5.4l19 25.7zm-28.6-33.9c4.6 0 8-1.3 10.2-3.8 2.7-2.9 3.2-6.9 3.2-9.7 0-2.9-.5-6.9-3.2-9.7-2.2-2.5-5.6-3.7-10.2-3.7h-9.9v26.9h9.9zM252.2 113.8c-2.8-2.1-4.9-4.7-6.3-7.6-1.6-3.2-2.4-6.9-2.4-10.8V48.5h11.1v46.8c0 4.2 1.5 7.5 4.4 9.7 2.7 2.1 6.6 3.3 10.8 3.3 4.1 0 8-1.2 10.8-3.3 2.9-2.2 4.3-5.4 4.3-9.7V48.5H296v46.8c0 3.9-.9 7.5-2.4 10.8-1.5 3-3.6 5.5-6.3 7.6-4.7 3.6-10.9 5.6-17.6 5.6s-12.9-1.9-17.5-5.5zM364.9 92.7v19.2l-2.5 1.7c-.1 0-.1 0-.2.1s-.3.2-.4.2c-.1.1-.2.2-.3.2-.1.1-.2.2-.4.2-.1.1-.2.2-.4.3-.1.1-.2.1-.3.2-.1.1-.2.1-.3.2-.2.1-.3.1-.5.2-.1.1-.2.1-.3.2s-.3.2-.5.2l-.2.2h-.2c-.1.1-.3.2-.5.3s-.5.2-.7.3l-.1.1c-4 1.8-8.2 2.8-12.7 3.1h-1.9c-3.8 0-7.6-.6-11.2-1.8h-.1c-.4-.1-.7-.3-1.1-.4-.5-.2-1-.4-1.4-.6-1.2-.5-2.4-1.1-3.4-1.7-2.9-1.5-5.5-3.5-7.8-5.9-3.2-3.2-5.8-7-7.6-11.3-1.3-3.2-2.3-6.7-2.6-10.2-.1-1.1-.2-2.4-.2-3.5v-1.8c.3-4.1 1.1-8.2 2.8-12 1.8-4.2 4.4-8 7.6-11.3 3.2-3.2 7-5.8 11.3-7.5 4.3-1.9 9-2.8 13.8-2.8H344.5c.3 0 .6 0 .9.1 4.1.3 8.1 1.2 11.9 3 0 0 0 .1.1.1l.6.3h.1v13.1c-1.4-1.2-3.1-2.2-4.8-3.1-1.4-.7-3-1.2-4.4-1.6-.1 0-.2 0-.3-.1h-.3c-.1-.1-.2-.1-.4-.1 0 0-.1 0-.2-.1-.4-.1-.9-.1-1.2-.2h-.2s-.3-.1-.4-.1h-.2s-.3 0-.4-.1H344.4c-.1 0-.2-.1-.3-.1H342.5c-4.5 0-8.8 1.1-12.5 3.4-.1.1-.3.2-.5.3-1.5 1-3 2.1-4.2 3.4-.4.4-.9.8-1.2 1.2 0 0 0 .1-.1.1-.5.6-.9 1.1-1.2 1.7l-.2.2-.6.9c-.1.1-.2.3-.2.4-1.4 2.3-2.4 4.7-3 7.3-.1.1-.1.1-.1.2-.2 1-.4 1.9-.5 2.9V83c-.1.5-.1.9-.1 1.3s0 .8.1 1.2c.1 1.8.4 3.6.9 5.4 1.1 4 3.2 7.6 6.2 10.6 4.6 4.6 10.7 7.2 17.2 7.2h.7c.1 0 .2 0 .3-.1h1.5c0-.1.1-.1.2-.1H345.8c.7-.1 1.4-.3 2.1-.4.1 0 .1 0 .2-.1.1 0 .3 0 .4-.1h.3c.1-.1.2-.1.3-.1.1-.1.3-.1.4-.1s.2-.1.2-.1c1.3-.4 2.7-.9 3.9-1.5h.1V92.7h-13.4v-10h24.5v10h.1z"/></g><g><path class="st0" d="M42.7 157.3l-6.5-7.4v7.4h-2.6V141h2.6v6.7l5.2-6.7h3.2l-6 7.9 7.2 8.5-3.1-.1zM59.4 157.3h-2.9l-4.1-5.5h-1.9v5.5H48V141h4.9c2.2 0 3.4.9 4.1 1.6.9.9 1.3 2.3 1.3 3.8s-.5 2.8-1.3 3.8c-.4.4-1 .9-1.9 1.3l4.3 5.8zm-6.5-7.8c1.1 0 1.8-.3 2.4-.9.6-.7.7-1.6.7-2.2 0-.7-.1-1.6-.7-2.2-.5-.6-1.3-.9-2.4-.9h-2.3v6.2h2.3zM70.6 153.8h-5.8l-1.4 3.5h-2.8l7.1-17.1 7.1 17.1H72l-1.4-3.5zm-.9-2.3l-2-5-2 5h4zM86.1 157.3l-6.5-7.4v7.4H77V141h2.6v6.7l5.2-6.7H88l-6 7.9 7.2 8.5-3.1-.1zM93.9 156.7c-1-.4-1.8-1-2.6-1.8s-1.3-1.6-1.8-2.6-.6-2.1-.6-3.2.2-2.2.6-3.2 1-1.8 1.8-2.6c.7-.7 1.6-1.3 2.6-1.7s2.1-.6 3.2-.6 2.2.2 3.2.6c1 .4 1.8 1 2.6 1.7.7.8 1.3 1.6 1.7 2.6.4 1 .6 2.1.6 3.2s-.2 2.2-.6 3.2-1 1.8-1.7 2.6c-.8.7-1.6 1.3-2.6 1.8-1 .4-2.1.6-3.2.6s-2.2-.2-3.2-.6zm-.8-11.5c-1.1 1.1-1.6 2.5-1.6 4s.6 2.9 1.6 4c1.1 1.1 2.5 1.7 4 1.7s2.9-.6 4-1.7 1.6-2.5 1.6-4-.6-2.9-1.6-4c-1.1-1.1-2.5-1.7-4-1.7s-2.9.6-4 1.7zM121.3 158l-4.3-9.8-4 9.8-7.5-17.1h2.8l4.6 10.8 2.7-6.8 1.3-3.4 1.4 3.3 2.9 6.8 4.3-10.8h2.8l-7 17.2zM148.9 157.3H146l-4.1-5.5H140v5.5h-2.6V141h4.9c2.2 0 3.4.9 4.1 1.6.9.9 1.3 2.3 1.3 3.8s-.5 2.8-1.3 3.8c-.4.4-1 .9-1.9 1.3l4.4 5.8zm-6.6-7.8c1.1 0 1.8-.3 2.4-.9.6-.7.7-1.6.7-2.2 0-.7-.1-1.6-.7-2.2-.5-.6-1.3-.9-2.4-.9H140v6.2h2.3zM152.4 156c-.6-.5-1.1-1.1-1.5-1.8s-.6-1.6-.6-2.5v-10.8h2.6v10.8c0 1 .4 1.7 1 2.2s1.5.8 2.5.8c.9 0 1.8-.3 2.5-.8s1-1.3 1-2.2v-10.8h2.6v10.8c0 .9-.2 1.7-.6 2.5-.4.7-.8 1.3-1.5 1.8-1.1.8-2.5 1.3-4 1.3s-2.9-.5-4-1.3zM175.9 152.5c0 .8-.2 1.5-.5 2.2-.4.6-.9 1.1-1.5 1.6-1.1.7-2.6 1.1-4.5 1.1h-3.7v-16.3h3.7c1.8 0 3.1.3 4 1 .5.4.9.9 1.1 1.4.2.5.3 1.1.3 1.7 0 .9-.3 2-1.3 3 .3.2.5.4.7.6.5.5.9 1 1.1 1.6.5.6.6 1.3.6 2.1zm-7.6-9.2v5c.5-.1 1.1-.3 1.7-.5.8-.3 1.5-.7 1.9-1.1.5-.4.7-.9.7-1.4 0-.8-.3-1.1-.5-1.3-.6-.5-1.8-.6-2.7-.6l-1.1-.1zm5.3 9.2c0-.9-.3-1.5-.9-2.1-.3-.3-.7-.6-1.3-.8-.2.1-.4.2-.7.3-.9.4-1.8.6-2.5.7v4.4h1.1c1.4 0 2.5-.2 3.2-.7.8-.4 1.1-1 1.1-1.8zM184 148.8v8.5h-2.6v-8.5l-5.7-7.8h3l4 5.6 4-5.6h2.9l-5.6 7.8zM200.4 156c-.6-.5-1.1-1.1-1.5-1.8s-.6-1.6-.6-2.5v-10.8h2.6v10.8c0 1 .4 1.7 1 2.2s1.5.8 2.5.8c.9 0 1.8-.3 2.5-.8s1-1.3 1-2.2v-10.8h2.6v10.8c0 .9-.2 1.7-.6 2.5-.4.7-.8 1.3-1.5 1.8-1.1.8-2.5 1.3-4 1.3s-2.9-.5-4-1.3zM221.9 154c-.5 1.6-1.9 2.8-3.7 3.2-.3.1-.7.1-1 .1-.7 0-1.3-.1-1.9-.4-1-.4-1.9-1.1-2.7-2.1l2-1.6c.5.6 1 1.1 1.6 1.3.5.2 1 .2 1.5.1.8-.2 1.5-.7 1.7-1.4s-.3-1.4-.7-1.8c-.7-.7-1.9-1.8-2-1.9l-2-1.9c-.6-.6-1-1.3-1.3-2-.2-.7-.2-1.4 0-2.1.2-.7.6-1.3 1.2-1.8.5-.5 1.2-.8 2-.9.8-.2 1.6-.1 2.4.2.8.3 1.6.9 2.2 1.6l-2 1.6c-.8-1-1.7-1-2.2-.9-.6.1-1.1.5-1.2.9-.1.3-.1.8.6 1.5l2.7 2.6 1.2 1.2c.7.6 1.2 1.4 1.4 2.1.4.9.4 1.7.2 2.4zM227.1 147.6h6v2.3h-6v5.1h7.2v2.3h-9.8V141h9.8v2.3h-7.2v4.3zM248.7 157.3h-2.9l-4.1-5.5h-1.9v5.5h-2.6V141h4.9c2.2 0 3.4.9 4.1 1.6.9.9 1.3 2.3 1.3 3.8s-.5 2.8-1.3 3.8c-.4.4-1 .9-1.9 1.3l4.4 5.8zm-6.6-7.8c1.1 0 1.8-.3 2.4-.9.6-.7.7-1.6.7-2.2 0-.7-.1-1.6-.7-2.2-.5-.6-1.3-.9-2.4-.9h-2.3v6.2h2.3zM259.5 154c-.5 1.6-1.9 2.8-3.7 3.2-.3.1-.7.1-1 .1-.7 0-1.3-.1-1.9-.4-1-.4-1.9-1.1-2.7-2.1l2-1.6c.5.6 1 1.1 1.6 1.3.5.2 1 .2 1.5.1.8-.2 1.5-.7 1.7-1.4s-.3-1.4-.7-1.8c-.7-.7-1.9-1.8-2-1.9l-2-1.9c-.6-.6-1-1.3-1.3-2-.2-.7-.2-1.4 0-2.1.2-.7.6-1.3 1.2-1.8.5-.5 1.2-.8 2-.9.8-.2 1.6-.1 2.4.2s1.6.9 2.2 1.6l-2 1.6c-.8-1-1.7-1-2.2-.9-.6.1-1.1.5-1.2.9-.1.3-.1.8.6 1.5l2.7 2.6 1.2 1.2c.7.6 1.2 1.4 1.4 2.1.4.9.5 1.7.2 2.4zM281.7 151.1v4.4l-.6.4h-.1-.1-.1l-.1.1h-.1-.2-.2s-.1 0-.1.1c0 0-.1 0-.2.1-.9.4-1.9.6-2.9.7h-.4c-.9 0-1.8-.1-2.6-.4-.1 0-.2-.1-.2-.1-.1 0-.2-.1-.3-.1-.3-.1-.6-.2-.8-.4-.7-.4-1.3-.8-1.8-1.4-.7-.7-1.3-1.6-1.8-2.6-.3-.7-.5-1.5-.6-2.4v-.8-.4c.1-.9.3-1.9.6-2.8.4-1 1-1.8 1.8-2.6s1.6-1.3 2.6-1.7 2.1-.6 3.2-.6H277.3c.9.1 1.9.3 2.8.7 0 0 .1 0 .1.1v3c-.3-.3-.7-.5-1.1-.7-.3-.2-.7-.3-1-.4h-.1-.1-.6-.2-.1-.2-.2c-1 0-2 .3-2.9.8 0 0-.1 0-.1.1-.4.2-.7.5-1 .8l-.3.3c-.1.1-.2.3-.3.4 0 .1-.1.1-.1.2v.1c-.3.5-.5 1.1-.7 1.7 0 .2-.1.4-.1.7v.8c0 .4.1.8.2 1.2.3.9.7 1.8 1.4 2.4 1.1 1.1 2.5 1.7 4 1.7H277.5c.2 0 .3-.1.5-.1h.4c.3-.1.6-.2.9-.4v-3h-3.1v-2.3h5.6l-.1 2.4zM295.8 157.3h-2.9l-4.1-5.5h-1.9v5.5h-2.6V141h4.9c2.2 0 3.4.9 4.1 1.6.9.9 1.3 2.3 1.3 3.8s-.5 2.8-1.3 3.8c-.4.4-1 .9-1.9 1.3l4.4 5.8zm-6.6-7.8c1.1 0 1.8-.3 2.4-.9.6-.7.7-1.6.7-2.2 0-.7-.1-1.6-.7-2.2-.5-.6-1.3-.9-2.4-.9h-2.3v6.2h2.3zM301.9 156.7c-1-.4-1.8-1-2.6-1.8s-1.3-1.6-1.8-2.6-.6-2.1-.6-3.2.2-2.2.6-3.2 1-1.8 1.8-2.6c.7-.7 1.6-1.3 2.6-1.7s2.1-.6 3.2-.6 2.2.2 3.2.6c1 .4 1.8 1 2.6 1.7.7.8 1.3 1.6 1.7 2.6.4 1 .6 2.1.6 3.2s-.2 2.2-.6 3.2-1 1.8-1.7 2.6c-.8.7-1.6 1.3-2.6 1.8-1 .4-2.1.6-3.2.6s-2.2-.2-3.2-.6zm-.8-11.5c-1.1 1.1-1.6 2.5-1.6 4s.6 2.9 1.6 4c1.1 1.1 2.5 1.7 4 1.7s2.9-.6 4-1.7 1.7-2.5 1.7-4-.6-2.9-1.7-4-2.5-1.7-4-1.7-2.9.6-4 1.7zM317.8 156c-.6-.5-1.1-1.1-1.5-1.8s-.5-1.6-.5-2.5v-10.8h2.6v10.8c0 1 .4 1.7 1 2.2s1.5.8 2.5.8c.9 0 1.8-.3 2.5-.8s1-1.3 1-2.2v-10.8h2.6v10.8c0 .9-.2 1.7-.6 2.5-.4.7-.8 1.3-1.5 1.8-1.1.8-2.5 1.3-4 1.3-1.6 0-3-.5-4.1-1.3zM333.3 141h2.7c2.2 0 3.4.9 4.1 1.6.9 1 1.3 2.3 1.3 3.8s-.4 2.8-1.3 3.8c-.7.7-1.9 1.6-4.1 1.6h-2.3v5.5h-2.6V141h2.2zm5.8 5.4c0-.6-.1-1.6-.7-2.2-.5-.6-1.3-.9-2.4-.9h-2.3v6.2h2.3c1.1 0 1.8-.3 2.4-.9.6-.6.7-1.6.7-2.2z"/></g></svg>