<?xml version="1.0" encoding="utf-8"?>
<!-- Generator: Adobe Illustrator 19.2.1, SVG Export Plug-In . SVG Version: 6.00 Build 0)  -->
<svg version="1.1" id="Warstwa_1" xmlns="http://www.w3.org/2000/svg" xmlns:xlink="http://www.w3.org/1999/xlink" x="0px" y="0px"
	 width="376.7px" height="165px" viewBox="0 0 376.7 165" style="enable-background:new 0 0 376.7 165;" xml:space="preserve">
<style type="text/css">
	.st0{fill:#6E7433;}
	.st1{fill:#A4B13A;}
	.st2{fill:#CA3427;}
	.st3{fill:#B82825;}
	.st4{fill:#E54325;}
	.st5{fill:#F0583E;}
	.st6{fill:#879039;}
	.st7{fill:#ECEAE9;}
	.st8{fill:#FFFFFF;}
</style>
<g>
	<g>
		<path class="st0" d="M73.5-0.5C72.7,18.2,59.9,34.9,40.9,40c-0.6,0.2-1.2,0.3-1.8,0.4c3,9.6,10,17,18.9,21.1
			c17.1-9.6,26.3-29.9,20.9-49.8C77.7,7.3,75.9,3.2,73.5-0.5z"/>
		<path class="st0" d="M84.9,61.3l4.9-12.2c0.2-0.5,0.7-0.9,1.3-1l19.9-3.5l-9.6,8.2c-0.2,0.2-0.1,0.6,0.1,0.6L111,56l-10.5,3
			c-0.2,0.1-0.2,0.4,0,0.5l6.3,2.3L92.1,66L84.9,61.3z"/>
		<path class="st1" d="M86.9,61.3l11.6-6.2c0.5-0.3,1.2-0.3,1.7,0l17.5,10.1L105,65.4c-0.3,0-0.5,0.3-0.3,0.6l5.6,8.1l-10-4.4
			c-0.2-0.1-0.4,0.1-0.3,0.4l3.4,5.8l-13.9-6.2L86.9,61.3z"/>
		<g>
			<g>
				<g>
					<polygon class="st2" points="52.4,37.5 54.5,37.7 50.6,32.7 					"/>
					<polygon class="st2" points="48.2,37.3 50.6,32.7 46.1,37.1 46.1,37.1 46.1,37.2 					"/>
				</g>
				<polygon class="st3" points="52.4,37.5 50.6,32.7 48.2,37.3 				"/>
			</g>
		</g>
		<g>
			<g>
				<g>
					<polygon class="st2" points="60.6,39.2 62.6,39.7 59.7,34.1 					"/>
					<polygon class="st2" points="56.5,38.2 59.7,34.1 54.5,37.6 54.5,37.6 54.5,37.7 					"/>
				</g>
				<polygon class="st3" points="60.6,39.2 59.7,34.1 56.5,38.2 				"/>
			</g>
		</g>
		<g>
			<g>
				<g>
					<polygon class="st2" points="68.2,42.4 70.2,43.3 68.3,37.2 					"/>
					<polygon class="st2" points="64.5,40.6 68.3,37.2 62.6,39.7 62.6,39.7 62.6,39.7 					"/>
				</g>
				<polygon class="st3" points="68.2,42.4 68.3,37.2 64.5,40.6 				"/>
			</g>
		</g>
		<g>
			<g>
				<g>
					<polygon class="st2" points="75.2,47 76.9,48.2 76.3,41.9 					"/>
					<polygon class="st2" points="71.8,44.5 76.3,41.9 70.1,43.2 70.1,43.2 70.1,43.3 					"/>
				</g>
				<polygon class="st3" points="75.2,47 76.3,41.9 71.8,44.5 				"/>
			</g>
		</g>
		<g>
			<g>
				<g>
					<polygon class="st2" points="81.1,52.8 82.5,54.4 83.1,48.1 					"/>
					<polygon class="st2" points="78.3,49.8 83.1,48.1 76.9,48.2 76.9,48.2 76.9,48.2 					"/>
				</g>
				<polygon class="st3" points="81.1,52.8 83.1,48.1 78.3,49.8 				"/>
			</g>
		</g>
		<g>
			<g>
				<g>
					<polygon class="st2" points="85.8,59.7 86.9,61.5 88.7,55.4 					"/>
					<polygon class="st2" points="83.6,56.1 88.7,55.4 82.5,54.3 82.5,54.3 82.5,54.3 					"/>
				</g>
				<polygon class="st3" points="85.8,59.7 88.7,55.4 83.6,56.1 				"/>
			</g>
		</g>
		<g>
			<g>
				<g>
					<polygon class="st2" points="89.9,92.4 89.5,94.5 95,91.3 					"/>
					<polygon class="st2" points="90.8,88.3 95,91.3 91.3,86.3 91.3,86.3 91.3,86.3 					"/>
				</g>
				<polygon class="st3" points="89.9,92.4 95,91.3 90.8,88.3 				"/>
			</g>
		</g>
		<g>
			<g>
				<g>
					<polygon class="st2" points="87,100.2 86.1,102.1 92.2,100.1 					"/>
					<polygon class="st2" points="88.6,96.4 92.2,100.1 89.5,94.5 89.5,94.4 89.5,94.4 					"/>
				</g>
				<polygon class="st3" points="87,100.2 92.2,100.1 88.6,96.4 				"/>
			</g>
		</g>
		<g>
			<g>
				<g>
					<polygon class="st2" points="82.6,107.3 81.4,109 87.7,108.2 					"/>
					<polygon class="st2" points="85,103.8 87.7,108.2 86.2,102.1 86.2,102.1 86.2,102.1 					"/>
				</g>
				<polygon class="st3" points="82.6,107.3 87.7,108.2 85,103.8 				"/>
			</g>
		</g>
		<ellipse transform="matrix(0.9659 -0.2588 0.2588 0.9659 -19.3666 15.0841)" class="st1" cx="47.6" cy="81.1" rx="44" ry="44"/>
		<path class="st0" d="M70.3,114.7l4.3-7.1l-10.3,8.5l2.6-6.1l-8.6,9.5L46.9,41.9l-20,0.3C9.2,51.6-0.3,72.3,5.1,92.5
			c6.3,23.5,30.4,37.4,53.9,31.1c2.2-0.6,4.3-1.3,6.4-2.2c8.7-3.8,15.7-10.3,20.3-18.2l0.5-1L70.3,114.7z"/>
		<g>
			<g>
				<g>
					<polygon class="st2" points="30.5,85.2 13,89.9 58.3,119.4 					"/>
					<polygon class="st2" points="64.8,76 58.3,119.4 81.9,71.5 82,71.5 82,71.4 					"/>
				</g>
				<polygon class="st4" points="66,56.1 19.1,68.7 13,89.9 30.5,85.2 64.8,76 82,71.4 				"/>
				<polygon class="st3" points="30.5,85.2 58.3,119.4 64.8,76 				"/>
				<polygon class="st5" points="42.8,62.3 19.1,68.7 30.5,85.2 42.8,62.3 64.8,76 66,56.1 				"/>
			</g>
		</g>
		<path class="st1" d="M3.4,48.6l1.1-1.8c0.1-0.2,0.4-0.3,0.7-0.2L7,47.7c0.3,0.2,0.6,0.2,1,0.1l15.8-4.2c0.7-0.2,1.1-0.9,0.9-1.5
			l-1.9-7c-0.1-0.5,0.1-1.1,0.5-1.4l19.3-13l1,7.4c0,0.1,0.2,0.2,0.3,0.1l5-6.9l-2.8,16.1c0,0.2,0,0.4,0,0.5l0,0l2.1,7.9
			c0.2,0.7-0.2,1.4-0.9,1.5L6.8,58.2c-0.7,0.2-1.4-0.2-1.5-0.9l-2.1-7.7C3.1,49.3,3.2,48.9,3.4,48.6z"/>
		<path class="st6" d="M74.8,52.2l0.3-3.3L70.4,49l-0.5-3.7l-4.6,0.9l-1.1-3l-3.3,1.1l-2.8-3.2l-2.6,3L54.2,40l-2.3,2.1l-2.3-1.4
			c-0.2-0.1-0.5,0-0.6,0.2l-1.3,2.2h-0.1l-2.2-1.3c-0.2-0.1-0.5,0-0.6,0.2l-1.5,2.5L41,43.1c-0.2-0.1-0.5,0-0.6,0.2L39,45.6h-0.1
			l-2.3-1.4c-0.2-0.1-0.5,0-0.6,0.2l-1.4,2.3h-0.1l-2.2-1.2c-0.2-0.1-0.5,0-0.6,0.2L30.4,48L28,46.6c-0.2-0.1-0.5,0-0.6,0.2
			l-1.3,2.3l-2.3-1.3c-0.2-0.1-0.5,0-0.6,0.2l-1.3,2.3L19.6,49c-0.2-0.1-0.5,0-0.6,0.2l-1.3,2.3l-2.3-1.3c-0.2-0.1-0.5,0-0.6,0.2
			l-1.5,2.1L11,51.2c-0.2-0.1-0.5,0-0.6,0.2l-1.3,2.3l-2.3-1.3c-0.2-0.1-0.5,0-0.6,0.2l-1.4,2.3H4.6l0.6,2.3c0.2,0.8,1,1.2,1.7,1
			L45.1,48l2,7.5l-36.4,9.7c-0.6,0.1-0.9,0.7-0.7,1.3l1.6,5.9l0,0l0,0l2.3,1.3c0.2,0.1,0.5,0.1,0.7-0.2l1.3-2.3l2.3,1.3
			c0.2,0.1,0.5,0.1,0.7-0.2l1.3-2.3l2.3,1.3c0.2,0.1,0.5,0.1,0.7-0.2l1.3-2.3l2.3,1.3c0.2,0.1,0.5,0.1,0.7-0.2l1.3-2.3l2.3,1.3
			c0.2,0.1,0.5,0.1,0.7-0.2l1.3-2.3l2.3,1.3c0.2,0.1,0.5,0.1,0.7-0.2l1.3-2.3l2.3,1.3c0.2,0.1,0.5,0.1,0.7-0.2l1.3-2.3l0,0h0.1l0,0
			l2.3,1.3c0.2,0.1,0.5,0.1,0.7-0.2l1.3-2.3l0,0l0,0l0,0l8.8,4.3l-3.3-5.6L62,62.6l-5.2-4.3l5.7-0.8L54,54.9l0.1-6.8l1.4,1.8
			l1.9-3.8l1.2,3.6l3.7-2.8l1.1,2.9l4.7-1.3l0.1,2.5l4.4,0.4l1.2,3.4l4.7-1.6L74.8,52.2z"/>
		<path class="st7" d="M45,48L45,48l-30.2,8.1l0.4,1.7l0,0l0,0l2.3,1.3c0.2,0.1,0.5,0.1,0.7-0.2l1.3-2.3l2.3,1.3
			c0.2,0.1,0.5,0.1,0.7-0.2l1.3-2.3l2.3,1.3c0.2,0.1,0.5,0.1,0.7-0.2l1.3-2.3l0,0h0.1l0,0l2.3,1.3c0.2,0.1,0.5,0.1,0.7-0.2l1.3-2.3
			l0,0h0.1l0,0l2.3,1.3c0.2,0.1,0.5,0.1,0.7-0.2l1.3-2.3l2.3,1.3c0.2,0.1,0.5,0.1,0.7-0.2l1.3-2.3l2.3,1.3c0.2,0.1,0.5,0.1,0.7-0.2
			l1.1-1.8c0.6,0.3,1,0.8,1.2,1.5c0.3,1.3-0.4,2.5-1.7,2.9c-0.3,0.1-0.5,0.1-0.8,0.1l-1.7-1c-0.2-0.1-0.5-0.1-0.7,0.2l-1.3,2.3
			L38,54.6c-0.2-0.1-0.5-0.1-0.7,0.2L36,57.1l-2.3-1.3c-0.2-0.1-0.5-0.1-0.7,0.2l-1.3,2.3l0,0h-0.1l0,0L29.3,57
			c-0.2-0.1-0.5-0.1-0.7,0.2l-1.3,2.3l0,0h-0.1l0,0l-2.3-1.3c-0.2-0.1-0.5-0.1-0.7,0.2l-1.3,2.3l-2.3-1.3c-0.2-0.1-0.5-0.1-0.7,0.2
			l-1.3,2.3l-2.2-1.4c-0.2-0.1-0.5-0.1-0.7,0.2L14.4,63l0,0l0,0l0.3,1.2l30.2-8.1l2.1-0.6c2.1-0.6,3.3-2.7,2.7-4.8
			C49.2,48.7,47.1,47.4,45,48z M19.6,56.6L19.6,56.6L19.6,56.6L19.6,56.6z M23.8,55.4L23.8,55.4L23.8,55.4L23.8,55.4z M36.8,51.9
			L36.8,51.9L36.8,51.9L36.8,51.9z M41.1,50.8L41.1,50.8L41.1,50.8L41.1,50.8z M18.7,61.9L18.7,61.9L18.7,61.9L18.7,61.9z
			 M22.9,60.7L22.9,60.7L22.9,60.7L22.9,60.7z M35.9,57.2L35.9,57.2L35.9,57.2L35.9,57.2z M40.2,56.1L40.2,56.1L40.2,56.1L40.2,56.1
			z"/>
		<polygon class="st0" points="25.7,98.4 24.1,94.4 58.3,119.4 		"/>
		<polygon class="st1" points="82.3,71.3 64.8,76 62.2,82.2 65.3,85.7 63.9,81.7 65,80 65,81.4 67.8,85 66.7,81 67.2,79.4 
			67.7,80.7 70.1,82.2 68.7,80.4 68.7,79 83.8,74.9 		"/>
		<polygon class="st1" points="79.9,75.8 69.4,89.8 74.1,87.5 68.3,94.3 71.9,92.5 66.9,99.5 70.7,97.7 		"/>
		<path class="st8" d="M28.9,37.7l5.2-4c0,0,0.6,3.2-1,4.4C31.5,39.4,28.9,37.7,28.9,37.7z"/>
	</g>
	<g>
		<path class="st0" d="M164.1,119.4L136,87.3v32.1h-11V48.5h11v29.2l22.8-29.2h14l-26,34.1l31.2,36.8
			C178,119.4,164.1,119.4,164.1,119.4z"/>
		<path class="st0" d="M237,119.4h-12.5l-17.9-24h-8.1v24h-11.1V48.5h9.4h11.7c9.4,0,14.8,3.8,17.7,7.1c3.7,4.1,5.7,9.8,5.7,16.4
			c0,6.5-2,12.2-5.7,16.3c-1.7,1.9-4.4,4.1-8.2,5.4L237,119.4z M208.4,85.5c4.6,0,8-1.3,10.2-3.8c2.7-2.9,3.2-6.9,3.2-9.7
			c0-2.9-0.5-6.9-3.2-9.7c-2.2-2.5-5.6-3.7-10.2-3.7h-9.9v26.9H208.4z"/>
		<path class="st0" d="M252.2,113.8c-2.8-2.1-4.9-4.7-6.3-7.6c-1.6-3.2-2.4-6.9-2.4-10.8V48.5h11.1v46.8c0,4.2,1.5,7.5,4.4,9.7
			c2.7,2.1,6.6,3.3,10.8,3.3c4.1,0,8-1.2,10.8-3.3c2.9-2.2,4.3-5.4,4.3-9.7V48.5H296v46.8c0,3.9-0.9,7.5-2.4,10.8
			c-1.5,3-3.6,5.5-6.3,7.6c-4.7,3.6-10.9,5.6-17.6,5.6S256.8,117.4,252.2,113.8z"/>
		<path class="st0" d="M364.9,92.7v19.2l-2.5,1.7c-0.1,0-0.1,0-0.2,0.1s-0.3,0.2-0.4,0.2c-0.1,0.1-0.2,0.2-0.3,0.2
			c-0.1,0.1-0.2,0.2-0.4,0.2c-0.1,0.1-0.2,0.2-0.4,0.3c-0.1,0.1-0.2,0.1-0.3,0.2c-0.1,0.1-0.2,0.1-0.3,0.2c-0.2,0.1-0.3,0.1-0.5,0.2
			c-0.1,0.1-0.2,0.1-0.3,0.2s-0.3,0.2-0.5,0.2c-0.1,0.1-0.1,0.1-0.2,0.2c-0.1,0-0.1,0-0.2,0c-0.1,0.1-0.3,0.2-0.5,0.3
			s-0.5,0.2-0.7,0.3c0,0,0,0-0.1,0.1c-4,1.8-8.2,2.8-12.7,3.1c0,0,0,0-0.1,0c-0.2,0-0.5,0-0.8,0h-0.1c-0.3,0-0.6,0-0.9,0
			c-3.8,0-7.6-0.6-11.2-1.8c-0.1,0-0.1,0-0.1,0c-0.4-0.1-0.7-0.3-1.1-0.4c-0.5-0.2-1-0.4-1.4-0.6c-1.2-0.5-2.4-1.1-3.4-1.7
			c-2.9-1.5-5.5-3.5-7.8-5.9c-3.2-3.2-5.8-7-7.6-11.3c-1.3-3.2-2.3-6.7-2.6-10.2c-0.1-1.1-0.2-2.4-0.2-3.5c0-0.6,0-1.2,0-1.8
			c0.3-4.1,1.1-8.2,2.8-12c1.8-4.2,4.4-8,7.6-11.3c3.2-3.2,7-5.8,11.3-7.5c4.3-1.9,9-2.8,13.8-2.8c0.3,0,0.6,0,0.9,0h0.1
			c0.3,0,0.6,0,0.8,0c0.1,0,0.1,0,0.1,0c0.3,0,0.6,0,0.9,0.1c4.1,0.3,8.1,1.2,11.9,3c0,0,0,0.1,0.1,0.1c0.2,0.1,0.4,0.2,0.6,0.3
			c0.1,0,0.1,0,0.1,0v13.1c-1.4-1.2-3.1-2.2-4.8-3.1c-1.4-0.7-3-1.2-4.4-1.6c-0.1,0-0.2,0-0.3-0.1c-0.1,0-0.2,0-0.3,0
			c-0.1-0.1-0.2-0.1-0.4-0.1c0,0-0.1,0-0.2-0.1c-0.4-0.1-0.9-0.1-1.2-0.2c-0.1,0-0.1,0-0.2,0s-0.3-0.1-0.4-0.1s-0.1,0-0.2,0
			s-0.3,0-0.4-0.1c-0.1,0-0.2,0-0.3,0c-0.2,0-0.4,0-0.6,0c-0.1,0-0.2-0.1-0.3-0.1c-0.1,0-0.2,0-0.3,0c-0.1,0-0.3,0-0.4,0
			s-0.2,0-0.2,0c-0.2,0-0.5,0-0.7,0c-4.5,0-8.8,1.1-12.5,3.4c-0.1,0.1-0.3,0.2-0.5,0.3c-1.5,1-3,2.1-4.2,3.4
			c-0.4,0.4-0.9,0.8-1.2,1.2c0,0,0,0.1-0.1,0.1c-0.5,0.6-0.9,1.1-1.2,1.7c-0.1,0.1-0.2,0.2-0.2,0.2c-0.2,0.3-0.4,0.6-0.6,0.9
			c-0.1,0.1-0.2,0.3-0.2,0.4c-1.4,2.3-2.4,4.7-3,7.3c-0.1,0.1-0.1,0.1-0.1,0.2c-0.2,1-0.4,1.9-0.5,2.9c0,0.4,0,0.8,0,1.1
			c-0.1,0.5-0.1,0.9-0.1,1.3s0,0.8,0.1,1.2c0.1,1.8,0.4,3.6,0.9,5.4c1.1,4,3.2,7.6,6.2,10.6c4.6,4.6,10.7,7.2,17.2,7.2
			c0.2,0,0.5,0,0.7,0c0.1,0,0.2,0,0.3-0.1c0.1,0,0.3,0,0.4,0s0.2,0,0.3,0s0.2,0,0.3,0c0.2,0,0.3,0,0.5,0c0-0.1,0.1-0.1,0.2-0.1
			s0.3,0,0.4,0s0.1,0,0.2,0c0.7-0.1,1.4-0.3,2.1-0.4c0.1,0,0.1,0,0.2-0.1c0.1,0,0.3,0,0.4-0.1c0.1,0,0.2,0,0.3,0
			c0.1-0.1,0.2-0.1,0.3-0.1c0.1-0.1,0.3-0.1,0.4-0.1s0.2-0.1,0.2-0.1c1.3-0.4,2.7-0.9,3.9-1.5c0,0,0,0,0.1,0V92.7h-13.4v-10h24.5v10
			H364.9z"/>
	</g>
</g>
<g>
	<g>
		<path class="st0" d="M42.7,157.3l-6.5-7.4v7.4h-2.6V141h2.6v6.7l5.2-6.7h3.2l-6,7.9l7.2,8.5L42.7,157.3L42.7,157.3z"/>
		<path class="st0" d="M59.4,157.3h-2.9l-4.1-5.5h-1.9v5.5H48V141h2.2h2.7c2.2,0,3.4,0.9,4.1,1.6c0.9,0.9,1.3,2.3,1.3,3.8
			s-0.5,2.8-1.3,3.8c-0.4,0.4-1,0.9-1.9,1.3L59.4,157.3z M52.9,149.5c1.1,0,1.8-0.3,2.4-0.9c0.6-0.7,0.7-1.6,0.7-2.2
			c0-0.7-0.1-1.6-0.7-2.2c-0.5-0.6-1.3-0.9-2.4-0.9h-2.3v6.2L52.9,149.5L52.9,149.5z"/>
		<path class="st0" d="M70.6,153.8h-5.8l-1.4,3.5h-2.8l7.1-17.1l7.1,17.1H72L70.6,153.8z M69.7,151.5l-2-5l-2,5H69.7z"/>
		<path class="st0" d="M86.1,157.3l-6.5-7.4v7.4H77V141h2.6v6.7l5.2-6.7H88l-6,7.9l7.2,8.5L86.1,157.3L86.1,157.3z"/>
		<path class="st0" d="M93.9,156.7c-1-0.4-1.8-1-2.6-1.8s-1.3-1.6-1.8-2.6s-0.6-2.1-0.6-3.2c0-1.1,0.2-2.2,0.6-3.2s1-1.8,1.8-2.6
			c0.7-0.7,1.6-1.3,2.6-1.7s2.1-0.6,3.2-0.6s2.2,0.2,3.2,0.6c1,0.4,1.8,1,2.6,1.7c0.7,0.8,1.3,1.6,1.7,2.6c0.4,1,0.6,2.1,0.6,3.2
			c0,1.1-0.2,2.2-0.6,3.2s-1,1.8-1.7,2.6c-0.8,0.7-1.6,1.3-2.6,1.8c-1,0.4-2.1,0.6-3.2,0.6S94.9,157.1,93.9,156.7z M93.1,145.2
			c-1.1,1.1-1.6,2.5-1.6,4s0.6,2.9,1.6,4c1.1,1.1,2.5,1.7,4,1.7s2.9-0.6,4-1.7c1.1-1.1,1.6-2.5,1.6-4s-0.6-2.9-1.6-4
			c-1.1-1.1-2.5-1.7-4-1.7S94.2,144.1,93.1,145.2z"/>
		<path class="st0" d="M121.3,158l-4.3-9.8l-4,9.8l-7.5-17.1h2.8l4.6,10.8l2.7-6.8l1.3-3.4l1.4,3.3l2.9,6.8l4.3-10.8h2.8L121.3,158z
			"/>
		<path class="st0" d="M148.9,157.3H146l-4.1-5.5H140v5.5h-2.6V141h2.2h2.7c2.2,0,3.4,0.9,4.1,1.6c0.9,0.9,1.3,2.3,1.3,3.8
			s-0.5,2.8-1.3,3.8c-0.4,0.4-1,0.9-1.9,1.3L148.9,157.3z M142.3,149.5c1.1,0,1.8-0.3,2.4-0.9c0.6-0.7,0.7-1.6,0.7-2.2
			c0-0.7-0.1-1.6-0.7-2.2c-0.5-0.6-1.3-0.9-2.4-0.9H140v6.2L142.3,149.5L142.3,149.5z"/>
		<path class="st0" d="M152.4,156c-0.6-0.5-1.1-1.1-1.5-1.8s-0.6-1.6-0.6-2.5v-10.8h2.6v10.8c0,1,0.4,1.7,1,2.2s1.5,0.8,2.5,0.8
			c0.9,0,1.8-0.3,2.5-0.8s1-1.3,1-2.2v-10.8h2.6v10.8c0,0.9-0.2,1.7-0.6,2.5c-0.4,0.7-0.8,1.3-1.5,1.8c-1.1,0.8-2.5,1.3-4,1.3
			S153.5,156.8,152.4,156z"/>
		<path class="st0" d="M175.9,152.5c0,0.8-0.2,1.5-0.5,2.2c-0.4,0.6-0.9,1.1-1.5,1.6c-1.1,0.7-2.6,1.1-4.5,1.1h-1.5h-2.2v-16.3h2.6
			h1.1c1.8,0,3.1,0.3,4,1c0.5,0.4,0.9,0.9,1.1,1.4c0.2,0.5,0.3,1.1,0.3,1.7c0,0.9-0.3,2-1.3,3c0.3,0.2,0.5,0.4,0.7,0.6
			c0.5,0.5,0.9,1,1.1,1.6C175.8,151,175.9,151.7,175.9,152.5z M168.3,143.3v5c0.5-0.1,1.1-0.3,1.7-0.5c0.8-0.3,1.5-0.7,1.9-1.1
			c0.5-0.4,0.7-0.9,0.7-1.4c0-0.8-0.3-1.1-0.5-1.3c-0.6-0.5-1.8-0.6-2.7-0.6L168.3,143.3L168.3,143.3z M173.6,152.5
			c0-0.9-0.3-1.5-0.9-2.1c-0.3-0.3-0.7-0.6-1.3-0.8c-0.2,0.1-0.4,0.2-0.7,0.3c-0.9,0.4-1.8,0.6-2.5,0.7v4.4h1.1
			c1.4,0,2.5-0.2,3.2-0.7C173.3,153.9,173.6,153.3,173.6,152.5z"/>
		<path class="st0" d="M184,148.8v8.5h-2.6v-8.5l-5.7-7.8h3l4,5.6l4-5.6h2.9L184,148.8z"/>
		<path class="st0" d="M200.4,156c-0.6-0.5-1.1-1.1-1.5-1.8s-0.6-1.6-0.6-2.5v-10.8h2.6v10.8c0,1,0.4,1.7,1,2.2s1.5,0.8,2.5,0.8
			c0.9,0,1.8-0.3,2.5-0.8s1-1.3,1-2.2v-10.8h2.6v10.8c0,0.9-0.2,1.7-0.6,2.5c-0.4,0.7-0.8,1.3-1.5,1.8c-1.1,0.8-2.5,1.3-4,1.3
			S201.5,156.8,200.4,156z"/>
		<path class="st0" d="M221.9,154c-0.5,1.6-1.9,2.8-3.7,3.2c-0.3,0.1-0.7,0.1-1,0.1c-0.7,0-1.3-0.1-1.9-0.4c-1-0.4-1.9-1.1-2.7-2.1
			l2-1.6c0.5,0.6,1,1.1,1.6,1.3c0.5,0.2,1,0.2,1.5,0.1c0.8-0.2,1.5-0.7,1.7-1.4s-0.3-1.4-0.7-1.8c-0.7-0.7-1.9-1.8-2-1.9l-2-1.9
			c-0.6-0.6-1-1.3-1.3-2c-0.2-0.7-0.2-1.4,0-2.1c0.2-0.7,0.6-1.3,1.2-1.8c0.5-0.5,1.2-0.8,2-0.9c0.8-0.2,1.6-0.1,2.4,0.2
			c0.8,0.3,1.6,0.9,2.2,1.6l-2,1.6c-0.8-1-1.7-1-2.2-0.9c-0.6,0.1-1.1,0.5-1.2,0.9c-0.1,0.3-0.1,0.8,0.6,1.5l2.7,2.6
			c0.4,0.4,0.9,0.9,1.2,1.2c0.7,0.6,1.2,1.4,1.4,2.1C222.1,152.5,222.1,153.3,221.9,154z"/>
		<path class="st0" d="M227.1,147.6h6v2.3h-6v5.1h7.2v2.3H227h-2.5V141h2.5h7.3v2.3h-7.2V147.6z"/>
		<path class="st0" d="M248.7,157.3h-2.9l-4.1-5.5h-1.9v5.5h-2.6V141h2.2h2.7c2.2,0,3.4,0.9,4.1,1.6c0.9,0.9,1.3,2.3,1.3,3.8
			s-0.5,2.8-1.3,3.8c-0.4,0.4-1,0.9-1.9,1.3L248.7,157.3z M242.1,149.5c1.1,0,1.8-0.3,2.4-0.9c0.6-0.7,0.7-1.6,0.7-2.2
			c0-0.7-0.1-1.6-0.7-2.2c-0.5-0.6-1.3-0.9-2.4-0.9h-2.3v6.2L242.1,149.5L242.1,149.5z"/>
		<path class="st0" d="M259.5,154c-0.5,1.6-1.9,2.8-3.7,3.2c-0.3,0.1-0.7,0.1-1,0.1c-0.7,0-1.3-0.1-1.9-0.4c-1-0.4-1.9-1.1-2.7-2.1
			l2-1.6c0.5,0.6,1,1.1,1.6,1.3c0.5,0.2,1,0.2,1.5,0.1c0.8-0.2,1.5-0.7,1.7-1.4s-0.3-1.4-0.7-1.8c-0.7-0.7-1.9-1.8-2-1.9l-2-1.9
			c-0.6-0.6-1-1.3-1.3-2c-0.2-0.7-0.2-1.4,0-2.1c0.2-0.7,0.6-1.3,1.2-1.8c0.5-0.5,1.2-0.8,2-0.9c0.8-0.2,1.6-0.1,2.4,0.2
			s1.6,0.9,2.2,1.6l-2,1.6c-0.8-1-1.7-1-2.2-0.9c-0.6,0.1-1.1,0.5-1.2,0.9c-0.1,0.3-0.1,0.8,0.6,1.5l2.7,2.6
			c0.4,0.4,0.9,0.9,1.2,1.2c0.7,0.6,1.2,1.4,1.4,2.1C259.7,152.5,259.8,153.3,259.5,154z"/>
		<path class="st0" d="M281.7,151.1v4.4l-0.6,0.4l0,0H281c0,0,0,0-0.1,0c0,0,0,0-0.1,0c0,0,0,0-0.1,0.1c0,0,0,0-0.1,0c0,0,0,0-0.1,0
			h-0.1c0,0,0,0-0.1,0h-0.1l0,0l0,0c0,0-0.1,0-0.1,0.1c0,0-0.1,0-0.2,0.1l0,0c-0.9,0.4-1.9,0.6-2.9,0.7l0,0c0,0-0.1,0-0.2,0l0,0
			c-0.1,0-0.1,0-0.2,0c-0.9,0-1.8-0.1-2.6-0.4l0,0c-0.1,0-0.2-0.1-0.2-0.1c-0.1,0-0.2-0.1-0.3-0.1c-0.3-0.1-0.6-0.2-0.8-0.4
			c-0.7-0.4-1.3-0.8-1.8-1.4c-0.7-0.7-1.3-1.6-1.8-2.6c-0.3-0.7-0.5-1.5-0.6-2.4c0-0.3,0-0.5,0-0.8c0-0.1,0-0.3,0-0.4
			c0.1-0.9,0.3-1.9,0.6-2.8c0.4-1,1-1.8,1.8-2.6s1.6-1.3,2.6-1.7s2.1-0.6,3.2-0.6c0.1,0,0.1,0,0.2,0l0,0c0.1,0,0.1,0,0.2,0l0,0
			c0.1,0,0.1,0,0.2,0c0.9,0.1,1.9,0.3,2.8,0.7l0,0c0,0,0.1,0,0.1,0.1l0,0v3c-0.3-0.3-0.7-0.5-1.1-0.7c-0.3-0.2-0.7-0.3-1-0.4
			c0,0,0,0-0.1,0c0,0,0,0-0.1,0c0,0,0,0-0.1,0l0,0c-0.1,0-0.2,0-0.3,0l0,0h-0.1l0,0h-0.1c0,0,0,0-0.1,0h-0.1c0,0,0,0-0.1,0
			c0,0,0,0-0.1,0s-0.1,0-0.1,0l0,0c0,0-0.1,0-0.2,0c-1,0-2,0.3-2.9,0.8c0,0-0.1,0-0.1,0.1c-0.4,0.2-0.7,0.5-1,0.8
			c-0.1,0.1-0.2,0.2-0.3,0.3l0,0c-0.1,0.1-0.2,0.3-0.3,0.4l0,0c0,0.1-0.1,0.1-0.1,0.2v0.1c-0.3,0.5-0.5,1.1-0.7,1.7l0,0
			c0,0.2-0.1,0.4-0.1,0.7c0,0.1,0,0.2,0,0.2c0,0.1,0,0.2,0,0.3s0,0.2,0,0.3c0,0.4,0.1,0.8,0.2,1.2c0.3,0.9,0.7,1.8,1.4,2.4
			c1.1,1.1,2.5,1.7,4,1.7c0,0,0.1,0,0.2,0c0,0,0,0,0.1,0h0.1c0,0,0,0,0.1,0s0,0,0.1,0h0.1l0,0h0.1l0,0c0.2,0,0.3-0.1,0.5-0.1l0,0
			h0.1c0,0,0,0,0.1,0c0,0,0,0,0.1,0h0.1l0,0c0.3-0.1,0.6-0.2,0.9-0.4l0,0v-3h-3.1v-2.3h5.6L281.7,151.1L281.7,151.1z"/>
		<path class="st0" d="M295.8,157.3h-2.9l-4.1-5.5h-1.9v5.5h-2.6V141h2.2h2.7c2.2,0,3.4,0.9,4.1,1.6c0.9,0.9,1.3,2.3,1.3,3.8
			s-0.5,2.8-1.3,3.8c-0.4,0.4-1,0.9-1.9,1.3L295.8,157.3z M289.2,149.5c1.1,0,1.8-0.3,2.4-0.9c0.6-0.7,0.7-1.6,0.7-2.2
			c0-0.7-0.1-1.6-0.7-2.2c-0.5-0.6-1.3-0.9-2.4-0.9h-2.3v6.2L289.2,149.5L289.2,149.5z"/>
		<path class="st0" d="M301.9,156.7c-1-0.4-1.8-1-2.6-1.8s-1.3-1.6-1.8-2.6s-0.6-2.1-0.6-3.2c0-1.1,0.2-2.2,0.6-3.2s1-1.8,1.8-2.6
			c0.7-0.7,1.6-1.3,2.6-1.7s2.1-0.6,3.2-0.6s2.2,0.2,3.2,0.6c1,0.4,1.8,1,2.6,1.7c0.7,0.8,1.3,1.6,1.7,2.6c0.4,1,0.6,2.1,0.6,3.2
			c0,1.1-0.2,2.2-0.6,3.2s-1,1.8-1.7,2.6c-0.8,0.7-1.6,1.3-2.6,1.8c-1,0.4-2.1,0.6-3.2,0.6S302.9,157.1,301.9,156.7z M301.1,145.2
			c-1.1,1.1-1.6,2.5-1.6,4s0.6,2.9,1.6,4c1.1,1.1,2.5,1.7,4,1.7s2.9-0.6,4-1.7c1.1-1.1,1.7-2.5,1.7-4s-0.6-2.9-1.7-4s-2.5-1.7-4-1.7
			S302.2,144.1,301.1,145.2z"/>
		<path class="st0" d="M317.8,156c-0.6-0.5-1.1-1.1-1.5-1.8s-0.5-1.6-0.5-2.5v-10.8h2.6v10.8c0,1,0.4,1.7,1,2.2s1.5,0.8,2.5,0.8
			c0.9,0,1.8-0.3,2.5-0.8s1-1.3,1-2.2v-10.8h2.6v10.8c0,0.9-0.2,1.7-0.6,2.5c-0.4,0.7-0.8,1.3-1.5,1.8c-1.1,0.8-2.5,1.3-4,1.3
			C320.3,157.3,318.9,156.8,317.8,156z"/>
		<path class="st0" d="M333.3,141h2.7c2.2,0,3.4,0.9,4.1,1.6c0.9,1,1.3,2.3,1.3,3.8s-0.4,2.8-1.3,3.8c-0.7,0.7-1.9,1.6-4.1,1.6h-2.3
			v5.5h-2.6V141L333.3,141L333.3,141z M339.1,146.4c0-0.6-0.1-1.6-0.7-2.2c-0.5-0.6-1.3-0.9-2.4-0.9h-2.3v6.2h2.3
			c1.1,0,1.8-0.3,2.4-0.9C339,148,339.1,147,339.1,146.4z"/>
	</g>
</g>
</svg>
